solid MATLAB_2
facet normal 0 0 1
  outer loop
   vertex -0.0512703247 -0.0307631474 0
   vertex -0.0683228895 -0.0182170141 0
   vertex -0.0683228895 -0.0546510406 0
  endloop
 endfacet
facet normal 0 -0 1
  outer loop
   vertex -0.0448676012 -0.00333291059 0
   vertex -0.0401041098 0.00174991356 0
   vertex -0.0521494821 0.00392777985 0
  endloop
 endfacet
facet normal 0 0 1
  outer loop
   vertex -0.0227742959 0.0546510406 0
   vertex -0.0683228895 0.0546510406 0
   vertex -0.0387811698 0.0167360958 0
  endloop
 endfacet
facet normal 0 0 1
  outer loop
   vertex -0.0512703247 -0.0307631474 0
   vertex -0.0533316247 -0.010838679 0
   vertex -0.0683228895 -0.0182170141 0
  endloop
 endfacet
facet normal 0 0 1
  outer loop
   vertex -0.0533316247 -0.010838679 0
   vertex -0.0683228895 0 0
   vertex -0.0683228895 -0.0182170141 0
  endloop
 endfacet
facet normal -0 0 1
  outer loop
   vertex -0.0387811698 0.0167360958 0
   vertex -0.00574194361 0.000301200984 0
   vertex -0.0227742959 0.0546510406 0
  endloop
 endfacet
facet normal 0 0 1
  outer loop
   vertex -0.0387811698 0.0167360958 0
   vertex -0.0339125209 0.00103486446 0
   vertex -0.00574194361 0.000301200984 0
  endloop
 endfacet
facet normal 0 0 1
  outer loop
   vertex -0.0362717547 -0.012552212 0
   vertex -0.00574194361 0.000301200984 0
   vertex -0.0339125209 0.00103486446 0
  endloop
 endfacet
facet normal -0 0 1
  outer loop
   vertex -0.0362717547 -0.012552212 0
   vertex -0.0227742959 -0.0546510406 0
   vertex -0.00574194361 0.000301200984 0
  endloop
 endfacet
facet normal 0 0 1
  outer loop
   vertex -0.0521494821 0.00392777985 0
   vertex -0.0683228895 0.0182170141 0
   vertex -0.0683228895 0 0
  endloop
 endfacet
facet normal 0 0 1
  outer loop
   vertex -0.0512703247 -0.0307631474 0
   vertex -0.0683228895 -0.0546510406 0
   vertex -0.0227742959 -0.0546510406 0
  endloop
 endfacet
facet normal 0 0 1
  outer loop
   vertex -0.0521494821 0.00392777985 0
   vertex -0.0683228895 0 0
   vertex -0.0533316247 -0.010838679 0
  endloop
 endfacet
facet normal 0 0 1
  outer loop
   vertex -0.00574194361 0.000301200984 0
   vertex -0.0227742959 -0.0546510406 0
   vertex 0.0227742959 -0.0546510406 0
  endloop
 endfacet
facet normal -0 0 1
  outer loop
   vertex 0.0227742959 0.0546510406 0
   vertex 0.0683228895 0.0182170141 0
   vertex 0.0683228895 0.0546510406 0
  endloop
 endfacet
facet normal 0 0 1
  outer loop
   vertex -0.0521494821 0.00392777985 0
   vertex -0.0533316247 -0.010838679 0
   vertex -0.0448676012 -0.00333291059 0
  endloop
 endfacet
facet normal 0 0 1
  outer loop
   vertex -0.0683228895 0.0182170141 0
   vertex -0.0521494821 0.00392777985 0
   vertex -0.0387811698 0.0167360958 0
  endloop
 endfacet
facet normal 0 0 1
  outer loop
   vertex -0.0683228895 0.0546510406 0
   vertex -0.0683228895 0.0182170141 0
   vertex -0.0387811698 0.0167360958 0
  endloop
 endfacet
facet normal 0 0 1
  outer loop
   vertex -0.00574194361 0.000301200984 0
   vertex 0.0227742959 -0.0546510406 0
   vertex 0.0683228895 -0.0182170141 0
  endloop
 endfacet
facet normal 0 0 1
  outer loop
   vertex -0.0362717547 -0.012552212 0
   vertex -0.0401041098 -0.00174991356 0
   vertex -0.0448676012 -0.00333291059 0
  endloop
 endfacet
facet normal 0 0 1
  outer loop
   vertex -0.0362717547 -0.012552212 0
   vertex -0.0448676012 -0.00333291059 0
   vertex -0.0533316247 -0.010838679 0
  endloop
 endfacet
facet normal 0 0 1
  outer loop
   vertex -0.0448676012 -0.00333291059 0
   vertex -0.0401041098 -0.00174991356 0
   vertex -0.0401041098 0.00174991356 0
  endloop
 endfacet
facet normal -0 0 1
  outer loop
   vertex -0.00574194361 0.000301200984 0
   vertex 0.0683228895 -0.0182170141 0
   vertex 0.0683228895 0.0182170141 0
  endloop
 endfacet
facet normal -0 0 1
  outer loop
   vertex -0.0512703247 -0.0307631474 0
   vertex -0.0227742959 -0.0546510406 0
   vertex -0.0362717547 -0.012552212 0
  endloop
 endfacet
facet normal 0 -0 1
  outer loop
   vertex -0.0512703247 -0.0307631474 0
   vertex -0.0362717547 -0.012552212 0
   vertex -0.0533316247 -0.010838679 0
  endloop
 endfacet
facet normal 0 0 1
  outer loop
   vertex -0.0339125209 0.00103486446 0
   vertex -0.0401041098 0.00174991356 0
   vertex -0.0401041098 -0.00174991356 0
  endloop
 endfacet
facet normal 0 0 1
  outer loop
   vertex 0.0683228895 -0.0182170141 0
   vertex 0.0227742959 -0.0546510406 0
   vertex 0.0683228895 -0.0546510406 0
  endloop
 endfacet
facet normal 0 0 1
  outer loop
   vertex -0.0387811698 0.0167360958 0
   vertex -0.0401041098 0.00174991356 0
   vertex -0.0339125209 0.00103486446 0
  endloop
 endfacet
facet normal 0 0 1
  outer loop
   vertex -0.00574194361 0.000301200984 0
   vertex 0.0683228895 0.0182170141 0
   vertex 0.0227742959 0.0546510406 0
  endloop
 endfacet
facet normal 0 -0 1
  outer loop
   vertex -0.00574194361 0.000301200984 0
   vertex 0.0227742959 0.0546510406 0
   vertex -0.0227742959 0.0546510406 0
  endloop
 endfacet
facet normal 0 0 1
  outer loop
   vertex -0.0387811698 0.0167360958 0
   vertex -0.0521494821 0.00392777985 0
   vertex -0.0401041098 0.00174991356 0
  endloop
 endfacet
facet normal 0 -0 1
  outer loop
   vertex -0.0362717547 -0.012552212 0
   vertex -0.0339125209 0.00103486446 0
   vertex -0.0401041098 -0.00174991356 0
  endloop
 endfacet
facet normal 1 0 -0
  outer loop
   vertex -0.0683228895 -1.12485975e-18 0.0221193582
   vertex -0.0683228895 0 0.054643672
   vertex -0.0683228895 -0.0182170141 0.054643672
  endloop
 endfacet
facet normal 1 0 -0
  outer loop
   vertex -0.0683228895 0.0546510406 0.027321836
   vertex -0.0683228895 0.0546510406 0.054643672
   vertex -0.0683228895 -1.12485975e-18 0.0221193582
  endloop
 endfacet
facet normal 1 -0 0
  outer loop
   vertex -0.0683228895 -0.0546510406 0.027321836
   vertex -0.0683228895 -1.12485975e-18 0.0221193582
   vertex -0.0683228895 -0.0546510406 0.054643672
  endloop
 endfacet
facet normal 1 0 0
  outer loop
   vertex -0.0683228895 -1.12485975e-18 0.0221193582
   vertex -0.0683228895 -0.0546510406 0.027321836
   vertex -0.0683228895 -0.0182170141 0
  endloop
 endfacet
facet normal 1 0 0
  outer loop
   vertex -0.0683228895 -1.12485975e-18 0.0221193582
   vertex -0.0683228895 0 0
   vertex -0.0683228895 0.0182170141 0
  endloop
 endfacet
facet normal 1 0 0
  outer loop
   vertex -0.0683228895 -1.12485975e-18 0.0221193582
   vertex -0.0683228895 0.0182170141 0.054643672
   vertex -0.0683228895 0 0.054643672
  endloop
 endfacet
facet normal 1 -0 0
  outer loop
   vertex -0.0683228895 -1.12485975e-18 0.0221193582
   vertex -0.0683228895 0.0182170141 0
   vertex -0.0683228895 0.0546510406 0.027321836
  endloop
 endfacet
facet normal 1 0 0
  outer loop
   vertex -0.0683228895 0.0546510406 0.027321836
   vertex -0.0683228895 0.0182170141 0
   vertex -0.0683228895 0.0546510406 0
  endloop
 endfacet
facet normal 1 0 0
  outer loop
   vertex -0.0683228895 -0.0182170141 0.054643672
   vertex -0.0683228895 -0.0546510406 0.054643672
   vertex -0.0683228895 -1.12485975e-18 0.0221193582
  endloop
 endfacet
facet normal 1 -0 0
  outer loop
   vertex -0.0683228895 0.0182170141 0.054643672
   vertex -0.0683228895 -1.12485975e-18 0.0221193582
   vertex -0.0683228895 0.0546510406 0.054643672
  endloop
 endfacet
facet normal 1 0 0
  outer loop
   vertex -0.0683228895 -0.0546510406 0.027321836
   vertex -0.0683228895 -0.0546510406 0
   vertex -0.0683228895 -0.0182170141 0
  endloop
 endfacet
facet normal 1 0 0
  outer loop
   vertex -0.0683228895 -1.12485975e-18 0.0221193582
   vertex -0.0683228895 -0.0182170141 0
   vertex -0.0683228895 0 0
  endloop
 endfacet
facet normal 0.370886207 0.928678334 -2.55237153e-16
  outer loop
   vertex 0.27432704 -0.136922896 0.0876603797
   vertex 0.222825989 -0.116354935 0.124660105
   vertex 0.27432704 -0.136922896 0.147998914
  endloop
 endfacet
facet normal 0.370886207 0.928678334 -4.56712065e-16
  outer loop
   vertex 0.203393906 -0.108594343 0.027321836
   vertex 0.222825989 -0.116354935 0.124660105
   vertex 0.27432704 -0.136922896 0.0876603797
  endloop
 endfacet
facet normal 0.370886207 0.928678334 4.08535796e-16
  outer loop
   vertex 0.203393906 -0.108594343 0.027321836
   vertex 0.222825989 -0.116354935 -0.0700164363
   vertex 0.119823925 -0.0752190053 -0.0233388115
  endloop
 endfacet
facet normal 0 1 -0
  outer loop
   vertex 0.0227742959 -0.0546510406 0
   vertex -0.0227742959 -0.0546510406 0
   vertex 0.0227742959 -0.0546510406 0.054643672
  endloop
 endfacet
facet normal -0 1 0
  outer loop
   vertex -0.0227742959 -0.0546510406 0.054643672
   vertex 0.0227742959 -0.0546510406 0.054643672
   vertex -0.0227742959 -0.0546510406 0
  endloop
 endfacet
facet normal -0 1 0
  outer loop
   vertex -0.0683228895 -0.0546510406 0.027321836
   vertex -0.0227742959 -0.0546510406 0.054643672
   vertex -0.0227742959 -0.0546510406 0
  endloop
 endfacet
facet normal 0.370886207 0.928678334 0
  outer loop
   vertex 0.0683228895 -0.0546510406 0.054643672
   vertex 0.119823925 -0.0752190053 0.0779824853
   vertex 0.0683228895 -0.0546510406 0
  endloop
 endfacet
facet normal 0.370886207 0.928678334 -0
  outer loop
   vertex 0.119823925 -0.0752190053 -0.0233388115
   vertex 0.0683228895 -0.0546510406 0
   vertex 0.119823925 -0.0752190053 0.0779824853
  endloop
 endfacet
facet normal 0.370886207 0.928678334 2.55237153e-16
  outer loop
   vertex 0.27432704 -0.136922896 -0.0933552459
   vertex 0.222825989 -0.116354935 -0.0700164363
   vertex 0.27432704 -0.136922896 -0.033016704
  endloop
 endfacet
facet normal 0 1 0
  outer loop
   vertex 0.0227742959 -0.0546510406 0
   vertex 0.0227742959 -0.0546510406 0.054643672
   vertex 0.0683228895 -0.0546510406 0.054643672
  endloop
 endfacet
facet normal 0 1 0
  outer loop
   vertex -0.0683228895 -0.0546510406 0.027321836
   vertex -0.0683228895 -0.0546510406 0.054643672
   vertex -0.0227742959 -0.0546510406 0.054643672
  endloop
 endfacet
facet normal 0.370886207 0.928678334 -4.08535796e-16
  outer loop
   vertex 0.203393906 -0.108594343 0.027321836
   vertex 0.119823925 -0.0752190053 0.0779824853
   vertex 0.222825989 -0.116354935 0.124660105
  endloop
 endfacet
facet normal 0 1 0
  outer loop
   vertex 0.0227742959 -0.0546510406 0
   vertex 0.0683228895 -0.0546510406 0.054643672
   vertex 0.0683228895 -0.0546510406 0
  endloop
 endfacet
facet normal 0.370886207 0.928678334 0
  outer loop
   vertex 0.203393906 -0.108594343 0.027321836
   vertex 0.119823925 -0.0752190053 -0.0233388115
   vertex 0.119823925 -0.0752190053 0.0779824853
  endloop
 endfacet
facet normal 0.370886207 0.928678334 0
  outer loop
   vertex 0.203393906 -0.108594343 0.027321836
   vertex 0.27432704 -0.136922896 0.0876603797
   vertex 0.27432704 -0.136922896 -0.033016704
  endloop
 endfacet
facet normal 0 1 0
  outer loop
   vertex -0.0683228895 -0.0546510406 0.027321836
   vertex -0.0227742959 -0.0546510406 0
   vertex -0.0683228895 -0.0546510406 0
  endloop
 endfacet
facet normal 0.370886207 0.928678334 4.56712065e-16
  outer loop
   vertex 0.203393906 -0.108594343 0.027321836
   vertex 0.27432704 -0.136922896 -0.033016704
   vertex 0.222825989 -0.116354935 -0.0700164363
  endloop
 endfacet
facet normal 0.370886207 -0.928678334 -2.55237153e-16
  outer loop
   vertex 0.27432704 0.136922896 0.0876603797
   vertex 0.27432704 0.136922896 0.147998914
   vertex 0.222825989 0.116354935 0.124660105
  endloop
 endfacet
facet normal 0.370886207 -0.928678334 2.81053579e-16
  outer loop
   vertex 0.203393906 0.108594343 0.027321836
   vertex 0.222825989 0.116354935 -0.0700164363
   vertex 0.27432704 0.136922896 -0.033016704
  endloop
 endfacet
facet normal 0.370886207 -0.928678334 1.76664127e-16
  outer loop
   vertex 0.203393906 0.108594343 0.027321836
   vertex 0.119823925 0.0752190053 -0.0233388115
   vertex 0.222825989 0.116354935 -0.0700164363
  endloop
 endfacet
facet normal -0 -1 -0
  outer loop
   vertex 0.0683228895 0.0546510406 0.054643672
   vertex 0.0227742959 0.0546510406 0.054643672
   vertex 0.0683228895 0.0546510406 0
  endloop
 endfacet
facet normal 0 -1 0
  outer loop
   vertex 0.0227742959 0.0546510406 0
   vertex 0.0683228895 0.0546510406 0
   vertex 0.0227742959 0.0546510406 0.054643672
  endloop
 endfacet
facet normal 0 -1 0
  outer loop
   vertex -0.0683228895 0.0546510406 0.027321836
   vertex -0.0683228895 0.0546510406 0
   vertex -0.0227742959 0.0546510406 0
  endloop
 endfacet
facet normal 0 -1 0
  outer loop
   vertex 0.0227742959 0.0546510406 0
   vertex 0.0227742959 0.0546510406 0.054643672
   vertex -0.0227742959 0.0546510406 0.054643672
  endloop
 endfacet
facet normal 0.370886207 -0.928678334 2.55237153e-16
  outer loop
   vertex 0.27432704 0.136922896 -0.0933552459
   vertex 0.27432704 0.136922896 -0.033016704
   vertex 0.222825989 0.116354935 -0.0700164363
  endloop
 endfacet
facet normal 0 -1 0
  outer loop
   vertex 0.0227742959 0.0546510406 0
   vertex -0.0227742959 0.0546510406 0.054643672
   vertex -0.0227742959 0.0546510406 0
  endloop
 endfacet
facet normal 0.370886207 -0.928678334 0
  outer loop
   vertex 0.119823925 0.0752190053 0.0779824853
   vertex 0.0683228895 0.0546510406 0.054643672
   vertex 0.119823925 0.0752190053 -0.0233388115
  endloop
 endfacet
facet normal 0.370886207 -0.928678334 -1.76664127e-16
  outer loop
   vertex 0.203393906 0.108594343 0.027321836
   vertex 0.222825989 0.116354935 0.124660105
   vertex 0.119823925 0.0752190053 0.0779824853
  endloop
 endfacet
facet normal 0 -1 0
  outer loop
   vertex -0.0683228895 0.0546510406 0.027321836
   vertex -0.0227742959 0.0546510406 0
   vertex -0.0227742959 0.0546510406 0.054643672
  endloop
 endfacet
facet normal 0.370886207 -0.928678334 0
  outer loop
   vertex 0.0683228895 0.0546510406 0
   vertex 0.119823925 0.0752190053 -0.0233388115
   vertex 0.0683228895 0.0546510406 0.054643672
  endloop
 endfacet
facet normal 0.370886207 -0.928678334 0
  outer loop
   vertex 0.203393906 0.108594343 0.027321836
   vertex 0.119823925 0.0752190053 0.0779824853
   vertex 0.119823925 0.0752190053 -0.0233388115
  endloop
 endfacet
facet normal 0 -1 0
  outer loop
   vertex -0.0683228895 0.0546510406 0.027321836
   vertex -0.0227742959 0.0546510406 0.054643672
   vertex -0.0683228895 0.0546510406 0.054643672
  endloop
 endfacet
facet normal 0.370886207 -0.928678334 0
  outer loop
   vertex 0.203393906 0.108594343 0.027321836
   vertex 0.27432704 0.136922896 -0.033016704
   vertex 0.27432704 0.136922896 0.0876603797
  endloop
 endfacet
facet normal 0.370886207 -0.928678334 -2.81053579e-16
  outer loop
   vertex 0.203393906 0.108594343 0.027321836
   vertex 0.27432704 0.136922896 0.0876603797
   vertex 0.222825989 0.116354935 0.124660105
  endloop
 endfacet
facet normal 0.412765682 1.04253146e-16 -0.910837233
  outer loop
   vertex 0.210595116 0.043178305 0.119117416
   vertex 0.20408383 -0.033963833 0.116166689
   vertex 0.130304143 0.00116788014 0.0827318206
  endloop
 endfacet
facet normal 0.412765682 0 -0.910837233
  outer loop
   vertex 0.130304143 0.00116788014 0.0827318206
   vertex 0.0683228895 -0.0546510406 0.054643672
   vertex 0.0683228895 0.0546510406 0.054643672
  endloop
 endfacet
facet normal 0 -1.26967274e-16 -1
  outer loop
   vertex -0.00685750367 1.23187051e-15 0.054643672
   vertex 0.0227742959 -0.0546510406 0.054643672
   vertex -0.0227742959 -0.0546510406 0.054643672
  endloop
 endfacet
facet normal 0.412765682 1.97375141e-16 -0.910837233
  outer loop
   vertex 0.20408383 -0.033963833 0.116166689
   vertex 0.119823925 -0.0752190053 0.0779824853
   vertex 0.130304143 0.00116788014 0.0827318206
  endloop
 endfacet
facet normal 0.412765682 0 -0.910837233
  outer loop
   vertex 0.27432704 0.068461448 0.147998914
   vertex 0.222825989 0.116354935 0.124660105
   vertex 0.27432704 0.136922896 0.147998914
  endloop
 endfacet
facet normal 0.412765682 -1.40389742e-16 -0.910837233
  outer loop
   vertex 0.210595116 0.043178305 0.119117416
   vertex 0.119823925 0.0752190053 0.0779824853
   vertex 0.222825989 0.116354935 0.124660105
  endloop
 endfacet
facet normal 0 0 -1
  outer loop
   vertex -0.0683228895 -0.0182170141 0.054643672
   vertex -0.0227742959 -0.0546510406 0.054643672
   vertex -0.0683228895 -0.0546510406 0.054643672
  endloop
 endfacet
facet normal -8.23708505e-17 -1.02977256e-16 -1
  outer loop
   vertex -0.00685750367 1.23187051e-15 0.054643672
   vertex -0.0227742959 -0.0546510406 0.054643672
   vertex -0.0683228895 -0.0182170141 0.054643672
  endloop
 endfacet
facet normal 0.412765682 -7.93753516e-17 -0.910837233
  outer loop
   vertex 0.210595116 0.043178305 0.119117416
   vertex 0.222825989 0.116354935 0.124660105
   vertex 0.27432704 0.068461448 0.147998914
  endloop
 endfacet
facet normal -1.12891082e-16 0 -1
  outer loop
   vertex -0.00685750367 1.23187051e-15 0.054643672
   vertex -0.0683228895 -0.0182170141 0.054643672
   vertex -0.0683228895 0 0.054643672
  endloop
 endfacet
facet normal 0 -1.26967274e-16 -1
  outer loop
   vertex -0.00685750367 1.23187051e-15 0.054643672
   vertex 0.0683228895 -0.0546510406 0.054643672
   vertex 0.0227742959 -0.0546510406 0.054643672
  endloop
 endfacet
facet normal 0 1.26967274e-16 -1
  outer loop
   vertex -0.00685750367 1.23187051e-15 0.054643672
   vertex 0.0227742959 0.0546510406 0.054643672
   vertex 0.0683228895 0.0546510406 0.054643672
  endloop
 endfacet
facet normal 0.412765682 1.90387741e-16 -0.910837233
  outer loop
   vertex 0.130304143 0.00116788014 0.0827318206
   vertex 0.119823925 -0.0752190053 0.0779824853
   vertex 0.0683228895 -0.0546510406 0.054643672
  endloop
 endfacet
facet normal 0.412765682 0 -0.910837233
  outer loop
   vertex 0.210595116 0.043178305 0.119117416
   vertex 0.27432704 0.068461448 0.147998914
   vertex 0.27432704 2.77555756e-17 0.147998914
  endloop
 endfacet
facet normal 0.412765682 1.23499362e-16 -0.910837233
  outer loop
   vertex 0.210595116 0.043178305 0.119117416
   vertex 0.27432704 2.77555756e-17 0.147998914
   vertex 0.20408383 -0.033963833 0.116166689
  endloop
 endfacet
facet normal 9.22965878e-17 0 -1
  outer loop
   vertex -0.00685750367 1.23187051e-15 0.054643672
   vertex 0.0683228895 0.0546510406 0.054643672
   vertex 0.0683228895 -0.0546510406 0.054643672
  endloop
 endfacet
facet normal -0 0 -1
  outer loop
   vertex -0.0227742959 0.0546510406 0.054643672
   vertex -0.0683228895 0.0182170141 0.054643672
   vertex -0.0683228895 0.0546510406 0.054643672
  endloop
 endfacet
facet normal 0.412765682 0 -0.910837233
  outer loop
   vertex 0.222825989 -0.116354935 0.124660105
   vertex 0.27432704 -0.068461448 0.147998914
   vertex 0.27432704 -0.136922896 0.147998914
  endloop
 endfacet
facet normal -1.12891082e-16 0 -1
  outer loop
   vertex -0.00685750367 1.23187051e-15 0.054643672
   vertex -0.0683228895 0 0.054643672
   vertex -0.0683228895 0.0182170141 0.054643672
  endloop
 endfacet
facet normal 0 1.26967274e-16 -1
  outer loop
   vertex -0.00685750367 1.23187051e-15 0.054643672
   vertex -0.0227742959 0.0546510406 0.054643672
   vertex 0.0227742959 0.0546510406 0.054643672
  endloop
 endfacet
facet normal 0.412765682 -1.92094863e-17 -0.910837233
  outer loop
   vertex 0.20408383 -0.033963833 0.116166689
   vertex 0.27432704 -0.068461448 0.147998914
   vertex 0.222825989 -0.116354935 0.124660105
  endloop
 endfacet
facet normal 0.412765682 2.55987204e-17 -0.910837233
  outer loop
   vertex 0.20408383 -0.033963833 0.116166689
   vertex 0.222825989 -0.116354935 0.124660105
   vertex 0.119823925 -0.0752190053 0.0779824853
  endloop
 endfacet
facet normal 0.412765682 0 -0.910837233
  outer loop
   vertex 0.20408383 -0.033963833 0.116166689
   vertex 0.27432704 2.77555756e-17 0.147998914
   vertex 0.27432704 -0.068461448 0.147998914
  endloop
 endfacet
facet normal 0.412765682 -1.85570585e-16 -0.910837233
  outer loop
   vertex 0.210595116 0.043178305 0.119117416
   vertex 0.130304143 0.00116788014 0.0827318206
   vertex 0.119823925 0.0752190053 0.0779824853
  endloop
 endfacet
facet normal -8.23708505e-17 1.02977256e-16 -1
  outer loop
   vertex -0.00685750367 1.23187051e-15 0.054643672
   vertex -0.0683228895 0.0182170141 0.054643672
   vertex -0.0227742959 0.0546510406 0.054643672
  endloop
 endfacet
facet normal 0.412765682 -1.96071782e-16 -0.910837233
  outer loop
   vertex 0.130304143 0.00116788014 0.0827318206
   vertex 0.0683228895 0.0546510406 0.054643672
   vertex 0.119823925 0.0752190053 0.0779824853
  endloop
 endfacet
facet normal 0.412765682 7.50839386e-17 0.910837233
  outer loop
   vertex 0.199873656 0.0355472267 -0.0596150868
   vertex 0.27432704 0.068461448 -0.0933552459
   vertex 0.222825989 0.116354935 -0.0700164363
  endloop
 endfacet
facet normal 0.412765682 -0 0.910837233
  outer loop
   vertex 0.0683228895 0.0182170141 0
   vertex 0.110545754 6.13104639e-05 -0.0191342104
   vertex 0.0683228895 0.0546510406 0
  endloop
 endfacet
facet normal 0.412765682 0 0.910837233
  outer loop
   vertex 0.207174554 -0.0415625758 -0.0629236475
   vertex 0.27432704 -0.068461448 -0.0933552459
   vertex 0.27432704 1.38777878e-17 -0.0933552459
  endloop
 endfacet
facet normal 0.412765682 2.67652965e-17 0.910837233
  outer loop
   vertex 0.199873656 0.0355472267 -0.0596150868
   vertex 0.222825989 0.116354935 -0.0700164363
   vertex 0.119823925 0.0752190053 -0.0233388115
  endloop
 endfacet
facet normal 0.412765682 -1.23742421e-16 0.910837233
  outer loop
   vertex 0.199873656 0.0355472267 -0.0596150868
   vertex 0.119823925 0.0752190053 -0.0233388115
   vertex 0.110545754 6.13104639e-05 -0.0191342104
  endloop
 endfacet
facet normal 0.412765682 4.01851555e-17 0.910837233
  outer loop
   vertex 0.119823925 -0.0752190053 -0.0233388115
   vertex 0.110545754 6.13104639e-05 -0.0191342104
   vertex 0.0683228895 -0.0546510406 0
  endloop
 endfacet
facet normal 0.412765682 0 0.910837233
  outer loop
   vertex 0.0683228895 -0.0182170141 0
   vertex 0.0683228895 -0.0546510406 0
   vertex 0.110545754 6.13104639e-05 -0.0191342104
  endloop
 endfacet
facet normal 0.412765682 0 0.910837233
  outer loop
   vertex 0.27432704 0.136922896 -0.0933552459
   vertex 0.222825989 0.116354935 -0.0700164363
   vertex 0.27432704 0.068461448 -0.0933552459
  endloop
 endfacet
facet normal 0.412765682 0 0.910837233
  outer loop
   vertex 0.199873656 0.0355472267 -0.0596150868
   vertex 0.27432704 1.38777878e-17 -0.0933552459
   vertex 0.27432704 0.068461448 -0.0933552459
  endloop
 endfacet
facet normal 0.412765682 -0 0.910837233
  outer loop
   vertex 0.27432704 -0.136922896 -0.0933552459
   vertex 0.27432704 -0.068461448 -0.0933552459
   vertex 0.222825989 -0.116354935 -0.0700164363
  endloop
 endfacet
facet normal 0.412765682 -1.79623183e-16 0.910837233
  outer loop
   vertex 0.207174554 -0.0415625758 -0.0629236475
   vertex 0.199873656 0.0355472267 -0.0596150868
   vertex 0.110545754 6.13104639e-05 -0.0191342104
  endloop
 endfacet
facet normal 0.412765682 -2.02674722e-16 0.910837233
  outer loop
   vertex 0.207174554 -0.0415625758 -0.0629236475
   vertex 0.27432704 1.38777878e-17 -0.0933552459
   vertex 0.199873656 0.0355472267 -0.0596150868
  endloop
 endfacet
facet normal 0.412765682 -2.56777006e-16 0.910837233
  outer loop
   vertex 0.110545754 6.13104639e-05 -0.0191342104
   vertex 0.0683228895 0.0182170141 0
   vertex 0.0683228895 0 -6.9388939e-18
  endloop
 endfacet
facet normal 0.412765682 -4.02541159e-17 0.910837233
  outer loop
   vertex 0.119823925 0.0752190053 -0.0233388115
   vertex 0.0683228895 0.0546510406 0
   vertex 0.110545754 6.13104639e-05 -0.0191342104
  endloop
 endfacet
facet normal 0.412765682 2.56777006e-16 0.910837233
  outer loop
   vertex 0.110545754 6.13104639e-05 -0.0191342104
   vertex 0.0683228895 0 -6.9388939e-18
   vertex 0.0683228895 -0.0182170141 0
  endloop
 endfacet
facet normal 0.412765682 1.81841893e-16 0.910837233
  outer loop
   vertex 0.207174554 -0.0415625758 -0.0629236475
   vertex 0.119823925 -0.0752190053 -0.0233388115
   vertex 0.222825989 -0.116354935 -0.0700164363
  endloop
 endfacet
facet normal 0.412765682 5.7347512e-17 0.910837233
  outer loop
   vertex 0.207174554 -0.0415625758 -0.0629236475
   vertex 0.110545754 6.13104639e-05 -0.0191342104
   vertex 0.119823925 -0.0752190053 -0.0233388115
  endloop
 endfacet
facet normal 0.412765682 9.65751762e-17 0.910837233
  outer loop
   vertex 0.207174554 -0.0415625758 -0.0629236475
   vertex 0.222825989 -0.116354935 -0.0700164363
   vertex 0.27432704 -0.068461448 -0.0933552459
  endloop
 endfacet
endsolid MATLAB_2.000000
solid MATLAB_3.000000
facet normal -1 0 0
  outer loop
   vertex -0.0401041098 0.00174991356 0.00278324215
   vertex -0.0401041098 -0.00174991356 0.0100698639
   vertex -0.0401041098 0.00174991356 0.0100698639
  endloop
 endfacet
facet normal -1 -0 -0
  outer loop
   vertex -0.0401041098 0.00174991356 0.0190766249
   vertex -0.0401041098 0.00174991356 0.0100698639
   vertex -0.0401041098 -0.00174991356 0.0190766249
  endloop
 endfacet
facet normal -1 0 0
  outer loop
   vertex -0.0401041098 -0.00174991356 0.0263632461
   vertex -0.0401041098 0.00174991356 0.0263632461
   vertex -0.0401041098 0.00174991356 0.0190766249
  endloop
 endfacet
facet normal -1 0 0
  outer loop
   vertex -0.0401041098 -0.00174991356 0.0100698639
   vertex -0.0401041098 -0.00174991356 0.0190766249
   vertex -0.0401041098 0.00174991356 0.0100698639
  endloop
 endfacet
facet normal -1 -0 -0
  outer loop
   vertex -0.0401041098 0.00174991356 0.00278324215
   vertex -0.0401041098 0.00174991356 0
   vertex -0.0401041098 -0.00174991356 0.00278324215
  endloop
 endfacet
facet normal -1 0 0
  outer loop
   vertex -0.0401041098 -0.00174991356 0.0263632461
   vertex -0.0401041098 0.00174991356 0.0190766249
   vertex -0.0401041098 -0.00174991356 0.0190766249
  endloop
 endfacet
facet normal -1 -0 -0
  outer loop
   vertex -0.0401041098 0.00174991356 0.0291464888
   vertex -0.0401041098 0.00174991356 0.0263632461
   vertex -0.0401041098 -0.00174991356 0.0291464888
  endloop
 endfacet
facet normal -1 0 0
  outer loop
   vertex -0.0401041098 -0.00174991356 0.0263632461
   vertex -0.0401041098 -0.00174991356 0.0291464888
   vertex -0.0401041098 0.00174991356 0.0263632461
  endloop
 endfacet
facet normal -1 0 0
  outer loop
   vertex -0.0401041098 -0.00174991356 0
   vertex -0.0401041098 -0.00174991356 0.00278324215
   vertex -0.0401041098 0.00174991356 0
  endloop
 endfacet
facet normal -1 0 0
  outer loop
   vertex -0.0401041098 0.00174991356 0.00278324215
   vertex -0.0401041098 -0.00174991356 0.00278324215
   vertex -0.0401041098 -0.00174991356 0.0100698639
  endloop
 endfacet
endsolid MATLAB_3
