  0
SECTION
  2
HEADER
  9
$ACADVER
  1
AC1014
  9
$HANDSEED
  5
FFFF
  9
$MEASUREMENT
 70
     1
  0
ENDSEC
  0
SECTION
  2
TABLES
  0
TABLE
  2
VPORT
  5
8
330
0
100
AcDbSymbolTable
 70
     4
  0
VPORT
  5
2E
330
8
100
AcDbSymbolTableRecord
100
AcDbViewportTableRecord
  2
*ACTIVE
 70
     0
 10
0.0
 20
0.0
 11
1.0
 21
1.0
 12
210.0
 22
148.5
 13
0.0
 23
0.0
 14
10.0
 24
10.0
 15
10.0
 25
10.0
 16
0.0
 26
0.0
 36
1.0
 17
0.0
 27
0.0
 37
0.0
 40
341.0
 41
1.24
 42
50.0
 43
0.0
 44
0.0
 50
0.0
 51
0.0
 71
     0
 72
   100
 73
     1
 74
     3
 75
     0
 76
     0
 77
     0
 78
     0
  0
ENDTAB
  0
TABLE
  2
LTYPE
  5
5
330
0
100
AcDbSymbolTable
 70
     1
  0
LTYPE
  5
14
330
5
100
AcDbSymbolTableRecord
100
AcDbLinetypeTableRecord
  2
BYBLOCK
 70
     0
  3

 72
    65
 73
     0
 40
0.0
  0
LTYPE
  5
15
330
5
100
AcDbSymbolTableRecord
100
AcDbLinetypeTableRecord
  2
BYLAYER
 70
     0
  3

 72
    65
 73
     0
 40
0.0
  0
LTYPE
  5
16
330
5
100
AcDbSymbolTableRecord
100
AcDbLinetypeTableRecord
  2
CONTINUOUS
 70
     0
  3
Solid line
 72
    65
 73
     0
 40
0.0
  0
ENDTAB
  0
TABLE
  2
LAYER
  5
2
100
AcDbSymbolTable
 70
2
  0
LAYER
  5
50
100
AcDbSymbolTableRecord
100
AcDbLayerTableRecord
  2
0
 70
0
  6
CONTINUOUS
  0
LAYER
  5
51
100
AcDbSymbolTableRecord
100
AcDbLayerTableRecord
  2
Capa_1
 70
0
  6
CONTINUOUS
  0
ENDTAB
  0
TABLE
  2
STYLE
  5
3
330
0
100
AcDbSymbolTable
 70
     1
  0
STYLE
  5
11
330
3
100
AcDbSymbolTableRecord
100
AcDbTextStyleTableRecord
  2
STANDARD
 70
     0
 40
0.0
 41
1.0
 50
0.0
 71
     0
 42
2.5
  3
txt
  4

  0
ENDTAB
  0
TABLE
  2
VIEW
  5
6
330
0
100
AcDbSymbolTable
 70
     0
  0
ENDTAB
  0
TABLE
  2
UCS
  5
7
330
0
100
AcDbSymbolTable
 70
     0
  0
ENDTAB
  0
TABLE
  2
APPID
  5
9
330
0
100
AcDbSymbolTable
 70
     2
  0
APPID
  5
12
330
9
100
AcDbSymbolTableRecord
100
AcDbRegAppTableRecord
  2
ACAD
 70
     0
  0
ENDTAB
  0
TABLE
  2
DIMSTYLE
  5
A
330
0
100
AcDbSymbolTable
 70
     1
  0
DIMSTYLE
105
27
330
A
100
AcDbSymbolTableRecord
100
AcDbDimStyleTableRecord
  2
ISO-25
 70
     0
  3

  4

  5

  6

  7

 40
1.0
 41
2.5
 42
0.625
 43
3.75
 44
1.25
 45
0.0
 46
0.0
 47
0.0
 48
0.0
140
2.5
141
2.5
142
0.0
143
0.03937007874016
144
1.0
145
0.0
146
1.0
147
0.625
 71
     0
 72
     0
 73
     0
 74
     0
 75
     0
 76
     0
 77
     1
 78
     8
170
     0
171
     3
172
     1
173
     0
174
     0
175
     0
176
     0
177
     0
178
     0
270
     2
271
     2
272
     2
273
     2
274
     3
340
11
275
     0
280
     0
281
     0
282
     0
283
     0
284
     8
285
     0
286
     0
287
     3
288
     0
  0
ENDTAB
  0
TABLE
  2
BLOCK_RECORD
  5
1
330
0
100
AcDbSymbolTable
 70
     1
  0
BLOCK_RECORD
  5
1F
330
1
100
AcDbSymbolTableRecord
100
AcDbBlockTableRecord
  2
*MODEL_SPACE
  0
BLOCK_RECORD
  5
1B
330
1
100
AcDbSymbolTableRecord
100
AcDbBlockTableRecord
  2
*PAPER_SPACE
  0
ENDTAB
  0
ENDSEC
  0
SECTION
  2
BLOCKS
  0
BLOCK
  5
20
330
1F
100
AcDbEntity
  8
0
100
AcDbBlockBegin
  2
*MODEL_SPACE
 70
     0
 10
0.0
 20
0.0
 30
0.0
  3
*MODEL_SPACE
  1

  0
ENDBLK
  5
21
330
1F
100
AcDbEntity
  8
0
100
AcDbBlockEnd
  0
BLOCK
  5
1C
330
1B
100
AcDbEntity
 67
     1
  8
0
100
AcDbBlockBegin
  2
*PAPER_SPACE
  1

  0
ENDBLK
  5
1D
330
1B
100
AcDbEntity
 67
     1
  8
0
100
AcDbBlockEnd
  0
ENDSEC
  0
SECTION
  2
ENTITIES
  0
LINE
  5
100
100
AcDbEntity
  8
Capa_1
 62
7
100
AcDbLine
 10
166.943007
 20
561.283614
 30
0.0
 11
167.699310
 21
560.752240
 31
0.0
  0
LINE
  5
101
100
AcDbEntity
  8
Capa_1
 62
7
100
AcDbLine
 10
167.699310
 20
560.752240
 30
0.0
 11
167.221715
 21
561.337336
 31
0.0
  0
SPLINE
  5
102
100
AcDbEntity
  8
Capa_1
 62
7
100
AcDbSpline
 70
0
 71
3
 72
22
 73
18
 74
16
 40
0.000000
 40
0.000000
 40
0.000000
 40
0.000000
 40
2.205284
 40
5.607373
 40
9.469747
 40
12.999768
 40
15.530562
 40
16.514387
 40
17.277498
 40
19.195336
 40
21.862003
 40
25.156350
 40
27.902383
 40
29.870675
 40
32.831564
 40
36.392089
 40
39.616692
 40
39.616692
 40
39.616692
 40
39.616692
 10
144.870469
 20
551.927395
 30
0.0
 10
144.890790
 20
552.661804
 30
0.0
 10
144.942460
 20
554.529183
 30
0.0
 10
145.002077
 20
557.696846
 30
0.0
 10
145.120870
 20
561.241415
 30
0.0
 10
145.045437
 20
564.716706
 30
0.0
 10
145.419371
 20
566.694589
 30
0.0
 10
145.004794
 20
568.658224
 30
0.0
 10
146.541230
 20
568.205502
 30
0.0
 10
148.107807
 20
568.114139
 30
0.0
 10
150.789516
 20
567.596932
 30
0.0
 10
153.611369
 20
567.090816
 30
0.0
 10
156.222869
 20
566.500280
 30
0.0
 10
158.691752
 20
565.814664
 30
0.0
 10
161.258155
 20
564.598370
 30
0.0
 10
164.139731
 20
563.097285
 30
0.0
 10
166.039941
 20
561.867882
 30
0.0
 10
166.943007
 20
561.283614
 30
0.0
 11
144.870469
 21
551.927395
 31
0.0
 11
144.928900
 21
554.131905
 31
0.0
 11
145.006683
 21
557.533104
 31
0.0
 11
145.086979
 21
561.394644
 31
0.0
 11
145.162604
 21
564.923854
 31
0.0
 11
145.228138
 21
567.453800
 31
0.0
 11
145.269388
 21
568.436760
 31
0.0
 11
146.029684
 21
568.371272
 31
0.0
 11
147.926482
 21
568.087973
 31
0.0
 11
150.556453
 21
567.647104
 31
0.0
 11
153.792657
 21
567.030898
 31
0.0
 11
156.469417
 21
566.417992
 31
0.0
 11
158.357237
 21
565.860937
 31
0.0
 11
161.067976
 21
564.669822
 31
0.0
 11
164.209883
 21
562.994781
 31
0.0
 11
166.943007
 21
561.283614
 31
0.0
  0
LINE
  5
103
100
AcDbEntity
  8
Capa_1
 62
7
100
AcDbLine
 10
158.739310
 20
574.951037
 30
0.0
 11
158.245529
 21
576.104360
 31
0.0
  0
LINE
  5
104
100
AcDbEntity
  8
Capa_1
 62
7
100
AcDbLine
 10
158.245529
 20
576.104360
 30
0.0
 11
152.764719
 21
576.105548
 31
0.0
  0
LINE
  5
105
100
AcDbEntity
  8
Capa_1
 62
7
100
AcDbLine
 10
152.764719
 20
576.105548
 30
0.0
 11
147.283909
 21
576.106792
 31
0.0
  0
LINE
  5
106
100
AcDbEntity
  8
Capa_1
 62
7
100
AcDbLine
 10
147.283909
 20
576.106792
 30
0.0
 11
143.594549
 21
579.968751
 31
0.0
  0
LINE
  5
107
100
AcDbEntity
  8
Capa_1
 62
7
100
AcDbLine
 10
143.594549
 20
579.968751
 30
0.0
 11
139.905193
 21
583.830712
 31
0.0
  0
LINE
  5
108
100
AcDbEntity
  8
Capa_1
 62
7
100
AcDbLine
 10
139.905193
 20
583.830712
 30
0.0
 11
139.905193
 21
589.477864
 31
0.0
  0
SPLINE
  5
109
100
AcDbEntity
  8
Capa_1
 62
7
100
AcDbSpline
 70
0
 71
3
 72
13
 73
9
 74
7
 40
0.000000
 40
0.000000
 40
0.000000
 40
0.000000
 40
2.208103
 40
4.494088
 40
6.280298
 40
9.582183
 40
13.033437
 40
16.090269
 40
16.090269
 40
16.090269
 40
16.090269
 10
167.221715
 20
561.337336
 30
0.0
 10
166.762709
 20
561.912769
 30
0.0
 10
165.828507
 20
563.083933
 30
0.0
 10
164.571529
 20
564.758143
 30
0.0
 10
163.139898
 20
566.757396
 30
0.0
 10
161.671857
 20
569.198908
 30
0.0
 10
160.076932
 20
572.055651
 30
0.0
 10
159.166798
 20
574.025706
 30
0.0
 10
158.739310
 20
574.951037
 30
0.0
 11
167.221715
 21
561.337336
 31
0.0
 11
165.853080
 21
563.070125
 31
0.0
 11
164.479204
 21
564.897197
 31
0.0
 11
163.448096
 21
566.355745
 31
0.0
 11
161.712603
 21
569.164750
 31
0.0
 11
160.054417
 21
572.191559
 31
0.0
 11
158.739310
 21
574.951037
 31
0.0
  0
LINE
  5
10a
100
AcDbEntity
  8
Capa_1
 62
7
100
AcDbLine
 10
127.678297
 20
602.886566
 30
0.0
 11
127.678297
 21
603.287972
 31
0.0
  0
LINE
  5
10b
100
AcDbEntity
  8
Capa_1
 62
7
100
AcDbLine
 10
127.678297
 20
603.287972
 30
0.0
 11
130.311045
 21
603.287972
 31
0.0
  0
LINE
  5
10c
100
AcDbEntity
  8
Capa_1
 62
7
100
AcDbLine
 10
130.311045
 20
603.287972
 30
0.0
 11
132.943791
 21
603.287972
 31
0.0
  0
LINE
  5
10d
100
AcDbEntity
  8
Capa_1
 62
7
100
AcDbLine
 10
132.943791
 20
603.287972
 30
0.0
 11
133.030587
 21
602.682024
 31
0.0
  0
SPLINE
  5
10e
100
AcDbEntity
  8
Capa_1
 62
7
100
AcDbSpline
 70
0
 71
3
 72
22
 73
18
 74
16
 40
0.000000
 40
0.000000
 40
0.000000
 40
0.000000
 40
3.823316
 40
5.343967
 40
5.624466
 40
5.821635
 40
6.116930
 40
6.446419
 40
7.940203
 40
9.946066
 40
11.511185
 40
13.913841
 40
16.273912
 40
18.591106
 40
19.884071
 40
21.210170
 40
22.278735
 40
22.278735
 40
22.278735
 40
22.278735
 10
139.905193
 20
589.477864
 30
0.0
 10
139.843088
 20
590.793823
 30
0.0
 10
139.756282
 20
592.633178
 30
0.0
 10
140.025262
 20
594.312929
 30
0.0
 10
139.730867
 20
595.123480
 30
0.0
 10
139.457488
 20
594.971144
 30
0.0
 10
139.203910
 20
594.921899
 30
0.0
 10
138.524056
 20
594.690854
 30
0.0
 10
137.237778
 20
594.643174
 30
0.0
 10
135.555639
 20
594.646897
 30
0.0
 10
133.557088
 20
594.843259
 30
0.0
 10
131.619125
 20
595.788084
 30
0.0
 10
129.785110
 20
597.301950
 30
0.0
 10
128.663741
 20
598.992698
 30
0.0
 10
128.114508
 20
600.545918
 30
0.0
 10
127.784103
 20
601.735055
 30
0.0
 10
127.710943
 20
602.531272
 30
0.0
 10
127.678297
 20
602.886566
 30
0.0
 11
139.905193
 21
589.477864
 31
0.0
 11
139.894125
 21
593.301164
 31
0.0
 11
139.834037
 21
594.820627
 31
0.0
 11
139.684601
 21
595.058006
 31
0.0
 11
139.495759
 21
595.001311
 31
0.0
 11
139.212729
 21
594.917088
 31
0.0
 11
138.896787
 21
594.823581
 31
0.0
 11
137.412213
 21
594.657959
 31
0.0
 11
135.406511
 21
594.683430
 31
0.0
 11
133.854769
 21
594.887615
 31
0.0
 11
131.663311
 21
595.872637
 31
0.0
 11
129.858813
 21
597.393729
 31
0.0
 11
128.585234
 21
599.329545
 31
0.0
 11
128.132025
 21
600.540478
 31
0.0
 11
127.804390
 21
601.825466
 31
0.0
 11
127.678297
 21
602.886566
 31
0.0
  0
LINE
  5
10f
100
AcDbEntity
  8
Capa_1
 62
7
100
AcDbLine
 10
133.035599
 20
607.939121
 30
0.0
 11
132.950248
 21
607.378343
 31
0.0
  0
LINE
  5
110
100
AcDbEntity
  8
Capa_1
 62
7
100
AcDbLine
 10
132.950248
 20
607.378343
 30
0.0
 11
130.305200
 21
607.378343
 31
0.0
  0
LINE
  5
111
100
AcDbEntity
  8
Capa_1
 62
7
100
AcDbLine
 10
130.305200
 20
607.378343
 30
0.0
 11
127.660150
 21
607.378343
 31
0.0
  0
LINE
  5
112
100
AcDbEntity
  8
Capa_1
 62
7
100
AcDbLine
 10
127.660150
 20
607.378343
 30
0.0
 11
127.740512
 21
608.137041
 31
0.0
  0
SPLINE
  5
113
100
AcDbEntity
  8
Capa_1
 62
7
100
AcDbSpline
 70
0
 71
3
 72
31
 73
27
 74
25
 40
0.000000
 40
0.000000
 40
0.000000
 40
0.000000
 40
1.244425
 40
2.400587
 40
3.548857
 40
4.044838
 40
4.503958
 40
5.148499
 40
6.115071
 40
6.942661
 40
7.839148
 40
9.654339
 40
11.804275
 40
14.223421
 40
16.183384
 40
17.738928
 40
19.099142
 40
19.639734
 40
20.103757
 40
20.712535
 40
21.636439
 40
22.443043
 40
23.291370
 40
24.095172
 40
25.005975
 40
25.887003
 40
25.887003
 40
25.887003
 40
25.887003
 10
133.030587
 20
602.682024
 30
0.0
 10
133.116862
 20
602.273850
 30
0.0
 10
133.283293
 20
601.486452
 30
0.0
 10
133.922700
 20
600.458524
 30
0.0
 10
134.649529
 20
599.856860
 30
0.0
 10
135.263923
 20
599.507437
 30
0.0
 10
135.792321
 20
599.395760
 30
0.0
 10
136.482363
 20
599.393052
 30
0.0
 10
137.302239
 20
599.438132
 30
0.0
 10
138.143755
 20
599.806101
 30
0.0
 10
138.998074
 20
600.645126
 30
0.0
 10
139.746044
 20
602.120071
 30
0.0
 10
140.147619
 20
604.228779
 30
0.0
 10
140.106674
 20
606.418100
 30
0.0
 10
139.762243
 20
608.372020
 30
0.0
 10
139.099090
 20
609.894045
 30
0.0
 10
138.222032
 20
610.686188
 30
0.0
 10
137.529079
 20
611.070918
 30
0.0
 10
137.000970
 20
611.201512
 30
0.0
 10
136.333835
 20
611.206958
 30
0.0
 10
135.549026
 20
611.160958
 30
0.0
 10
134.736379
 20
610.836623
 30
0.0
 10
134.096107
 20
610.304153
 30
0.0
 10
133.605288
 20
609.598510
 30
0.0
 10
133.233415
 20
608.810030
 30
0.0
 10
133.100803
 20
608.226190
 30
0.0
 10
133.035599
 20
607.939121
 30
0.0
 11
133.030587
 21
602.682024
 31
0.0
 11
133.360916
 21
601.482242
 31
0.0
 11
133.970162
 21
600.499628
 31
0.0
 11
134.844934
 21
599.755788
 31
0.0
 11
135.284535
 21
599.526119
 31
0.0
 11
135.731644
 21
599.421789
 31
0.0
 11
136.375767
 21
599.398577
 31
0.0
 11
137.336759
 21
599.502289
 31
0.0
 11
138.093853
 21
599.836525
 31
0.0
 11
138.750372
 21
600.446993
 31
0.0
 11
139.618965
 21
602.040877
 31
0.0
 11
140.060710
 21
604.144941
 31
0.0
 11
140.034614
 21
606.563946
 31
0.0
 11
139.653568
 21
608.486512
 31
0.0
 11
138.974812
 21
609.886158
 31
0.0
 11
137.975825
 21
610.809307
 31
0.0
 11
137.496664
 21
611.059595
 31
0.0
 11
137.046989
 21
611.174096
 31
0.0
 11
136.438792
 21
611.200684
 31
0.0
 11
135.519720
 21
611.106314
 31
0.0
 11
134.771037
 21
610.806176
 31
0.0
 11
134.114525
 21
610.268913
 31
0.0
 11
133.643957
 21
609.617251
 31
0.0
 11
133.261214
 21
608.790771
 31
0.0
 11
133.035599
 21
607.939121
 31
0.0
  0
LINE
  5
114
100
AcDbEntity
  8
Capa_1
 62
7
100
AcDbLine
 10
145.199316
 20
592.533505
 30
0.0
 11
145.199316
 21
583.906490
 31
0.0
  0
LINE
  5
115
100
AcDbEntity
  8
Capa_1
 62
7
100
AcDbLine
 10
145.199316
 20
583.906490
 30
0.0
 11
145.482928
 21
583.578516
 31
0.0
  0
SPLINE
  5
116
100
AcDbEntity
  8
Capa_1
 62
7
100
AcDbSpline
 70
0
 71
3
 72
22
 73
18
 74
16
 40
0.000000
 40
0.000000
 40
0.000000
 40
0.000000
 40
3.568956
 40
6.920865
 40
10.381408
 40
12.024158
 40
13.876493
 40
15.543964
 40
18.819793
 40
22.027819
 40
25.614193
 40
27.613638
 40
30.149305
 40
32.092314
 40
33.220744
 40
35.924965
 40
41.627591
 40
41.627591
 40
41.627591
 40
41.627591
 10
127.740512
 20
608.137041
 30
0.0
 10
127.981932
 20
609.319044
 30
0.0
 10
128.450089
 20
611.611165
 30
0.0
 10
130.767262
 20
614.354946
 30
0.0
 10
133.346561
 20
615.689109
 30
0.0
 10
135.654056
 20
616.019170
 30
0.0
 10
137.380333
 20
616.015036
 30
0.0
 10
139.630018
 20
615.687453
 30
0.0
 10
142.158724
 20
614.467971
 30
0.0
 10
144.390077
 20
611.866509
 30
0.0
 10
145.458402
 20
609.056709
 30
0.0
 10
145.647995
 20
606.349414
 30
0.0
 10
145.671744
 20
604.186470
 30
0.0
 10
145.456149
 20
602.327776
 30
0.0
 10
145.179920
 20
600.420751
 30
0.0
 10
145.238829
 20
597.232322
 30
0.0
 10
145.215286
 20
594.432626
 30
0.0
 10
145.199316
 20
592.533505
 30
0.0
 11
127.740512
 21
608.137041
 31
0.0
 11
128.751069
 21
611.559937
 31
0.0
 11
130.878004
 21
614.150582
 31
0.0
 11
133.963719
 21
615.717020
 31
0.0
 11
135.586565
 21
615.971968
 31
0.0
 11
137.438897
 21
615.968678
 31
0.0
 11
139.085858
 21
615.707949
 31
0.0
 11
142.033053
 21
614.277881
 31
0.0
 11
144.154632
 21
611.871569
 31
0.0
 11
145.425209
 21
608.517808
 31
0.0
 11
145.618130
 21
606.527692
 31
0.0
 11
145.613454
 21
603.992030
 31
0.0
 11
145.413303
 21
602.059357
 31
0.0
 11
145.273227
 21
600.939655
 31
0.0
 11
145.212495
 21
598.236116
 31
0.0
 11
145.199316
 21
592.533505
 31
0.0
  0
LINE
  5
117
100
AcDbEntity
  8
Capa_1
 62
7
100
AcDbLine
 10
146.510943
 20
582.581551
 30
0.0
 11
147.255347
 21
581.912561
 31
0.0
  0
LINE
  5
118
100
AcDbEntity
  8
Capa_1
 62
7
100
AcDbLine
 10
147.255347
 20
581.912561
 30
0.0
 11
151.789306
 21
581.912561
 31
0.0
  0
LINE
  5
119
100
AcDbEntity
  8
Capa_1
 62
7
100
AcDbLine
 10
151.789306
 20
581.912561
 30
0.0
 11
156.323265
 21
581.912561
 31
0.0
  0
LINE
  5
11a
100
AcDbEntity
  8
Capa_1
 62
7
100
AcDbLine
 10
156.323265
 20
581.912561
 30
0.0
 11
156.238877
 21
582.341392
 31
0.0
  0
SPLINE
  5
11b
100
AcDbEntity
  8
Capa_1
 62
7
100
AcDbSpline
 70
0
 71
3
 72
10
 73
6
 74
4
 40
0.000000
 40
0.000000
 40
0.000000
 40
0.000000
 40
0.354894
 40
0.869368
 40
1.432492
 40
1.432492
 40
1.432492
 40
1.432492
 10
145.482928
 20
583.578516
 30
0.0
 10
145.563932
 20
583.492281
 30
0.0
 10
145.762364
 20
583.281037
 30
0.0
 10
146.107693
 20
582.950963
 30
0.0
 10
146.372541
 20
582.708340
 30
0.0
 10
146.510943
 20
582.581551
 30
0.0
 11
145.482928
 21
583.578516
 31
0.0
 11
145.727797
 21
583.321633
 31
0.0
 11
146.097121
 21
582.963467
 31
0.0
 11
146.510943
 21
582.581551
 31
0.0
  0
LINE
  5
11c
100
AcDbEntity
  8
Capa_1
 62
7
100
AcDbLine
 10
171.755294
 20
599.262412
 30
0.0
 11
173.308564
 21
599.356182
 31
0.0
  0
LINE
  5
11d
100
AcDbEntity
  8
Capa_1
 62
7
100
AcDbLine
 10
173.308564
 20
599.356182
 30
0.0
 11
173.308564
 21
604.816756
 31
0.0
  0
LINE
  5
11e
100
AcDbEntity
  8
Capa_1
 62
7
100
AcDbLine
 10
173.308564
 20
604.816756
 30
0.0
 11
173.308564
 21
610.277326
 31
0.0
  0
LINE
  5
11f
100
AcDbEntity
  8
Capa_1
 62
7
100
AcDbLine
 10
173.308564
 20
610.277326
 30
0.0
 11
169.558566
 21
610.312277
 31
0.0
  0
LINE
  5
120
100
AcDbEntity
  8
Capa_1
 62
7
100
AcDbLine
 10
169.558566
 20
610.312277
 30
0.0
 11
165.808565
 21
610.347229
 31
0.0
  0
LINE
  5
121
100
AcDbEntity
  8
Capa_1
 62
7
100
AcDbLine
 10
165.808565
 20
610.347229
 30
0.0
 11
165.818203
 21
613.250073
 31
0.0
  0
SPLINE
  5
122
100
AcDbEntity
  8
Capa_1
 62
7
100
AcDbSpline
 70
0
 71
3
 72
22
 73
18
 74
16
 40
0.000000
 40
0.000000
 40
0.000000
 40
0.000000
 40
1.754609
 40
3.524659
 40
5.539118
 40
7.684585
 40
9.510556
 40
11.579507
 40
14.219324
 40
16.554547
 40
17.702026
 40
18.040067
 40
18.771125
 40
19.738258
 40
23.868465
 40
28.364253
 40
31.346743
 40
31.346743
 40
31.346743
 40
31.346743
 10
156.238877
 20
582.341392
 30
0.0
 10
156.135637
 20
582.917356
 30
0.0
 10
155.928248
 20
584.074352
 30
0.0
 10
155.776005
 20
585.917043
 30
0.0
 10
155.742708
 20
587.893972
 30
0.0
 10
155.763869
 20
589.888949
 30
0.0
 10
155.947362
 20
591.900994
 30
0.0
 10
156.329416
 20
594.027300
 30
0.0
 10
156.824695
 20
596.414330
 30
0.0
 10
157.539490
 20
598.078096
 30
0.0
 10
157.808482
 20
599.731857
 30
0.0
 10
158.603408
 20
599.681294
 30
0.0
 10
159.261956
 20
599.671552
 30
0.0
 10
161.215285
 20
599.524682
 30
0.0
 10
164.396245
 20
599.376221
 30
0.0
 10
168.268809
 20
599.232241
 30
0.0
 10
170.761256
 20
599.253810
 30
0.0
 10
171.755294
 20
599.262412
 30
0.0
 11
156.238877
 21
582.341392
 31
0.0
 11
155.956544
 21
584.073137
 31
0.0
 11
155.800829
 21
585.836324
 31
0.0
 11
155.752370
 21
587.850199
 31
0.0
 11
155.796110
 21
589.995221
 31
0.0
 11
155.964024
 21
591.813455
 31
0.0
 11
156.306810
 21
593.853812
 31
0.0
 11
156.911156
 21
596.423520
 31
0.0
 11
157.605589
 21
598.653100
 31
0.0
 11
158.120940
 21
599.678342
 31
0.0
 11
158.458698
 21
599.692186
 31
0.0
 11
159.189296
 21
599.666256
 31
0.0
 11
160.154561
 21
599.606172
 31
0.0
 11
164.278999
 21
599.387955
 31
0.0
 11
168.772814
 21
599.254789
 31
0.0
 11
171.755294
 21
599.262412
 31
0.0
  0
LINE
  5
123
100
AcDbEntity
  8
Capa_1
 62
7
100
AcDbLine
 10
172.331671
 20
623.804562
 30
0.0
 11
173.308561
 21
624.030228
 31
0.0
  0
LINE
  5
124
100
AcDbEntity
  8
Capa_1
 62
7
100
AcDbLine
 10
173.308561
 20
624.030228
 30
0.0
 11
173.308561
 21
631.337556
 31
0.0
  0
LINE
  5
125
100
AcDbEntity
  8
Capa_1
 62
7
100
AcDbLine
 10
173.308561
 20
631.337556
 30
0.0
 11
173.308561
 21
638.644884
 31
0.0
  0
LINE
  5
126
100
AcDbEntity
  8
Capa_1
 62
7
100
AcDbLine
 10
173.308561
 20
638.644884
 30
0.0
 11
173.024949
 21
638.700018
 31
0.0
  0
SPLINE
  5
127
100
AcDbEntity
  8
Capa_1
 62
7
100
AcDbSpline
 70
0
 71
3
 72
16
 73
12
 74
10
 40
0.000000
 40
0.000000
 40
0.000000
 40
0.000000
 40
1.823567
 40
3.119252
 40
4.100966
 40
6.713703
 40
8.642847
 40
10.215552
 40
11.240170
 40
12.578368
 40
13.984340
 40
13.984340
 40
13.984340
 40
13.984340
 10
165.818203
 20
613.250073
 30
0.0
 10
165.822715
 20
613.857844
 30
0.0
 10
165.830435
 20
614.897450
 30
0.0
 10
165.888431
 20
616.264513
 30
0.0
 10
166.108483
 20
617.881336
 30
0.0
 10
166.541427
 20
619.674133
 30
0.0
 10
167.392023
 20
621.565225
 30
0.0
 10
168.570161
 20
622.591152
 30
0.0
 10
169.800841
 20
623.060700
 30
0.0
 10
170.989427
 20
623.466055
 30
0.0
 10
171.876950
 20
623.689883
 30
0.0
 10
172.331671
 20
623.804562
 30
0.0
 11
165.818203
 21
613.250073
 31
0.0
 11
165.844179
 21
615.073455
 31
0.0
 11
165.915618
 21
616.367170
 31
0.0
 11
166.044039
 21
617.340447
 31
0.0
 11
166.686282
 21
619.873019
 31
0.0
 11
167.570379
 21
621.587653
 31
0.0
 11
168.762747
 21
622.613157
 31
0.0
 11
169.703965
 21
623.018064
 31
0.0
 11
170.973303
 21
623.441804
 31
0.0
 11
172.331671
 21
623.804562
 31
0.0
  0
LINE
  5
128
100
AcDbEntity
  8
Capa_1
 62
7
100
AcDbLine
 10
154.590072
 20
648.512739
 30
0.0
 11
153.455618
 21
649.516170
 31
0.0
  0
LINE
  5
129
100
AcDbEntity
  8
Capa_1
 62
7
100
AcDbLine
 10
153.455618
 20
649.516170
 30
0.0
 11
153.423814
 21
622.245722
 31
0.0
  0
LINE
  5
12a
100
AcDbEntity
  8
Capa_1
 62
7
100
AcDbLine
 10
153.423814
 20
622.245722
 30
0.0
 11
153.392009
 21
594.975271
 31
0.0
  0
LINE
  5
12b
100
AcDbEntity
  8
Capa_1
 62
7
100
AcDbLine
 10
153.392009
 20
594.975271
 30
0.0
 11
150.619198
 21
594.975271
 31
0.0
  0
LINE
  5
12c
100
AcDbEntity
  8
Capa_1
 62
7
100
AcDbLine
 10
150.619198
 20
594.975271
 30
0.0
 11
147.846387
 21
594.975271
 31
0.0
  0
LINE
  5
12d
100
AcDbEntity
  8
Capa_1
 62
7
100
AcDbLine
 10
147.846387
 20
594.975271
 30
0.0
 11
147.846387
 21
613.441191
 31
0.0
  0
LINE
  5
12e
100
AcDbEntity
  8
Capa_1
 62
7
100
AcDbLine
 10
147.846387
 20
613.441191
 30
0.0
 11
147.846387
 21
631.907110
 31
0.0
  0
LINE
  5
12f
100
AcDbEntity
  8
Capa_1
 62
7
100
AcDbLine
 10
147.846387
 20
631.907110
 30
0.0
 11
147.373699
 21
631.691904
 31
0.0
  0
SPLINE
  5
130
100
AcDbEntity
  8
Capa_1
 62
7
100
AcDbSpline
 70
0
 71
3
 72
16
 73
12
 74
10
 40
0.000000
 40
0.000000
 40
0.000000
 40
0.000000
 40
4.255582
 40
7.364660
 40
10.305839
 40
12.558191
 40
14.824713
 40
17.559879
 40
18.888498
 40
20.232186
 40
21.300056
 40
21.300056
 40
21.300056
 40
21.300056
 10
173.024949
 20
638.700018
 30
0.0
 10
171.633228
 20
638.975436
 30
0.0
 10
169.224733
 20
639.452070
 30
0.0
 10
165.923299
 20
640.439896
 30
0.0
 10
163.420022
 20
641.636801
 30
0.0
 10
161.257522
 20
642.869568
 30
0.0
 10
159.302971
 20
644.301872
 30
0.0
 10
157.720426
 20
645.699260
 30
0.0
 10
156.384953
 20
646.909641
 30
0.0
 10
155.456713
 20
647.741971
 30
0.0
 10
154.856052
 20
648.276183
 30
0.0
 10
154.590072
 20
648.512739
 30
0.0
 11
173.024949
 21
638.700018
 31
0.0
 11
168.866234
 21
639.602825
 31
0.0
 11
165.899615
 21
640.533172
 31
0.0
 11
163.231705
 21
641.771229
 31
0.0
 11
161.284570
 21
642.903376
 31
0.0
 11
159.449219
 21
644.233266
 31
0.0
 11
157.374369
 21
646.015436
 31
0.0
 11
156.387874
 21
646.905411
 31
0.0
 11
155.387590
 21
647.802590
 31
0.0
 11
154.590072
 21
648.512739
 31
0.0
  0
LINE
  5
131
100
AcDbEntity
  8
Capa_1
 62
7
100
AcDbLine
 10
136.713025
 20
636.177472
 30
0.0
 11
135.682523
 21
637.000574
 31
0.0
  0
LINE
  5
132
100
AcDbEntity
  8
Capa_1
 62
7
100
AcDbLine
 10
135.682523
 20
637.000574
 30
0.0
 11
141.764457
 21
637.034817
 31
0.0
  0
LINE
  5
133
100
AcDbEntity
  8
Capa_1
 62
7
100
AcDbLine
 10
141.764457
 20
637.034817
 30
0.0
 11
147.846387
 21
637.069059
 31
0.0
  0
LINE
  5
134
100
AcDbEntity
  8
Capa_1
 62
7
100
AcDbLine
 10
147.846387
 20
637.069059
 30
0.0
 11
147.846387
 21
644.644035
 31
0.0
  0
LINE
  5
135
100
AcDbEntity
  8
Capa_1
 62
7
100
AcDbLine
 10
147.846387
 20
644.644035
 30
0.0
 11
147.846387
 21
652.218990
 31
0.0
  0
LINE
  5
136
100
AcDbEntity
  8
Capa_1
 62
7
100
AcDbLine
 10
147.846387
 20
652.218990
 30
0.0
 11
147.058574
 21
652.490408
 31
0.0
  0
SPLINE
  5
137
100
AcDbEntity
  8
Capa_1
 62
7
100
AcDbSpline
 70
0
 71
3
 72
13
 73
9
 74
7
 40
0.000000
 40
0.000000
 40
0.000000
 40
0.000000
 40
0.938144
 40
2.104544
 40
3.295722
 40
5.752862
 40
8.754292
 40
11.952944
 40
11.952944
 40
11.952944
 40
11.952944
 10
147.373699
 20
631.691904
 30
0.0
 10
147.070492
 20
631.608910
 30
0.0
 10
146.390305
 20
631.422729
 30
0.0
 10
145.277145
 20
631.486195
 30
0.0
 10
143.704312
 20
631.827035
 30
0.0
 10
141.703622
 20
632.827729
 30
0.0
 10
139.214663
 20
634.284594
 30
0.0
 10
137.564402
 20
635.533273
 30
0.0
 10
136.713025
 20
636.177472
 30
0.0
 11
147.373699
 21
631.691904
 31
0.0
 11
146.457989
 21
631.487971
 31
0.0
 11
145.291912
 21
631.515457
 31
0.0
 11
144.127902
 21
631.768411
 31
0.0
 11
141.882165
 21
632.765506
 31
0.0
 11
139.302361
 21
634.299519
 31
0.0
 11
136.713025
 21
636.177472
 31
0.0
  0
LINE
  5
138
100
AcDbEntity
  8
Capa_1
 62
7
100
AcDbLine
 10
133.066976
 20
654.575258
 30
0.0
 11
129.316978
 21
654.653466
 31
0.0
  0
LINE
  5
139
100
AcDbEntity
  8
Capa_1
 62
7
100
AcDbLine
 10
129.316978
 20
654.653466
 30
0.0
 11
129.312442
 21
643.781837
 31
0.0
  0
SPLINE
  5
13a
100
AcDbEntity
  8
Capa_1
 62
7
100
AcDbSpline
 70
0
 71
3
 72
13
 73
9
 74
7
 40
0.000000
 40
0.000000
 40
0.000000
 40
0.000000
 40
2.679494
 40
5.984750
 40
9.183790
 40
10.335522
 40
12.137322
 40
14.199787
 40
14.199787
 40
14.199787
 40
14.199787
 10
147.058574
 20
652.490408
 30
0.0
 10
146.201231
 20
652.742656
 30
0.0
 10
144.286323
 20
653.306063
 30
0.0
 10
141.278482
 20
653.885441
 30
0.0
 10
138.759988
 20
654.322050
 30
0.0
 10
136.712436
 20
654.455066
 30
0.0
 10
135.041966
 20
654.524506
 30
0.0
 10
133.754260
 20
654.557597
 30
0.0
 10
133.066976
 20
654.575258
 30
0.0
 11
147.058574
 21
652.490408
 31
0.0
 11
144.477485
 21
653.209900
 31
0.0
 11
141.241277
 21
653.881965
 31
0.0
 11
138.077481
 21
654.355517
 31
0.0
 11
136.928672
 21
654.437520
 31
0.0
 11
135.128602
 21
654.516461
 31
0.0
 11
133.066976
 21
654.575258
 31
0.0
  0
LINE
  5
13b
100
AcDbEntity
  8
Capa_1
 62
7
100
AcDbLine
 10
109.135191
 20
621.502685
 30
0.0
 11
99.730766
 21
621.496732
 31
0.0
  0
LINE
  5
13c
100
AcDbEntity
  8
Capa_1
 62
7
100
AcDbLine
 10
99.730766
 20
621.496732
 30
0.0
 11
99.251646
 21
620.738033
 31
0.0
  0
SPLINE
  5
13d
100
AcDbEntity
  8
Capa_1
 62
7
100
AcDbSpline
 70
0
 71
3
 72
16
 73
12
 74
10
 40
0.000000
 40
0.000000
 40
0.000000
 40
0.000000
 40
6.523257
 40
10.006267
 40
11.156982
 40
15.205708
 40
22.250735
 40
26.195956
 40
27.259394
 40
30.319340
 40
35.926656
 40
35.926656
 40
35.926656
 40
35.926656
 10
129.312442
 20
643.781837
 30
0.0
 10
129.316852
 20
641.600116
 30
0.0
 10
129.323616
 20
638.253491
 30
0.0
 10
129.253278
 20
634.579539
 30
0.0
 10
129.225778
 20
631.602430
 30
0.0
 10
125.337532
 20
628.979785
 30
0.0
 10
122.195873
 20
625.709126
 30
0.0
 10
119.887315
 20
621.609593
 30
0.0
 10
117.110751
 20
621.560902
 30
0.0
 10
113.911038
 20
621.496361
 30
0.0
 10
111.011231
 20
621.500201
 30
0.0
 10
109.135191
 20
621.502685
 30
0.0
 11
129.312442
 21
643.781837
 31
0.0
 11
129.295987
 21
637.258601
 31
0.0
 11
129.246788
 21
633.775938
 31
0.0
 11
129.154893
 21
632.628899
 31
0.0
 11
126.449553
 21
629.616704
 31
0.0
 11
121.626801
 21
624.481194
 31
0.0
 11
118.861183
 21
621.667633
 31
0.0
 11
117.801982
 21
621.572787
 31
0.0
 11
114.742476
 21
621.520901
 31
0.0
 11
109.135191
 21
621.502685
 31
0.0
  0
LINE
  5
13e
100
AcDbEntity
  8
Capa_1
 62
7
100
AcDbLine
 10
95.452231
 20
607.403738
 30
0.0
 11
95.379976
 21
607.114454
 31
0.0
  0
LINE
  5
13f
100
AcDbEntity
  8
Capa_1
 62
7
100
AcDbLine
 10
95.379976
 20
607.114454
 30
0.0
 11
102.555981
 21
607.114454
 31
0.0
  0
LINE
  5
140
100
AcDbEntity
  8
Capa_1
 62
7
100
AcDbLine
 10
102.555981
 20
607.114454
 30
0.0
 11
109.731983
 21
607.114454
 31
0.0
  0
LINE
  5
141
100
AcDbEntity
  8
Capa_1
 62
7
100
AcDbLine
 10
109.731983
 20
607.114454
 30
0.0
 11
109.731478
 21
608.598865
 31
0.0
  0
SPLINE
  5
142
100
AcDbEntity
  8
Capa_1
 62
7
100
AcDbSpline
 70
0
 71
3
 72
19
 73
15
 74
13
 40
0.000000
 40
0.000000
 40
0.000000
 40
0.000000
 40
3.699424
 40
8.583292
 40
13.813078
 40
14.225398
 40
14.343682
 40
14.516762
 40
16.533799
 40
19.357871
 40
20.821878
 40
21.656309
 40
23.253242
 40
24.468783
 40
24.468783
 40
24.468783
 40
24.468783
 10
99.251646
 20
620.738033
 30
0.0
 10
98.515769
 20
619.741009
 30
0.0
 10
96.808411
 20
617.427743
 30
0.0
 10
93.597171
 20
614.251729
 30
0.0
 10
90.985933
 20
611.495421
 30
0.0
 10
89.566062
 20
610.550428
 30
0.0
 10
89.389404
 20
610.281177
 30
0.0
 10
90.506844
 20
610.580682
 30
0.0
 10
91.767580
 20
610.630068
 30
0.0
 10
93.692461
 20
610.600140
 30
0.0
 10
96.109280
 20
611.463004
 30
0.0
 10
95.737998
 20
609.836867
 30
0.0
 10
95.698044
 20
608.749720
 30
0.0
 10
95.526411
 20
607.809917
 30
0.0
 10
95.452231
 20
607.403738
 30
0.0
 11
99.251646
 21
620.738033
 31
0.0
 11
96.990504
 21
617.810069
 31
0.0
 11
93.640804
 21
614.255961
 31
0.0
 11
89.798530
 21
610.708062
 31
0.0
 11
89.492125
 21
610.432157
 31
0.0
 11
89.438460
 21
610.326747
 31
0.0
 11
89.611047
 21
610.339796
 31
0.0
 11
91.609924
 21
610.609853
 31
0.0
 11
94.417374
 21
610.915804
 31
0.0
 11
95.877473
 21
611.022696
 31
0.0
 11
95.834832
 21
610.189355
 31
0.0
 11
95.648465
 21
608.603335
 31
0.0
 11
95.452231
 21
607.403738
 31
0.0
  0
LINE
  5
143
100
AcDbEntity
  8
Capa_1
 62
7
100
AcDbLine
 10
120.493434
 20
615.624979
 30
0.0
 11
125.598475
 21
615.625072
 31
0.0
  0
LINE
  5
144
100
AcDbEntity
  8
Capa_1
 62
7
100
AcDbLine
 10
125.598475
 20
615.625072
 30
0.0
 11
125.630762
 21
605.300179
 31
0.0
  0
LINE
  5
145
100
AcDbEntity
  8
Capa_1
 62
7
100
AcDbLine
 10
125.630762
 20
605.300179
 30
0.0
 11
125.663049
 21
594.975285
 31
0.0
  0
LINE
  5
146
100
AcDbEntity
  8
Capa_1
 62
7
100
AcDbLine
 10
125.663049
 20
594.975285
 30
0.0
 11
123.771523
 21
594.975285
 31
0.0
  0
LINE
  5
147
100
AcDbEntity
  8
Capa_1
 62
7
100
AcDbLine
 10
123.771523
 20
594.975285
 30
0.0
 11
121.879998
 21
594.975285
 31
0.0
  0
LINE
  5
148
100
AcDbEntity
  8
Capa_1
 62
7
100
AcDbLine
 10
121.879998
 20
594.975285
 30
0.0
 11
121.881563
 21
578.118991
 31
0.0
  0
LINE
  5
149
100
AcDbEntity
  8
Capa_1
 62
7
100
AcDbLine
 10
121.881563
 20
578.118991
 30
0.0
 11
121.883125
 21
561.262697
 31
0.0
  0
LINE
  5
14a
100
AcDbEntity
  8
Capa_1
 62
7
100
AcDbLine
 10
121.883125
 20
561.262697
 30
0.0
 11
123.241079
 21
560.246644
 31
0.0
  0
SPLINE
  5
14b
100
AcDbEntity
  8
Capa_1
 62
7
100
AcDbSpline
 70
0
 71
3
 72
16
 73
12
 74
10
 40
0.000000
 40
0.000000
 40
0.000000
 40
0.000000
 40
2.050365
 40
3.793935
 40
5.467876
 40
6.558479
 40
7.636300
 40
8.867757
 40
9.807583
 40
11.433038
 40
15.003253
 40
15.003253
 40
15.003253
 40
15.003253
 10
109.731478
 20
608.598865
 30
0.0
 10
109.757191
 20
609.284161
 30
0.0
 10
109.804770
 20
610.552214
 30
0.0
 10
110.389280
 20
612.312684
 30
0.0
 10
111.303148
 20
613.532280
 30
0.0
 10
112.270466
 20
614.381062
 30
0.0
 10
113.262584
 20
614.944339
 30
0.0
 10
114.284649
 20
615.310867
 30
0.0
 10
115.519254
 20
615.612921
 30
0.0
 10
117.576721
 20
615.609333
 30
0.0
 10
119.305500
 20
615.618607
 30
0.0
 10
120.493434
 20
615.624979
 30
0.0
 11
109.731478
 21
608.598865
 31
0.0
 11
109.913174
 21
610.641163
 31
0.0
 11
110.481957
 21
612.289351
 31
0.0
 11
111.471100
 21
613.639786
 31
0.0
 11
112.295657
 21
614.353593
 31
0.0
 11
113.229201
 21
614.892290
 31
0.0
 11
114.383795
 21
615.320541
 31
0.0
 11
115.299804
 21
615.530781
 31
0.0
 11
116.923245
 21
615.611675
 31
0.0
 11
120.493434
 21
615.624979
 31
0.0
  0
LINE
  5
14c
100
AcDbEntity
  8
Capa_1
 62
7
100
AcDbLine
 10
144.870471
 20
551.927395
 30
0.0
 11
144.870469
 21
551.927395
 31
0.0
  0
LINE
  5
14d
100
AcDbEntity
  8
Capa_1
 62
7
100
AcDbLine
 10
109.062819
 20
559.412121
 30
0.0
 11
113.182509
 21
564.493309
 31
0.0
  0
LINE
  5
14e
100
AcDbEntity
  8
Capa_1
 62
7
100
AcDbLine
 10
113.182509
 20
564.493309
 30
0.0
 11
113.182509
 21
579.734297
 31
0.0
  0
LINE
  5
14f
100
AcDbEntity
  8
Capa_1
 62
7
100
AcDbLine
 10
113.182509
 20
579.734297
 30
0.0
 11
113.182509
 21
594.975285
 31
0.0
  0
LINE
  5
150
100
AcDbEntity
  8
Capa_1
 62
7
100
AcDbLine
 10
113.182509
 20
594.975285
 30
0.0
 11
111.228727
 21
594.975285
 31
0.0
  0
SPLINE
  5
151
100
AcDbEntity
  8
Capa_1
 62
7
100
AcDbSpline
 70
0
 71
3
 72
16
 73
12
 74
10
 40
0.000000
 40
0.000000
 40
0.000000
 40
0.000000
 40
6.350835
 40
13.180535
 40
19.576831
 40
21.369856
 40
23.126140
 40
24.086195
 40
24.345511
 40
25.139352
 40
26.583591
 40
26.583591
 40
26.583591
 40
26.583591
 10
123.241079
 20
560.246644
 30
0.0
 10
124.980720
 20
559.042300
 30
0.0
 10
128.591174
 20
556.542802
 30
0.0
 10
134.363443
 20
553.395571
 30
0.0
 10
138.845542
 20
551.392248
 30
0.0
 10
142.058916
 20
550.129794
 30
0.0
 10
143.322276
 20
549.978337
 30
0.0
 10
144.578613
 20
549.168681
 30
0.0
 10
144.802500
 20
549.887034
 30
0.0
 10
144.806468
 20
550.689013
 30
0.0
 10
144.845369
 20
551.441690
 30
0.0
 10
144.870471
 20
551.927395
 30
0.0
 11
123.241079
 21
560.246644
 31
0.0
 11
128.524046
 21
556.721963
 31
0.0
 11
134.503845
 21
553.422449
 31
0.0
 11
140.342519
 21
550.810460
 31
0.0
 11
142.031900
 21
550.209685
 31
0.0
 11
143.706645
 21
549.680759
 31
0.0
 11
144.639391
 21
549.453402
 31
0.0
 11
144.736057
 21
549.694026
 31
0.0
 11
144.809881
 21
550.484427
 31
0.0
 11
144.870471
 21
551.927395
 31
0.0
  0
LINE
  5
152
100
AcDbEntity
  8
Capa_1
 62
7
100
AcDbLine
 10
111.745811
 20
600.616029
 30
0.0
 11
112.167740
 21
601.572651
 31
0.0
  0
LINE
  5
153
100
AcDbEntity
  8
Capa_1
 62
7
100
AcDbLine
 10
112.167740
 20
601.572651
 30
0.0
 11
103.000754
 21
601.569249
 31
0.0
  0
LINE
  5
154
100
AcDbEntity
  8
Capa_1
 62
7
100
AcDbLine
 10
103.000754
 20
601.569249
 30
0.0
 11
93.833770
 21
601.565848
 31
0.0
  0
LINE
  5
155
100
AcDbEntity
  8
Capa_1
 62
7
100
AcDbLine
 10
93.833770
 20
601.565848
 30
0.0
 11
93.140493
 21
600.020569
 31
0.0
  0
SPLINE
  5
156
100
AcDbEntity
  8
Capa_1
 62
7
100
AcDbSpline
 70
0
 71
3
 72
16
 73
12
 74
10
 40
0.000000
 40
0.000000
 40
0.000000
 40
0.000000
 40
0.984189
 40
1.686698
 40
1.957495
 40
2.335055
 40
3.253441
 40
4.514063
 40
5.907890
 40
7.175436
 40
8.042291
 40
8.042291
 40
8.042291
 40
8.042291
 10
111.228727
 20
594.975285
 30
0.0
 10
110.889539
 20
594.973453
 30
0.0
 10
110.308240
 20
594.970314
 30
0.0
 10
109.747590
 20
595.023036
 30
0.0
 10
109.144210
 20
595.007749
 30
0.0
 10
109.594854
 20
595.639545
 30
0.0
 10
109.773361
 20
596.319082
 30
0.0
 10
110.335929
 20
597.449940
 30
0.0
 10
110.851660
 20
598.626680
 30
0.0
 10
111.339750
 20
599.702491
 30
0.0
 10
111.628528
 20
600.352171
 30
0.0
 10
111.745811
 20
600.616029
 30
0.0
 11
111.228727
 21
594.975285
 31
0.0
 11
110.244600
 21
594.986326
 31
0.0
 11
109.542687
 21
595.015269
 31
0.0
 11
109.274947
 21
595.055846
 31
0.0
 11
109.415337
 21
595.406335
 31
0.0
 11
109.783386
 21
596.247746
 31
0.0
 11
110.299414
 21
597.397912
 31
0.0
 11
110.873260
 21
598.668131
 31
0.0
 11
111.392892
 21
599.824269
 31
0.0
 11
111.745811
 21
600.616029
 31
0.0
  0
LINE
  5
157
100
AcDbEntity
  8
Capa_1
 62
7
100
AcDbLine
 10
86.217942
 20
590.056999
 30
0.0
 11
84.642829
 21
588.355197
 31
0.0
  0
LINE
  5
158
100
AcDbEntity
  8
Capa_1
 62
7
100
AcDbLine
 10
84.642829
 20
588.355197
 30
0.0
 11
85.645862
 21
588.437827
 31
0.0
  0
SPLINE
  5
159
100
AcDbEntity
  8
Capa_1
 62
7
100
AcDbSpline
 70
0
 71
3
 72
10
 73
6
 74
4
 40
0.000000
 40
0.000000
 40
0.000000
 40
0.000000
 40
3.637540
 40
7.824691
 40
12.172601
 40
12.172601
 40
12.172601
 40
12.172601
 10
93.140493
 20
600.020569
 30
0.0
 10
92.584746
 20
598.941736
 30
0.0
 10
91.389284
 20
596.621063
 30
0.0
 10
89.037338
 20
593.296874
 30
0.0
 10
87.169468
 20
591.150434
 30
0.0
 10
86.217942
 20
590.056999
 30
0.0
 11
93.140493
 21
600.020569
 31
0.0
 11
91.404877
 21
596.823800
 31
0.0
 11
89.015751
 21
593.385151
 31
0.0
 11
86.217942
 21
590.056999
 31
0.0
  0
LINE
  5
15a
100
AcDbEntity
  8
Capa_1
 62
7
100
AcDbLine
 10
97.183704
 20
589.169809
 30
0.0
 11
97.523226
 21
589.169809
 31
0.0
  0
LINE
  5
15b
100
AcDbEntity
  8
Capa_1
 62
7
100
AcDbLine
 10
97.523226
 20
589.169809
 30
0.0
 11
97.465768
 21
588.279163
 31
0.0
  0
SPLINE
  5
15c
100
AcDbEntity
  8
Capa_1
 62
7
100
AcDbSpline
 70
0
 71
3
 72
10
 73
6
 74
4
 40
0.000000
 40
0.000000
 40
0.000000
 40
0.000000
 40
3.526489
 40
8.690021
 40
11.561134
 40
11.561134
 40
11.561134
 40
11.561134
 10
85.645862
 20
588.437827
 30
0.0
 10
86.818560
 20
588.518886
 30
0.0
 10
89.708337
 20
588.718631
 30
0.0
 10
93.554210
 20
588.965152
 30
0.0
 10
96.228182
 20
589.115930
 30
0.0
 10
97.183704
 20
589.169809
 30
0.0
 11
85.645862
 21
588.437827
 31
0.0
 11
89.164120
 21
588.678624
 31
0.0
 11
94.317293
 21
589.005548
 31
0.0
 11
97.183704
 21
589.169809
 31
0.0
  0
LINE
  5
15d
100
AcDbEntity
  8
Capa_1
 62
7
100
AcDbLine
 10
88.386928
 20
571.008365
 30
0.0
 11
86.721599
 21
569.377684
 31
0.0
  0
LINE
  5
15e
100
AcDbEntity
  8
Capa_1
 62
7
100
AcDbLine
 10
86.721599
 20
569.377684
 30
0.0
 11
87.441551
 21
569.384770
 31
0.0
  0
SPLINE
  5
15f
100
AcDbEntity
  8
Capa_1
 62
7
100
AcDbSpline
 70
0
 71
3
 72
13
 73
9
 74
7
 40
0.000000
 40
0.000000
 40
0.000000
 40
0.000000
 40
2.591369
 40
5.276175
 40
7.736210
 40
10.998420
 40
15.188697
 40
20.044458
 40
20.044458
 40
20.044458
 40
20.044458
 10
97.465768
 20
588.279163
 30
0.0
 10
97.378901
 20
587.418870
 30
0.0
 10
97.202036
 20
585.667265
 30
0.0
 10
96.626286
 20
583.150271
 30
0.0
 10
95.812924
 20
580.457240
 30
0.0
 10
94.141475
 20
577.577264
 30
0.0
 10
91.624306
 20
574.329074
 30
0.0
 10
89.517712
 20
572.168256
 30
0.0
 10
88.386928
 20
571.008365
 30
0.0
 11
97.465768
 21
588.279163
 31
0.0
 11
97.153111
 21
585.706725
 31
0.0
 11
96.578280
 21
583.084178
 31
0.0
 11
95.814522
 21
580.745707
 31
0.0
 11
94.246714
 21
577.884939
 31
0.0
 11
91.705350
 21
574.553290
 31
0.0
 11
88.386928
 21
571.008365
 31
0.0
  0
LINE
  5
160
100
AcDbEntity
  8
Capa_1
 62
7
100
AcDbLine
 10
109.062816
 20
559.412254
 30
0.0
 11
109.062819
 21
559.412121
 31
0.0
  0
LINE
  5
161
100
AcDbEntity
  8
Capa_1
 62
7
100
AcDbLine
 10
119.989230
 20
582.366518
 30
0.0
 11
119.989230
 21
601.836557
 31
0.0
  0
LINE
  5
162
100
AcDbEntity
  8
Capa_1
 62
7
100
AcDbLine
 10
119.989230
 20
601.836557
 30
0.0
 11
119.232930
 21
601.836557
 31
0.0
  0
LINE
  5
163
100
AcDbEntity
  8
Capa_1
 62
7
100
AcDbLine
 10
119.232930
 20
601.836557
 30
0.0
 11
118.476626
 21
601.836557
 31
0.0
  0
LINE
  5
164
100
AcDbEntity
  8
Capa_1
 62
7
100
AcDbLine
 10
118.476626
 20
601.836557
 30
0.0
 11
118.476626
 21
583.063390
 31
0.0
  0
LINE
  5
165
100
AcDbEntity
  8
Capa_1
 62
7
100
AcDbLine
 10
118.476626
 20
583.063390
 30
0.0
 11
118.476626
 21
564.290220
 31
0.0
  0
LINE
  5
166
100
AcDbEntity
  8
Capa_1
 62
7
100
AcDbLine
 10
118.476626
 20
564.290220
 30
0.0
 11
119.232930
 21
563.593351
 31
0.0
  0
LINE
  5
167
100
AcDbEntity
  8
Capa_1
 62
7
100
AcDbLine
 10
119.232930
 20
563.593351
 30
0.0
 11
119.989230
 21
562.896482
 31
0.0
  0
LINE
  5
168
100
AcDbEntity
  8
Capa_1
 62
7
100
AcDbLine
 10
119.989230
 20
562.896482
 30
0.0
 11
119.989230
 21
582.366518
 31
0.0
  0
LINE
  5
169
100
AcDbEntity
  8
Capa_1
 62
7
100
AcDbLine
 10
116.575929
 20
582.117409
 30
0.0
 11
116.566007
 21
597.812170
 31
0.0
  0
LINE
  5
16a
100
AcDbEntity
  8
Capa_1
 62
7
100
AcDbLine
 10
116.566007
 20
597.812170
 30
0.0
 11
116.264018
 21
597.152435
 31
0.0
  0
SPLINE
  5
16b
100
AcDbEntity
  8
Capa_1
 62
7
100
AcDbSpline
 70
0
 71
3
 72
22
 73
18
 74
16
 40
0.000000
 40
0.000000
 40
0.000000
 40
0.000000
 40
1.077626
 40
3.211359
 40
5.939376
 40
8.867101
 40
10.627795
 40
11.252615
 40
12.459850
 40
15.469828
 40
19.631011
 40
23.787721
 40
26.786002
 40
27.976911
 40
28.865915
 40
31.209276
 40
34.501508
 40
34.501508
 40
34.501508
 40
34.501508
 10
87.441551
 20
569.384770
 30
0.0
 10
87.800313
 20
569.401563
 30
0.0
 10
88.869435
 20
569.451604
 30
0.0
 10
90.847545
 20
569.583251
 30
0.0
 10
93.424782
 20
569.746155
 30
0.0
 10
95.939640
 20
569.949140
 30
0.0
 10
97.613439
 20
569.963968
 30
0.0
 10
98.964291
 20
570.093430
 30
0.0
 10
99.170820
 20
568.035861
 30
0.0
 10
100.478771
 20
565.825121
 30
0.0
 10
101.745964
 20
562.216369
 30
0.0
 10
103.107284
 20
558.456521
 30
0.0
 10
104.241716
 20
556.534265
 30
0.0
 10
104.708818
 20
553.977977
 30
0.0
 10
105.852011
 20
555.684225
 30
0.0
 10
107.147999
 20
556.985426
 30
0.0
 10
108.356707
 20
558.517335
 30
0.0
 10
109.062816
 20
559.412254
 30
0.0
 11
87.441551
 21
569.384770
 31
0.0
 11
88.517885
 21
569.437528
 31
0.0
 11
90.647569
 21
569.568906
 31
0.0
 11
93.369538
 21
569.750474
 31
0.0
 11
96.291369
 21
569.936145
 31
0.0
 11
98.050499
 21
570.010339
 31
0.0
 11
98.674274
 21
569.974212
 31
0.0
 11
99.133136
 21
568.857582
 31
0.0
 11
100.243158
 21
566.059759
 31
0.0
 11
101.764020
 21
562.186463
 31
0.0
 11
103.284381
 21
558.317776
 31
0.0
 11
104.393084
 21
555.532014
 31
0.0
 11
104.850099
 21
554.432287
 31
0.0
 11
105.461507
 21
555.077662
 31
0.0
 11
106.974964
 21
556.866737
 31
0.0
 11
109.062816
 21
559.412254
 31
0.0
  0
LINE
  5
16c
100
AcDbEntity
  8
Capa_1
 62
7
100
AcDbLine
 10
114.950619
 20
580.823929
 30
0.0
 11
114.954021
 21
566.672559
 31
0.0
  0
LINE
  5
16d
100
AcDbEntity
  8
Capa_1
 62
7
100
AcDbLine
 10
114.954021
 20
566.672559
 30
0.0
 11
115.297268
 21
567.102577
 31
0.0
  0
SPLINE
  5
16e
100
AcDbEntity
  8
Capa_1
 62
7
100
AcDbSpline
 70
0
 71
3
 72
16
 73
12
 74
10
 40
0.000000
 40
0.000000
 40
0.000000
 40
0.000000
 40
0.477975
 40
1.033644
 40
1.546755
 40
1.985794
 40
2.305208
 40
2.476167
 40
3.351894
 40
7.363609
 40
16.637021
 40
16.637021
 40
16.637021
 40
16.637021
 10
116.264018
 20
597.152435
 30
0.0
 10
116.198767
 20
597.007047
 30
0.0
 10
116.057659
 20
596.692640
 30
0.0
 10
115.850123
 20
596.221314
 30
0.0
 10
115.662472
 20
595.752556
 30
0.0
 10
115.476903
 20
595.377800
 30
0.0
 10
115.337166
 20
595.086230
 30
0.0
 10
114.907942
 20
594.871391
 30
0.0
 10
115.227822
 20
592.821113
 30
0.0
 10
114.711189
 20
588.570139
 30
0.0
 10
114.852194
 20
584.008258
 30
0.0
 10
114.950619
 20
580.823929
 30
0.0
 11
116.264018
 21
597.152435
 31
0.0
 11
116.068782
 21
596.716152
 31
0.0
 11
115.847222
 21
596.206565
 31
0.0
 11
115.647313
 21
595.733998
 31
0.0
 11
115.458324
 21
595.337717
 31
0.0
 11
115.280757
 21
595.072208
 31
0.0
 11
115.139917
 21
594.975300
 31
0.0
 11
115.013863
 21
594.108692
 31
0.0
 11
114.960207
 21
590.097336
 31
0.0
 11
114.950619
 21
580.823929
 31
0.0
  0
LINE
  5
16f
100
AcDbEntity
  8
Capa_1
 62
7
100
AcDbLine
 10
116.196840
 20
566.976433
 30
0.0
 11
116.585898
 21
566.422648
 31
0.0
  0
LINE
  5
170
100
AcDbEntity
  8
Capa_1
 62
7
100
AcDbLine
 10
116.585898
 20
566.422648
 30
0.0
 11
116.575929
 21
582.117409
 31
0.0
  0
SPLINE
  5
171
100
AcDbEntity
  8
Capa_1
 62
7
100
AcDbSpline
 70
0
 71
3
 72
13
 73
9
 74
7
 40
0.000000
 40
0.000000
 40
0.000000
 40
0.000000
 40
0.284306
 40
0.501689
 40
0.608238
 40
0.730552
 40
0.992448
 40
1.340192
 40
1.340192
 40
1.340192
 40
1.340192
 10
115.297268
 20
567.102577
 30
0.0
 10
115.358485
 20
567.177462
 30
0.0
 10
115.466510
 20
567.309604
 30
0.0
 10
115.600137
 20
567.438771
 30
0.0
 10
115.730291
 20
567.566468
 30
0.0
 10
115.858148
 20
567.404645
 30
0.0
 10
116.007726
 20
567.243100
 30
0.0
 10
116.128149
 20
567.073293
 30
0.0
 10
116.196840
 20
566.976433
 30
0.0
 11
115.297268
 21
567.102577
 31
0.0
 11
115.481625
 21
567.319009
 31
0.0
 11
115.634985
 21
567.473073
 31
0.0
 11
115.724149
 21
567.531405
 31
0.0
 11
115.819596
 21
567.454916
 31
0.0
 11
115.989415
 21
567.255540
 31
0.0
 11
116.196840
 21
566.976433
 31
0.0
  0
LINE
  5
172
100
AcDbEntity
  8
Capa_1
 62
7
100
AcDbLine
 10
157.149289
 20
579.033275
 30
0.0
 11
156.872373
 21
579.933283
 31
0.0
  0
LINE
  5
173
100
AcDbEntity
  8
Capa_1
 62
7
100
AcDbLine
 10
156.872373
 20
579.933283
 30
0.0
 11
152.201806
 21
579.933811
 31
0.0
  0
SPLINE
  5
174
100
AcDbEntity
  8
Capa_1
 62
7
100
AcDbSpline
 70
0
 71
3
 72
10
 73
6
 74
4
 40
0.000000
 40
0.000000
 40
0.000000
 40
0.000000
 40
0.172681
 40
0.541866
 40
1.027928
 40
1.027928
 40
1.027928
 40
1.027928
 10
157.426206
 20
578.043669
 30
0.0
 10
157.414011
 20
578.099936
 30
0.0
 10
157.375746
 20
578.276498
 30
0.0
 10
157.277671
 20
578.605086
 30
0.0
 10
157.195812
 20
578.878109
 30
0.0
 10
157.149289
 20
579.033275
 30
0.0
 11
157.426206
 21
578.043669
 31
0.0
 11
157.388258
 21
578.212129
 31
0.0
 11
157.288774
 21
578.567657
 31
0.0
 11
157.149289
 21
579.033275
 31
0.0
  0
LINE
  5
175
100
AcDbEntity
  8
Capa_1
 62
7
100
AcDbLine
 10
145.073256
 20
582.151944
 30
0.0
 11
143.371576
 21
583.858576
 31
0.0
  0
LINE
  5
176
100
AcDbEntity
  8
Capa_1
 62
7
100
AcDbLine
 10
143.371576
 20
583.858576
 30
0.0
 11
143.308562
 21
590.703443
 31
0.0
  0
SPLINE
  5
177
100
AcDbEntity
  8
Capa_1
 62
7
100
AcDbSpline
 70
0
 71
3
 72
13
 73
9
 74
7
 40
0.000000
 40
0.000000
 40
0.000000
 40
0.000000
 40
3.187383
 40
4.561918
 40
5.080347
 40
5.637982
 40
6.665217
 40
7.940603
 40
7.940603
 40
7.940603
 40
7.940603
 10
152.201806
 20
579.933811
 30
0.0
 10
151.140539
 20
579.950235
 30
0.0
 10
149.621609
 20
579.973743
 30
0.0
 10
147.921952
 20
579.917296
 30
0.0
 10
147.117167
 20
580.156889
 30
0.0
 10
146.620516
 20
580.672009
 30
0.0
 10
145.916255
 20
581.305250
 30
0.0
 10
145.373745
 20
581.850139
 30
0.0
 10
145.073256
 20
582.151944
 30
0.0
 11
152.201806
 21
579.933811
 31
0.0
 11
149.014450
 21
579.946865
 31
0.0
 11
147.641678
 21
580.016456
 31
0.0
 11
147.153090
 21
580.189808
 31
0.0
 11
146.729422
 21
580.552385
 31
0.0
 11
145.982221
 21
581.257298
 31
0.0
 11
145.073256
 21
582.151944
 31
0.0
  0
LINE
  5
178
100
AcDbEntity
  8
Capa_1
 62
7
100
AcDbLine
 10
142.422851
 20
596.621880
 30
0.0
 11
141.795972
 21
596.102091
 31
0.0
  0
LINE
  5
179
100
AcDbEntity
  8
Capa_1
 62
7
100
AcDbLine
 10
141.795972
 20
596.102091
 30
0.0
 11
141.795972
 21
589.905298
 31
0.0
  0
LINE
  5
17a
100
AcDbEntity
  8
Capa_1
 62
7
100
AcDbLine
 10
141.795972
 20
589.905298
 30
0.0
 11
141.795972
 21
583.708507
 31
0.0
  0
LINE
  5
17b
100
AcDbEntity
  8
Capa_1
 62
7
100
AcDbLine
 10
141.795972
 20
583.708507
 30
0.0
 11
144.348491
 21
581.019197
 31
0.0
  0
SPLINE
  5
17c
100
AcDbEntity
  8
Capa_1
 62
7
100
AcDbSpline
 70
0
 71
3
 72
13
 73
9
 74
7
 40
0.000000
 40
0.000000
 40
0.000000
 40
0.000000
 40
3.420220
 40
5.806956
 40
6.644549
 40
6.864636
 40
7.232450
 40
7.670938
 40
7.670938
 40
7.670938
 40
7.670938
 10
143.308562
 20
590.703443
 30
0.0
 10
143.321591
 20
591.947071
 30
0.0
 10
143.343712
 20
594.058541
 30
0.0
 10
143.091120
 20
595.448886
 30
0.0
 10
143.298146
 20
597.605230
 30
0.0
 10
142.980610
 20
597.107561
 30
0.0
 10
142.738224
 20
596.901305
 30
0.0
 10
142.533944
 20
596.720310
 30
0.0
 10
142.422851
 20
596.621880
 30
0.0
 11
143.308562
 21
590.703443
 31
0.0
 11
143.263395
 21
594.123365
 31
0.0
 11
143.205580
 21
596.509401
 31
0.0
 11
143.147639
 21
597.344987
 31
0.0
 11
143.012413
 21
597.171343
 31
0.0
 11
142.752028
 21
596.911561
 31
0.0
 11
142.422851
 21
596.621880
 31
0.0
  0
LINE
  5
17d
100
AcDbEntity
  8
Capa_1
 62
7
100
AcDbLine
 10
157.426223
 20
578.043686
 30
0.0
 11
157.426206
 21
578.043669
 31
0.0
  0
LINE
  5
17e
100
AcDbEntity
  8
Capa_1
 62
7
100
AcDbLine
 10
176.144695
 20
599.579201
 30
0.0
 11
176.648896
 21
599.659449
 31
0.0
  0
LINE
  5
17f
100
AcDbEntity
  8
Capa_1
 62
7
100
AcDbLine
 10
176.648896
 20
599.659449
 30
0.0
 11
176.681835
 21
604.970337
 31
0.0
  0
LINE
  5
180
100
AcDbEntity
  8
Capa_1
 62
7
100
AcDbLine
 10
176.681835
 20
604.970337
 30
0.0
 11
176.714773
 21
610.281224
 31
0.0
  0
LINE
  5
181
100
AcDbEntity
  8
Capa_1
 62
7
100
AcDbLine
 10
176.714773
 20
610.281224
 30
0.0
 11
175.957038
 21
610.281224
 31
0.0
  0
LINE
  5
182
100
AcDbEntity
  8
Capa_1
 62
7
100
AcDbLine
 10
175.957038
 20
610.281224
 30
0.0
 11
175.199306
 21
610.281224
 31
0.0
  0
LINE
  5
183
100
AcDbEntity
  8
Capa_1
 62
7
100
AcDbLine
 10
175.199306
 20
610.281224
 30
0.0
 11
175.199306
 21
604.871376
 31
0.0
  0
SPLINE
  5
184
100
AcDbEntity
  8
Capa_1
 62
7
100
AcDbSpline
 70
0
 71
3
 72
16
 73
12
 74
10
 40
0.000000
 40
0.000000
 40
0.000000
 40
0.000000
 40
1.918486
 40
3.384298
 40
4.081596
 40
4.688478
 40
6.269377
 40
9.356598
 40
11.835972
 40
13.604620
 40
14.280656
 40
14.280656
 40
14.280656
 40
14.280656
 10
144.348491
 20
581.019197
 30
0.0
 10
144.787979
 20
580.550452
 30
0.0
 10
145.563256
 20
579.723564
 30
0.0
 10
146.550420
 20
578.823393
 30
0.0
 10
147.175356
 20
578.076588
 30
0.0
 10
148.179418
 20
577.993522
 30
0.0
 10
149.904821
 20
577.953720
 30
0.0
 10
152.305359
 20
577.948492
 30
0.0
 10
154.745339
 20
577.968984
 30
0.0
 10
156.388667
 20
577.967052
 30
0.0
 10
157.201459
 20
578.027085
 30
0.0
 10
157.426223
 20
578.043686
 30
0.0
 11
144.348491
 21
581.019197
 31
0.0
 11
145.680850
 21
579.638831
 31
0.0
 11
146.720152
 21
578.605169
 31
0.0
 11
147.241392
 21
578.141992
 31
0.0
 11
147.836919
 21
578.025142
 31
0.0
 11
149.416811
 21
577.968734
 31
0.0
 11
152.503997
 21
577.954083
 31
0.0
 11
154.983341
 21
577.966359
 31
0.0
 11
156.751696
 21
577.998547
 31
0.0
 11
157.426223
 21
578.043686
 31
0.0
  0
LINE
  5
185
100
AcDbEntity
  8
Capa_1
 62
7
100
AcDbLine
 10
176.144686
 20
599.579215
 30
0.0
 11
176.144695
 21
599.579201
 31
0.0
  0
LINE
  5
186
100
AcDbEntity
  8
Capa_1
 62
7
100
AcDbLine
 10
179.611081
 20
600.305420
 30
0.0
 11
180.178308
 21
600.463678
 31
0.0
  0
LINE
  5
187
100
AcDbEntity
  8
Capa_1
 62
7
100
AcDbLine
 10
180.178308
 20
600.463678
 30
0.0
 11
180.211360
 21
605.372443
 31
0.0
  0
LINE
  5
188
100
AcDbEntity
  8
Capa_1
 62
7
100
AcDbLine
 10
180.211360
 20
605.372443
 30
0.0
 11
180.244412
 21
610.281207
 31
0.0
  0
LINE
  5
189
100
AcDbEntity
  8
Capa_1
 62
7
100
AcDbLine
 10
180.244412
 20
610.281207
 30
0.0
 11
179.423549
 21
610.281207
 31
0.0
  0
LINE
  5
18a
100
AcDbEntity
  8
Capa_1
 62
7
100
AcDbLine
 10
179.423549
 20
610.281207
 30
0.0
 11
178.602690
 21
610.281207
 31
0.0
  0
LINE
  5
18b
100
AcDbEntity
  8
Capa_1
 62
7
100
AcDbLine
 10
178.602690
 20
610.281207
 30
0.0
 11
178.602690
 21
605.201230
 31
0.0
  0
SPLINE
  5
18c
100
AcDbEntity
  8
Capa_1
 62
7
100
AcDbSpline
 70
0
 71
3
 72
10
 73
6
 74
4
 40
0.000000
 40
0.000000
 40
0.000000
 40
0.000000
 40
4.103199
 40
5.361158
 40
6.075893
 40
6.075893
 40
6.075893
 40
6.075893
 10
175.199306
 20
604.871376
 30
0.0
 10
175.251340
 20
603.677820
 30
0.0
 10
175.319326
 20
602.118344
 30
0.0
 10
175.115902
 20
599.340028
 30
0.0
 10
175.871076
 20
599.515602
 30
0.0
 10
176.144686
 20
599.579215
 30
0.0
 11
175.199306
 21
604.871376
 31
0.0
 11
175.210440
 21
600.768192
 31
0.0
 11
175.431658
 21
599.529837
 31
0.0
 11
176.144686
 21
599.579215
 31
0.0
  0
LINE
  5
18d
100
AcDbEntity
  8
Capa_1
 62
7
100
AcDbLine
 10
179.611092
 20
600.305417
 30
0.0
 11
179.611081
 21
600.305420
 31
0.0
  0
SPLINE
  5
18e
100
AcDbEntity
  8
Capa_1
 62
7
100
AcDbSpline
 70
0
 71
3
 72
10
 73
6
 74
4
 40
0.000000
 40
0.000000
 40
0.000000
 40
0.000000
 40
3.880323
 40
5.059917
 40
5.829288
 40
5.829288
 40
5.829288
 40
5.829288
 10
178.602690
 20
605.201230
 30
0.0
 10
178.627042
 20
604.077880
 30
0.0
 10
178.658797
 20
602.613039
 30
0.0
 10
178.579452
 20
599.925914
 30
0.0
 10
179.319107
 20
600.198006
 30
0.0
 10
179.611092
 20
600.305417
 30
0.0
 11
178.602690
 21
605.201230
 31
0.0
 11
178.616567
 21
601.320932
 31
0.0
 11
178.854534
 21
600.165590
 31
0.0
 11
179.611092
 21
600.305417
 31
0.0
  0
LINE
  5
18f
100
AcDbEntity
  8
Capa_1
 62
7
100
AcDbLine
 10
185.188810
 20
602.802652
 30
0.0
 11
185.535451
 21
603.143430
 31
0.0
  0
LINE
  5
190
100
AcDbEntity
  8
Capa_1
 62
7
100
AcDbLine
 10
185.535451
 20
603.143430
 30
0.0
 11
185.535451
 21
606.712314
 31
0.0
  0
LINE
  5
191
100
AcDbEntity
  8
Capa_1
 62
7
100
AcDbLine
 10
185.535451
 20
606.712314
 30
0.0
 11
185.535451
 21
610.281196
 31
0.0
  0
LINE
  5
192
100
AcDbEntity
  8
Capa_1
 62
7
100
AcDbLine
 10
185.535451
 20
610.281196
 30
0.0
 11
183.770745
 21
610.281196
 31
0.0
  0
LINE
  5
193
100
AcDbEntity
  8
Capa_1
 62
7
100
AcDbLine
 10
183.770745
 20
610.281196
 30
0.0
 11
182.006039
 21
610.281196
 31
0.0
  0
LINE
  5
194
100
AcDbEntity
  8
Capa_1
 62
7
100
AcDbLine
 10
182.006039
 20
610.281196
 30
0.0
 11
182.006039
 21
605.729007
 31
0.0
  0
SPLINE
  5
195
100
AcDbEntity
  8
Capa_1
 62
7
100
AcDbSpline
 70
0
 71
3
 72
10
 73
6
 74
4
 40
0.000000
 40
0.000000
 40
0.000000
 40
0.000000
 40
0.771496
 40
1.444951
 40
1.877417
 40
1.877417
 40
1.877417
 40
1.877417
 10
183.592843
 20
601.819347
 30
0.0
 10
183.819188
 20
601.941215
 30
0.0
 10
184.243115
 20
602.169463
 30
0.0
 10
184.783706
 20
602.487635
 30
0.0
 10
185.074929
 20
602.714096
 30
0.0
 10
185.188810
 20
602.802652
 30
0.0
 11
183.592843
 21
601.819347
 31
0.0
 11
184.269637
 21
602.189691
 31
0.0
 11
184.843004
 21
602.542952
 31
0.0
 11
185.188810
 21
602.802652
 31
0.0
  0
LINE
  5
196
100
AcDbEntity
  8
Capa_1
 62
7
100
AcDbLine
 10
183.592851
 20
601.819347
 30
0.0
 11
183.592843
 21
601.819347
 31
0.0
  0
SPLINE
  5
197
100
AcDbEntity
  8
Capa_1
 62
7
100
AcDbSpline
 70
0
 71
3
 72
13
 73
9
 74
7
 40
0.000000
 40
0.000000
 40
0.000000
 40
0.000000
 40
2.831148
 40
4.198421
 40
4.568357
 40
4.839264
 40
5.398574
 40
6.126852
 40
6.126852
 40
6.126852
 40
6.126852
 10
182.006039
 20
605.729007
 30
0.0
 10
182.005828
 20
604.737943
 30
0.0
 10
182.005514
 20
603.268256
 30
0.0
 10
182.038151
 20
602.009035
 30
0.0
 10
182.098323
 20
601.077498
 30
0.0
 10
182.547326
 20
601.337115
 30
0.0
 10
182.981520
 20
601.500435
 30
0.0
 10
183.371994
 20
601.704133
 30
0.0
 10
183.592851
 20
601.819347
 30
0.0
 11
182.006039
 21
605.729007
 31
0.0
 11
182.019187
 21
602.897890
 31
0.0
 11
182.069833
 21
601.531555
 31
0.0
 11
182.174786
 21
601.176818
 31
0.0
 11
182.430984
 21
601.264869
 31
0.0
 11
182.940437
 21
601.495704
 31
0.0
 11
183.592851
 21
601.819347
 31
0.0
  0
LINE
  5
198
100
AcDbEntity
  8
Capa_1
 62
7
100
AcDbLine
 10
102.735842
 20
605.135259
 30
0.0
 11
94.945102
 21
605.135259
 31
0.0
  0
LINE
  5
199
100
AcDbEntity
  8
Capa_1
 62
7
100
AcDbLine
 10
94.945102
 20
605.135259
 30
0.0
 11
94.791067
 21
604.574481
 31
0.0
  0
SPLINE
  5
19a
100
AcDbEntity
  8
Capa_1
 62
7
100
AcDbSpline
 70
0
 71
3
 72
13
 73
9
 74
7
 40
0.000000
 40
0.000000
 40
0.000000
 40
0.000000
 40
0.384740
 40
0.738669
 40
0.986316
 40
1.423310
 40
3.485197
 40
8.964436
 40
8.964436
 40
8.964436
 40
8.964436
 10
111.253799
 20
604.067990
 30
0.0
 10
111.172607
 20
604.167381
 30
0.0
 10
111.016726
 20
604.358204
 30
0.0
 10
110.808067
 20
604.610831
 30
0.0
 10
110.657648
 20
604.937142
 30
0.0
 10
109.720175
 20
605.248928
 30
0.0
 10
107.092473
 20
604.988702
 30
0.0
 10
104.569202
 20
605.073585
 30
0.0
 10
102.735842
 20
605.135259
 30
0.0
 11
111.253799
 21
604.067990
 31
0.0
 11
111.010119
 21
604.365723
 31
0.0
 11
110.799476
 21
604.650143
 31
0.0
 11
110.667470
 21
604.859675
 31
0.0
 11
110.275715
 21
605.053302
 31
0.0
 11
108.215071
 21
605.124901
 31
0.0
 11
102.735842
 21
605.135259
 31
0.0
  0
LINE
  5
19b
100
AcDbEntity
  8
Capa_1
 62
7
100
AcDbLine
 10
103.104646
 20
603.551886
 30
0.0
 11
111.699235
 21
603.551886
 31
0.0
  0
LINE
  5
19c
100
AcDbEntity
  8
Capa_1
 62
7
100
AcDbLine
 10
111.699235
 20
603.551886
 30
0.0
 11
111.253799
 21
604.067990
 31
0.0
  0
LINE
  5
19d
100
AcDbEntity
  8
Capa_1
 62
7
100
AcDbLine
 10
120.115281
 20
608.565881
 30
0.0
 11
120.115281
 21
611.204831
 31
0.0
  0
LINE
  5
19e
100
AcDbEntity
  8
Capa_1
 62
7
100
AcDbLine
 10
120.115281
 20
611.204831
 30
0.0
 11
118.690449
 21
611.204831
 31
0.0
  0
SPLINE
  5
19f
100
AcDbEntity
  8
Capa_1
 62
7
100
AcDbSpline
 70
0
 71
3
 72
13
 73
9
 74
7
 40
0.000000
 40
0.000000
 40
0.000000
 40
0.000000
 40
0.325746
 40
0.620707
 40
0.821027
 40
1.231619
 40
3.547713
 40
9.384151
 40
9.384151
 40
9.384151
 40
9.384151
 10
94.791067
 20
604.574481
 30
0.0
 10
94.760414
 20
604.468894
 30
0.0
 10
94.702004
 20
604.267698
 30
0.0
 10
94.651960
 20
604.014317
 30
0.0
 10
94.495847
 20
603.687533
 30
0.0
 10
95.838560
 20
603.496547
 30
0.0
 10
98.178013
 20
603.634372
 30
0.0
 10
101.049170
 20
603.586300
 30
0.0
 10
103.104646
 20
603.551886
 30
0.0
 11
94.791067
 21
604.574481
 31
0.0
 11
94.704774
 21
604.260373
 31
0.0
 11
94.626626
 21
603.975953
 31
0.0
 11
94.573536
 21
603.782796
 31
0.0
 11
94.952974
 21
603.625910
 31
0.0
 11
97.268219
 21
603.563241
 31
0.0
 11
103.104646
 21
603.551886
 31
0.0
  0
LINE
  5
1a0
100
AcDbEntity
  8
Capa_1
 62
7
100
AcDbLine
 10
118.634190
 20
605.929822
 30
0.0
 11
120.115281
 21
605.926987
 31
0.0
  0
LINE
  5
1a1
100
AcDbEntity
  8
Capa_1
 62
7
100
AcDbLine
 10
120.115281
 20
605.926987
 30
0.0
 11
120.115281
 21
608.565881
 31
0.0
  0
LINE
  5
1a2
100
AcDbEntity
  8
Capa_1
 62
7
100
AcDbLine
 10
151.627887
 20
633.154558
 30
0.0
 11
151.627887
 21
650.618070
 31
0.0
  0
LINE
  5
1a3
100
AcDbEntity
  8
Capa_1
 62
7
100
AcDbLine
 10
151.627887
 20
650.618070
 30
0.0
 11
150.766994
 21
651.033445
 31
0.0
  0
SPLINE
  5
1a4
100
AcDbEntity
  8
Capa_1
 62
7
100
AcDbSpline
 70
0
 71
3
 72
19
 73
15
 74
13
 40
0.000000
 40
0.000000
 40
0.000000
 40
0.000000
 40
0.970734
 40
1.559990
 40
2.100243
 40
2.954624
 40
3.745692
 40
4.636043
 40
5.805802
 40
6.795481
 40
7.770632
 40
8.233271
 40
8.848833
 40
9.795527
 40
9.795527
 40
9.795527
 40
9.795527
 10
118.690449
 20
611.204831
 30
0.0
 10
118.367314
 20
611.206489
 30
0.0
 10
117.848028
 20
611.209154
 30
0.0
 10
117.145025
 20
611.125003
 30
0.0
 10
116.541917
 20
610.842019
 30
0.0
 10
115.926739
 20
610.429858
 30
0.0
 10
115.465508
 20
609.689500
 30
0.0
 10
115.307426
 20
608.740242
 30
0.0
 10
115.352067
 20
607.710258
 30
0.0
 10
115.799767
 20
606.727784
 30
0.0
 10
116.470049
 20
606.217058
 30
0.0
 10
117.122165
 20
605.995902
 30
0.0
 10
117.798637
 20
605.935584
 30
0.0
 10
118.318914
 20
605.931996
 30
0.0
 10
118.634190
 20
605.929822
 30
0.0
 11
118.690449
 21
611.204831
 31
0.0
 11
117.719927
 21
611.184571
 31
0.0
 11
117.138066
 21
611.091507
 31
0.0
 11
116.642132
 21
610.877214
 31
0.0
 11
115.953090
 21
610.372051
 31
0.0
 11
115.530626
 21
609.703237
 31
0.0
 11
115.349885
 21
608.831425
 31
0.0
 11
115.435930
 21
607.664834
 31
0.0
 11
115.868291
 21
606.774593
 31
0.0
 11
116.638988
 21
606.177145
 31
0.0
 11
117.076872
 21
606.027840
 31
0.0
 11
117.687759
 21
605.952116
 31
0.0
 11
118.634190
 21
605.929822
 31
0.0
  0
LINE
  5
1a5
100
AcDbEntity
  8
Capa_1
 62
7
100
AcDbLine
 10
149.737141
 20
633.569933
 30
0.0
 11
149.737141
 21
615.691046
 31
0.0
  0
LINE
  5
1a6
100
AcDbEntity
  8
Capa_1
 62
7
100
AcDbLine
 10
149.737141
 20
615.691046
 30
0.0
 11
150.682521
 21
615.691046
 31
0.0
  0
LINE
  5
1a7
100
AcDbEntity
  8
Capa_1
 62
7
100
AcDbLine
 10
150.682521
 20
615.691046
 30
0.0
 11
151.627898
 21
615.691046
 31
0.0
  0
LINE
  5
1a8
100
AcDbEntity
  8
Capa_1
 62
7
100
AcDbLine
 10
151.627898
 20
615.691046
 30
0.0
 11
151.627887
 21
633.154558
 31
0.0
  0
SPLINE
  5
1a9
100
AcDbEntity
  8
Capa_1
 62
7
100
AcDbSpline
 70
0
 71
3
 72
13
 73
9
 74
7
 40
0.000000
 40
0.000000
 40
0.000000
 40
0.000000
 40
0.491922
 40
0.862897
 40
1.033222
 40
3.483661
 40
9.906888
 40
18.912558
 40
18.912558
 40
18.912558
 40
18.912558
 10
150.766994
 20
651.033445
 30
0.0
 10
150.618088
 20
651.103976
 30
0.0
 10
150.356888
 20
651.227695
 30
0.0
 10
150.049672
 20
651.367100
 30
0.0
 10
149.067554
 20
651.743957
 30
0.0
 10
150.634708
 20
646.411640
 30
0.0
 10
149.314206
 20
642.337173
 30
0.0
 10
149.581263
 20
636.801210
 30
0.0
 10
149.737141
 20
633.569933
 30
0.0
 11
150.766994
 21
651.033445
 31
0.0
 11
150.321781
 21
651.242666
 31
0.0
 11
149.982145
 21
651.391895
 31
0.0
 11
149.821614
 21
651.448820
 31
0.0
 11
149.779065
 21
648.998750
 31
0.0
 11
149.748717
 21
642.575595
 31
0.0
 11
149.737141
 21
633.569933
 31
0.0
  0
LINE
  5
1aa
100
AcDbEntity
  8
Capa_1
 62
7
100
AcDbLine
 10
183.459557
 20
619.938082
 30
0.0
 11
181.999565
 21
619.996589
 31
0.0
  0
LINE
  5
1ab
100
AcDbEntity
  8
Capa_1
 62
7
100
AcDbLine
 10
181.999565
 20
619.996589
 30
0.0
 11
182.034317
 21
618.075510
 31
0.0
  0
LINE
  5
1ac
100
AcDbEntity
  8
Capa_1
 62
7
100
AcDbLine
 10
182.034317
 20
618.075510
 30
0.0
 11
182.069070
 21
616.154431
 31
0.0
  0
LINE
  5
1ad
100
AcDbEntity
  8
Capa_1
 62
7
100
AcDbLine
 10
182.069070
 20
616.154431
 30
0.0
 11
182.699323
 21
616.001389
 31
0.0
  0
SPLINE
  5
1ae
100
AcDbEntity
  8
Capa_1
 62
7
100
AcDbSpline
 70
0
 71
3
 72
37
 73
33
 74
31
 40
0.000000
 40
0.000000
 40
0.000000
 40
0.000000
 40
2.058480
 40
4.480701
 40
7.505065
 40
9.975336
 40
11.975030
 40
14.215894
 40
16.132991
 40
17.886291
 40
19.936666
 40
22.189990
 40
24.825929
 40
27.143334
 40
27.871058
 40
28.396348
 40
28.607131
 40
29.612430
 40
31.842554
 40
34.116318
 40
36.431789
 40
38.521893
 40
40.369373
 40
42.279737
 40
43.682940
 40
45.522921
 40
47.998123
 40
50.169652
 40
53.094972
 40
56.449355
 40
59.176371
 40
61.958804
 40
61.958804
 40
61.958804
 40
61.958804
 10
185.710791
 20
615.968609
 30
0.0
 10
186.384477
 20
616.104127
 30
0.0
 10
187.850893
 20
616.399108
 30
0.0
 10
190.193455
 20
617.306463
 30
0.0
 10
192.568401
 20
618.450573
 30
0.0
 10
194.812406
 20
619.560848
 30
0.0
 10
196.985669
 20
620.158193
 30
0.0
 10
199.041191
 20
620.283340
 30
0.0
 10
201.012635
 20
620.315295
 30
0.0
 10
202.913278
 20
620.114289
 30
0.0
 10
204.894209
 20
619.709596
 30
0.0
 10
207.116414
 20
619.067999
 30
0.0
 10
209.396269
 20
618.284178
 30
0.0
 10
211.132828
 20
617.578365
 30
0.0
 10
212.242931
 20
617.078376
 30
0.0
 10
212.652076
 20
616.895948
 30
0.0
 10
213.319600
 20
616.684523
 30
0.0
 10
211.489769
 20
618.082665
 30
0.0
 10
210.737543
 20
618.868212
 30
0.0
 10
208.768151
 20
620.452365
 30
0.0
 10
207.039439
 20
621.744571
 30
0.0
 10
205.300504
 20
622.927380
 30
0.0
 10
203.610394
 20
623.888852
 30
0.0
 10
202.091055
 20
624.713270
 30
0.0
 10
200.408766
 20
625.148199
 30
0.0
 10
198.496377
 20
625.118458
 30
0.0
 10
196.318009
 20
625.100634
 30
0.0
 10
193.904743
 20
624.221767
 30
0.0
 10
191.595300
 20
622.595754
 30
0.0
 10
189.071207
 20
620.963551
 30
0.0
 10
186.240732
 20
619.950715
 30
0.0
 10
184.392811
 20
619.942321
 30
0.0
 10
183.459557
 20
619.938082
 30
0.0
 11
185.710791
 21
615.968609
 31
0.0
 11
187.717529
 21
616.427236
 31
0.0
 11
189.992425
 21
617.259105
 31
0.0
 11
192.733690
 21
618.536696
 31
0.0
 11
194.986643
 21
619.549832
 31
0.0
 11
196.916971
 21
620.071954
 31
0.0
 11
199.148896
 21
620.271904
 31
0.0
 11
201.065989
 21
620.275585
 31
0.0
 11
202.810388
 21
620.099126
 31
0.0
 11
204.821164
 21
619.698110
 31
0.0
 11
206.989879
 21
619.086436
 31
0.0
 11
209.482058
 21
618.227824
 31
0.0
 11
211.627998
 21
617.353004
 31
0.0
 11
212.292597
 21
617.056541
 31
0.0
 11
212.778903
 21
616.857957
 31
0.0
 11
212.981632
 21
616.800246
 31
0.0
 11
212.263319
 21
617.503560
 31
0.0
 11
210.575374
 21
618.961056
 31
0.0
 11
208.813969
 21
620.398922
 31
0.0
 11
206.957649
 21
621.782931
 31
0.0
 11
205.220922
 21
622.945821
 31
0.0
 11
203.623685
 21
623.874268
 31
0.0
 11
201.906458
 21
624.711300
 31
0.0
 11
200.546491
 21
625.056943
 31
0.0
 11
198.707720
 21
625.123687
 31
0.0
 11
196.238593
 21
624.950390
 31
0.0
 11
194.187021
 21
624.238636
 31
0.0
 11
191.703039
 21
622.693539
 31
0.0
 11
188.823078
 21
620.973739
 31
0.0
 11
186.236722
 21
620.109227
 31
0.0
 11
183.459557
 21
619.938082
 31
0.0
  0
LINE
  5
1af
100
AcDbEntity
  8
Capa_1
 62
7
100
AcDbLine
 10
185.710796
 20
615.968620
 30
0.0
 11
185.710791
 21
615.968609
 31
0.0
  0
LINE
  5
1b0
100
AcDbEntity
  8
Capa_1
 62
7
100
AcDbLine
 10
180.241333
 20
618.646099
 30
0.0
 11
180.241333
 21
620.165302
 31
0.0
  0
LINE
  5
1b1
100
AcDbEntity
  8
Capa_1
 62
7
100
AcDbLine
 10
180.241333
 20
620.165302
 30
0.0
 11
179.768645
 21
620.242773
 31
0.0
  0
SPLINE
  5
1b2
100
AcDbEntity
  8
Capa_1
 62
7
100
AcDbSpline
 70
0
 71
3
 72
10
 73
6
 74
4
 40
0.000000
 40
0.000000
 40
0.000000
 40
0.000000
 40
0.885014
 40
1.938429
 40
3.025058
 40
3.025058
 40
3.025058
 40
3.025058
 10
182.699323
 20
616.001389
 30
0.0
 10
182.990649
 20
615.952719
 30
0.0
 10
183.628736
 20
615.846119
 30
0.0
 10
184.642084
 20
615.846767
 30
0.0
 10
185.350892
 20
615.927584
 30
0.0
 10
185.710796
 20
615.968620
 30
0.0
 11
182.699323
 21
616.001389
 31
0.0
 11
183.575649
 21
615.877687
 31
0.0
 11
184.629001
 21
615.866231
 31
0.0
 11
185.710796
 21
615.968620
 31
0.0
  0
LINE
  5
1b3
100
AcDbEntity
  8
Capa_1
 62
7
100
AcDbLine
 10
178.949316
 20
620.377390
 30
0.0
 11
178.602678
 21
620.434536
 31
0.0
  0
LINE
  5
1b4
100
AcDbEntity
  8
Capa_1
 62
7
100
AcDbLine
 10
178.602678
 20
620.434536
 30
0.0
 11
178.602678
 21
619.398300
 31
0.0
  0
LINE
  5
1b5
100
AcDbEntity
  8
Capa_1
 62
7
100
AcDbLine
 10
178.602678
 20
619.398300
 30
0.0
 11
178.602678
 21
618.362065
 31
0.0
  0
LINE
  5
1b6
100
AcDbEntity
  8
Capa_1
 62
7
100
AcDbLine
 10
178.602678
 20
618.362065
 30
0.0
 11
179.264441
 21
617.837689
 31
0.0
  0
SPLINE
  5
1b7
100
AcDbEntity
  8
Capa_1
 62
7
100
AcDbSpline
 70
0
 71
3
 72
10
 73
6
 74
4
 40
0.000000
 40
0.000000
 40
0.000000
 40
0.000000
 40
0.289423
 40
0.587719
 40
0.830314
 40
0.830314
 40
0.830314
 40
0.830314
 10
179.768645
 20
620.242773
 30
0.0
 10
179.673442
 20
620.258387
 30
0.0
 10
179.480119
 20
620.290094
 30
0.0
 10
179.207010
 20
620.334973
 30
0.0
 10
179.029107
 20
620.364256
 30
0.0
 10
178.949316
 20
620.377390
 30
0.0
 11
179.768645
 21
620.242773
 31
0.0
 11
179.483040
 21
620.289629
 31
0.0
 11
179.188691
 21
620.337998
 31
0.0
 11
178.949316
 21
620.377390
 31
0.0
  0
LINE
  5
1b8
100
AcDbEntity
  8
Capa_1
 62
7
100
AcDbLine
 10
180.241347
 20
618.646076
 30
0.0
 11
180.241333
 21
618.646099
 31
0.0
  0
SPLINE
  5
1b9
100
AcDbEntity
  8
Capa_1
 62
7
100
AcDbSpline
 70
0
 71
3
 72
13
 73
9
 74
7
 40
0.000000
 40
0.000000
 40
0.000000
 40
0.000000
 40
0.450165
 40
0.818774
 40
1.026222
 40
1.147980
 40
1.591716
 40
2.500740
 40
2.500740
 40
2.500740
 40
2.500740
 10
179.264441
 20
617.837689
 30
0.0
 10
179.382439
 20
617.739603
 30
0.0
 10
179.597057
 20
617.561201
 30
0.0
 10
179.869915
 20
617.409554
 30
0.0
 10
180.058272
 20
617.167883
 30
0.0
 10
180.280907
 20
617.384363
 30
0.0
 10
180.183595
 20
617.905282
 30
0.0
 10
180.218136
 20
618.348347
 30
0.0
 10
180.241347
 20
618.646076
 30
0.0
 11
179.264441
 21
617.837689
 31
0.0
 11
179.619366
 21
617.560785
 31
0.0
 11
179.913717
 21
617.338907
 31
0.0
 11
180.083769
 21
617.220091
 31
0.0
 11
180.178884
 21
617.296105
 31
0.0
 11
180.227625
 21
617.737156
 31
0.0
 11
180.241347
 21
618.646076
 31
0.0
  0
LINE
  5
1ba
100
AcDbEntity
  8
Capa_1
 62
7
100
AcDbLine
 10
123.264697
 20
628.113943
 30
0.0
 11
127.426207
 21
632.599288
 31
0.0
  0
LINE
  5
1bb
100
AcDbEntity
  8
Capa_1
 62
7
100
AcDbLine
 10
127.426207
 20
632.599288
 30
0.0
 11
127.426207
 21
643.541451
 31
0.0
  0
LINE
  5
1bc
100
AcDbEntity
  8
Capa_1
 62
7
100
AcDbLine
 10
127.426207
 20
643.541451
 30
0.0
 11
127.426207
 21
654.483614
 31
0.0
  0
LINE
  5
1bd
100
AcDbEntity
  8
Capa_1
 62
7
100
AcDbLine
 10
127.426207
 20
654.483614
 30
0.0
 11
126.827467
 21
654.481593
 31
0.0
  0
SPLINE
  5
1be
100
AcDbEntity
  8
Capa_1
 62
7
100
AcDbSpline
 70
0
 71
3
 72
10
 73
6
 74
4
 40
0.000000
 40
0.000000
 40
0.000000
 40
0.000000
 40
0.916815
 40
3.170502
 40
6.273580
 40
6.273580
 40
6.273580
 40
6.273580
 10
118.947470
 20
623.562690
 30
0.0
 10
119.164573
 20
623.777797
 30
0.0
 10
119.915355
 20
624.521673
 30
0.0
 10
121.339455
 20
626.053680
 30
0.0
 10
122.558517
 20
627.358237
 30
0.0
 10
123.264697
 20
628.113943
 30
0.0
 11
118.947470
 21
623.562690
 31
0.0
 11
119.596182
 21
624.210549
 31
0.0
 11
121.147189
 21
625.845628
 31
0.0
 11
123.264697
 21
628.113943
 31
0.0
  0
LINE
  5
1bf
100
AcDbEntity
  8
Capa_1
 62
7
100
AcDbLine
 10
125.884281
 20
643.510803
 30
0.0
 11
125.850577
 21
632.748660
 31
0.0
  0
LINE
  5
1c0
100
AcDbEntity
  8
Capa_1
 62
7
100
AcDbLine
 10
125.850577
 20
632.748660
 30
0.0
 11
124.752478
 21
631.509951
 31
0.0
  0
SPLINE
  5
1c1
100
AcDbEntity
  8
Capa_1
 62
7
100
AcDbSpline
 70
0
 71
3
 72
13
 73
9
 74
7
 40
0.000000
 40
0.000000
 40
0.000000
 40
0.000000
 40
0.323236
 40
0.596789
 40
0.765423
 40
1.766399
 40
5.124275
 40
11.636167
 40
11.636167
 40
11.636167
 40
11.636167
 10
126.827467
 20
654.481593
 30
0.0
 10
126.719331
 20
654.478226
 30
0.0
 10
126.519680
 20
654.472009
 30
0.0
 10
126.270297
 20
654.441863
 30
0.0
 10
125.779216
 20
654.306987
 30
0.0
 10
126.269472
 20
652.297628
 30
0.0
 10
125.662997
 20
649.190813
 30
0.0
 10
125.796318
 20
645.768670
 30
0.0
 10
125.884281
 20
643.510803
 30
0.0
 11
126.827467
 21
654.481593
 31
0.0
 11
126.504588
 21
654.466420
 31
0.0
 11
126.233665
 21
654.428580
 31
0.0
 11
126.073352
 21
654.376258
 31
0.0
 11
125.976542
 21
653.379975
 31
0.0
 11
125.918125
 21
650.022607
 31
0.0
 11
125.884281
 21
643.510803
 31
0.0
  0
LINE
  5
1c2
100
AcDbEntity
  8
Capa_1
 62
7
100
AcDbLine
 10
121.286092
 20
627.727813
 30
0.0
 11
118.917802
 21
625.184382
 31
0.0
  0
LINE
  5
1c3
100
AcDbEntity
  8
Capa_1
 62
7
100
AcDbLine
 10
118.917802
 20
625.184382
 30
0.0
 11
109.747636
 21
625.187784
 31
0.0
  0
LINE
  5
1c4
100
AcDbEntity
  8
Capa_1
 62
7
100
AcDbLine
 10
109.747636
 20
625.187784
 30
0.0
 11
100.577466
 21
625.191185
 31
0.0
  0
LINE
  5
1c5
100
AcDbEntity
  8
Capa_1
 62
7
100
AcDbLine
 10
100.577466
 20
625.191185
 30
0.0
 11
100.577466
 21
624.333526
 31
0.0
  0
LINE
  5
1c6
100
AcDbEntity
  8
Capa_1
 62
7
100
AcDbLine
 10
100.577466
 20
624.333526
 30
0.0
 11
100.577466
 21
623.475870
 31
0.0
  0
LINE
  5
1c7
100
AcDbEntity
  8
Capa_1
 62
7
100
AcDbLine
 10
100.577466
 20
623.475870
 30
0.0
 11
109.684610
 21
623.486358
 31
0.0
  0
SPLINE
  5
1c8
100
AcDbEntity
  8
Capa_1
 62
7
100
AcDbSpline
 70
0
 71
3
 72
10
 73
6
 74
4
 40
0.000000
 40
0.000000
 40
0.000000
 40
0.000000
 40
1.309968
 40
3.153091
 40
5.130405
 40
5.130405
 40
5.130405
 40
5.130405
 10
124.752478
 20
631.509951
 30
0.0
 10
124.460391
 20
631.185366
 30
0.0
 10
123.757337
 20
630.404091
 30
0.0
 10
122.600215
 20
629.144834
 30
0.0
 10
121.734272
 20
628.211086
 30
0.0
 10
121.286092
 20
627.727813
 30
0.0
 11
124.752478
 21
631.509951
 31
0.0
 11
123.874818
 21
630.537464
 31
0.0
 11
122.629486
 21
629.178697
 31
0.0
 11
121.286092
 21
627.727813
 31
0.0
  0
LINE
  5
1c9
100
AcDbEntity
  8
Capa_1
 62
7
100
AcDbLine
 10
118.947470
 20
623.562695
 30
0.0
 11
118.947470
 21
623.562690
 31
0.0
  0
SPLINE
  5
1ca
100
AcDbEntity
  8
Capa_1
 62
7
100
AcDbSpline
 70
0
 71
3
 72
10
 73
6
 74
4
 40
0.000000
 40
0.000000
 40
0.000000
 40
0.000000
 40
4.608663
 40
7.936544
 40
9.263447
 40
9.263447
 40
9.263447
 40
9.263447
 10
109.684610
 20
623.486358
 30
0.0
 10
111.220785
 20
623.491705
 30
0.0
 10
113.866220
 20
623.500912
 30
0.0
 10
116.954346
 20
623.505480
 30
0.0
 10
118.505340
 20
623.550003
 30
0.0
 10
118.947470
 20
623.562695
 30
0.0
 11
109.684610
 21
623.486358
 31
0.0
 11
114.293251
 21
623.500613
 31
0.0
 11
117.621019
 21
623.528051
 31
0.0
 11
118.947470
 21
623.562695
 31
0.0
  0
LINE
  5
1cb
100
AcDbEntity
  8
Capa_1
 62
7
100
AcDbLine
 10
176.302256
 20
624.474136
 30
0.0
 11
176.711922
 21
624.543500
 31
0.0
  0
LINE
  5
1cc
100
AcDbEntity
  8
Capa_1
 62
7
100
AcDbLine
 10
176.711922
 20
624.543500
 30
0.0
 11
176.711922
 21
631.383403
 31
0.0
  0
LINE
  5
1cd
100
AcDbEntity
  8
Capa_1
 62
7
100
AcDbLine
 10
176.711922
 20
631.383403
 30
0.0
 11
176.711922
 21
638.223307
 31
0.0
  0
LINE
  5
1ce
100
AcDbEntity
  8
Capa_1
 62
7
100
AcDbLine
 10
176.711922
 20
638.223307
 30
0.0
 11
176.428307
 21
638.302876
 31
0.0
  0
SPLINE
  5
1cf
100
AcDbEntity
  8
Capa_1
 62
7
100
AcDbSpline
 70
0
 71
3
 72
10
 73
6
 74
4
 40
0.000000
 40
0.000000
 40
0.000000
 40
0.000000
 40
0.217692
 40
0.481624
 40
0.734650
 40
0.734650
 40
0.734650
 40
0.734650
 10
175.577468
 20
624.354174
 30
0.0
 10
175.649096
 20
624.365793
 30
0.0
 10
175.807566
 20
624.391498
 30
0.0
 10
176.049152
 20
624.431549
 30
0.0
 10
176.219083
 20
624.460142
 30
0.0
 10
176.302256
 20
624.474136
 30
0.0
 11
175.577468
 21
624.354174
 31
0.0
 11
175.792333
 21
624.389143
 31
0.0
 11
176.052721
 21
624.432251
 31
0.0
 11
176.302256
 21
624.474136
 31
0.0
  0
LINE
  5
1d0
100
AcDbEntity
  8
Capa_1
 62
7
100
AcDbLine
 10
175.672003
 20
638.384230
 30
0.0
 11
175.199315
 21
638.386033
 31
0.0
  0
LINE
  5
1d1
100
AcDbEntity
  8
Capa_1
 62
7
100
AcDbLine
 10
175.199315
 20
638.386033
 30
0.0
 11
175.199315
 21
631.326838
 31
0.0
  0
SPLINE
  5
1d2
100
AcDbEntity
  8
Capa_1
 62
7
100
AcDbSpline
 70
0
 71
3
 72
10
 73
6
 74
4
 40
0.000000
 40
0.000000
 40
0.000000
 40
0.000000
 40
0.211514
 40
0.484789
 40
0.762001
 40
0.762001
 40
0.762001
 40
0.762001
 10
176.428307
 20
638.302876
 30
0.0
 10
176.359284
 20
638.317437
 30
0.0
 10
176.201084
 20
638.350811
 30
0.0
 10
175.947748
 20
638.375523
 30
0.0
 10
175.764356
 20
638.381314
 30
0.0
 10
175.672003
 20
638.384230
 30
0.0
 11
176.428307
 21
638.302876
 31
0.0
 11
176.220672
 21
638.343199
 31
0.0
 11
175.948964
 21
638.372423
 31
0.0
 11
175.672003
 21
638.384230
 31
0.0
  0
LINE
  5
1d3
100
AcDbEntity
  8
Capa_1
 62
7
100
AcDbLine
 10
175.577477
 20
624.354185
 30
0.0
 11
175.577468
 21
624.354174
 31
0.0
  0
LINE
  5
1d4
100
AcDbEntity
  8
Capa_1
 62
7
100
AcDbLine
 10
179.579568
 20
624.760753
 30
0.0
 11
180.241333
 21
624.809225
 31
0.0
  0
LINE
  5
1d5
100
AcDbEntity
  8
Capa_1
 62
7
100
AcDbLine
 10
180.241333
 20
624.809225
 30
0.0
 11
180.241333
 21
631.465679
 31
0.0
  0
LINE
  5
1d6
100
AcDbEntity
  8
Capa_1
 62
7
100
AcDbLine
 10
180.241333
 20
631.465679
 30
0.0
 11
180.241333
 21
638.122133
 31
0.0
  0
LINE
  5
1d7
100
AcDbEntity
  8
Capa_1
 62
7
100
AcDbLine
 10
180.241333
 20
638.122133
 30
0.0
 11
179.422004
 21
638.122133
 31
0.0
  0
LINE
  5
1d8
100
AcDbEntity
  8
Capa_1
 62
7
100
AcDbLine
 10
179.422004
 20
638.122133
 30
0.0
 11
178.602678
 21
638.122133
 31
0.0
  0
LINE
  5
1d9
100
AcDbEntity
  8
Capa_1
 62
7
100
AcDbLine
 10
178.602678
 20
638.122133
 30
0.0
 11
178.602678
 21
631.392812
 31
0.0
  0
SPLINE
  5
1da
100
AcDbEntity
  8
Capa_1
 62
7
100
AcDbSpline
 70
0
 71
3
 72
13
 73
9
 74
7
 40
0.000000
 40
0.000000
 40
0.000000
 40
0.000000
 40
3.553281
 40
6.082930
 40
7.041383
 40
7.102550
 40
7.229501
 40
7.394941
 40
7.394941
 40
7.394941
 40
7.394941
 10
175.199315
 20
631.326838
 30
0.0
 10
175.136072
 20
630.054706
 30
0.0
 10
175.027804
 20
627.876919
 30
0.0
 10
175.560770
 20
626.248599
 30
0.0
 10
174.930295
 20
624.187080
 30
0.0
 10
175.311940
 20
624.309765
 30
0.0
 10
175.426611
 20
624.327864
 30
0.0
 10
175.522960
 20
624.344674
 30
0.0
 10
175.577477
 20
624.354185
 30
0.0
 11
175.199315
 21
631.326838
 31
0.0
 11
175.203632
 21
627.773560
 31
0.0
 11
175.214954
 21
625.243936
 31
0.0
 11
175.230836
 21
624.285615
 31
0.0
 11
175.289873
 21
624.301616
 31
0.0
 11
175.414414
 21
624.326241
 31
0.0
 11
175.577477
 21
624.354185
 31
0.0
  0
LINE
  5
1db
100
AcDbEntity
  8
Capa_1
 62
7
100
AcDbLine
 10
179.579557
 20
624.760773
 30
0.0
 11
179.579568
 21
624.760753
 31
0.0
  0
SPLINE
  5
1dc
100
AcDbEntity
  8
Capa_1
 62
7
100
AcDbSpline
 70
0
 71
3
 72
13
 73
9
 74
7
 40
0.000000
 40
0.000000
 40
0.000000
 40
0.000000
 40
4.101950
 40
6.155420
 40
6.713835
 40
6.884931
 40
7.180447
 40
7.536460
 40
7.536460
 40
7.536460
 40
7.536460
 10
178.602678
 20
631.392812
 30
0.0
 10
178.562412
 20
629.941883
 30
0.0
 10
178.501987
 20
627.764609
 30
0.0
 10
178.765259
 20
626.005942
 30
0.0
 10
178.599016
 20
624.628217
 30
0.0
 10
178.979857
 20
624.723686
 30
0.0
 10
179.241548
 20
624.730608
 30
0.0
 10
179.460122
 20
624.750114
 30
0.0
 10
179.579557
 20
624.760773
 30
0.0
 11
178.602678
 21
631.392812
 31
0.0
 11
178.615903
 21
627.290883
 31
0.0
 11
178.664138
 21
625.237980
 31
0.0
 11
178.760228
 21
624.687894
 31
0.0
 11
178.930277
 21
624.706782
 31
0.0
 11
179.224630
 21
624.732984
 31
0.0
 11
179.579557
 21
624.760773
 31
0.0
  0
LINE
  5
1dd
100
AcDbEntity
  8
Capa_1
 62
7
100
AcDbLine
 10
190.402634
 20
629.179379
 30
0.0
 11
190.892594
 21
630.139297
 31
0.0
  0
LINE
  5
1de
100
AcDbEntity
  8
Capa_1
 62
7
100
AcDbLine
 10
190.892594
 20
630.139297
 30
0.0
 11
190.930408
 21
634.444778
 31
0.0
  0
LINE
  5
1df
100
AcDbEntity
  8
Capa_1
 62
7
100
AcDbLine
 10
190.930408
 20
634.444778
 30
0.0
 11
190.968222
 21
638.750259
 31
0.0
  0
LINE
  5
1e0
100
AcDbEntity
  8
Capa_1
 62
7
100
AcDbLine
 10
190.968222
 20
638.750259
 30
0.0
 11
190.378542
 21
638.634946
 31
0.0
  0
SPLINE
  5
1e1
100
AcDbEntity
  8
Capa_1
 62
7
100
AcDbSpline
 70
0
 71
3
 72
10
 73
6
 74
4
 40
0.000000
 40
0.000000
 40
0.000000
 40
0.000000
 40
2.122684
 40
4.424306
 40
6.591571
 40
6.591571
 40
6.591571
 40
6.591571
 10
185.389758
 20
625.120418
 30
0.0
 10
186.051809
 20
625.377162
 30
0.0
 10
187.431721
 20
625.912293
 30
0.0
 10
189.175120
 20
627.331164
 30
0.0
 10
190.001747
 20
628.575780
 30
0.0
 10
190.402634
 20
629.179379
 30
0.0
 11
185.389758
 21
625.120418
 31
0.0
 11
187.327634
 21
625.986690
 31
0.0
 11
189.116398
 21
627.435064
 31
0.0
 11
190.402634
 21
629.179379
 31
0.0
  0
LINE
  5
1e2
100
AcDbEntity
  8
Capa_1
 62
7
100
AcDbLine
 10
184.117360
 20
638.049453
 30
0.0
 11
182.006016
 21
637.958149
 31
0.0
  0
LINE
  5
1e3
100
AcDbEntity
  8
Capa_1
 62
7
100
AcDbLine
 10
182.006016
 20
637.958149
 30
0.0
 11
182.006016
 21
631.442761
 31
0.0
  0
LINE
  5
1e4
100
AcDbEntity
  8
Capa_1
 62
7
100
AcDbLine
 10
182.006016
 20
631.442761
 30
0.0
 11
182.006016
 21
624.927373
 31
0.0
  0
LINE
  5
1e5
100
AcDbEntity
  8
Capa_1
 62
7
100
AcDbLine
 10
182.006016
 20
624.927373
 30
0.0
 11
183.361056
 21
624.938712
 31
0.0
  0
SPLINE
  5
1e6
100
AcDbEntity
  8
Capa_1
 62
7
100
AcDbSpline
 70
0
 71
3
 72
10
 73
6
 74
4
 40
0.000000
 40
0.000000
 40
0.000000
 40
0.000000
 40
1.631530
 40
3.941785
 40
6.291181
 40
6.291181
 40
6.291181
 40
6.291181
 10
190.378542
 20
638.634946
 30
0.0
 10
189.840361
 20
638.556112
 30
0.0
 10
188.540112
 20
638.365650
 30
0.0
 10
186.449696
 20
638.184492
 30
0.0
 10
184.899147
 20
638.094717
 30
0.0
 10
184.117360
 20
638.049453
 30
0.0
 11
190.378542
 21
638.634946
 31
0.0
 11
188.762368
 21
638.411629
 31
0.0
 11
186.462147
 21
638.196534
 31
0.0
 11
184.117360
 21
638.049453
 31
0.0
  0
LINE
  5
1e7
100
AcDbEntity
  8
Capa_1
 62
7
100
AcDbLine
 10
185.389736
 20
625.120526
 30
0.0
 11
185.389758
 21
625.120418
 31
0.0
  0
SPLINE
  5
1e8
100
AcDbEntity
  8
Capa_1
 62
7
100
AcDbSpline
 70
0
 71
3
 72
10
 73
6
 74
4
 40
0.000000
 40
0.000000
 40
0.000000
 40
0.000000
 40
0.775398
 40
1.507140
 40
2.039378
 40
2.039378
 40
2.039378
 40
2.039378
 10
183.361056
 20
624.938712
 30
0.0
 10
183.619377
 20
624.946250
 30
0.0
 10
184.121475
 20
624.960901
 30
0.0
 10
184.800328
 20
625.013673
 30
0.0
 10
185.215088
 20
625.088864
 30
0.0
 10
185.389736
 20
625.120526
 30
0.0
 11
183.361056
 21
624.938712
 31
0.0
 11
184.135910
 21
624.967770
 31
0.0
 11
184.864732
 21
625.033074
 31
0.0
 11
185.389736
 21
625.120526
 31
0.0
  0
LINE
  5
1e9
100
AcDbEntity
  8
Capa_1
 62
7
100
AcDbLine
 10
123.298055
 20
631.880830
 30
0.0
 11
124.022846
 21
632.717532
 31
0.0
  0
LINE
  5
1ea
100
AcDbEntity
  8
Capa_1
 62
7
100
AcDbLine
 10
124.022846
 20
632.717532
 30
0.0
 11
124.022846
 21
643.479109
 31
0.0
  0
LINE
  5
1eb
100
AcDbEntity
  8
Capa_1
 62
7
100
AcDbLine
 10
124.022846
 20
643.479109
 30
0.0
 11
124.022846
 21
654.240688
 31
0.0
  0
LINE
  5
1ec
100
AcDbEntity
  8
Capa_1
 62
7
100
AcDbLine
 10
124.022846
 20
654.240688
 30
0.0
 11
123.676206
 21
654.168745
 31
0.0
  0
SPLINE
  5
1ed
100
AcDbEntity
  8
Capa_1
 62
7
100
AcDbSpline
 70
0
 71
3
 72
10
 73
6
 74
4
 40
0.000000
 40
0.000000
 40
0.000000
 40
0.000000
 40
1.469186
 40
2.806508
 40
3.722481
 40
3.722481
 40
3.722481
 40
3.722481
 10
120.815291
 20
629.107302
 30
0.0
 10
121.143806
 20
629.470499
 30
0.0
 10
121.771349
 20
630.164293
 30
0.0
 10
122.600211
 20
631.087702
 30
0.0
 10
123.096366
 20
631.651602
 30
0.0
 10
123.298055
 20
631.880830
 30
0.0
 11
120.815291
 21
629.107302
 31
0.0
 11
121.800112
 21
630.197548
 31
0.0
 11
122.692068
 21
631.193964
 31
0.0
 11
123.298055
 21
631.880830
 31
0.0
  0
LINE
  5
1ee
100
AcDbEntity
  8
Capa_1
 62
7
100
AcDbLine
 10
122.856880
 20
654.011620
 30
0.0
 11
122.384188
 21
653.926439
 31
0.0
  0
LINE
  5
1ef
100
AcDbEntity
  8
Capa_1
 62
7
100
AcDbLine
 10
122.384188
 20
653.926439
 30
0.0
 11
122.384188
 21
643.318226
 31
0.0
  0
LINE
  5
1f0
100
AcDbEntity
  8
Capa_1
 62
7
100
AcDbLine
 10
122.384188
 20
643.318226
 30
0.0
 11
122.384188
 21
632.710012
 31
0.0
  0
LINE
  5
1f1
100
AcDbEntity
  8
Capa_1
 62
7
100
AcDbLine
 10
122.384188
 20
632.710012
 30
0.0
 11
121.344273
 21
631.512598
 31
0.0
  0
SPLINE
  5
1f2
100
AcDbEntity
  8
Capa_1
 62
7
100
AcDbSpline
 70
0
 71
3
 72
10
 73
6
 74
4
 40
0.000000
 40
0.000000
 40
0.000000
 40
0.000000
 40
0.244130
 40
0.543842
 40
0.834271
 40
0.834271
 40
0.834271
 40
0.834271
 10
123.676206
 20
654.168745
 30
0.0
 10
123.596436
 20
654.152652
 30
0.0
 10
123.418734
 20
654.116803
 30
0.0
 10
123.145581
 20
654.064603
 30
0.0
 10
122.952099
 20
654.029095
 30
0.0
 10
122.856880
 20
654.011620
 30
0.0
 11
123.676206
 21
654.168745
 31
0.0
 11
123.436823
 21
654.120834
 31
0.0
 11
123.142474
 21
654.064388
 31
0.0
 11
122.856880
 21
654.011620
 31
0.0
  0
LINE
  5
1f3
100
AcDbEntity
  8
Capa_1
 62
7
100
AcDbLine
 10
119.656327
 20
629.567495
 30
0.0
 11
119.008298
 21
628.819809
 31
0.0
  0
LINE
  5
1f4
100
AcDbEntity
  8
Capa_1
 62
7
100
AcDbLine
 10
119.008298
 20
628.819809
 30
0.0
 11
109.866983
 21
628.784291
 31
0.0
  0
LINE
  5
1f5
100
AcDbEntity
  8
Capa_1
 62
7
100
AcDbLine
 10
109.866983
 20
628.784291
 30
0.0
 11
100.725664
 21
628.748773
 31
0.0
  0
LINE
  5
1f6
100
AcDbEntity
  8
Capa_1
 62
7
100
AcDbLine
 10
100.725664
 20
628.748773
 30
0.0
 11
100.683088
 21
627.959375
 31
0.0
  0
LINE
  5
1f7
100
AcDbEntity
  8
Capa_1
 62
7
100
AcDbLine
 10
100.683088
 20
627.959375
 30
0.0
 11
100.640511
 21
627.169975
 31
0.0
  0
LINE
  5
1f8
100
AcDbEntity
  8
Capa_1
 62
7
100
AcDbLine
 10
100.640511
 20
627.169975
 30
0.0
 11
109.848926
 21
627.170238
 31
0.0
  0
LINE
  5
1f9
100
AcDbEntity
  8
Capa_1
 62
7
100
AcDbLine
 10
109.848926
 20
627.170238
 30
0.0
 11
119.057340
 21
627.170457
 31
0.0
  0
LINE
  5
1fa
100
AcDbEntity
  8
Capa_1
 62
7
100
AcDbLine
 10
119.057340
 20
627.170457
 30
0.0
 11
120.815291
 21
629.107302
 31
0.0
  0
LINE
  5
1fb
100
AcDbEntity
  8
Capa_1
 62
7
100
AcDbLine
 10
119.723729
 20
631.623708
 30
0.0
 11
120.488610
 21
632.514353
 31
0.0
  0
LINE
  5
1fc
100
AcDbEntity
  8
Capa_1
 62
7
100
AcDbLine
 10
120.488610
 20
632.514353
 30
0.0
 11
120.491019
 21
642.971194
 31
0.0
  0
SPLINE
  5
1fd
100
AcDbEntity
  8
Capa_1
 62
7
100
AcDbSpline
 70
0
 71
3
 72
10
 73
6
 74
4
 40
0.000000
 40
0.000000
 40
0.000000
 40
0.000000
 40
0.934435
 40
1.859665
 40
2.575381
 40
2.575381
 40
2.575381
 40
2.575381
 10
121.344273
 20
631.512598
 30
0.0
 10
121.140059
 20
631.277406
 30
0.0
 10
120.733643
 20
630.809338
 30
0.0
 10
120.170971
 20
630.160990
 30
0.0
 10
119.812624
 20
629.747739
 30
0.0
 10
119.656327
 20
629.567495
 30
0.0
 11
121.344273
 21
631.512598
 31
0.0
 11
120.731660
 21
630.806996
 31
0.0
 11
120.125249
 21
630.108199
 31
0.0
 11
119.656327
 21
629.567495
 31
0.0
  0
LINE
  5
1fe
100
AcDbEntity
  8
Capa_1
 62
7
100
AcDbLine
 10
100.912980
 20
631.227864
 30
0.0
 11
100.845403
 21
630.733062
 31
0.0
  0
LINE
  5
1ff
100
AcDbEntity
  8
Capa_1
 62
7
100
AcDbLine
 10
100.845403
 20
630.733062
 30
0.0
 11
109.902118
 21
630.733062
 31
0.0
  0
LINE
  5
200
100
AcDbEntity
  8
Capa_1
 62
7
100
AcDbLine
 10
109.902118
 20
630.733062
 30
0.0
 11
118.958831
 21
630.733062
 31
0.0
  0
LINE
  5
201
100
AcDbEntity
  8
Capa_1
 62
7
100
AcDbLine
 10
118.958831
 20
630.733062
 30
0.0
 11
119.723729
 21
631.623708
 31
0.0
  0
SPLINE
  5
202
100
AcDbEntity
  8
Capa_1
 62
7
100
AcDbSpline
 70
0
 71
3
 72
22
 73
18
 74
16
 40
0.000000
 40
0.000000
 40
0.000000
 40
0.000000
 40
6.661115
 40
9.721279
 40
10.465827
 40
11.525520
 40
13.385339
 40
15.330019
 40
18.519468
 40
21.498880
 40
24.489754
 40
28.750684
 40
32.791284
 40
36.577448
 40
38.018072
 40
39.843040
 40
41.558327
 40
41.558327
 40
41.558327
 40
41.558327
 10
120.491019
 20
642.971194
 30
0.0
 10
120.514317
 20
645.279565
 30
0.0
 10
120.548318
 20
648.648418
 30
0.0
 10
120.399654
 20
651.669924
 30
0.0
 10
120.453702
 20
653.773105
 30
0.0
 10
118.900547
 20
652.867118
 30
0.0
 10
117.597074
 20
652.484539
 30
0.0
 10
115.422824
 20
651.383575
 30
0.0
 10
113.118227
 20
650.046484
 30
0.0
 10
110.636064
 20
648.235472
 30
0.0
 10
108.127921
 20
645.922177
 30
0.0
 10
105.647159
 20
643.071987
 30
0.0
 10
103.455851
 20
639.679898
 30
0.0
 10
102.153808
 20
636.853480
 30
0.0
 10
101.548289
 20
634.579923
 30
0.0
 10
101.191627
 20
632.957739
 30
0.0
 10
101.003924
 20
631.792455
 30
0.0
 10
100.912980
 20
631.227864
 30
0.0
 11
120.491019
 21
642.971194
 31
0.0
 11
120.480115
 21
649.632300
 31
0.0
 11
120.429071
 21
652.692039
 31
0.0
 11
120.316547
 21
653.428035
 31
0.0
 11
119.299682
 21
653.129813
 31
0.0
 11
117.580809
 21
652.419603
 31
0.0
 11
115.829558
 21
651.574086
 31
0.0
 11
113.080098
 21
649.957590
 31
0.0
 11
110.677591
 21
648.195531
 31
0.0
 11
108.470679
 21
646.176900
 31
0.0
 11
105.682737
 21
642.954649
 31
0.0
 11
103.494806
 21
639.557678
 31
0.0
 11
101.974093
 21
636.090335
 31
0.0
 11
101.590356
 21
634.701759
 31
0.0
 11
101.201259
 21
632.918753
 31
0.0
 11
100.912980
 21
631.227864
 31
0.0
  0
ENDSEC
  0
SECTION
  2
OBJECTS
  0
DICTIONARY
  5
C
330
0
100
AcDbDictionary
  3
ACAD_GROUP
350
D
  3
ACAD_MLINESTYLE
350
17
  0
DICTIONARY
  5
D
330
C
100
AcDbDictionary
  0
DICTIONARY
  5
1A
330
C
100
AcDbDictionary
  0
DICTIONARY
  5
17
330
C
100
AcDbDictionary
  3
STANDARD
350
18
  0
DICTIONARY
  5
19
330
C
100
AcDbDictionary
  0
ENDSEC
  0
EOF
