  0
SECTION
  2
HEADER
  9
$ACADVER
  1
AC1009
  9
$INSBASE
 10
0.0
 20
0.0
 30
0.0
  9
$EXTMIN
 10
2.6983027049813741
 20
2.665776128039766
 30
0.0
  9
$EXTMAX
 10
10.86866429358523
 20
8.5386373708905214
 30
0.0
  9
$LIMMIN
 10
0.0
 20
0.0
  9
$LIMMAX
 10
11.5
 20
8.5
  9
$ORTHOMODE
 70
     0
  9
$REGENMODE
 70
     1
  9
$FILLMODE
 70
     1
  9
$QTEXTMODE
 70
     0
  9
$MIRRTEXT
 70
     1
  9
$DRAGMODE
 70
     2
  9
$LTSCALE
 40
1.0
  9
$OSMODE
 70
  3071
  9
$ATTMODE
 70
     1
  9
$TEXTSIZE
 40
0.2
  9
$TRACEWID
 40
0.05
  9
$TEXTSTYLE
  7
STANDARD
  9
$CLAYER
  8
HEATSINK
  9
$CELTYPE
  6
BYLAYER
  9
$CECOLOR
 62
   256
  9
$DIMSCALE
 40
1.0
  9
$DIMASZ
 40
0.1
  9
$DIMEXO
 40
0.0625
  9
$DIMDLI
 40
0.38
  9
$DIMRND
 40
0.0
  9
$DIMDLE
 40
0.0
  9
$DIMEXE
 40
0.1
  9
$DIMTP
 40
0.0
  9
$DIMTM
 40
0.0
  9
$DIMTXT
 40
0.1
  9
$DIMCEN
 40
-0.112
  9
$DIMTSZ
 40
0.0
  9
$DIMTOL
 70
     0
  9
$DIMLIM
 70
     0
  9
$DIMTIH
 70
     1
  9
$DIMTOH
 70
     1
  9
$DIMSE1
 70
     0
  9
$DIMSE2
 70
     0
  9
$DIMTAD
 70
     0
  9
$DIMZIN
 70
     0
  9
$DIMBLK
  1

  9
$DIMASO
 70
     1
  9
$DIMSHO
 70
     1
  9
$DIMPOST
  1

  9
$DIMAPOST
  1

  9
$DIMALT
 70
     0
  9
$DIMALTD
 70
     2
  9
$DIMALTF
 40
25.399999999999999
  9
$DIMLFAC
 40
1.0
  9
$DIMTOFL
 70
     0
  9
$DIMTVP
 40
0.0
  9
$DIMTIX
 70
     0
  9
$DIMSOXD
 70
     0
  9
$DIMSAH
 70
     0
  9
$DIMBLK1
  1

  9
$DIMBLK2
  1

  9
$DIMSTYLE
  2
STANDARD
  9
$DIMCLRD
 70
     0
  9
$DIMCLRE
 70
     0
  9
$DIMCLRT
 70
     0
  9
$DIMTFAC
 40
1.0
  9
$DIMGAP
 40
0.09
  9
$LUNITS
 70
     2
  9
$LUPREC
 70
     4
  9
$SKETCHINC
 40
0.1
  9
$FILLETRAD
 40
0.5
  9
$AUNITS
 70
     0
  9
$AUPREC
 70
     0
  9
$MENU
  1
.
  9
$ELEVATION
 40
0.0
  9
$PELEVATION
 40
0.0
  9
$THICKNESS
 40
0.0
  9
$LIMCHECK
 70
     0
  9
$BLIPMODE
 70
     0
  9
$CHAMFERA
 40
0.5
  9
$CHAMFERB
 40
0.5
  9
$SKPOLY
 70
     0
  9
$TDCREATE
 40
2453892.3963090968
  9
$TDUPDATE
 40
2458271.2968990509
  9
$TDINDWG
 40
7.6605594906999999
  9
$TDUSRTIMER
 40
7.6605593055999996
  9
$USRTIMER
 70
     1
  9
$ANGBASE
 50
0.0
  9
$ANGDIR
 70
     0
  9
$PDMODE
 70
     0
  9
$PDSIZE
 40
0.0
  9
$PLINEWID
 40
0.0
  9
$COORDS
 70
     1
  9
$SPLFRAME
 70
     0
  9
$SPLINETYPE
 70
     6
  9
$SPLINESEGS
 70
     8
  9
$ATTDIA
 70
     1
  9
$ATTREQ
 70
     1
  9
$HANDLING
 70
     1
  9
$HANDSEED
  5
2CCC
  9
$SURFTAB1
 70
     6
  9
$SURFTAB2
 70
     6
  9
$SURFTYPE
 70
     6
  9
$SURFU
 70
     6
  9
$SURFV
 70
     6
  9
$UCSNAME
  2

  9
$UCSORG
 10
7.6705596486572167
 20
5.133427596495987
 30
0.0
  9
$UCSXDIR
 10
1.0
 20
0.0
 30
0.0
  9
$UCSYDIR
 10
0.0
 20
1.0
 30
0.0
  9
$PUCSNAME
  2

  9
$PUCSORG
 10
0.0
 20
0.0
 30
0.0
  9
$PUCSXDIR
 10
1.0
 20
0.0
 30
0.0
  9
$PUCSYDIR
 10
0.0
 20
1.0
 30
0.0
  9
$USERI1
 70
     0
  9
$USERI2
 70
     0
  9
$USERI3
 70
     0
  9
$USERI4
 70
     0
  9
$USERI5
 70
     0
  9
$USERR1
 40
0.0
  9
$USERR2
 40
0.0
  9
$USERR3
 40
0.0
  9
$USERR4
 40
0.0
  9
$USERR5
 40
0.0
  9
$WORLDVIEW
 70
     1
  9
$SHADEDGE
 70
     3
  9
$SHADEDIF
 70
    70
  9
$TILEMODE
 70
     0
  9
$MAXACTVP
 70
    64
  9
$PLIMCHECK
 70
     0
  9
$PEXTMIN
 10
1.049999952316284
 20
0.7999999523162842
 30
0.0
  9
$PEXTMAX
 10
9.4499995708465558
 20
7.1999995708465558
 30
0.0
  9
$PLIMMIN
 10
-0.2500002402958907
 20
-0.2499999962453767
  9
$PLIMMAX
 10
10.74999951940821
 20
8.2499997634587316
  9
$UNITMODE
 70
     0
  9
$VISRETAIN
 70
     1
  9
$PLINEGEN
 70
     0
  9
$PSLTSCALE
 70
     1
  0
ENDSEC
  0
SECTION
  2
TABLES
  0
TABLE
  2
VPORT
 70
     1
  0
VPORT
  2
*ACTIVE
 70
     0
 10
0.0
 20
0.0
 11
1.0
 21
1.0
 12
6.8261945474117267
 22
5.296117778121431
 13
0.0
 23
0.0
 14
0.5
 24
0.5
 15
0.5
 25
0.5
 16
0.0
 26
0.0
 36
1.0
 17
0.0
 27
0.0
 37
0.0
 40
6.5316941437075178
 41
2.2533013205282111
 42
50.0
 43
0.0
 44
0.0
 50
0.0
 51
0.0
 71
     0
 72
   100
 73
     1
 74
     3
 75
     0
 76
     0
 77
     0
 78
     0
  0
ENDTAB
  0
TABLE
  2
LTYPE
 70
    10
  0
LTYPE
  2
CONTINUOUS
 70
     0
  3
Solid line
 72
    65
 73
     0
 40
0.0
  0
LTYPE
  2
CENTER
 70
     0
  3
Center ____ _ ____ _ ____ _ ____ _ ____ _ ____
 72
    65
 73
     4
 40
2.0
 49
1.25
 49
-0.25
 49
0.25
 49
-0.25
  0
LTYPE
  2
CENTERX2
 70
     0
  3
Center (2x) ________  __  ________  __  _____
 72
    65
 73
     4
 40
4.0
 49
2.5
 49
-0.5
 49
0.5
 49
-0.5
  0
LTYPE
  2
CENTER2
 70
     0
  3
Center (.5x) ___ _ ___ _ ___ _ ___ _ ___ _ ___
 72
    65
 73
     4
 40
1.125
 49
0.75
 49
-0.125
 49
0.125
 49
-0.125
  0
LTYPE
  2
DIVIDE
 70
     0
  3
Divide ____ . . ____ . . ____ . . ____ . . ____
 72
    65
 73
     6
 40
1.25
 49
0.5
 49
-0.25
 49
0.0
 49
-0.25
 49
0.0
 49
-0.25
  0
LTYPE
  2
FENCELINE2
 70
     0
  3
Fenceline square ----[]-----[]----[]-----[]----
 72
    65
 73
     4
 40
1.45
 49
0.25
 49
-0.1
 49
-0.1
 49
1.0
  0
LTYPE
  2
HIDDEN2
 70
     0
  3
Hidden (.5x) _ _ _ _ _ _ _ _ _ _ _ _ _ _ _ _ _
 72
    65
 73
     2
 40
0.1875
 49
0.125
 49
-0.0625
  0
LTYPE
  2
ACAD_ISO02W100
 70
     0
  3
ISO dash __ __ __ __ __ __ __ __ __ __ __ __ __
 72
    65
 73
     2
 40
15.0
 49
12.0
 49
-3.0
  0
LTYPE
  2
PHANTOM2
 70
     0
  3
___ _ _ ___ _ _ ___ _ _ ___ _ _
 72
    65
 73
     6
 40
1.25
 49
0.625
 49
-0.125
 49
0.125
 49
-0.125
 49
0.125
 49
-0.125
  0
ENDTAB
  0
TABLE
  2
LAYER
 70
    22
  0
LAYER
  2
0
 70
     0
 62
     7
  6
CONTINUOUS
  0
LAYER
  2
MARKING
 70
     0
 62
     6
  6
CONTINUOUS
  0
LAYER
  2
DEFPOINTS
 70
     0
 62
     7
  6
CONTINUOUS
  0
LAYER
  2
CENTER_ORDINATE
 70
     0
 62
     7
  6
CENTER2
  0
LAYER
  2
ALIGNMENT
 70
     0
 62
     1
  6
CONTINUOUS
  0
LAYER
  2
HIDDEN_LINES
 70
     0
 62
     3
  6
HIDDEN2
  0
LAYER
  2
DIM
 70
     0
 62
     1
  6
CONTINUOUS
  0
LAYER
  2
CENTER
 70
     0
 62
     3
  6
CENTER2
  0
LAYER
  2
HIDDEN
 70
     0
 62
    30
  6
HIDDEN2
  0
LAYER
  2
GUIDE
 70
     0
 62
     6
  6
CONTINUOUS
  0
LAYER
  2
TEXT
 70
     0
 62
     7
  6
CONTINUOUS
  0
LAYER
  2
CENTER_LINES
 70
     0
 62
     3
  6
CENTER2
  0
LAYER
  2
TOPMETAL
 70
     0
 62
     1
  6
CONTINUOUS
  0
LAYER
  2
TRIM_LINE
 70
     0
 62
     6
  6
CONTINUOUS
  0
LAYER
  2
SOLDER
 70
     0
 62
     3
  6
CONTINUOUS
  0
LAYER
  2
PCB
 70
     0
 62
   140
  6
CONTINUOUS
  0
LAYER
  2
HEATSINK
 70
     0
 62
   250
  6
CONTINUOUS
  0
LAYER
  2
DIMENSIONS
 70
     0
 62
     5
  6
CONTINUOUS
  0
LAYER
  2
DRILL_UNPLATED
 70
     0
 62
   250
  6
CONTINUOUS
  0
LAYER
  2
CENTERLINES
 70
     0
 62
     4
  6
CONTINUOUS
  0
LAYER
  2
PACKAGE
 70
     5
 62
   -53
  6
CONTINUOUS
  0
LAYER
  2
LINE
 70
     0
 62
     7
  6
CONTINUOUS
  0
ENDTAB
  0
TABLE
  2
STYLE
 70
     6
  0
STYLE
  2
STANDARD
 70
     0
 40
0.0
 41
1.0
 50
0.0
 71
     0
 42
0.2
  3
txt
  4

  0
STYLE
  2

 70
     1
 40
0.0
 41
1.0
 50
0.0
 71
     0
 42
0.2
  3
ltypeshp.shx
  4

  0
STYLE
  2
RFD
 70
     0
 40
0.09
 41
0.8
 50
0.0
 71
     0
 42
0.09
  3
isocp.shx
  4

  0
STYLE
  2
MECHSYMBOLS
 70
     0
 40
0.09
 41
0.8
 50
0.0
 71
     0
 42
0.09
  3
gdt.shx
  4

  0
STYLE
  2
CK_TEXT_STYLE_0084
 70
     0
 40
1.0321011773532369
 41
0.8933332999999745
 50
0.0
 71
     0
 42
0.2
  3
txt
  4

  0
STYLE
  2
ARIAL
 70
     0
 40
0.0
 41
1.0
 50
0.0
 71
     0
 42
0.1
  3
txt
  4

  0
ENDTAB
  0
TABLE
  2
VIEW
 70
     2
  0
ENDTAB
  0
TABLE
  2
UCS
 70
     0
  0
ENDTAB
  0
TABLE
  2
APPID
 70
    10
  0
APPID
  2
ACAD
 70
     0
  0
APPID
  2
ACAD_NAV_VCDISPLAY
 70
     0
  0
APPID
  2
ACAD_EXEMPT_FROM_CAD_STANDARDS
 70
     0
  0
APPID
  2
ACAD_PSEXT
 70
     0
  0
APPID
  2
ACAECLAYERSTANDARD
 70
     0
  0
APPID
  2
ACCMTRANSPARENCY
 70
     0
  0
APPID
  2
ACAD_DSTYLE_DIMJAG
 70
     0
  0
APPID
  2
ACAD_DSTYLE_DIMTALN
 70
     0
  0
APPID
  2
CONTENTBLOCKICON
 70
     0
  0
APPID
  2
ACAD_MLEADERVER
 70
     0
  0
ENDTAB
  0
TABLE
  2
DIMSTYLE
 70
     2
  0
DIMSTYLE
  2
STANDARD
 70
     0
  3

  4

  5

  6

  7

 40
1.0
 41
0.1
 42
0.0625
 43
0.38
 44
0.1
 45
0.0
 46
0.0
 47
0.0
 48
0.0
140
0.1
141
-0.112
142
0.0
143
25.399999999999999
144
1.0
145
0.0
146
1.0
147
0.09
 71
     0
 72
     0
 73
     1
 74
     1
 75
     0
 76
     0
 77
     0
 78
     0
170
     0
171
     2
172
     0
173
     0
174
     0
175
     0
176
     0
177
     0
178
     0
  0
DIMSTYLE
  2
RFD_DIM
 70
     0
  3

  4

  5

  6

  7

 40
1.0
 41
0.075
 42
0.05
 43
0.38
 44
0.09
 45
0.0
 46
0.0
 47
0.0
 48
0.0
140
0.075
141
0.05
142
0.0
143
25.399999999999999
144
1.0
145
0.0
146
1.0
147
0.05
 71
     0
 72
     0
 73
     0
 74
     1
 75
     0
 76
     0
 77
     0
 78
     0
170
     1
171
     2
172
     0
173
     0
174
     0
175
     0
176
     0
177
     0
178
     0
  0
ENDTAB
  0
ENDSEC
  0
SECTION
  2
BLOCKS
  0
BLOCK
  8
0
  2
$MODEL_SPACE
 70
     0
 10
0.0
 20
0.0
 30
0.0
  3
$MODEL_SPACE
  1

  0
ENDBLK
  5
21
  8
0
  0
BLOCK
 67
     1
  8
0
  2
$PAPER_SPACE
 70
     0
 10
0.0
 20
0.0
 30
0.0
  3
$PAPER_SPACE
  1

  0
ENDBLK
  5
1D
 67
     1
  8
0
  0
BLOCK
  8
0
  2
A$C03BD4136
 70
     0
 10
0.0
 20
0.0
 30
0.0
  3
A$C03BD4136
  1

  0
LINE
  5
554
  8
0
 10
0.0
 20
0.0
 30
0.0
 11
0.6129999999999996
 21
0.0
 31
0.0
  0
LINE
  5
555
  8
0
 10
0.9369999999999993
 20
0.0
 30
0.0
 11
1.5509999999999999
 21
0.0
 31
0.0
  0
LINE
  5
556
  8
0
 10
1.875
 20
0.0
 30
0.0
 11
2.3010000000000002
 21
0.0
 31
0.0
  0
LINE
  5
557
  8
0
 10
2.625
 20
0.0
 30
0.0
 11
3.238999999999999
 21
0.0
 31
0.0
  0
LINE
  5
558
  8
0
 10
3.5629999999999988
 20
0.0
 30
0.0
 11
4.1760000000000002
 21
0.0
 31
0.0
  0
ENDBLK
  5
55A
  8
0
  0
BLOCK
  8
0
  2
A$C789209EB
 70
     0
 10
0.0
 20
0.0
 30
0.0
  3
A$C789209EB
  1

  0
LINE
  5
761
  8
CENTER_ORDINATE
 10
-6.879926359102619
 20
-7.1334275997964562
 30
0.0
 11
-6.879926359102619
 21
-7.483427599796455
 31
0.0
  0
LINE
  5
762
  8
HIDDEN_LINES
 10
-7.0084263591026188
 20
-7.1834275997964561
 30
0.0
 11
-7.0084263591026188
 21
-7.4334275997964561
 31
0.0
  0
LINE
  5
763
  8
HIDDEN_LINES
 10
-6.7514263591026182
 20
-7.1834275997964561
 30
0.0
 11
-6.7514263591026182
 21
-7.4334275997964561
 31
0.0
  0
ENDBLK
  5
765
  8
0
  0
BLOCK
  8
0
  2
*D3
 70
     1
 10
0.0
 20
0.0
 30
0.0
  3
*D3
  1

  0
TEXT
  8
HEATSINK
  40
0.09
  5
2CC9
  62
0
  72
0
  71
0
 10
7.98056
 20
4.65663
 30
0.000000
  1
0.490
  0
POINT
  5
2A54
  8
DEFPOINTS
 62
     0
 10
8.1605596486572178
 20
5.133427596495987
 30
0.0
  0
POINT
  5
2A55
  8
DEFPOINTS
 62
     0
 10
8.1605596486572178
 20
5.070927596495987
 30
0.0
  0
POINT
  5
2A56
  8
DEFPOINTS
 62
     0
 10
7.6705596486572167
 20
5.133427596495987
 30
0.0
  0
ENDBLK
  5
1743
  8
0
  0
BLOCK
  8
0
  2
*D4
 70
     1
 10
0.0
 20
0.0
 30
0.0
  3
*D4
  1

  0
LINE
  5
2A61
  8
HEATSINK
 62
     0
 10
7.7795596486572167
 20
5.7509275964958997
 30
0.0
 11
7.7795596486572167
 21
5.5334275964959883
 31
0.0
  0
LINE
  5
2A62
  8
HEATSINK
 62
     0
 10
7.7795596486572167
 20
5.5334275964959883
 30
0.0
 11
7.7805596486572171
 21
5.3334275964959881
 31
0.0
  0
LINE
  5
2A63
  8
HEATSINK
 62
     0
 10
7.7805596486572171
 20
5.3334275964959881
 30
0.0
 11
7.7805596486572171
 21
5.133427596495987
 31
0.0
  0
TEXT
  8
HEATSINK
  40
0.09
  5
2CCA
  62
0
  72
0
  71
0
 10
7.60056
 20
4.73413
 30
0.000000
  1
0.109
  0
POINT
  5
2A65
  8
DEFPOINTS
 62
     0
 10
7.7795596486572167
 20
5.8134275964958997
 30
0.0
  0
POINT
  5
2A66
  8
DEFPOINTS
 62
     0
 10
7.7805596486572171
 20
5.133427596495987
 30
0.0
  0
POINT
  5
2A67
  8
DEFPOINTS
 62
     0
 10
7.6705596486572167
 20
4.4834275964958961
 30
0.0
  0
ENDBLK
  5
174B
  8
0
  0
BLOCK
  8
0
  2
*D5
 70
     1
 10
0.0
 20
0.0
 30
0.0
  3
*D5
  1

  0
LINE
  5
2A68
  8
HEATSINK
 62
     0
 10
7.6705596486572167
 20
5.195927596495987
 30
0.0
 11
7.6705596486572167
 21
5.133427596495987
 31
0.0
  0
TEXT
  8
HEATSINK
  40
0.09
  5
2CCB
  62
0
  72
0
  71
0
 10
7.49056
 20
4.72772
 30
0.000000
  1
0.000
  0
POINT
  5
2A6A
  8
DEFPOINTS
 62
     0
 10
7.6705596486572167
 20
5.133427596495987
 30
0.0
  0
POINT
  5
2A6B
  8
DEFPOINTS
 62
     0
 10
7.6705596486572167
 20
5.133427596495987
 30
0.0
  0
POINT
  5
2A6C
  8
DEFPOINTS
 62
     0
 10
7.6705596486572167
 20
5.133427596495987
 30
0.0
  0
ENDBLK
  5
1755
  8
0
  0
BLOCK
  8
0
  2
*D6
 70
     1
 10
0.0
 20
0.0
 30
0.0
  3
*D6
  1

  0
LINE
  5
237D
  8
HEATSINK
 62
     0
 10
6.26092635546037
 20
4.3251490162136896
 30
0.0
 11
6.19842635546037
 21
4.3251490162136896
 31
0.0
  0
INSERT
  5
237E
  8
HEATSINK
  2
*U82
 10
0.0
 20
0.0
 30
0.0
  0
POINT
  5
237F
  8
DEFPOINTS
 62
     0
 10
6.19842635546037
 20
4.3251490162136896
 30
0.0
  0
POINT
  5
2380
  8
DEFPOINTS
 62
     0
 10
6.19842635546037
 20
4.3251490162136896
 30
0.0
  0
POINT
  5
2381
  8
DEFPOINTS
 62
     0
 10
6.19842635546037
 20
4.3251490162136896
 30
0.0
  0
ENDBLK
  5
17DD
  8
0
  0
BLOCK
  8
0
  2
*D7
 70
     1
 10
0.0
 20
0.0
 30
0.0
  3
*D7
  1

  0
INSERT
  5
2379
  8
HEATSINK
  2
*U81
 10
0.0
 20
0.0
 30
0.0
  0
POINT
  5
237A
  8
DEFPOINTS
 62
     0
 10
6.19842635546037
 20
3.8351490162136899
 30
0.0
  0
POINT
  5
237B
  8
DEFPOINTS
 62
     0
 10
6.26092635546037
 20
3.8351490162136899
 30
0.0
  0
POINT
  5
237C
  8
DEFPOINTS
 62
     0
 10
6.19842635546037
 20
4.3251490162136896
 30
0.0
  0
ENDBLK
  5
17ED
  8
0
  0
BLOCK
  8
0
  2
*D8
 70
     1
 10
0.0
 20
0.0
 30
0.0
  3
*D8
  1

  0
LINE
  5
1A7C
  8
DIMENSIONS
  6
HIDDEN2
 62
     0
 10
2.3099999999999992
 20
2.360022865824809
 30
0.0
 11
2.3099999999999992
 21
1.7433167131823459
 31
0.0
  0
LINE
  5
1A7D
  8
DIMENSIONS
  6
HIDDEN2
 62
     0
 10
2.6899999999999991
 20
2.1676236231181689
 30
0.0
 11
2.6899999999999991
 21
1.7433167131823459
 31
0.0
  0
LINE
  5
1A7E
  8
DIMENSIONS
  6
HIDDEN2
 62
     0
 10
2.4099999999999988
 20
1.843316713182346
 30
0.0
 11
2.589999999999999
 21
1.843316713182346
 31
0.0
  0
INSERT
  5
1A7F
  8
HEATSINK
  2
*U54
 10
0.0
 20
0.0
 30
0.0
  0
SOLID
  5
1A80
  8
DIMENSIONS
  6
HIDDEN2
 62
     0
 10
2.4099999999999988
 20
1.8599833798490131
 30
0.0
 11
2.4099999999999988
 21
1.8266500465156801
 31
0.0
 12
2.3099999999999992
 22
1.843316713182346
 32
0.0
 13
2.3099999999999992
 23
1.843316713182346
 33
0.0
  0
SOLID
  5
1A81
  8
DIMENSIONS
  6
HIDDEN2
 62
     0
 10
2.589999999999999
 20
1.8599833798490131
 30
0.0
 11
2.589999999999999
 21
1.8266500465156801
 31
0.0
 12
2.6899999999999991
 22
1.843316713182346
 32
0.0
 13
2.6899999999999991
 23
1.843316713182346
 33
0.0
  0
POINT
  5
1A82
  8
DEFPOINTS
  6
HIDDEN2
 62
     0
 10
2.3099999999999992
 20
2.3700228658248088
 30
0.0
  0
POINT
  5
1A83
  8
DEFPOINTS
  6
HIDDEN2
 62
     0
 10
2.6899999999999991
 20
2.1776236231181691
 30
0.0
  0
POINT
  5
1A84
  8
DEFPOINTS
  6
HIDDEN2
 62
     0
 10
2.6899999999999991
 20
1.843316713182346
 30
0.0
  0
ENDBLK
  5
1A86
  8
0
  0
BLOCK
  8
0
  2
*D9
 70
     1
 10
0.0
 20
0.0
 30
0.0
  3
*D9
  1

  0
LINE
  5
1A88
  8
HEATSINK
 62
     0
 10
2.4374999999999991
 20
0.5
 30
0.0
 11
1.969396335224513
 21
0.5
 31
0.0
  0
INSERT
  5
1A89
  8
HEATSINK
  2
*U55
 10
0.0
 20
0.0
 30
0.0
  0
POINT
  5
1A8A
  8
DEFPOINTS
 62
     0
 10
2.4999999999999991
 20
0.5
 30
0.0
  0
POINT
  5
1A8B
  8
DEFPOINTS
 62
     0
 10
1.969396335224513
 20
0.5
 30
0.0
  0
POINT
  5
1A8C
  8
DEFPOINTS
 62
     0
 10
0.0
 20
0.0000000000000001
 30
0.0
  0
ENDBLK
  5
1A8E
  8
0
  0
BLOCK
  8
0
  2
*D10
 70
     1
 10
0.0
 20
0.0
 30
0.0
  3
*D10
  1

  0
LINE
  5
1A90
  8
HEATSINK
 62
     0
 10
2.4374999999999991
 20
2.5
 30
0.0
 11
2.1006610869498701
 21
2.5
 31
0.0
  0
INSERT
  5
1A91
  8
HEATSINK
  2
*U56
 10
0.0
 20
0.0
 30
0.0
  0
POINT
  5
1A92
  8
DEFPOINTS
 62
     0
 10
2.4999999999999991
 20
2.5
 30
0.0
  0
POINT
  5
1A93
  8
DEFPOINTS
 62
     0
 10
2.1006610869498701
 20
2.5
 30
0.0
  0
POINT
  5
1A94
  8
DEFPOINTS
 62
     0
 10
0.0
 20
0.0000000000000001
 30
0.0
  0
ENDBLK
  5
1A96
  8
0
  0
BLOCK
  8
0
  2
*D11
 70
     1
 10
0.0
 20
0.0
 30
0.0
  3
*D11
  1

  0
LINE
  5
1A98
  8
HEATSINK
 62
     0
 10
2.4374999999999991
 20
0.8
 30
0.0
 11
2.2949961140987578
 21
0.8000000000000003
 31
0.0
  0
INSERT
  5
1A99
  8
HEATSINK
  2
*U57
 10
0.0
 20
0.0
 30
0.0
  0
POINT
  5
1A9A
  8
DEFPOINTS
 62
     0
 10
2.4999999999999991
 20
0.8
 30
0.0
  0
POINT
  5
1A9B
  8
DEFPOINTS
 62
     0
 10
2.2949961140987578
 20
0.8000000000000003
 30
0.0
  0
POINT
  5
1A9C
  8
DEFPOINTS
 62
     0
 10
0.0
 20
0.0000000000000001
 30
0.0
  0
ENDBLK
  5
1A9E
  8
0
  0
BLOCK
  8
0
  2
*D12
 70
     1
 10
0.0
 20
0.0
 30
0.0
  3
*D12
  1

  0
LINE
  5
1AA0
  8
HEATSINK
 62
     0
 10
2.4374999999999991
 20
2.2000000000000002
 30
0.0
 11
2.3099999999999992
 21
2.2000000000000002
 31
0.0
  0
INSERT
  5
1AA1
  8
HEATSINK
  2
*U58
 10
0.0
 20
0.0
 30
0.0
  0
POINT
  5
1AA2
  8
DEFPOINTS
 62
     0
 10
2.4999999999999991
 20
2.2000000000000002
 30
0.0
  0
POINT
  5
1AA3
  8
DEFPOINTS
 62
     0
 10
2.3099999999999992
 20
2.2000000000000002
 30
0.0
  0
POINT
  5
1AA4
  8
DEFPOINTS
 62
     0
 10
0.0
 20
0.0000000000000001
 30
0.0
  0
ENDBLK
  5
1AA6
  8
0
  0
BLOCK
  8
0
  2
*D13
 70
     1
 10
0.0
 20
0.0
 30
0.0
  3
*D13
  1

  0
LINE
  5
1AA8
  8
DIMENSIONS
  6
HIDDEN2
 62
     0
 10
2.2949961140987578
 20
2.9871331813658291
 30
0.0
 11
2.2949961140987578
 21
1.399999999999999
 31
0.0
  0
LINE
  5
1AA9
  8
DIMENSIONS
  6
HIDDEN2
 62
     0
 10
2.70500388590124
 20
2.9900000000000002
 30
0.0
 11
2.70500388590124
 21
1.399999999999999
 31
0.0
  0
LINE
  5
1AAA
  8
DIMENSIONS
  6
HIDDEN2
 62
     0
 10
2.1949961140987582
 20
1.5
 30
0.0
 11
2.0949961140987581
 21
1.5
 31
0.0
  0
LINE
  5
1AAB
  8
DIMENSIONS
  6
HIDDEN2
 62
     0
 10
2.8050038859012401
 20
1.5
 30
0.0
 11
2.9050038859012401
 21
1.5
 31
0.0
  0
SOLID
  5
1AAC
  8
DIMENSIONS
  6
HIDDEN2
 62
     0
 10
2.1949961140987582
 20
1.5166666666666659
 30
0.0
 11
2.1949961140987582
 21
1.4833333333333329
 31
0.0
 12
2.2949961140987578
 22
1.5
 32
0.0
 13
2.2949961140987578
 23
1.5
 33
0.0
  0
SOLID
  5
1AAD
  8
DIMENSIONS
  6
HIDDEN2
 62
     0
 10
2.8050038859012401
 20
1.5166666666666659
 30
0.0
 11
2.8050038859012401
 21
1.4833333333333329
 31
0.0
 12
2.70500388590124
 22
1.5
 32
0.0
 13
2.70500388590124
 23
1.5
 33
0.0
  0
INSERT
  5
1AAE
  8
HEATSINK
  2
*U59
 10
0.0
 20
0.0
 30
0.0
  0
POINT
  5
1AAF
  8
DEFPOINTS
  6
HIDDEN2
 62
     0
 10
2.2949961140987578
 20
2.997133181365828
 30
0.0
  0
POINT
  5
1AB0
  8
DEFPOINTS
  6
HIDDEN2
 62
     0
 10
2.70500388590124
 20
3.0
 30
0.0
  0
POINT
  5
1AB1
  8
DEFPOINTS
  6
HIDDEN2
 62
     0
 10
2.70500388590124
 20
1.5
 30
0.0
  0
ENDBLK
  5
1AB3
  8
0
  0
BLOCK
  8
0
  2
A$C2DD31EF6
 70
     0
 10
0.0
 20
0.0
 30
0.0
  3
A$C2DD31EF6
  1

  0
LINE
  5
1AB7
  8
CENTERLINES
 62
     4
 10
0.0
 20
1.75
 30
0.0
 11
0.0
 21
8.5396863433696559
 31
0.0
  0
LINE
  5
1AB8
  8
CENTERLINES
 62
     4
 10
-2.4999999999999991
 20
0.0
 30
0.0
 11
10.867389700895124
 21
0.0
 31
0.0
  0
DIMENSION
  5
1AB9
  8
HEATSINK
 62
   250
  2
*D12
 10
-2.4999999999999991
 20
-1.5
 30
0.0
 11
-0.4450000000000003
 21
0.7000000000000007
 31
0.0
 12
-2.4999999999999991
 22
-1.5
 32
0.0
 70
     6
  3
STANDARD
 13
0.0
 23
0.7000000000000002
 33
0.0
 14
-0.1900000000000004
 24
0.7000000000000007
 34
0.0
1001
ACAD
1000
DSTYLE
1002
{
1070
   287
1070
     5
1070
   140
1040
0.09
1070
   271
1070
     3
1070
   279
1070
     2
1002
}
  0
DIMENSION
  5
1ABA
  8
HEATSINK
 62
   250
  2
*D11
 10
-2.4999999999999991
 20
-1.5
 30
0.0
 11
-0.4525038859012414
 21
-0.6999999999999998
 31
0.0
 12
-2.4999999999999991
 22
-1.5
 32
0.0
 70
     6
  3
STANDARD
 13
0.0
 23
-0.7
 33
0.0
 14
-0.2050038859012413
 24
-0.6999999999999998
 34
0.0
1001
ACAD
1000
DSTYLE
1002
{
1070
   287
1070
     5
1070
   140
1040
0.09
1070
   271
1070
     3
1070
   279
1070
     2
1002
}
  0
DIMENSION
  5
1ABB
  8
HEATSINK
 62
   250
  2
*D10
 10
-2.4999999999999991
 20
-1.5
 30
0.0
 11
-0.6543389130501294
 21
1.0
 31
0.0
 12
-2.4999999999999991
 22
-1.5
 32
0.0
 70
     6
  3
STANDARD
 13
0.0
 23
1.0
 33
0.0
 14
-0.3993389130501295
 24
1.0
 34
0.0
1001
ACAD
1000
DSTYLE
1002
{
1070
   287
1070
     5
1070
   140
1040
0.09
1070
   271
1070
     3
1070
   279
1070
     2
1002
}
  0
DIMENSION
  5
1ABC
  8
HEATSINK
 62
   250
  2
*D9
 10
-2.4999999999999991
 20
-1.5
 30
0.0
 11
-0.778103664775486
 21
-1.0
 31
0.0
 12
-2.4999999999999991
 22
-1.5
 32
0.0
 70
     6
  3
STANDARD
 13
0.0
 23
-1.0
 33
0.0
 14
-0.530603664775486
 24
-1.0
 34
0.0
1001
ACAD
1000
DSTYLE
1002
{
1070
   287
1070
     5
1070
   140
1040
0.09
1070
   271
1070
     3
1070
   279
1070
     2
1002
}
  0
CIRCLE
  5
1ABD
  8
DRILL_UNPLATED
 62
   250
 10
0.0
 20
-1.0
 30
0.0
 40
0.115
  0
CIRCLE
  5
1ABE
  8
DRILL_UNPLATED
 62
   250
 10
0.0
 20
-1.0
 30
0.0
 40
0.063
  0
INSERT
  5
1ABF
  8
HEATSINK
  2
*U60
 10
0.0
 20
0.0
 30
0.0
  0
INSERT
  5
1AC0
  8
HEATSINK
  2
*U61
 10
0.0
 20
0.0
 30
0.0
  0
DIMENSION
  5
1AC1
  8
DIMENSIONS
  6
HIDDEN2
 62
   250
  2
*D8
 10
0.1900000000000004
 20
0.3433167131823467
 30
0.0
 11
0.0
 21
0.2129376104727587
 31
0.0
 12
-2.4999999999999991
 22
-1.5
 32
0.0
 70
   128
  3
STANDARD
 13
-0.1900000000000004
 23
0.8700228658248096
 33
0.0
 14
0.1900000000000004
 24
0.6776236231181692
 34
0.0
1001
ACAD
1000
DSTYLE
1002
{
1070
   287
1070
     5
1070
    41
1040
0.1
1070
    42
1040
0.01
1070
    44
1040
0.1
1070
   140
1040
0.075
1070
   147
1040
0.01
1070
   271
1070
     3
1070
   279
1070
     2
1002
}
  0
DIMENSION
  5
1AC2
  8
DIMENSIONS
  6
HIDDEN2
 62
   250
  2
*D13
 10
0.2050038859012409
 20
0.0
 30
0.0
 11
0.0
 21
0.0
 31
0.0
 12
-2.4999999999999991
 22
-1.5
 32
0.0
 70
   128
  3
STANDARD
 13
-0.2050038859012409
 23
1.497133181365828
 33
0.0
 14
0.2050038859012409
 24
1.5
 34
0.0
1001
ACAD
1000
DSTYLE
1002
{
1070
    41
1040
0.1
1070
    42
1040
0.01
1070
    44
1040
0.1
1070
   140
1040
0.1
1070
   147
1040
0.01
1070
   271
1070
     3
1002
}
  0
CIRCLE
  5
1AC3
  8
DRILL_UNPLATED
 62
   250
 10
0.0
 20
-0.7
 30
0.0
 40
0.063
  0
INSERT
  5
1AC4
  8
HEATSINK
  2
*U62
 10
0.0
 20
0.0
 30
0.0
  0
INSERT
  5
1AC5
  8
HEATSINK
  6
CONTINUOUS
 62
   250
  2
*U63
 10
0.0
 20
0.0
 30
0.0
1001
ACAD
1002
{
1000
R14_HATCH_DATA
1000
1AC5
1011
1.0
1021
2.1661482158372477E+127
1031
1.3863348581495295E+129
1021
0.0
1031
0.0
1011
0.0
1021
2.1661482158372477E+127
1031
1.3863348581495295E+129
1021
1.0
1031
0.0
1011
0.0
1021
2.1661482158372477E+127
1031
1.3863348581495295E+129
1021
0.0
1031
1.0
1040
0.0
1010
0.0
1020
0.0
1030
1.0
1000
SOLID
1070
     1
1070
     1
1071
        1
1071
        1
1071
        1
1070
     2
1040
0.0
1040
1.0
1040
0.063
1040
0.0
1040
6.2831853071795862
1070
     1
1071
        1
1005
1AC7
1070
     0
1070
     1
1071
        1
1040
-2.4999999999999991
1040
-1.5
1040
0.0
1002
}
  0
INSERT
  5
1AC6
  8
HEATSINK
  6
CONTINUOUS
 62
     9
  2
*X64
 10
0.0
 20
0.0
 30
0.0
1001
ACAD
1000
HATCH
1002
{
1070
    19
1000
AR-SAND
1040
0.05
1040
0.0
1000
ASC_BOUNDS
1070
     1
1070
     2
1070
     1
1005
1AC8
1000
ASC_SEEDPOINT
1011
-2.4999999999999991
1021
2.1661482158372477E+127
1031
1.3863348581495295E+129
1021
-1.5
1031
0.0
1000
R14_HATCH_DATA
1000
1AC6
1011
1.0
1021
2.1661482158372477E+127
1031
1.3863348581495295E+129
1021
0.0
1031
0.0
1011
0.0
1021
2.1661482158372477E+127
1031
1.3863348581495295E+129
1021
1.0
1031
0.0
1011
0.0
1021
2.1661482158372477E+127
1031
1.3863348581495295E+129
1021
0.0
1031
1.0
1040
0.0
1010
0.0
1020
0.0
1030
1.0
1000
AR-SAND
1070
     0
1070
     1
1071
        1
1071
        1
1071
        1
1070
     2
1040
0.0
1040
1.0
1040
0.115
1040
0.0
1040
6.2831853071795862
1070
     1
1071
        1
1005
1AC8
1070
     0
1070
     1
1040
0.0
1040
0.05
1070
     0
1070
     4
1040
0.6544984694978737
1040
-2.4999999999999991
1040
-1.5
1040
-0.0031496679054804
1040
0.0963411884506579
1070
     6
1040
0.0
1040
-0.076
1040
0.0
1040
-0.085
1040
0.0
1040
-0.08125
1040
0.1308996938995747
1040
-2.4999999999999991
1040
-1.5
1040
0.0884888352633864
1040
0.141107303261487
1070
     6
1040
0.0
1040
-0.041
1040
0.0
1040
-0.0685
1040
0.0
1040
-0.02625
1040
5.715953300281428
1040
-2.5614999999999992
1040
-1.5
1040
0.1557070930875748
1040
0.0002829526768482
1070
     6
1040
0.0
1040
-0.025
1040
0.0
1040
-0.09
1040
0.0
1040
-0.1175
1040
5.5414203750819961
1040
-2.5614999999999992
1040
-1.5
1040
0.1503063302286147
1040
0.0438837782467125
1070
     6
1040
0.0
1040
-0.0125
1040
0.0
1040
-0.059
1040
0.0
1040
-0.0675
1071
        1
1040
-2.4999999999999991
1040
-1.5
1040
0.0
1002
}
  0
CIRCLE
  5
1AC7
  8
DRILL_UNPLATED
 62
   250
 10
0.0
 20
1.0
 30
0.0
 40
0.063
  0
CIRCLE
  5
1AC8
  8
DRILL_UNPLATED
 62
     9
 10
0.0
 20
1.0
 30
0.0
 40
0.115
1001
ACAD
1000
ASC_BOUNDS
1002
{
1070
    19
1005
1AC6
1002
}
  0
CIRCLE
  5
1AC9
  8
DRILL_UNPLATED
 62
   250
 10
0.0
 20
0.7000000000000002
 30
0.0
 40
0.063
  0
ENDBLK
  5
1ACB
  8
0
  0
BLOCK
  8
0
  2
NI780
 70
     0
 10
0.0
 20
0.0
 30
0.0
  3
NI780
  1

  0
POLYLINE
  5
2053
  8
PACKAGE
 66
     1
 10
0.0
 20
0.0
 30
0.0
 70
     1
  0
VERTEX
  5
2BB7
  8
PACKAGE
 10
63.999999999999552
 20
-550.0
 30
0.0
  0
VERTEX
  5
2BB8
  8
PACKAGE
 10
63.999999999999552
 20
-670.0
 30
0.0
  0
VERTEX
  5
2BB9
  8
PACKAGE
 10
142.49999999999949
 20
-670.0
 30
0.0
 42
0.4142135623730951
  0
VERTEX
  5
2BBA
  8
PACKAGE
 10
192.49999999999949
 20
-620.0
 30
0.0
  0
VERTEX
  5
2BBB
  8
PACKAGE
 10
192.5000000000004
 20
620.0
 30
0.0
 42
0.4142135623730951
  0
VERTEX
  5
2BBC
  8
PACKAGE
 10
142.5000000000004
 20
670.0
 30
0.0
  0
VERTEX
  5
2BBD
  8
PACKAGE
 10
64.000000000000455
 20
670.0
 30
0.0
  0
VERTEX
  5
2BBE
  8
PACKAGE
 10
64.000000000000455
 20
550.0
 30
0.0
 42
-1.0
  0
VERTEX
  5
2BBF
  8
PACKAGE
 10
-63.999999999999552
 20
550.0
 30
0.0
  0
VERTEX
  5
2BC0
  8
PACKAGE
 10
-63.999999999999552
 20
670.0
 30
0.0
  0
VERTEX
  5
2BC1
  8
PACKAGE
 10
-142.49999999999949
 20
670.0
 30
0.0
 42
0.4142135623730951
  0
VERTEX
  5
2BC2
  8
PACKAGE
 10
-192.49999999999949
 20
620.0
 30
0.0
  0
VERTEX
  5
2BC3
  8
PACKAGE
 10
-192.5000000000004
 20
-620.0
 30
0.0
 42
0.4142135623730951
  0
VERTEX
  5
2BC4
  8
PACKAGE
 10
-142.5000000000004
 20
-670.0
 30
0.0
  0
VERTEX
  5
2BC5
  8
PACKAGE
 10
-64.000000000000455
 20
-670.0
 30
0.0
  0
VERTEX
  5
2BC6
  8
PACKAGE
 10
-64.000000000000455
 20
-550.0
 30
0.0
 42
-1.0
  0
SEQEND
  5
2BC7
  8
PACKAGE
  0
POLYLINE
  5
2054
  8
PACKAGE
 66
     1
 10
0.0
 20
0.0
 30
0.0
 70
     1
  0
VERTEX
  5
2BC8
  8
PACKAGE
 10
-192.49999999999949
 20
250.0
 30
0.0
  0
VERTEX
  5
2BC9
  8
PACKAGE
 10
-192.5000000000004
 20
-250.0
 30
0.0
  0
VERTEX
  5
2BCA
  8
PACKAGE
 10
-402.5000000000004
 20
-250.0
 30
0.0
  0
VERTEX
  5
2BCB
  8
PACKAGE
 10
-402.49999999999949
 20
250.0
 30
0.0
  0
SEQEND
  5
2BCC
  8
PACKAGE
  0
POLYLINE
  5
2055
  8
PACKAGE
 66
     1
 10
0.0
 20
0.0
 30
0.0
 70
     1
  0
VERTEX
  5
2BCD
  8
PACKAGE
 10
184.99999999999949
 20
390.0
 30
0.0
  0
VERTEX
  5
2BCE
  8
PACKAGE
 10
184.99999999999949
 20
-390.0
 30
0.0
  0
VERTEX
  5
2BCF
  8
PACKAGE
 10
-185.0000000000004
 20
-390.0
 30
0.0
  0
VERTEX
  5
2BD0
  8
PACKAGE
 10
-184.99999999999949
 20
390.0
 30
0.0
  0
SEQEND
  5
2BD1
  8
PACKAGE
  0
POLYLINE
  5
2056
  8
PACKAGE
 66
     1
 10
0.0
 20
0.0
 30
0.0
 70
     1
  0
VERTEX
  5
2BD2
  8
PACKAGE
 10
402.49999999999949
 20
-250.00000000000091
 30
0.0
  0
VERTEX
  5
2BD3
  8
PACKAGE
 10
402.49999999999949
 20
144.99999999999909
 30
0.0
  0
VERTEX
  5
2BD4
  8
PACKAGE
 10
297.4999999999996
 20
250.0
 30
0.0
  0
VERTEX
  5
2BD5
  8
PACKAGE
 10
192.49999999999949
 20
250.0
 30
0.0
  0
VERTEX
  5
2BD6
  8
PACKAGE
 10
192.49999999999949
 20
-250.0
 30
0.0
  0
SEQEND
  5
2BD7
  8
PACKAGE
  0
ENDBLK
  5
2058
  8
0
  0
BLOCK
  8
0
  2
*D16
 70
     1
 10
0.0
 20
0.0
 30
0.0
  3
*D16
  1

  0
LINE
  5
23A0
  8
HEATSINK
 62
     0
 10
6.1109263554607329
 20
5.258427596495987
 30
0.0
 11
6.19842635546037
 21
5.258427596495987
 31
0.0
  0
INSERT
  5
23A1
  8
HEATSINK
  2
*U89
 10
0.0
 20
0.0
 30
0.0
  0
POINT
  5
23A2
  8
DEFPOINTS
 62
     0
 10
6.0484263554607329
 20
5.258427596495987
 30
0.0
  0
POINT
  5
23A3
  8
DEFPOINTS
 62
     0
 10
6.19842635546037
 20
5.258427596495987
 30
0.0
  0
POINT
  5
23A4
  8
DEFPOINTS
 62
     0
 10
6.19842635546037
 20
5.133427596495987
 30
0.0
  0
ENDBLK
  5
2141
  8
0
  0
BLOCK
  8
0
  2
*D17
 70
     1
 10
0.0
 20
0.0
 30
0.0
  3
*D17
  1

  0
LINE
  5
239B
  8
HEATSINK
 62
     0
 10
5.5709263554598598
 20
5.4834275964958961
 30
0.0
 11
6.19842635546037
 21
5.4834275964958961
 31
0.0
  0
INSERT
  5
239C
  8
HEATSINK
  2
*U88
 10
0.0
 20
0.0
 30
0.0
  0
POINT
  5
239D
  8
DEFPOINTS
 62
     0
 10
5.5084263554598598
 20
5.4834275964958961
 30
0.0
  0
POINT
  5
239E
  8
DEFPOINTS
 62
     0
 10
6.19842635546037
 20
5.4834275964958961
 30
0.0
  0
POINT
  5
239F
  8
DEFPOINTS
 62
     0
 10
6.19842635546037
 20
5.133427596495987
 30
0.0
  0
ENDBLK
  5
2151
  8
0
  0
BLOCK
  8
0
  2
*D18
 70
     1
 10
0.0
 20
0.0
 30
0.0
  3
*D18
  1

  0
LINE
  5
2396
  8
HEATSINK
 62
     0
 10
6.26092635546037
 20
7.133427596495987
 30
0.0
 11
6.3693983786306481
 21
7.133427596495987
 31
0.0
  0
INSERT
  5
2397
  8
HEATSINK
  2
*U87
 10
0.0
 20
0.0
 30
0.0
  0
POINT
  5
2398
  8
DEFPOINTS
 62
     0
 10
6.19842635546037
 20
7.133427596495987
 30
0.0
  0
POINT
  5
2399
  8
DEFPOINTS
 62
     0
 10
6.3693983786306481
 20
7.133427596495987
 30
0.0
  0
POINT
  5
239A
  8
DEFPOINTS
 62
     0
 10
6.19842635546037
 20
5.133427596495987
 30
0.0
  0
ENDBLK
  5
2171
  8
0
  0
BLOCK
  8
0
  2
*D19
 70
     1
 10
0.0
 20
0.0
 30
0.0
  3
*D19
  1

  0
LINE
  5
2391
  8
HEATSINK
 62
     0
 10
6.1109263554607329
 20
7.008427596495987
 30
0.0
 11
6.3625597252475918
 21
7.008427596495987
 31
0.0
  0
INSERT
  5
2392
  8
HEATSINK
  2
*U86
 10
0.0
 20
0.0
 30
0.0
  0
POINT
  5
2393
  8
DEFPOINTS
 62
     0
 10
6.0484263554607329
 20
7.008427596495987
 30
0.0
  0
POINT
  5
2394
  8
DEFPOINTS
 62
     0
 10
6.3625597252475918
 20
7.008427596495987
 30
0.0
  0
POINT
  5
2395
  8
DEFPOINTS
 62
     0
 10
6.19842635546037
 20
5.133427596495987
 30
0.0
  0
ENDBLK
  5
2181
  8
0
  0
BLOCK
  8
0
  2
*D20
 70
     1
 10
0.0
 20
0.0
 30
0.0
  3
*D20
  1

  0
LINE
  5
238C
  8
HEATSINK
 62
     0
 10
4.5709263554607711
 20
6.5334275966079458
 30
0.0
 11
4.9265333242501583
 21
6.5334275966079458
 31
0.0
  0
INSERT
  5
238D
  8
HEATSINK
  2
*U85
 10
0.0
 20
0.0
 30
0.0
  0
POINT
  5
238E
  8
DEFPOINTS
 62
     0
 10
4.5084263554607711
 20
6.5334275966079458
 30
0.0
  0
POINT
  5
238F
  8
DEFPOINTS
 62
     0
 10
4.9265333242501583
 20
6.5334275966079458
 30
0.0
  0
POINT
  5
2390
  8
DEFPOINTS
 62
     0
 10
6.19842635546037
 20
5.133427596495987
 30
0.0
  0
ENDBLK
  5
2191
  8
0
  0
BLOCK
  8
0
  2
*D21
 70
     1
 10
0.0
 20
0.0
 30
0.0
  3
*D21
  1

  0
LINE
  5
2387
  8
HEATSINK
 62
     0
 10
4.5709263554598598
 20
5.4334275964958971
 30
0.0
 11
4.70842635545986
 21
5.4334275964958971
 31
0.0
  0
INSERT
  5
2388
  8
HEATSINK
  2
*U84
 10
0.0
 20
0.0
 30
0.0
  0
POINT
  5
2389
  8
DEFPOINTS
 62
     0
 10
4.5084263554598598
 20
5.4334275964958971
 30
0.0
  0
POINT
  5
238A
  8
DEFPOINTS
 62
     0
 10
4.70842635545986
 20
5.4334275964958971
 30
0.0
  0
POINT
  5
238B
  8
DEFPOINTS
 62
     0
 10
6.19842635546037
 20
5.133427596495987
 30
0.0
  0
ENDBLK
  5
21A3
  8
0
  0
BLOCK
  8
0
  2
*D22
 70
     1
 10
0.0
 20
0.0
 30
0.0
  3
*D22
  1

  0
LINE
  5
2382
  8
HEATSINK
 62
     0
 10
6.26092635546037
 20
5.133427596495987
 30
0.0
 11
6.19842635546037
 21
5.133427596495987
 31
0.0
  0
INSERT
  5
2383
  8
HEATSINK
  2
*U83
 10
0.0
 20
0.0
 30
0.0
  0
POINT
  5
2384
  8
DEFPOINTS
 62
     0
 10
6.19842635546037
 20
5.133427596495987
 30
0.0
  0
POINT
  5
2385
  8
DEFPOINTS
 62
     0
 10
6.19842635546037
 20
5.133427596495987
 30
0.0
  0
POINT
  5
2386
  8
DEFPOINTS
 62
     0
 10
6.19842635546037
 20
5.133427596495987
 30
0.0
  0
ENDBLK
  5
21C8
  8
0
  0
BLOCK
  8
0
  2
*D23
 70
     1
 10
0.0
 20
0.0
 30
0.0
  3
*D23
  1

  0
LINE
  5
2374
  8
HEATSINK
 62
     0
 10
6.19842635546037
 20
5.070927596495987
 30
0.0
 11
6.19842635546037
 21
5.0587996419972114
 31
0.0
  0
INSERT
  5
2375
  8
HEATSINK
  2
*U80
 10
0.0
 20
0.0
 30
0.0
  0
POINT
  5
2376
  8
DEFPOINTS
 62
     0
 10
6.19842635546037
 20
5.133427596495987
 30
0.0
  0
POINT
  5
2377
  8
DEFPOINTS
 62
     0
 10
6.19842635546037
 20
5.0587996419972114
 30
0.0
  0
POINT
  5
2378
  8
DEFPOINTS
 62
     0
 10
6.19842635546037
 20
5.133427596495987
 30
0.0
  0
ENDBLK
  5
21DA
  8
0
  0
BLOCK
  8
0
  2
*D24
 70
     1
 10
0.0
 20
0.0
 30
0.0
  3
*D24
  1

  0
LINE
  5
236F
  8
HEATSINK
 62
     0
 10
6.0484263554607329
 20
5.195927596495987
 30
0.0
 11
6.0484263554607329
 21
5.133427596495987
 31
0.0
  0
INSERT
  5
2370
  8
HEATSINK
  2
*U79
 10
0.0
 20
0.0
 30
0.0
  0
POINT
  5
2371
  8
DEFPOINTS
 62
     0
 10
6.0484263554607329
 20
5.258427596495987
 30
0.0
  0
POINT
  5
2372
  8
DEFPOINTS
 62
     0
 10
6.0484263554607329
 20
5.133427596495987
 30
0.0
  0
POINT
  5
2373
  8
DEFPOINTS
 62
     0
 10
6.19842635546037
 20
5.133427596495987
 30
0.0
  0
ENDBLK
  5
21E3
  8
0
  0
BLOCK
  8
0
  2
*D25
 70
     1
 10
0.0
 20
0.0
 30
0.0
  3
*D25
  1

  0
LINE
  5
236A
  8
HEATSINK
 62
     0
 10
5.5084263554598598
 20
5.4209275964958961
 30
0.0
 11
5.5084263554598598
 21
5.133427596495987
 31
0.0
  0
INSERT
  5
236B
  8
HEATSINK
  2
*U78
 10
0.0
 20
0.0
 30
0.0
  0
POINT
  5
236C
  8
DEFPOINTS
 62
     0
 10
5.5084263554598598
 20
5.4834275964958961
 30
0.0
  0
POINT
  5
236D
  8
DEFPOINTS
 62
     0
 10
5.5084263554598598
 20
5.133427596495987
 30
0.0
  0
POINT
  5
236E
  8
DEFPOINTS
 62
     0
 10
6.19842635546037
 20
5.133427596495987
 30
0.0
  0
ENDBLK
  5
21EC
  8
0
  0
BLOCK
  8
0
  2
*D26
 70
     1
 10
0.0
 20
0.0
 30
0.0
  3
*D26
  1

  0
LINE
  5
2365
  8
HEATSINK
 62
     0
 10
4.81842635546026
 20
5.195927596495987
 30
0.0
 11
4.81842635546026
 21
5.133427596495987
 31
0.0
  0
INSERT
  5
2366
  8
HEATSINK
  2
*U77
 10
0.0
 20
0.0
 30
0.0
  0
POINT
  5
2367
  8
DEFPOINTS
 62
     0
 10
4.81842635546026
 20
5.258427596495987
 30
0.0
  0
POINT
  5
2368
  8
DEFPOINTS
 62
     0
 10
4.81842635546026
 20
5.133427596495987
 30
0.0
  0
POINT
  5
2369
  8
DEFPOINTS
 62
     0
 10
6.19842635546037
 20
5.133427596495987
 30
0.0
  0
ENDBLK
  5
21F5
  8
0
  0
BLOCK
  8
0
  2
*D27
 70
     1
 10
0.0
 20
0.0
 30
0.0
  3
*D27
  1

  0
LINE
  5
23AE
  8
HEATSINK
 62
     0
 10
4.5084263554607693
 20
5.3709275963838472
 30
0.0
 11
4.5084263554607693
 21
5.233427596383847
 31
0.0
  0
LINE
  5
23AF
  8
HEATSINK
 62
     0
 10
4.5084263554607693
 20
5.233427596383847
 30
0.0
 11
4.5061096636982496
 21
5.3339037424652593
 31
0.0
  0
LINE
  5
23B0
  8
HEATSINK
 62
     0
 10
4.5061096636982496
 20
5.3339037424652593
 30
0.0
 11
4.5061096636982496
 21
5.1339037424652592
 31
0.0
  0
INSERT
  5
23B1
  8
HEATSINK
  2
*U90
 10
0.0
 20
0.0
 30
0.0
  0
POINT
  5
23B2
  8
DEFPOINTS
 62
     0
 10
4.5084263554607693
 20
5.4334275963838472
 30
0.0
  0
POINT
  5
23B3
  8
DEFPOINTS
 62
     0
 10
4.5061096636982496
 20
5.1339037424652592
 30
0.0
  0
POINT
  5
23B4
  8
DEFPOINTS
 62
     0
 10
6.19842635546037
 20
5.133427596495987
 30
0.0
  0
ENDBLK
  5
2207
  8
0
  0
BLOCK
  8
0
  2
*D28
 70
     1
 10
0.0
 20
0.0
 30
0.0
  3
*D28
  1

  0
LINE
  5
2359
  8
HEATSINK
 62
     0
 10
4.19842635546037
 20
5.195927596495987
 30
0.0
 11
4.19842635546037
 21
5.133427596495987
 31
0.0
  0
INSERT
  5
235A
  8
HEATSINK
  2
*U76
 10
0.0
 20
0.0
 30
0.0
  0
POINT
  5
235B
  8
DEFPOINTS
 62
     0
 10
4.19842635546037
 20
5.258427596495987
 30
0.0
  0
POINT
  5
235C
  8
DEFPOINTS
 62
     0
 10
4.19842635546037
 20
5.133427596495987
 30
0.0
  0
POINT
  5
235D
  8
DEFPOINTS
 62
     0
 10
6.19842635546037
 20
5.133427596495987
 30
0.0
  0
ENDBLK
  5
2219
  8
0
  0
BLOCK
  8
0
  2
*D29
 70
     1
 10
0.0
 20
0.0
 30
0.0
  3
*D29
  1

  0
LINE
  5
23E0
  8
HEATSINK
 62
     0
 10
3.5084263554598598
 20
6.4209275964958961
 30
0.0
 11
3.5084263554598598
 21
6.2834275964958959
 31
0.0
  0
LINE
  5
23E1
  8
HEATSINK
 62
     0
 10
3.5084263554598598
 20
6.2834275964958959
 30
0.0
 11
3.5084046196053822
 21
6.4279307153871148
 31
0.0
  0
LINE
  5
23E2
  8
HEATSINK
 62
     0
 10
3.5084046196053822
 20
6.4279307153871148
 30
0.0
 11
3.5084046196053822
 21
6.2279307153871146
 31
0.0
  0
INSERT
  5
23E3
  8
HEATSINK
  2
*U91
 10
0.0
 20
0.0
 30
0.0
  0
POINT
  5
23E4
  8
DEFPOINTS
 62
     0
 10
3.5084263554598598
 20
6.4834275964958961
 30
0.0
  0
POINT
  5
23E5
  8
DEFPOINTS
 62
     0
 10
3.5084046196053822
 20
6.2279307153871146
 30
0.0
  0
POINT
  5
23E6
  8
DEFPOINTS
 62
     0
 10
6.19842635546037
 20
5.133427596495987
 30
0.0
  0
ENDBLK
  5
222B
  8
0
  0
BLOCK
  8
0
  2
*D30
 70
     1
 10
0.0
 20
0.0
 30
0.0
  3
*D30
  1

  0
LINE
  5
234D
  8
HEATSINK
 62
     0
 10
3.3484263554600062
 20
5.195927596495987
 30
0.0
 11
3.3484263554600062
 21
5.133427596495987
 31
0.0
  0
INSERT
  5
234E
  8
HEATSINK
  2
*U75
 10
0.0
 20
0.0
 30
0.0
  0
POINT
  5
234F
  8
DEFPOINTS
 62
     0
 10
3.3484263554600062
 20
5.258427596495987
 30
0.0
  0
POINT
  5
2350
  8
DEFPOINTS
 62
     0
 10
3.3484263554600062
 20
5.133427596495987
 30
0.0
  0
POINT
  5
2351
  8
DEFPOINTS
 62
     0
 10
6.19842635546037
 20
5.133427596495987
 30
0.0
  0
ENDBLK
  5
2244
  8
0
  0
BLOCK
  8
0
  2
*D31
 70
     1
 10
0.0
 20
0.0
 30
0.0
  3
*D31
  1

  0
LINE
  5
2348
  8
HEATSINK
 62
     0
 10
3.19842635546037
 20
5.070927596495987
 30
0.0
 11
3.19842635546037
 21
5.0376359497968224
 31
0.0
  0
INSERT
  5
2349
  8
HEATSINK
  2
*U74
 10
0.0
 20
0.0
 30
0.0
  0
POINT
  5
234A
  8
DEFPOINTS
 62
     0
 10
3.19842635546037
 20
5.133427596495987
 30
0.0
  0
POINT
  5
234B
  8
DEFPOINTS
 62
     0
 10
3.19842635546037
 20
5.0376359497968224
 30
0.0
  0
POINT
  5
234C
  8
DEFPOINTS
 62
     0
 10
6.19842635546037
 20
5.133427596495987
 30
0.0
  0
ENDBLK
  5
2254
  8
0
  0
BLOCK
  8
0
  2
*D32
 70
     1
 10
0.0
 20
0.0
 30
0.0
  3
*D32
  1

  0
LINE
  5
233A
  8
HEATSINK
 62
     0
 10
7.7170596486572167
 20
5.8134275964958997
 30
0.0
 11
7.5795596486572174
 21
5.8134275964958997
 31
0.0
  0
LINE
  5
233B
  8
HEATSINK
 62
     0
 10
7.5795596486572174
 20
5.8134275964958997
 30
0.0
 11
7.5848441038826424
 21
5.8144275964959
 31
0.0
  0
LINE
  5
233C
  8
HEATSINK
 62
     0
 10
7.5848441038826424
 20
5.8144275964959
 30
0.0
 11
7.3848441038826422
 21
5.8144275964959
 31
0.0
  0
INSERT
  5
233D
  8
HEATSINK
  2
*U72
 10
0.0
 20
0.0
 30
0.0
  0
POINT
  5
233E
  8
DEFPOINTS
 62
     0
 10
7.7795596486572167
 20
5.8134275964958997
 30
0.0
  0
POINT
  5
233F
  8
DEFPOINTS
 62
     0
 10
7.3848441038826422
 20
5.8144275964959
 30
0.0
  0
POINT
  5
2340
  8
DEFPOINTS
 62
     0
 10
6.19842635546037
 20
5.133427596495987
 30
0.0
  0
ENDBLK
  5
2266
  8
0
  0
BLOCK
  8
0
  2
*D33
 70
     1
 10
0.0
 20
0.0
 30
0.0
  3
*D33
  1

  0
LINE
  5
2341
  8
HEATSINK
 62
     0
 10
7.7170596486572167
 20
6.1534275964958951
 30
0.0
 11
7.5795596486572174
 21
6.1534275964958951
 31
0.0
  0
LINE
  5
2342
  8
HEATSINK
 62
     0
 10
7.5795596486572174
 20
6.1534275964958951
 30
0.0
 11
7.5925349694345643
 21
6.1524275964959001
 31
0.0
  0
LINE
  5
2343
  8
HEATSINK
 62
     0
 10
7.5925349694345643
 20
6.1524275964959001
 30
0.0
 11
7.3925349694345641
 21
6.1524275964959001
 31
0.0
  0
INSERT
  5
2344
  8
HEATSINK
  2
*U73
 10
0.0
 20
0.0
 30
0.0
  0
POINT
  5
2345
  8
DEFPOINTS
 62
     0
 10
7.7795596486572167
 20
6.1534275964958951
 30
0.0
  0
POINT
  5
2346
  8
DEFPOINTS
 62
     0
 10
7.3925349694345641
 20
6.1524275964959001
 30
0.0
  0
POINT
  5
2347
  8
DEFPOINTS
 62
     0
 10
6.19842635546037
 20
5.133427596495987
 30
0.0
  0
ENDBLK
  5
2276
  8
0
  0
BLOCK
  8
0
  2
*D34
 70
     1
 10
0.0
 20
0.0
 30
0.0
  3
*D34
  1

  0
LINE
  5
232E
  8
HEATSINK
 62
     0
 10
6.26092635546037
 20
5.9834275964958961
 30
0.0
 11
6.775740096327862
 21
5.9834275964958961
 31
0.0
  0
INSERT
  5
232F
  8
HEATSINK
  2
*U71
 10
0.0
 20
0.0
 30
0.0
  0
POINT
  5
2330
  8
DEFPOINTS
 62
     0
 10
6.19842635546037
 20
5.9834275964958961
 30
0.0
  0
POINT
  5
2331
  8
DEFPOINTS
 62
     0
 10
6.775740096327862
 20
5.9834275964958961
 30
0.0
  0
POINT
  5
2332
  8
DEFPOINTS
 62
     0
 10
6.19842635546037
 20
5.133427596495987
 30
0.0
  0
ENDBLK
  5
2287
  8
0
  0
BLOCK
  8
0
  2
*D35
 70
     1
 10
0.0
 20
0.0
 30
0.0
  3
*D35
  1

  0
LINE
  5
23E7
  8
HEATSINK
 62
     0
 10
3.5709263554598598
 20
6.4834275964958961
 30
0.0
 11
3.6929263554598601
 21
6.4834275964958961
 31
0.0
  0
INSERT
  5
23E8
  8
HEATSINK
  2
*U92
 10
0.0
 20
0.0
 30
0.0
  0
POINT
  5
23E9
  8
DEFPOINTS
 62
     0
 10
3.5084263554598598
 20
6.4834275964958961
 30
0.0
  0
POINT
  5
23EA
  8
DEFPOINTS
 62
     0
 10
3.6929263554598601
 20
6.4834275964958961
 30
0.0
  0
POINT
  5
23EB
  8
DEFPOINTS
 62
     0
 10
6.19842635546037
 20
5.133427596495987
 30
0.0
  0
ENDBLK
  5
23CA
  8
0
  0
BLOCK
  8
0
  2
*D36
 70
     1
 10
0.0
 20
0.0
 30
0.0
  3
*D36
  1

  0
LINE
  5
24A3
  8
HEATSINK
 62
     0
 10
4.7044263554598604
 20
6.8223277972204608
 30
0.0
 11
4.7044263554598604
 21
7.3414457169023928
 31
0.0
  0
LINE
  5
24A4
  8
HEATSINK
 62
     0
 10
4.7044263554598604
 20
7.3414457169023928
 30
0.0
 11
4.8747643696287559
 21
7.541445716902393
 31
0.0
  0
LINE
  5
24A5
  8
HEATSINK
 62
     0
 10
4.8747643696287559
 20
7.541445716902393
 30
0.0
 11
4.8747643696287559
 21
7.741445716902394
 31
0.0
  0
INSERT
  5
24A6
  8
HEATSINK
  2
*U94
 10
0.0
 20
0.0
 30
0.0
  0
POINT
  5
24A7
  8
DEFPOINTS
 62
     0
 10
4.7044263554598604
 20
6.7598277972204608
 30
0.0
  0
POINT
  5
24A8
  8
DEFPOINTS
 62
     0
 10
4.8747643696287559
 20
7.741445716902394
 30
0.0
  0
POINT
  5
24A9
  8
DEFPOINTS
 62
     0
 10
6.19842635546037
 20
5.133427596495987
 30
0.0
  0
ENDBLK
  5
23FD
  8
0
  0
BLOCK
  8
0
  2
*D37
 70
     1
 10
0.0
 20
0.0
 30
0.0
  3
*D37
  1

  0
LINE
  5
24AA
  8
HEATSINK
 62
     0
 10
4.3124263554598601
 20
7.195927596495987
 30
0.0
 11
4.3124263554598601
 21
7.3334275964959881
 31
0.0
  0
LINE
  5
24AB
  8
HEATSINK
 62
     0
 10
4.3124263554598601
 20
7.3334275964959881
 30
0.0
 11
4.189603227205442
 21
7.5266114584430088
 31
0.0
  0
LINE
  5
24AC
  8
HEATSINK
 62
     0
 10
4.189603227205442
 20
7.5266114584430088
 30
0.0
 11
4.189603227205442
 21
7.726611458443009
 31
0.0
  0
INSERT
  5
24AD
  8
HEATSINK
  2
*U95
 10
0.0
 20
0.0
 30
0.0
  0
POINT
  5
24AE
  8
DEFPOINTS
 62
     0
 10
4.3124263554598601
 20
7.133427596495987
 30
0.0
  0
POINT
  5
24AF
  8
DEFPOINTS
 62
     0
 10
4.189603227205442
 20
7.726611458443009
 30
0.0
  0
POINT
  5
24B0
  8
DEFPOINTS
 62
     0
 10
6.19842635546037
 20
5.133427596495987
 30
0.0
  0
ENDBLK
  5
2411
  8
0
  0
BLOCK
  8
0
  2
*D38
 70
     1
 10
0.0
 20
0.0
 30
0.0
  3
*D38
  1

  0
LINE
  5
24B1
  8
HEATSINK
 62
     0
 10
4.3274263554598598
 20
7.195927596495987
 30
0.0
 11
4.3274263554598598
 21
7.3491422748168569
 31
0.0
  0
LINE
  5
24B2
  8
HEATSINK
 62
     0
 10
4.3274263554598598
 20
7.3491422748168569
 30
0.0
 11
4.4744454974120798
 21
7.5491422748168571
 31
0.0
  0
LINE
  5
24B3
  8
HEATSINK
 62
     0
 10
4.4744454974120798
 20
7.5491422748168571
 30
0.0
 11
4.4744454974120798
 21
7.7491422748168581
 31
0.0
  0
INSERT
  5
24B4
  8
HEATSINK
  2
*U96
 10
0.0
 20
0.0
 30
0.0
  0
POINT
  5
24B5
  8
DEFPOINTS
 62
     0
 10
4.3274263554598598
 20
7.133427596495987
 30
0.0
  0
POINT
  5
24B6
  8
DEFPOINTS
 62
     0
 10
4.4744454974120798
 20
7.7491422748168581
 30
0.0
  0
POINT
  5
24B7
  8
DEFPOINTS
 62
     0
 10
6.19842635546037
 20
5.133427596495987
 30
0.0
  0
ENDBLK
  5
245C
  8
0
  0
BLOCK
  8
0
  2
*D39
 70
     1
 10
0.0
 20
0.0
 30
0.0
  3
*D39
  1

  0
LINE
  5
249C
  8
HEATSINK
 62
     0
 10
4.6894263554598599
 20
7.2012554546640652
 30
0.0
 11
4.6894263554598599
 21
7.3491422748168569
 31
0.0
  0
LINE
  5
249D
  8
HEATSINK
 62
     0
 10
4.6894263554598599
 20
7.3491422748168569
 30
0.0
 11
4.6361127402261353
 21
7.5491422748168571
 31
0.0
  0
LINE
  5
249E
  8
HEATSINK
 62
     0
 10
4.6361127402261353
 20
7.5491422748168571
 30
0.0
 11
4.6361127402261353
 21
7.7491422748168581
 31
0.0
  0
INSERT
  5
249F
  8
HEATSINK
  2
*U93
 10
0.0
 20
0.0
 30
0.0
  0
POINT
  5
24A0
  8
DEFPOINTS
 62
     0
 10
4.6894263554598599
 20
7.1387554546640652
 30
0.0
  0
POINT
  5
24A1
  8
DEFPOINTS
 62
     0
 10
4.6361127402261353
 20
7.7491422748168581
 30
0.0
  0
POINT
  5
24A2
  8
DEFPOINTS
 62
     0
 10
6.19842635546037
 20
5.133427596495987
 30
0.0
  0
ENDBLK
  5
2492
  8
0
  0
BLOCK
  8
0
  2
*D40
 70
     1
 10
0.0
 20
0.0
 30
0.0
  3
*D40
  1

  0
LINE
  5
251D
  8
HEATSINK
 62
     0
 10
7.9745596486570038
 20
5.5619275964959201
 30
0.0
 11
7.9745596486570038
 21
5.133427596495987
 31
0.0
  0
INSERT
  5
251E
  8
HEATSINK
  2
*U101
 10
0.0
 20
0.0
 30
0.0
  0
POINT
  5
251F
  8
DEFPOINTS
 62
     0
 10
7.9745596486570038
 20
5.6244275964959201
 30
0.0
  0
POINT
  5
2520
  8
DEFPOINTS
 62
     0
 10
7.9745596486570038
 20
5.133427596495987
 30
0.0
  0
POINT
  5
2521
  8
DEFPOINTS
 62
     0
 10
7.6705596486572167
 20
5.133427596495987
 30
0.0
  0
ENDBLK
  5
24EC
  8
0
  0
BLOCK
  8
0
  2
*D41
 70
     1
 10
0.0
 20
0.0
 30
0.0
  3
*D41
  1

  0
LINE
  5
2518
  8
HEATSINK
 62
     0
 10
7.9120596486570038
 20
5.6244275964959201
 30
0.0
 11
7.6705596486572167
 21
5.6244275964959201
 31
0.0
  0
INSERT
  5
2519
  8
HEATSINK
  2
*U100
 10
0.0
 20
0.0
 30
0.0
  0
POINT
  5
251A
  8
DEFPOINTS
 62
     0
 10
7.9745596486570038
 20
5.6244275964959201
 30
0.0
  0
POINT
  5
251B
  8
DEFPOINTS
 62
     0
 10
7.6705596486572167
 20
5.6244275964959201
 30
0.0
  0
POINT
  5
251C
  8
DEFPOINTS
 62
     0
 10
7.6705596486572167
 20
5.133427596495987
 30
0.0
  0
ENDBLK
  5
24FC
  8
0
  0
BLOCK
  8
0
  2
*D42
 70
     1
 10
0.0
 20
0.0
 30
0.0
  3
*D42
  1

  0
LINE
  5
2511
  8
HEATSINK
 62
     0
 10
7.9120596486570038
 20
6.3424275964959103
 30
0.0
 11
7.7745596486570037
 21
6.3424275964959103
 31
0.0
  0
LINE
  5
2512
  8
HEATSINK
 62
     0
 10
7.7745596486570037
 20
6.3424275964959103
 30
0.0
 11
7.8051353060539448
 21
6.341875601530103
 31
0.0
  0
LINE
  5
2513
  8
HEATSINK
 62
     0
 10
7.8051353060539448
 20
6.341875601530103
 30
0.0
 11
7.6051353060539446
 21
6.341875601530103
 31
0.0
  0
INSERT
  5
2514
  8
HEATSINK
  2
*U99
 10
0.0
 20
0.0
 30
0.0
  0
POINT
  5
2515
  8
DEFPOINTS
 62
     0
 10
7.9745596486570038
 20
6.3424275964959103
 30
0.0
  0
POINT
  5
2516
  8
DEFPOINTS
 62
     0
 10
7.6051353060539446
 20
6.341875601530103
 30
0.0
  0
POINT
  5
2517
  8
DEFPOINTS
 62
     0
 10
7.6705596486572167
 20
5.133427596495987
 30
0.0
  0
ENDBLK
  5
2507
  8
0
  0
BLOCK
  8
0
  2
THIRD_ANGLE_PROJECTION
 70
     0
 10
0.0
 20
0.0
 30
0.0
  3
THIRD_ANGLE_PROJECTION
  1

  0
LINE
  5
2702
  8
HEATSINK
  6
CONTINUOUS
 62
   250
 10
3.8775323498472432
 20
-3.5855412913084441
 30
0.0
 11
3.8775323498472432
 21
-3.4780307507644519
 31
0.0
  0
LINE
  5
2703
  8
HEATSINK
  6
CONTINUOUS
 62
   250
 10
4.437675291497917
 20
-3.693051831852435
 30
0.0
 11
4.437675291497917
 21
-3.370520210220461
 31
0.0
  0
LINE
  5
2704
  8
HEATSINK
  6
CONTINUOUS
 62
   250
 10
4.437675291497917
 20
-3.693051831852435
 30
0.0
 11
3.8775323498472432
 21
-3.5855412913084441
 31
0.0
  0
LINE
  5
2705
  8
HEATSINK
  6
CONTINUOUS
 62
   250
 10
4.437675291497917
 20
-3.370520210220461
 30
0.0
 11
3.8775323498472432
 21
-3.4780307507644519
 31
0.0
  0
INSERT
  5
2706
  8
HEATSINK
  2
*U103
 10
0.0
 20
0.0
 30
0.0
  0
CIRCLE
  5
2707
  8
HEATSINK
  6
CONTINUOUS
 62
   250
 10
3.440560454038319
 20
-3.5317860210364662
 30
0.0
 40
0.0537552702719925
  0
CIRCLE
  5
2708
  8
HEATSINK
  6
CONTINUOUS
 62
   250
 10
3.4405604540383399
 20
-3.5317860210364662
 30
0.0
 40
0.1612658108159956
  0
LINE
  5
2709
  8
HEATSINK
  6
CENTER
 62
   250
 10
3.4405604540383399
 20
-3.7515143588487359
 30
0.0
 11
3.4405604540383399
 21
-3.3015560437481271
 31
0.0
  0
LINE
  5
270A
  8
HEATSINK
  6
CENTER
 62
   250
 10
4.5386841970655558
 20
-3.5317860210364662
 30
0.0
 11
3.2163805026289292
 21
-3.5317860210364662
 31
0.0
  0
ENDBLK
  5
270B
  8
0
  0
BLOCK
  8
0
  2
*U46
 70
     1
 10
0.0
 20
0.0
 30
0.0
  3
*U46
  1

  0
TEXT
  5
2A5D
  8
HEATSINK
 62
   250
 10
7.1341649593062408
 20
7.3966085157876567
 30
0.0
 40
0.09
  1
Side View
  0
TEXT
  5
2A5E
  8
HEATSINK
 62
   250
 10
7.1341649593062408
 20
7.2466085157876572
 30
0.0
 40
0.09
  1
Typ both ends
  0
ENDBLK
  5
2A60
  8
0
  0
BLOCK
  8
0
  2
*U47
 70
     1
 10
0.0
 20
0.0
 30
0.0
  3
*U47
  1

  0
TEXT
  5
2A6E
  8
HEATSINK
 62
   250
 10
7.8067926880334912
 20
5.6752446987648
 30
0.0
 40
0.09
  1
C
  0
ENDBLK
  5
2A70
  8
0
  0
BLOCK
  8
0
  2
*U48
 70
     1
 10
0.0
 20
0.0
 30
0.0
  3
*U48
  1

  0
TEXT
  5
2A72
  8
HEATSINK
 62
   250
 10
7.585513012566456
 20
5.3375641251378658
 30
0.0
 40
0.09
  1
Top
 50
89.934068665729356
  0
ENDBLK
  5
2A74
  8
0
  0
BLOCK
  8
0
  2
*U49
 70
     1
 10
0.0
 20
0.0
 30
0.0
  3
*U49
  1

  0
TEXT
  5
2A76
  8
HEATSINK
 62
   250
 10
7.7751704741188066
 20
5.9437991357926041
 30
0.0
 40
0.09
  1
B
  0
ENDBLK
  5
2A78
  8
0
  0
BLOCK
  8
0
  2
*U50
 70
     1
 10
0.0
 20
0.0
 30
0.0
  3
*U50
  1

  0
TEXT
  5
2A83
  8
HEATSINK
 62
   250
 10
7.8196840256493276
 20
6.1945166786559387
 30
0.0
 40
0.09
  1
C
  0
ENDBLK
  5
2A85
  8
0
  0
BLOCK
  8
0
  2
*U51
 70
     1
 10
0.0
 20
0.0
 30
0.0
  3
*U51
  1

  0
TEXT
  5
2A87
  8
HEATSINK
 62
   250
 10
8.3909654041772956
 20
7.1488342356162304
 30
0.0
 40
0.09
  1
NI780 0.490" Copper Heatsink
  0
TEXT
  5
2A88
  8
HEATSINK
 62
   250
 10
8.3909654041772956
 20
6.9988342356162301
 30
0.0
 40
0.09
  1
(for 50mil PCB)or T0272 30 mil
  0
TEXT
  5
2A89
  8
HEATSINK
 62
   250
 10
8.3909654041772956
 20
6.8488342356162288
 30
0.0
 40
0.09
  1
PCB
  0
TEXT
  5
2A8A
  8
HEATSINK
 62
   250
 10
8.3909654041772956
 20
6.548834235616229
 30
0.0
 40
0.09
  1
A 10 Places, Drill thru & tap
  0
TEXT
  5
2A8B
  8
HEATSINK
 62
   250
 10
8.3909654041772956
 20
6.3988342356162278
 30
0.0
 40
0.09
  1
#4-40 screw
  0
TEXT
  5
2A8C
  8
HEATSINK
 62
   250
 10
8.3909654041772956
 20
6.0988342356162271
 30
0.0
 40
0.09
  1
B 2 Places, On Both Sides,
  0
TEXT
  5
2A8D
  8
HEATSINK
 62
   250
 10
8.3909654041772956
 20
5.9488342356162267
 30
0.0
 40
0.09
  1
0.1875 Dia Notch 0.020 deep (N
  0
TEXT
  5
2A8E
  8
HEATSINK
 62
   250
 10
8.3909654041772956
 20
5.7988342356162272
 30
0.0
 40
0.09
  1
Connector Notch)
  0
TEXT
  5
2A8F
  8
HEATSINK
 62
   250
 10
8.3909654041772956
 20
5.4988342356162256
 30
0.0
 40
0.09
  1
C 4 Places, Side, Drill & tap
  0
TEXT
  5
2A90
  8
HEATSINK
 62
   250
 10
8.3909654041772956
 20
5.3488342356162262
 30
0.0
 40
0.09
  1
#2-56 screw 0.500 deep (SMA
  0
TEXT
  5
2A91
  8
HEATSINK
 62
   250
 10
8.3909654041772956
 20
5.1988342356162249
 30
0.0
 40
0.09
  1
Holes)
  0
TEXT
  5
2A92
  8
HEATSINK
 62
   250
 10
8.3909654041772956
 20
4.8988342356162251
 30
0.0
 40
0.09
  1
D 2 Places Drill Dia. = 0.257"
  0
TEXT
  5
2A93
  8
HEATSINK
 62
   250
 10
8.3909654041772956
 20
4.7488342356162239
 30
0.0
 40
0.09
  1
from bottom Depth = .270"
  0
TEXT
  5
2A94
  8
HEATSINK
 62
   250
 10
8.3909654041772956
 20
4.448834235616224
 30
0.0
 40
0.09
  1
E 
  0
TEXT
  5
2A95
  8
HEATSINK
 10
8.5709654041772954
 20
4.448834235616224
 30
0.0
 40
0.09
  1
4 Places, 
  0
TEXT
  5
2A96
  8
HEATSINK
 62
   250
 10
9.3809654041772959
 20
4.448834235616224
 30
0.0
 40
0.09
  1
Both Sides, 
  0
TEXT
  5
2A97
  8
HEATSINK
 10
10.35596540417729
 20
4.448834235616224
 30
0.0
 40
0.09
  1
Drill
  0
TEXT
  5
2A98
  8
HEATSINK
 10
8.3909654041772956
 20
4.2988342356162228
 30
0.0
 40
0.09
  1
depth 0.250" and Tap for 4-40
  0
TEXT
  5
2A99
  8
HEATSINK
 10
8.3909654041772956
 20
4.1488342356162233
 30
0.0
 40
0.09
  1
Screw (N connector)
  0
ENDBLK
  5
2A9B
  8
0
  0
BLOCK
  8
0
  2
*U52
 70
     1
 10
0.0
 20
0.0
 30
0.0
  3
*U52
  1

  0
TEXT
  5
2A9D
  8
HEATSINK
 62
   250
 10
4.8233639331237557
 20
4.1728642145733588
 30
0.0
 40
0.09
  1
Front View
  0
ENDBLK
  5
2A9F
  8
0
  0
BLOCK
  8
0
  2
*U53
 70
     1
 10
0.0
 20
0.0
 30
0.0
  3
*U53
  1

  0
TEXT
  5
2AA5
  8
HEATSINK
 10
2.6983027049813741
 20
2.757139356116975
 30
0.0
 40
0.1
  1
0.0050
  0
ENDBLK
  5
2AA7
  8
0
  0
BLOCK
  8
0
  2
*U54
 70
     1
 10
0.0
 20
0.0
 30
0.0
  3
*U54
  1

  0
TEXT
  5
2AAE
  8
DIMENSIONS
 62
     0
 10
2.3624999999999989
 20
1.675437610472758
 30
0.0
 40
0.075
  1
0.380
  0
ENDBLK
  5
2AB0
  8
0
  0
BLOCK
  8
0
  2
*U55
 70
     1
 10
0.0
 20
0.0
 30
0.0
  3
*U55
  1

  0
TEXT
  5
2AB2
  8
HEATSINK
 62
     0
 10
1.5643963352245129
 20
0.4550000000000001
 30
0.0
 40
0.09
  1
0.500
  0
ENDBLK
  5
2AB4
  8
0
  0
BLOCK
  8
0
  2
*U56
 70
     1
 10
0.0
 20
0.0
 30
0.0
  3
*U56
  1

  0
TEXT
  5
2AB6
  8
HEATSINK
 62
     0
 10
1.6806610869498699
 20
2.4550000000000001
 30
0.0
 40
0.09
  1
2.500
  0
ENDBLK
  5
2AB8
  8
0
  0
BLOCK
  8
0
  2
*U57
 70
     1
 10
0.0
 20
0.0
 30
0.0
  3
*U57
  1

  0
TEXT
  5
2ABA
  8
HEATSINK
 62
     0
 10
1.889996114098758
 20
0.7550000000000005
 30
0.0
 40
0.09
  1
0.800
  0
ENDBLK
  5
2ABC
  8
0
  0
BLOCK
  8
0
  2
*U58
 70
     1
 10
0.0
 20
0.0
 30
0.0
  3
*U58
  1

  0
TEXT
  5
2ABE
  8
HEATSINK
 62
     0
 10
1.889999999999999
 20
2.1549999999999998
 30
0.0
 40
0.09
  1
2.200
  0
ENDBLK
  5
2AC0
  8
0
  0
BLOCK
  8
0
  2
*U59
 70
     1
 10
0.0
 20
0.0
 30
0.0
  3
*U59
  1

  0
TEXT
  5
2AC2
  8
DIMENSIONS
 62
     0
 10
2.333333333333333
 20
1.45
 30
0.0
 40
0.1
  1
0.410
  0
ENDBLK
  5
2AC4
  8
0
  0
BLOCK
  8
0
  2
*U60
 70
     1
 10
0.0
 20
0.0
 30
0.0
  3
*U60
  1

  0
TEXT
  5
2AC6
  8
HEATSINK
 62
   250
 10
-0.0382869005847395
 20
-1.236172474789907
 30
0.0
 40
0.1
  1
D
  0
ENDBLK
  5
2AC8
  8
0
  0
BLOCK
  8
0
  2
*U61
 70
     1
 10
0.0
 20
0.0
 30
0.0
  3
*U61
  1

  0
TEXT
  5
2ACA
  8
HEATSINK
 62
   250
 10
0.0990464680940599
 20
0.5206669972593258
 30
0.0
 40
0.1
  1
A
  0
ENDBLK
  5
2ACC
  8
0
  0
BLOCK
  8
0
  2
*U62
 70
     1
 10
0.0
 20
0.0
 30
0.0
  3
*U62
  1

  0
TEXT
  5
2ACE
  8
HEATSINK
 62
   250
 10
0.0990464680940599
 20
-0.8669566258588433
 30
0.0
 40
0.1
  1
A
  0
ENDBLK
  5
2AD0
  8
0
  0
BLOCK
  8
0
  2
*U63
 70
     1
 10
0.0
 20
0.0
 30
0.0
  3
*U63
  1

  0
SOLID
  5
2AD2
  8
HEATSINK
  6
CONTINUOUS
 62
   250
 10
-0.0029976606968958
 20
1.0629286423685289
 30
0.0
 11
-0.006961343351599
 21
1.062358750838498
 31
0.0
 12
0.0089658348112169
 22
1.062358750838498
 32
0.0
 13
0.0089658348112169
 23
1.062358750838498
 33
0.0
210
0.0
220
0.0
230
-1.0
  0
SOLID
  5
2AD3
  8
HEATSINK
  6
CONTINUOUS
 62
   250
 10
0.0089658348112169
 20
1.062358750838498
 30
0.0
 11
-0.0148528129370939
 21
1.0612241288043831
 31
0.0
 12
0.0136428105366368
 22
1.0612241288043831
 32
0.0
 13
0.0136428105366368
 23
1.0612241288043831
 33
0.0
210
0.0
220
0.0
230
-1.0
  0
SOLID
  5
2AD4
  8
HEATSINK
  6
CONTINUOUS
 62
   250
 10
0.0089658348112169
 20
1.062358750838498
 30
0.0
 11
-0.006961343351599
 21
1.062358750838498
 31
0.0
 12
-0.0148528129370939
 22
1.0612241288043831
 32
0.0
 13
-0.0148528129370939
 23
1.0612241288043831
 33
0.0
210
0.0
220
0.0
230
-1.0
  0
SOLID
  5
2AD5
  8
HEATSINK
  6
CONTINUOUS
 62
   250
 10
0.0136428105366368
 20
1.0612241288043831
 30
0.0
 11
-0.0197330810766167
 21
1.0595350515790241
 31
0.0
 12
0.0206052816889976
 22
1.0595350515790241
 32
0.0
 13
0.0206052816889976
 23
1.0595350515790241
 33
0.0
210
0.0
220
0.0
230
-1.0
  0
SOLID
  5
2AD6
  8
HEATSINK
  6
CONTINUOUS
 62
   250
 10
0.0136428105366368
 20
1.0612241288043831
 30
0.0
 11
-0.0148528129370939
 21
1.0612241288043831
 31
0.0
 12
-0.0197330810766167
 22
1.0595350515790241
 32
0.0
 13
-0.0197330810766167
 23
1.0595350515790241
 33
0.0
210
0.0
220
0.0
230
-1.0
  0
SOLID
  5
2AD7
  8
HEATSINK
  6
CONTINUOUS
 62
   250
 10
0.0206052816889976
 20
1.0595350515790241
 30
0.0
 11
-0.0261711458191189
 21
1.057306815707334
 31
0.0
 12
0.0254844376622945
 22
1.057306815707334
 32
0.0
 13
0.0254844376622945
 23
1.057306815707334
 33
0.0
210
0.0
220
0.0
230
-1.0
  0
SOLID
  5
2AD8
  8
HEATSINK
  6
CONTINUOUS
 62
   250
 10
0.0206052816889976
 20
1.0595350515790241
 30
0.0
 11
-0.0197330810766167
 21
1.0595350515790241
 31
0.0
 12
-0.0261711458191189
 22
1.057306815707334
 32
0.0
 13
-0.0261711458191189
 23
1.057306815707334
 33
0.0
210
0.0
220
0.0
230
-1.0
  0
SOLID
  5
2AD9
  8
HEATSINK
  6
CONTINUOUS
 62
   250
 10
0.0254844376622945
 20
1.057306815707334
 30
0.0
 11
-0.0309294622442086
 21
1.054559600438419
 31
0.0
 12
0.0315
 22
1.054559600438419
 32
0.0
 13
0.0315
 23
1.054559600438419
 33
0.0
210
0.0
220
0.0
230
-1.0
  0
SOLID
  5
2ADA
  8
HEATSINK
  6
CONTINUOUS
 62
   250
 10
0.0254844376622945
 20
1.057306815707334
 30
0.0
 11
-0.0261711458191189
 21
1.057306815707334
 31
0.0
 12
-0.0309294622442086
 22
1.054559600438419
 32
0.0
 13
-0.0309294622442086
 23
1.054559600438419
 33
0.0
210
0.0
220
0.0
230
-1.0
  0
SOLID
  5
2ADB
  8
HEATSINK
  6
CONTINUOUS
 62
   250
 10
0.0315
 20
1.054559600438419
 30
0.0
 11
-0.0365435853029855
 21
1.0513182849791709
 31
0.0
 12
0.0360517906649275
 22
1.0513182849791709
 32
0.0
 13
0.0360517906649275
 23
1.0513182849791709
 33
0.0
210
0.0
220
0.0
230
-1.0
  0
SOLID
  5
2ADC
  8
HEATSINK
  6
CONTINUOUS
 62
   250
 10
0.0315
 20
1.054559600438419
 30
0.0
 11
-0.0309294622442086
 21
1.054559600438419
 31
0.0
 12
-0.0365435853029855
 22
1.0513182849791709
 32
0.0
 13
-0.0365435853029855
 23
1.0513182849791709
 33
0.0
210
0.0
220
0.0
230
-1.0
  0
SOLID
  5
2ADD
  8
HEATSINK
  6
CONTINUOUS
 62
   250
 10
0.0360517906649275
 20
1.0513182849791709
 30
0.0
 11
-0.0408206086131427
 21
1.0476122231843179
 31
0.0
 12
0.041256226238553
 22
1.0476122231843179
 32
0.0
 13
0.041256226238553
 23
1.0476122231843179
 33
0.0
210
0.0
220
0.0
230
-1.0
  0
SOLID
  5
2ADE
  8
HEATSINK
  6
CONTINUOUS
 62
   250
 10
0.0360517906649275
 20
1.0513182849791709
 30
0.0
 11
-0.0365435853029855
 21
1.0513182849791709
 31
0.0
 12
-0.0408206086131427
 22
1.0476122231843179
 32
0.0
 13
-0.0408206086131427
 23
1.0476122231843179
 33
0.0
210
0.0
220
0.0
230
-1.0
  0
SOLID
  5
2ADF
  8
HEATSINK
  6
CONTINUOUS
 62
   250
 10
0.041256226238553
 20
1.0476122231843179
 30
0.0
 11
-0.0455952444006194
 21
1.0434749777233729
 31
0.0
 12
0.0452010818175763
 22
1.0434749777233729
 32
0.0
 13
0.0452010818175763
 23
1.0434749777233729
 33
0.0
210
0.0
220
0.0
230
-1.0
  0
SOLID
  5
2AE0
  8
HEATSINK
  6
CONTINUOUS
 62
   250
 10
0.041256226238553
 20
1.0476122231843179
 30
0.0
 11
-0.0408206086131427
 21
1.0476122231843179
 31
0.0
 12
-0.0455952444006194
 22
1.0434749777233729
 32
0.0
 13
-0.0455952444006194
 23
1.0434749777233729
 33
0.0
210
0.0
220
0.0
230
-1.0
  0
SOLID
  5
2AE1
  8
HEATSINK
  6
CONTINUOUS
 62
   250
 10
0.0452010818175763
 20
1.0434749777233729
 30
0.0
 11
-0.0491584319800885
 21
1.0389440161318979
 31
0.0
 12
0.0495213449687956
 22
1.0389440161318979
 32
0.0
 13
0.0495213449687956
 23
1.0389440161318979
 33
0.0
210
0.0
220
0.0
230
-1.0
  0
SOLID
  5
2AE2
  8
HEATSINK
  6
CONTINUOUS
 62
   250
 10
0.0452010818175763
 20
1.0434749777233729
 30
0.0
 11
-0.0455952444006194
 21
1.0434749777233729
 31
0.0
 12
-0.0491584319800885
 22
1.0389440161318979
 32
0.0
 13
-0.0491584319800885
 23
1.0389440161318979
 33
0.0
210
0.0
220
0.0
230
-1.0
  0
SOLID
  5
2AE3
  8
HEATSINK
  6
CONTINUOUS
 62
   250
 10
0.0495213449687956
 20
1.0389440161318979
 30
0.0
 11
-0.0529989725683644
 21
1.0340603714997021
 31
0.0
 12
0.0526598728002652
 22
1.0340603714997021
 32
0.0
 13
0.0526598728002652
 23
1.0340603714997021
 33
0.0
210
0.0
220
0.0
230
-1.0
  0
SOLID
  5
2AE4
  8
HEATSINK
  6
CONTINUOUS
 62
   250
 10
0.0495213449687956
 20
1.0389440161318979
 30
0.0
 11
-0.0491584319800885
 21
1.0389440161318979
 31
0.0
 12
-0.0529989725683644
 22
1.0340603714997021
 32
0.0
 13
-0.0529989725683644
 23
1.0340603714997021
 33
0.0
210
0.0
220
0.0
230
-1.0
  0
SOLID
  5
2AE5
  8
HEATSINK
  6
CONTINUOUS
 62
   250
 10
0.0526598728002652
 20
1.0340603714997021
 30
0.0
 11
-0.0556756864822226
 21
1.0288682708688259
 31
0.0
 12
0.0559966332652602
 22
1.0288682708688259
 32
0.0
 13
0.0559966332652602
 23
1.0288682708688259
 33
0.0
210
0.0
220
0.0
230
-1.0
  0
SOLID
  5
2AE6
  8
HEATSINK
  6
CONTINUOUS
 62
   250
 10
0.0526598728002652
 20
1.0340603714997021
 30
0.0
 11
-0.0529989725683644
 21
1.0340603714997021
 31
0.0
 12
-0.0556756864822226
 22
1.0288682708688259
 32
0.0
 13
-0.0556756864822226
 23
1.0288682708688259
 33
0.0
210
0.0
220
0.0
230
-1.0
  0
SOLID
  5
2AE7
  8
HEATSINK
  6
CONTINUOUS
 62
   250
 10
0.0559966332652602
 20
1.0288682708688259
 30
0.0
 11
-0.0584871797800126
 21
1.0234147347066
 31
0.0
 12
0.0581798998021606
 22
1.0234147347066
 32
0.0
 13
0.0581798998021606
 23
1.0234147347066
 33
0.0
210
0.0
220
0.0
230
-1.0
  0
SOLID
  5
2AE8
  8
HEATSINK
  6
CONTINUOUS
 62
   250
 10
0.0559966332652602
 20
1.0288682708688259
 30
0.0
 11
-0.0556756864822226
 21
1.0288682708688259
 31
0.0
 12
-0.0584871797800126
 22
1.0234147347066
 32
0.0
 13
-0.0584871797800126
 23
1.0234147347066
 33
0.0
210
0.0
220
0.0
230
-1.0
  0
SOLID
  5
2AE9
  8
HEATSINK
  6
CONTINUOUS
 62
   250
 10
0.0581798998021606
 20
1.0234147347066
 30
0.0
 11
-0.0601507452304438
 21
1.0177491510810099
 31
0.0
 12
0.0604480573377134
 22
1.0177491510810099
 32
0.0
 13
0.0604480573377134
 23
1.0177491510810099
 33
0.0
210
0.0
220
0.0
230
-1.0
  0
SOLID
  5
2AEA
  8
HEATSINK
  6
CONTINUOUS
 62
   250
 10
0.0581798998021606
 20
1.0234147347066
 30
0.0
 11
-0.0584871797800126
 21
1.0234147347066
 31
0.0
 12
-0.0601507452304438
 22
1.0177491510810099
 32
0.0
 13
-0.0601507452304438
 23
1.0177491510810099
 33
0.0
210
0.0
220
0.0
230
-1.0
  0
SOLID
  5
2AEB
  8
HEATSINK
  6
CONTINUOUS
 62
   250
 10
0.0604480573377134
 20
1.0177491510810099
 30
0.0
 11
-0.0618615079275505
 21
1.011922828394705
 31
0.0
 12
0.0615709889940568
 22
1.011922828394705
 32
0.0
 13
0.0615709889940568
 23
1.011922828394705
 33
0.0
210
0.0
220
0.0
230
-1.0
  0
SOLID
  5
2AEC
  8
HEATSINK
  6
CONTINUOUS
 62
   250
 10
0.0604480573377134
 20
1.0177491510810099
 30
0.0
 11
-0.0601507452304438
 21
1.0177491510810099
 31
0.0
 12
-0.0618615079275505
 22
1.011922828394705
 32
0.0
 13
-0.0618615079275505
 23
1.011922828394705
 33
0.0
210
0.0
220
0.0
230
-1.0
  0
SOLID
  5
2AED
  8
HEATSINK
  6
CONTINUOUS
 62
   250
 10
0.0615709889940568
 20
1.011922828394705
 30
0.0
 11
-0.0624281646490306
 21
1.0059885307281631
 31
0.0
 12
0.0627147311221044
 22
1.0059885307281631
 32
0.0
 13
0.0627147311221044
 23
1.0059885307281631
 33
0.0
210
0.0
220
0.0
230
-1.0
  0
SOLID
  5
2AEE
  8
HEATSINK
  6
CONTINUOUS
 62
   250
 10
0.0615709889940568
 20
1.011922828394705
 30
0.0
 11
-0.0618615079275505
 21
1.011922828394705
 31
0.0
 12
-0.0624281646490306
 22
1.0059885307281631
 32
0.0
 13
-0.0624281646490306
 23
1.0059885307281631
 33
0.0
210
0.0
220
0.0
230
-1.0
  0
SOLID
  5
2AEF
  8
HEATSINK
  6
CONTINUOUS
 62
   250
 10
0.0627147311221044
 20
1.0059885307281631
 30
0.0
 11
-0.063
 21
1.0
 31
0.0
 12
0.0627147311221044
 22
1.0
 32
0.0
 13
0.0627147311221044
 23
1.0
 33
0.0
210
0.0
220
0.0
230
-1.0
  0
SOLID
  5
2AF0
  8
HEATSINK
  6
CONTINUOUS
 62
   250
 10
0.0627147311221044
 20
1.0059885307281631
 30
0.0
 11
-0.0624281646490306
 21
1.0059885307281631
 31
0.0
 12
-0.063
 22
1.0
 32
0.0
 13
-0.063
 23
1.0
 33
0.0
210
0.0
220
0.0
230
-1.0
  0
SOLID
  5
2AF1
  8
HEATSINK
  6
CONTINUOUS
 62
   250
 10
0.0627147311221044
 20
1.0
 30
0.0
 11
-0.0624281646490307
 21
0.9940114692718363
 31
0.0
 12
0.0627147311221044
 22
0.9940114692718363
 32
0.0
 13
0.0627147311221044
 23
0.9940114692718363
 33
0.0
210
0.0
220
0.0
230
-1.0
  0
SOLID
  5
2AF2
  8
HEATSINK
  6
CONTINUOUS
 62
   250
 10
0.0627147311221044
 20
1.0
 30
0.0
 11
-0.063
 21
1.0
 31
0.0
 12
-0.0624281646490307
 22
0.9940114692718363
 32
0.0
 13
-0.0624281646490307
 23
0.9940114692718363
 33
0.0
210
0.0
220
0.0
230
-1.0
  0
SOLID
  5
2AF3
  8
HEATSINK
  6
CONTINUOUS
 62
   250
 10
0.0627147311221044
 20
0.9940114692718363
 30
0.0
 11
-0.0618615079275506
 21
0.988077171605294
 31
0.0
 12
0.0615709889940568
 22
0.988077171605294
 32
0.0
 13
0.0615709889940568
 23
0.988077171605294
 33
0.0
210
0.0
220
0.0
230
-1.0
  0
SOLID
  5
2AF4
  8
HEATSINK
  6
CONTINUOUS
 62
   250
 10
0.0627147311221044
 20
0.9940114692718363
 30
0.0
 11
-0.0624281646490307
 21
0.9940114692718363
 31
0.0
 12
-0.0618615079275506
 22
0.988077171605294
 32
0.0
 13
-0.0618615079275506
 23
0.988077171605294
 33
0.0
210
0.0
220
0.0
230
-1.0
  0
SOLID
  5
2AF5
  8
HEATSINK
  6
CONTINUOUS
 62
   250
 10
0.0615709889940568
 20
0.988077171605294
 30
0.0
 11
-0.0601507452304438
 21
0.98225084891899
 31
0.0
 12
0.0604480573377134
 22
0.98225084891899
 32
0.0
 13
0.0604480573377134
 23
0.98225084891899
 33
0.0
210
0.0
220
0.0
230
-1.0
  0
SOLID
  5
2AF6
  8
HEATSINK
  6
CONTINUOUS
 62
   250
 10
0.0615709889940568
 20
0.988077171605294
 30
0.0
 11
-0.0618615079275506
 21
0.988077171605294
 31
0.0
 12
-0.0601507452304438
 22
0.98225084891899
 32
0.0
 13
-0.0601507452304438
 23
0.98225084891899
 33
0.0
210
0.0
220
0.0
230
-1.0
  0
SOLID
  5
2AF7
  8
HEATSINK
  6
CONTINUOUS
 62
   250
 10
0.0604480573377134
 20
0.98225084891899
 30
0.0
 11
-0.0584871797800126
 21
0.9765852652933993
 31
0.0
 12
0.0581798998021606
 22
0.9765852652933993
 32
0.0
 13
0.0581798998021606
 23
0.9765852652933993
 33
0.0
210
0.0
220
0.0
230
-1.0
  0
SOLID
  5
2AF8
  8
HEATSINK
  6
CONTINUOUS
 62
   250
 10
0.0604480573377134
 20
0.98225084891899
 30
0.0
 11
-0.0601507452304438
 21
0.98225084891899
 31
0.0
 12
-0.0584871797800126
 22
0.9765852652933993
 32
0.0
 13
-0.0584871797800126
 23
0.9765852652933993
 33
0.0
210
0.0
220
0.0
230
-1.0
  0
SOLID
  5
2AF9
  8
HEATSINK
  6
CONTINUOUS
 62
   250
 10
0.0581798998021606
 20
0.9765852652933993
 30
0.0
 11
-0.0556756864822226
 21
0.9711317291311731
 31
0.0
 12
0.0559966332652602
 22
0.9711317291311731
 32
0.0
 13
0.0559966332652602
 23
0.9711317291311731
 33
0.0
210
0.0
220
0.0
230
-1.0
  0
SOLID
  5
2AFA
  8
HEATSINK
  6
CONTINUOUS
 62
   250
 10
0.0581798998021606
 20
0.9765852652933993
 30
0.0
 11
-0.0584871797800126
 21
0.9765852652933993
 31
0.0
 12
-0.0556756864822226
 22
0.9711317291311731
 32
0.0
 13
-0.0556756864822226
 23
0.9711317291311731
 33
0.0
210
0.0
220
0.0
230
-1.0
  0
SOLID
  5
2AFB
  8
HEATSINK
  6
CONTINUOUS
 62
   250
 10
0.0559966332652602
 20
0.9711317291311731
 30
0.0
 11
-0.0529989725683644
 21
0.9659396285002974
 31
0.0
 12
0.0526598728002652
 22
0.9659396285002974
 32
0.0
 13
0.0526598728002652
 23
0.9659396285002974
 33
0.0
210
0.0
220
0.0
230
-1.0
  0
SOLID
  5
2AFC
  8
HEATSINK
  6
CONTINUOUS
 62
   250
 10
0.0559966332652602
 20
0.9711317291311731
 30
0.0
 11
-0.0556756864822226
 21
0.9711317291311731
 31
0.0
 12
-0.0529989725683644
 22
0.9659396285002974
 32
0.0
 13
-0.0529989725683644
 23
0.9659396285002974
 33
0.0
210
0.0
220
0.0
230
-1.0
  0
SOLID
  5
2AFD
  8
HEATSINK
  6
CONTINUOUS
 62
   250
 10
0.0526598728002652
 20
0.9659396285002974
 30
0.0
 11
-0.0491584319800884
 21
0.9610559838681018
 31
0.0
 12
0.0495213449687957
 22
0.9610559838681018
 32
0.0
 13
0.0495213449687957
 23
0.9610559838681018
 33
0.0
210
0.0
220
0.0
230
-1.0
  0
SOLID
  5
2AFE
  8
HEATSINK
  6
CONTINUOUS
 62
   250
 10
0.0526598728002652
 20
0.9659396285002974
 30
0.0
 11
-0.0529989725683644
 21
0.9659396285002974
 31
0.0
 12
-0.0491584319800884
 22
0.9610559838681018
 32
0.0
 13
-0.0491584319800884
 23
0.9610559838681018
 33
0.0
210
0.0
220
0.0
230
-1.0
  0
SOLID
  5
2AFF
  8
HEATSINK
  6
CONTINUOUS
 62
   250
 10
0.0495213449687957
 20
0.9610559838681018
 30
0.0
 11
-0.0455952444006194
 21
0.956525022276627
 31
0.0
 12
0.0452010818175764
 22
0.956525022276627
 32
0.0
 13
0.0452010818175764
 23
0.956525022276627
 33
0.0
210
0.0
220
0.0
230
-1.0
  0
SOLID
  5
2B00
  8
HEATSINK
  6
CONTINUOUS
 62
   250
 10
0.0495213449687957
 20
0.9610559838681018
 30
0.0
 11
-0.0491584319800884
 21
0.9610559838681018
 31
0.0
 12
-0.0455952444006194
 22
0.956525022276627
 32
0.0
 13
-0.0455952444006194
 23
0.956525022276627
 33
0.0
210
0.0
220
0.0
230
-1.0
  0
SOLID
  5
2B01
  8
HEATSINK
  6
CONTINUOUS
 62
   250
 10
0.0452010818175764
 20
0.956525022276627
 30
0.0
 11
-0.0408206086131428
 21
0.9523877768156817
 31
0.0
 12
0.041256226238553
 22
0.9523877768156817
 32
0.0
 13
0.041256226238553
 23
0.9523877768156817
 33
0.0
210
0.0
220
0.0
230
-1.0
  0
SOLID
  5
2B02
  8
HEATSINK
  6
CONTINUOUS
 62
   250
 10
0.0452010818175764
 20
0.956525022276627
 30
0.0
 11
-0.0455952444006194
 21
0.956525022276627
 31
0.0
 12
-0.0408206086131428
 22
0.9523877768156817
 32
0.0
 13
-0.0408206086131428
 23
0.9523877768156817
 33
0.0
210
0.0
220
0.0
230
-1.0
  0
SOLID
  5
2B03
  8
HEATSINK
  6
CONTINUOUS
 62
   250
 10
0.041256226238553
 20
0.9523877768156817
 30
0.0
 11
-0.0365435853029855
 21
0.9486817150208287
 31
0.0
 12
0.0360517906649273
 22
0.9486817150208287
 32
0.0
 13
0.0360517906649273
 23
0.9486817150208287
 33
0.0
210
0.0
220
0.0
230
-1.0
  0
SOLID
  5
2B04
  8
HEATSINK
  6
CONTINUOUS
 62
   250
 10
0.041256226238553
 20
0.9523877768156817
 30
0.0
 11
-0.0408206086131428
 21
0.9523877768156817
 31
0.0
 12
-0.0365435853029855
 22
0.9486817150208287
 32
0.0
 13
-0.0365435853029855
 23
0.9486817150208287
 33
0.0
210
0.0
220
0.0
230
-1.0
  0
SOLID
  5
2B05
  8
HEATSINK
  6
CONTINUOUS
 62
   250
 10
0.0360517906649273
 20
0.9486817150208287
 30
0.0
 11
-0.0309294622442086
 21
0.9454403995615802
 31
0.0
 12
0.0315000000000001
 22
0.9454403995615802
 32
0.0
 13
0.0315000000000001
 23
0.9454403995615802
 33
0.0
210
0.0
220
0.0
230
-1.0
  0
SOLID
  5
2B06
  8
HEATSINK
  6
CONTINUOUS
 62
   250
 10
0.0360517906649273
 20
0.9486817150208287
 30
0.0
 11
-0.0365435853029855
 21
0.9486817150208287
 31
0.0
 12
-0.0309294622442086
 22
0.9454403995615802
 32
0.0
 13
-0.0309294622442086
 23
0.9454403995615802
 33
0.0
210
0.0
220
0.0
230
-1.0
  0
SOLID
  5
2B07
  8
HEATSINK
  6
CONTINUOUS
 62
   250
 10
0.0315000000000001
 20
0.9454403995615802
 30
0.0
 11
-0.0261711458191188
 21
0.9426931842926652
 31
0.0
 12
0.0254844376622947
 22
0.9426931842926652
 32
0.0
 13
0.0254844376622947
 23
0.9426931842926652
 33
0.0
210
0.0
220
0.0
230
-1.0
  0
SOLID
  5
2B08
  8
HEATSINK
  6
CONTINUOUS
 62
   250
 10
0.0315000000000001
 20
0.9454403995615802
 30
0.0
 11
-0.0309294622442086
 21
0.9454403995615802
 31
0.0
 12
-0.0261711458191188
 22
0.9426931842926652
 32
0.0
 13
-0.0261711458191188
 23
0.9426931842926652
 33
0.0
210
0.0
220
0.0
230
-1.0
  0
SOLID
  5
2B09
  8
HEATSINK
  6
CONTINUOUS
 62
   250
 10
0.0254844376622947
 20
0.9426931842926652
 30
0.0
 11
-0.0197330810766163
 21
0.9404649484209757
 31
0.0
 12
0.0206052816889976
 22
0.9404649484209757
 32
0.0
 13
0.0206052816889976
 23
0.9404649484209757
 33
0.0
210
0.0
220
0.0
230
-1.0
  0
SOLID
  5
2B0A
  8
HEATSINK
  6
CONTINUOUS
 62
   250
 10
0.0254844376622947
 20
0.9426931842926652
 30
0.0
 11
-0.0261711458191188
 21
0.9426931842926652
 31
0.0
 12
-0.0197330810766163
 22
0.9404649484209757
 32
0.0
 13
-0.0197330810766163
 23
0.9404649484209757
 33
0.0
210
0.0
220
0.0
230
-1.0
  0
SOLID
  5
2B0B
  8
HEATSINK
  6
CONTINUOUS
 62
   250
 10
0.0206052816889976
 20
0.9404649484209757
 30
0.0
 11
-0.0148528129370939
 21
0.9387758711956168
 31
0.0
 12
0.013642810536637
 22
0.9387758711956168
 32
0.0
 13
0.013642810536637
 23
0.9387758711956168
 33
0.0
210
0.0
220
0.0
230
-1.0
  0
SOLID
  5
2B0C
  8
HEATSINK
  6
CONTINUOUS
 62
   250
 10
0.0206052816889976
 20
0.9404649484209757
 30
0.0
 11
-0.0197330810766163
 21
0.9404649484209757
 31
0.0
 12
-0.0148528129370939
 22
0.9387758711956168
 32
0.0
 13
-0.0148528129370939
 23
0.9387758711956168
 33
0.0
210
0.0
220
0.0
230
-1.0
  0
SOLID
  5
2B0D
  8
HEATSINK
  6
CONTINUOUS
 62
   250
 10
0.008965834811217
 20
0.9376412491615012
 30
0.0
 11
-0.006961343351599
 21
0.9376412491615012
 31
0.0
 12
-0.0029976606968957
 22
0.9370713576314704
 32
0.0
 13
-0.0029976606968957
 23
0.9370713576314704
 33
0.0
210
0.0
220
0.0
230
-1.0
  0
SOLID
  5
2B0E
  8
HEATSINK
  6
CONTINUOUS
 62
   250
 10
0.013642810536637
 20
0.9387758711956168
 30
0.0
 11
-0.006961343351599
 21
0.9376412491615012
 31
0.0
 12
0.008965834811217
 22
0.9376412491615012
 32
0.0
 13
0.008965834811217
 23
0.9376412491615012
 33
0.0
210
0.0
220
0.0
230
-1.0
  0
SOLID
  5
2B0F
  8
HEATSINK
  6
CONTINUOUS
 62
   250
 10
0.013642810536637
 20
0.9387758711956168
 30
0.0
 11
-0.0148528129370939
 21
0.9387758711956168
 31
0.0
 12
-0.006961343351599
 22
0.9376412491615012
 32
0.0
 13
-0.006961343351599
 23
0.9376412491615012
 33
0.0
210
0.0
220
0.0
230
-1.0
  0
LINE
  5
2B10
  8
HEATSINK
  6
CONTINUOUS
 62
   250
 10
0.0029976606968958
 20
1.0629286423685289
 30
0.0
 11
0.006961343351599
 21
1.062358750838498
 31
0.0
  0
LINE
  5
2B11
  8
HEATSINK
  6
CONTINUOUS
 62
   250
 10
-0.0089658348112169
 20
1.062358750838498
 30
0.0
 11
0.0029976606968958
 21
1.0629286423685289
 31
0.0
  0
LINE
  5
2B12
  8
HEATSINK
  6
CONTINUOUS
 62
   250
 10
-0.0089658348112169
 20
1.062358750838498
 30
0.0
 11
0.0148528129370939
 21
1.0612241288043831
 31
0.0
  0
LINE
  5
2B13
  8
HEATSINK
  6
CONTINUOUS
 62
   250
 10
0.006961343351599
 20
1.062358750838498
 30
0.0
 11
0.0148528129370939
 21
1.0612241288043831
 31
0.0
  0
LINE
  5
2B14
  8
HEATSINK
  6
CONTINUOUS
 62
   250
 10
-0.0136428105366368
 20
1.0612241288043831
 30
0.0
 11
0.0197330810766167
 21
1.0595350515790241
 31
0.0
  0
LINE
  5
2B15
  8
HEATSINK
  6
CONTINUOUS
 62
   250
 10
0.0148528129370939
 20
1.0612241288043831
 30
0.0
 11
0.0197330810766167
 21
1.0595350515790241
 31
0.0
  0
LINE
  5
2B16
  8
HEATSINK
  6
CONTINUOUS
 62
   250
 10
-0.0206052816889976
 20
1.0595350515790241
 30
0.0
 11
0.0261711458191189
 21
1.057306815707334
 31
0.0
  0
LINE
  5
2B17
  8
HEATSINK
  6
CONTINUOUS
 62
   250
 10
0.0197330810766167
 20
1.0595350515790241
 30
0.0
 11
0.0261711458191189
 21
1.057306815707334
 31
0.0
  0
LINE
  5
2B18
  8
HEATSINK
  6
CONTINUOUS
 62
   250
 10
-0.0254844376622945
 20
1.057306815707334
 30
0.0
 11
0.0309294622442086
 21
1.054559600438419
 31
0.0
  0
LINE
  5
2B19
  8
HEATSINK
  6
CONTINUOUS
 62
   250
 10
0.0261711458191189
 20
1.057306815707334
 30
0.0
 11
0.0309294622442086
 21
1.054559600438419
 31
0.0
  0
LINE
  5
2B1A
  8
HEATSINK
  6
CONTINUOUS
 62
   250
 10
-0.0315
 20
1.054559600438419
 30
0.0
 11
0.0365435853029855
 21
1.0513182849791709
 31
0.0
  0
LINE
  5
2B1B
  8
HEATSINK
  6
CONTINUOUS
 62
   250
 10
0.0309294622442086
 20
1.054559600438419
 30
0.0
 11
0.0365435853029855
 21
1.0513182849791709
 31
0.0
  0
LINE
  5
2B1C
  8
HEATSINK
  6
CONTINUOUS
 62
   250
 10
-0.0360517906649275
 20
1.0513182849791709
 30
0.0
 11
0.0408206086131427
 21
1.0476122231843179
 31
0.0
  0
LINE
  5
2B1D
  8
HEATSINK
  6
CONTINUOUS
 62
   250
 10
0.0365435853029855
 20
1.0513182849791709
 30
0.0
 11
0.0408206086131427
 21
1.0476122231843179
 31
0.0
  0
LINE
  5
2B1E
  8
HEATSINK
  6
CONTINUOUS
 62
   250
 10
-0.041256226238553
 20
1.0476122231843179
 30
0.0
 11
0.0455952444006194
 21
1.0434749777233729
 31
0.0
  0
LINE
  5
2B1F
  8
HEATSINK
  6
CONTINUOUS
 62
   250
 10
0.0408206086131427
 20
1.0476122231843179
 30
0.0
 11
0.0455952444006194
 21
1.0434749777233729
 31
0.0
  0
LINE
  5
2B20
  8
HEATSINK
  6
CONTINUOUS
 62
   250
 10
-0.0452010818175763
 20
1.0434749777233729
 30
0.0
 11
0.0491584319800885
 21
1.0389440161318979
 31
0.0
  0
LINE
  5
2B21
  8
HEATSINK
  6
CONTINUOUS
 62
   250
 10
0.0455952444006194
 20
1.0434749777233729
 30
0.0
 11
0.0491584319800885
 21
1.0389440161318979
 31
0.0
  0
LINE
  5
2B22
  8
HEATSINK
  6
CONTINUOUS
 62
   250
 10
-0.0495213449687956
 20
1.0389440161318979
 30
0.0
 11
0.0529989725683644
 21
1.0340603714997021
 31
0.0
  0
LINE
  5
2B23
  8
HEATSINK
  6
CONTINUOUS
 62
   250
 10
0.0491584319800885
 20
1.0389440161318979
 30
0.0
 11
0.0529989725683644
 21
1.0340603714997021
 31
0.0
  0
LINE
  5
2B24
  8
HEATSINK
  6
CONTINUOUS
 62
   250
 10
-0.0526598728002652
 20
1.0340603714997021
 30
0.0
 11
0.0556756864822226
 21
1.0288682708688259
 31
0.0
  0
LINE
  5
2B25
  8
HEATSINK
  6
CONTINUOUS
 62
   250
 10
0.0529989725683644
 20
1.0340603714997021
 30
0.0
 11
0.0556756864822226
 21
1.0288682708688259
 31
0.0
  0
LINE
  5
2B26
  8
HEATSINK
  6
CONTINUOUS
 62
   250
 10
-0.0559966332652602
 20
1.0288682708688259
 30
0.0
 11
0.0584871797800126
 21
1.0234147347066
 31
0.0
  0
LINE
  5
2B27
  8
HEATSINK
  6
CONTINUOUS
 62
   250
 10
0.0556756864822226
 20
1.0288682708688259
 30
0.0
 11
0.0584871797800126
 21
1.0234147347066
 31
0.0
  0
LINE
  5
2B28
  8
HEATSINK
  6
CONTINUOUS
 62
   250
 10
-0.0581798998021606
 20
1.0234147347066
 30
0.0
 11
0.0601507452304438
 21
1.0177491510810099
 31
0.0
  0
LINE
  5
2B29
  8
HEATSINK
  6
CONTINUOUS
 62
   250
 10
0.0584871797800126
 20
1.0234147347066
 30
0.0
 11
0.0601507452304438
 21
1.0177491510810099
 31
0.0
  0
LINE
  5
2B2A
  8
HEATSINK
  6
CONTINUOUS
 62
   250
 10
-0.0604480573377134
 20
1.0177491510810099
 30
0.0
 11
0.0618615079275505
 21
1.011922828394705
 31
0.0
  0
LINE
  5
2B2B
  8
HEATSINK
  6
CONTINUOUS
 62
   250
 10
0.0601507452304438
 20
1.0177491510810099
 30
0.0
 11
0.0618615079275505
 21
1.011922828394705
 31
0.0
  0
LINE
  5
2B2C
  8
HEATSINK
  6
CONTINUOUS
 62
   250
 10
-0.0615709889940568
 20
1.011922828394705
 30
0.0
 11
0.0624281646490306
 21
1.0059885307281631
 31
0.0
  0
LINE
  5
2B2D
  8
HEATSINK
  6
CONTINUOUS
 62
   250
 10
0.0618615079275505
 20
1.011922828394705
 30
0.0
 11
0.0624281646490306
 21
1.0059885307281631
 31
0.0
  0
LINE
  5
2B2E
  8
HEATSINK
  6
CONTINUOUS
 62
   250
 10
-0.0627147311221044
 20
1.0059885307281631
 30
0.0
 11
0.063
 21
1.0
 31
0.0
  0
LINE
  5
2B2F
  8
HEATSINK
  6
CONTINUOUS
 62
   250
 10
0.0624281646490306
 20
1.0059885307281631
 30
0.0
 11
0.063
 21
1.0
 31
0.0
  0
LINE
  5
2B30
  8
HEATSINK
  6
CONTINUOUS
 62
   250
 10
-0.0627147311221044
 20
1.0
 30
0.0
 11
0.0624281646490307
 21
0.9940114692718363
 31
0.0
  0
LINE
  5
2B31
  8
HEATSINK
  6
CONTINUOUS
 62
   250
 10
0.063
 20
1.0
 30
0.0
 11
0.0624281646490307
 21
0.9940114692718363
 31
0.0
  0
LINE
  5
2B32
  8
HEATSINK
  6
CONTINUOUS
 62
   250
 10
-0.0627147311221044
 20
0.9940114692718363
 30
0.0
 11
0.0618615079275506
 21
0.988077171605294
 31
0.0
  0
LINE
  5
2B33
  8
HEATSINK
  6
CONTINUOUS
 62
   250
 10
0.0624281646490307
 20
0.9940114692718363
 30
0.0
 11
0.0618615079275506
 21
0.988077171605294
 31
0.0
  0
LINE
  5
2B34
  8
HEATSINK
  6
CONTINUOUS
 62
   250
 10
-0.0615709889940568
 20
0.988077171605294
 30
0.0
 11
0.0601507452304438
 21
0.98225084891899
 31
0.0
  0
LINE
  5
2B35
  8
HEATSINK
  6
CONTINUOUS
 62
   250
 10
0.0618615079275506
 20
0.988077171605294
 30
0.0
 11
0.0601507452304438
 21
0.98225084891899
 31
0.0
  0
LINE
  5
2B36
  8
HEATSINK
  6
CONTINUOUS
 62
   250
 10
-0.0604480573377134
 20
0.98225084891899
 30
0.0
 11
0.0584871797800126
 21
0.9765852652933993
 31
0.0
  0
LINE
  5
2B37
  8
HEATSINK
  6
CONTINUOUS
 62
   250
 10
0.0601507452304438
 20
0.98225084891899
 30
0.0
 11
0.0584871797800126
 21
0.9765852652933993
 31
0.0
  0
LINE
  5
2B38
  8
HEATSINK
  6
CONTINUOUS
 62
   250
 10
-0.0581798998021606
 20
0.9765852652933993
 30
0.0
 11
0.0556756864822226
 21
0.9711317291311731
 31
0.0
  0
LINE
  5
2B39
  8
HEATSINK
  6
CONTINUOUS
 62
   250
 10
0.0584871797800126
 20
0.9765852652933993
 30
0.0
 11
0.0556756864822226
 21
0.9711317291311731
 31
0.0
  0
LINE
  5
2B3A
  8
HEATSINK
  6
CONTINUOUS
 62
   250
 10
-0.0559966332652602
 20
0.9711317291311731
 30
0.0
 11
0.0529989725683644
 21
0.9659396285002974
 31
0.0
  0
LINE
  5
2B3B
  8
HEATSINK
  6
CONTINUOUS
 62
   250
 10
0.0556756864822226
 20
0.9711317291311731
 30
0.0
 11
0.0529989725683644
 21
0.9659396285002974
 31
0.0
  0
LINE
  5
2B3C
  8
HEATSINK
  6
CONTINUOUS
 62
   250
 10
-0.0526598728002652
 20
0.9659396285002974
 30
0.0
 11
0.0491584319800884
 21
0.9610559838681018
 31
0.0
  0
LINE
  5
2B3D
  8
HEATSINK
  6
CONTINUOUS
 62
   250
 10
0.0529989725683644
 20
0.9659396285002974
 30
0.0
 11
0.0491584319800884
 21
0.9610559838681018
 31
0.0
  0
LINE
  5
2B3E
  8
HEATSINK
  6
CONTINUOUS
 62
   250
 10
-0.0495213449687957
 20
0.9610559838681018
 30
0.0
 11
0.0455952444006194
 21
0.956525022276627
 31
0.0
  0
LINE
  5
2B3F
  8
HEATSINK
  6
CONTINUOUS
 62
   250
 10
0.0491584319800884
 20
0.9610559838681018
 30
0.0
 11
0.0455952444006194
 21
0.956525022276627
 31
0.0
  0
LINE
  5
2B40
  8
HEATSINK
  6
CONTINUOUS
 62
   250
 10
-0.0452010818175764
 20
0.956525022276627
 30
0.0
 11
0.0408206086131428
 21
0.9523877768156817
 31
0.0
  0
LINE
  5
2B41
  8
HEATSINK
  6
CONTINUOUS
 62
   250
 10
0.0455952444006194
 20
0.956525022276627
 30
0.0
 11
0.0408206086131428
 21
0.9523877768156817
 31
0.0
  0
LINE
  5
2B42
  8
HEATSINK
  6
CONTINUOUS
 62
   250
 10
-0.041256226238553
 20
0.9523877768156817
 30
0.0
 11
0.0365435853029855
 21
0.9486817150208287
 31
0.0
  0
LINE
  5
2B43
  8
HEATSINK
  6
CONTINUOUS
 62
   250
 10
0.0408206086131428
 20
0.9523877768156817
 30
0.0
 11
0.0365435853029855
 21
0.9486817150208287
 31
0.0
  0
LINE
  5
2B44
  8
HEATSINK
  6
CONTINUOUS
 62
   250
 10
-0.0360517906649273
 20
0.9486817150208287
 30
0.0
 11
0.0309294622442086
 21
0.9454403995615802
 31
0.0
  0
LINE
  5
2B45
  8
HEATSINK
  6
CONTINUOUS
 62
   250
 10
0.0365435853029855
 20
0.9486817150208287
 30
0.0
 11
0.0309294622442086
 21
0.9454403995615802
 31
0.0
  0
LINE
  5
2B46
  8
HEATSINK
  6
CONTINUOUS
 62
   250
 10
-0.0315000000000001
 20
0.9454403995615802
 30
0.0
 11
0.0261711458191188
 21
0.9426931842926652
 31
0.0
  0
LINE
  5
2B47
  8
HEATSINK
  6
CONTINUOUS
 62
   250
 10
0.0309294622442086
 20
0.9454403995615802
 30
0.0
 11
0.0261711458191188
 21
0.9426931842926652
 31
0.0
  0
LINE
  5
2B48
  8
HEATSINK
  6
CONTINUOUS
 62
   250
 10
-0.0254844376622947
 20
0.9426931842926652
 30
0.0
 11
0.0197330810766163
 21
0.9404649484209757
 31
0.0
  0
LINE
  5
2B49
  8
HEATSINK
  6
CONTINUOUS
 62
   250
 10
0.0261711458191188
 20
0.9426931842926652
 30
0.0
 11
0.0197330810766163
 21
0.9404649484209757
 31
0.0
  0
LINE
  5
2B4A
  8
HEATSINK
  6
CONTINUOUS
 62
   250
 10
-0.0206052816889976
 20
0.9404649484209757
 30
0.0
 11
0.0148528129370939
 21
0.9387758711956168
 31
0.0
  0
LINE
  5
2B4B
  8
HEATSINK
  6
CONTINUOUS
 62
   250
 10
0.0197330810766163
 20
0.9404649484209757
 30
0.0
 11
0.0148528129370939
 21
0.9387758711956168
 31
0.0
  0
LINE
  5
2B4C
  8
HEATSINK
  6
CONTINUOUS
 62
   250
 10
0.006961343351599
 20
0.9376412491615012
 30
0.0
 11
0.0029976606968957
 21
0.9370713576314704
 31
0.0
  0
LINE
  5
2B4D
  8
HEATSINK
  6
CONTINUOUS
 62
   250
 10
0.0029976606968957
 20
0.9370713576314704
 30
0.0
 11
-0.008965834811217
 21
0.9376412491615012
 31
0.0
  0
LINE
  5
2B4E
  8
HEATSINK
  6
CONTINUOUS
 62
   250
 10
-0.013642810536637
 20
0.9387758711956168
 30
0.0
 11
0.006961343351599
 21
0.9376412491615012
 31
0.0
  0
LINE
  5
2B4F
  8
HEATSINK
  6
CONTINUOUS
 62
   250
 10
0.0148528129370939
 20
0.9387758711956168
 30
0.0
 11
0.006961343351599
 21
0.9376412491615012
 31
0.0
  0
ENDBLK
  5
2B51
  8
0
  0
BLOCK
  8
0
  2
*X64
 70
     1
 10
0.0
 20
0.0
 30
0.0
  3
*X64
  1

  0
LINE
  5
2B53
  8
0
 62
     0
 10
-0.0355617819065944
 20
0.9073720785900801
 30
0.0
 11
-0.0355617819065944
 21
0.9073720785900801
 31
0.0
  0
LINE
  5
2B54
  8
0
 62
     0
 10
-0.0790611447783917
 20
0.9472319008394041
 30
0.0
 11
-0.0790611447783917
 21
0.9472319008394041
 31
0.0
  0
LINE
  5
2B55
  8
0
 62
     0
 10
-0.0882771114885182
 20
0.9556767784345998
 30
0.0
 11
-0.0882771114885182
 21
0.9556767784345998
 31
0.0
  0
LINE
  5
2B56
  8
0
 62
     0
 10
0.071245185450223
 20
0.9911156790861163
 30
0.0
 11
0.071245185450223
 21
0.9911156790861163
 31
0.0
  0
LINE
  5
2B57
  8
0
 62
     0
 10
0.0620292187400964
 20
0.9995605566813121
 30
0.0
 11
0.0620292187400964
 21
0.9995605566813121
 31
0.0
  0
LINE
  5
2B58
  8
0
 62
     0
 10
0.0122629985054131
 20
1.0451628956953689
 30
0.0
 11
0.0122629985054131
 21
1.0451628956953689
 31
0.0
  0
LINE
  5
2B59
  8
0
 62
     0
 10
-0.0312363643663843
 20
1.085022717944693
 30
0.0
 11
-0.0312363643663843
 21
1.085022717944693
 31
0.0
  0
LINE
  5
2B5A
  8
0
 62
     0
 10
-0.0404523310765108
 20
1.093467595539888
 30
0.0
 11
-0.0404523310765108
 21
1.093467595539888
 31
0.0
  0
LINE
  5
2B5B
  8
0
 62
     0
 10
-0.0022893901708702
 20
0.9482547836036246
 30
0.0
 11
-0.0022893901708702
 21
0.9482547836036246
 31
0.0
  0
LINE
  5
2B5C
  8
0
 62
     0
 10
-0.0781946202940299
 20
0.9966117483548389
 30
0.0
 11
-0.0781946202940299
 21
0.9966117483548389
 31
0.0
  0
LINE
  5
2B5D
  8
0
 62
     0
 10
-0.0992794064393521
 20
1.0100442385635089
 30
0.0
 11
-0.0992794064393521
 21
1.0100442385635089
 31
0.0
  0
LINE
  5
2B5E
  8
0
 62
     0
 10
0.077512472793545
 20
0.9968947010316869
 30
0.0
 11
0.077512472793545
 21
0.9968947010316869
 31
0.0
  0
LINE
  5
2B5F
  8
0
 62
     0
 10
0.0564276866482229
 20
1.0103271912403571
 30
0.0
 11
0.0564276866482229
 21
1.0103271912403571
 31
0.0
  0
LINE
  5
2B60
  8
0
 62
     0
 10
-0.0426708082347912
 20
1.073459895221109
 30
0.0
 11
-0.0426708082347912
 21
1.073459895221109
 31
0.0
  0
LINE
  5
2B61
  8
0
 62
     0
 10
0.0331797229824667
 20
0.9048198708157901
 30
0.0
 11
0.0331797229824667
 21
0.9048198708157901
 31
0.0
  0
LINE
  5
2B62
  8
0
 62
     0
 10
-0.0074695163338595
 20
0.899468296934768
 30
0.0
 11
-0.0074695163338595
 21
0.899468296934768
 31
0.0
  0
LINE
  5
2B63
  8
0
 62
     0
 10
-0.0334949439449221
 20
0.8960419843889917
 30
0.0
 11
-0.0334949439449221
 21
0.8960419843889917
 31
0.0
  0
LINE
  5
2B64
  8
0
 62
     0
 10
0.0810193189295268
 20
1.0405756001962549
 30
0.0
 11
0.0810193189295268
 21
1.0405756001962549
 31
0.0
  0
LINE
  5
2B65
  8
0
 62
     0
 10
0.0549938913184642
 20
1.037149287650478
 30
0.0
 11
0.0549938913184642
 21
1.037149287650478
 31
0.0
  0
LINE
  5
2B66
  8
0
 62
     0
 10
-0.0129200816856418
 20
1.028208243483405
 30
0.0
 11
-0.0129200816856418
 21
1.028208243483405
 31
0.0
  0
LINE
  5
2B67
  8
0
 62
     0
 10
-0.053569321001968
 20
1.0228566696023831
 30
0.0
 11
-0.053569321001968
 21
1.0228566696023831
 31
0.0
  0
LINE
  5
2B68
  8
0
 62
     0
 10
-0.0795947486130305
 20
1.0194303570566059
 30
0.0
 11
-0.0795947486130305
 21
1.0194303570566059
 31
0.0
  0
LINE
  5
2B69
  8
0
 62
     0
 10
0.1104495551716595
 20
0.9968584626294073
 30
0.0
 11
0.1104495551716595
 21
0.9968584626294073
 31
0.0
  0
LINE
  5
2B6A
  8
0
 62
     0
 10
0.0430145212469045
 20
0.9451137411636659
 30
0.0
 11
0.0430145212469045
 21
0.9451137411636659
 31
0.0
  0
LINE
  5
2B6B
  8
0
 62
     0
 10
-0.0172803326152294
 20
0.8988478725590031
 30
0.0
 11
-0.0172803326152294
 21
0.8988478725590031
 31
0.0
  0
LINE
  5
2B6C
  8
0
 62
     0
 10
0.0398648533414243
 20
1.041454929614323
 30
0.0
 11
0.0398648533414243
 21
1.041454929614323
 31
0.0
  0
LINE
  5
2B6D
  8
0
 62
     0
 10
-0.0204300005207096
 20
0.995189061009661
 30
0.0
 11
-0.0204300005207096
 21
0.995189061009661
 31
0.0
  0
LINE
  5
2B6E
  8
0
 62
     0
 10
-0.0848899594193725
 20
0.9457271949027024
 30
0.0
 11
-0.0848899594193725
 21
0.9457271949027024
 31
0.0
  0
LINE
  5
2B6F
  8
0
 62
     0
 10
-0.0235796684261902
 20
1.0915302494603181
 30
0.0
 11
-0.0235796684261902
 21
1.0915302494603181
 31
0.0
  0
LINE
  5
2B70
  8
0
 62
     0
 10
-0.0880396273248531
 20
1.0420683833533599
 30
0.0
 11
-0.0880396273248531
 21
1.0420683833533599
 31
0.0
  0
ENDBLK
  5
2B72
  8
0
  0
BLOCK
  8
0
  2
*U65
 70
     1
 10
0.0
 20
0.0
 30
0.0
  3
*U65
  1

  0
TEXT
  5
2B74
  8
HEATSINK
 10
4.4605550803120906
 20
6.6273678486318017
 30
0.0
 40
0.08
  1
A
  0
ENDBLK
  5
2B76
  8
0
  0
BLOCK
  8
0
  2
*U66
 70
     1
 10
0.0
 20
0.0
 30
0.0
  3
*U66
  1

  0
TEXT
  5
2B78
  8
HEATSINK
 10
4.4659964744029432
 20
5.2614859414286324
 30
0.0
 40
0.08
  1
A
  0
ENDBLK
  5
2B7A
  8
0
  0
BLOCK
  8
0
  2
*U67
 70
     1
 10
0.0
 20
0.0
 30
0.0
  3
*U67
  1

  0
TEXT
  5
2B93
  8
HEATSINK
 10
2.706636038314707
 20
2.9680787312611039
 30
0.0
 40
0.1
  1
0.0000
  0
ENDBLK
  5
2B95
  8
0
  0
BLOCK
  8
0
  2
*U68
 70
     1
 10
0.0
 20
0.0
 30
0.0
  3
*U68
  1

  0
SOLID
  5
2B9C
  8
HEATSINK
  6
CONTINUOUS
 10
-4.3124263554598601
 20
4.3251490162136896
 30
0.0
 11
-4.3274263554598598
 21
4.3201490162136906
 31
0.0
 12
-4.3124263554598601
 22
4.3201490162136906
 32
0.0
 13
-4.3124263554598601
 23
4.3201490162136906
 33
0.0
210
0.0
220
0.0
230
-1.0
  0
SOLID
  5
2B9D
  8
HEATSINK
  6
CONTINUOUS
 10
-4.3124263554598601
 20
4.3251490162136896
 30
0.0
 11
-4.3274263554598598
 21
4.3251490162136896
 31
0.0
 12
-4.3274263554598598
 22
4.3201490162136906
 32
0.0
 13
-4.3274263554598598
 23
4.3201490162136906
 33
0.0
210
0.0
220
0.0
230
-1.0
  0
LINE
  5
2B9E
  8
HEATSINK
  6
CONTINUOUS
 10
4.3124263554598601
 20
4.3251490162136896
 30
0.0
 11
4.3274263554598598
 21
4.3201490162136906
 31
0.0
  0
LINE
  5
2B9F
  8
HEATSINK
  6
CONTINUOUS
 10
4.3274263554598598
 20
4.3251490162136896
 30
0.0
 11
4.3274263554598598
 21
4.3201490162136906
 31
0.0
  0
ENDBLK
  5
2BA1
  8
0
  0
BLOCK
  8
0
  2
*U69
 70
     1
 10
0.0
 20
0.0
 30
0.0
  3
*U69
  1

  0
SOLID
  5
2BA3
  8
HEATSINK
  6
CONTINUOUS
 10
-4.6894263554598599
 20
4.3251490162136896
 30
0.0
 11
-4.7044263554598604
 21
4.3201490162136906
 31
0.0
 12
-4.6894263554598599
 22
4.3201490162136906
 32
0.0
 13
-4.6894263554598599
 23
4.3201490162136906
 33
0.0
210
0.0
220
0.0
230
-1.0
  0
SOLID
  5
2BA4
  8
HEATSINK
  6
CONTINUOUS
 10
-4.6894263554598599
 20
4.3251490162136896
 30
0.0
 11
-4.7044263554598604
 21
4.3251490162136896
 31
0.0
 12
-4.7044263554598604
 22
4.3201490162136906
 32
0.0
 13
-4.7044263554598604
 23
4.3201490162136906
 33
0.0
210
0.0
220
0.0
230
-1.0
  0
LINE
  5
2BA5
  8
HEATSINK
  6
CONTINUOUS
 10
4.6894263554598599
 20
4.3251490162136896
 30
0.0
 11
4.7044263554598604
 21
4.3201490162136906
 31
0.0
  0
LINE
  5
2BA6
  8
HEATSINK
  6
CONTINUOUS
 10
4.7044263554598604
 20
4.3251490162136896
 30
0.0
 11
4.7044263554598604
 21
4.3201490162136906
 31
0.0
  0
ENDBLK
  5
2BA8
  8
0
  0
BLOCK
  8
0
  2
*U70
 70
     1
 10
0.0
 20
0.0
 30
0.0
  3
*U70
  1

  0
SOLID
  5
2BAF
  8
HEATSINK
 62
   250
 10
4.5032307520496619
 20
4.1828913876668086
 30
0.0
 11
4.5198974187163294
 21
4.2828913876668091
 31
0.0
 12
4.536564085382996
 22
4.1828913876668086
 32
0.0
 13
4.536564085382996
 23
4.1828913876668086
 33
0.0
  0
POLYLINE
  5
2BB0
  8
HEATSINK
 62
   250
 66
     1
 10
0.0
 20
0.0
 30
0.0
  0
VERTEX
  5
2BB1
  8
HEATSINK
 62
   250
 10
4.5198974187163294
 20
4.1828913876668086
 30
0.0
  0
VERTEX
  5
2BB2
  8
HEATSINK
 62
   250
 10
4.5198974187163294
 20
3.8488837475888902
 30
0.0
  0
SEQEND
  5
2BB3
  8
HEATSINK
 62
   250
  0
ENDBLK
  5
2BB5
  8
0
  0
BLOCK
  8
0
  2
*U71
 70
     1
 10
0.0
 20
0.0
 30
0.0
  3
*U71
  1

  0
TEXT
  5
2BE8
  8
HEATSINK
 62
     0
 10
6.8657400963278628
 20
5.9334275964958971
 30
0.0
 40
0.1
  1
0.8500
  0
ENDBLK
  5
2BEA
  8
0
  0
BLOCK
  8
0
  2
*U72
 70
     1
 10
0.0
 20
0.0
 30
0.0
  3
*U72
  1

  0
TEXT
  5
2BEC
  8
HEATSINK
 62
     0
 10
6.8448441038826422
 20
5.7644275964959011
 30
0.0
 40
0.1
  1
0.6800
  0
ENDBLK
  5
2BEE
  8
0
  0
BLOCK
  8
0
  2
*U73
 70
     1
 10
0.0
 20
0.0
 30
0.0
  3
*U73
  1

  0
TEXT
  5
2BF0
  8
HEATSINK
 62
     0
 10
6.8858683027678973
 20
6.1024275964959003
 30
0.0
 40
0.1
  1
1.0200
  0
ENDBLK
  5
2BF2
  8
0
  0
BLOCK
  8
0
  2
*U74
 70
     1
 10
0.0
 20
0.0
 30
0.0
  3
*U74
  1

  0
TEXT
  5
2BF4
  8
HEATSINK
 62
     0
 10
3.248426355460369
 20
4.514302616463489
 30
0.0
 40
0.1
  1
3.0000
 50
90.0
  0
ENDBLK
  5
2BF6
  8
0
  0
BLOCK
  8
0
  2
*U75
 70
     1
 10
0.0
 20
0.0
 30
0.0
  3
*U75
  1

  0
TEXT
  5
2BF8
  8
HEATSINK
 62
     0
 10
3.3984263554600052
 20
4.5767609298293221
 30
0.0
 40
0.1
  1
2.8500
 50
90.0
  0
ENDBLK
  5
2BFA
  8
0
  0
BLOCK
  8
0
  2
*U76
 70
     1
 10
0.0
 20
0.0
 30
0.0
  3
*U76
  1

  0
TEXT
  5
2BFC
  8
HEATSINK
 62
     0
 10
4.2484263554603681
 20
4.6100942631626554
 30
0.0
 40
0.1
  1
2.0000
 50
90.0
  0
ENDBLK
  5
2BFE
  8
0
  0
BLOCK
  8
0
  2
*U77
 70
     1
 10
0.0
 20
0.0
 30
0.0
  3
*U77
  1

  0
TEXT
  5
2C00
  8
HEATSINK
 62
     0
 10
4.8684263554602589
 20
4.6100942631626554
 30
0.0
 40
0.1
  1
1.3800
 50
90.0
  0
ENDBLK
  5
2C02
  8
0
  0
BLOCK
  8
0
  2
*U78
 70
     1
 10
0.0
 20
0.0
 30
0.0
  3
*U78
  1

  0
TEXT
  5
2C04
  8
HEATSINK
 62
     0
 10
5.5584263554598587
 20
4.5934275964959879
 30
0.0
 40
0.1
  1
0.6900
 50
90.0
  0
ENDBLK
  5
2C06
  8
0
  0
BLOCK
  8
0
  2
*U79
 70
     1
 10
0.0
 20
0.0
 30
0.0
  3
*U79
  1

  0
TEXT
  5
2C08
  8
HEATSINK
 62
     0
 10
6.0984263554607319
 20
4.626760929829322
 30
0.0
 40
0.1
  1
0.1500
 50
90.0
  0
ENDBLK
  5
2C0A
  8
0
  0
BLOCK
  8
0
  2
*U80
 70
     1
 10
0.0
 20
0.0
 30
0.0
  3
*U80
  1

  0
TEXT
  5
2C0C
  8
HEATSINK
 62
     0
 10
6.2484263554603681
 20
4.5521329753305464
 30
0.0
 40
0.1
  1
0.0000
 50
90.0
  0
ENDBLK
  5
2C0E
  8
0
  0
BLOCK
  8
0
  2
*U81
 70
     1
 10
0.0
 20
0.0
 30
0.0
  3
*U81
  1

  0
TEXT
  5
2C10
  8
HEATSINK
 62
     0
 10
6.3509263554603699
 20
3.78514901621369
 30
0.0
 40
0.1
  1
0.4900
  0
ENDBLK
  5
2C12
  8
0
  0
BLOCK
  8
0
  2
*U82
 70
     1
 10
0.0
 20
0.0
 30
0.0
  3
*U82
  1

  0
TEXT
  5
2C14
  8
HEATSINK
 62
     0
 10
6.2884263554603699
 20
4.2751490162136898
 30
0.0
 40
0.1
  1
0.0000
  0
ENDBLK
  5
2C16
  8
0
  0
BLOCK
  8
0
  2
*U83
 70
     1
 10
0.0
 20
0.0
 30
0.0
  3
*U83
  1

  0
TEXT
  5
2C18
  8
HEATSINK
 62
     0
 10
6.2884263554603699
 20
5.0834275964959881
 30
0.0
 40
0.1
  1
0.0000
  0
ENDBLK
  5
2C1A
  8
0
  0
BLOCK
  8
0
  2
*U84
 70
     1
 10
0.0
 20
0.0
 30
0.0
  3
*U84
  1

  0
TEXT
  5
2C1C
  8
HEATSINK
 62
     0
 10
4.7984263554598598
 20
5.3834275964958973
 30
0.0
 40
0.1
  1
0.3000
  0
ENDBLK
  5
2C1E
  8
0
  0
BLOCK
  8
0
  2
*U85
 70
     1
 10
0.0
 20
0.0
 30
0.0
  3
*U85
  1

  0
TEXT
  5
2C20
  8
HEATSINK
 62
     0
 10
5.0165333242501591
 20
6.483427596607946
 30
0.0
 40
0.1
  1
1.4000
  0
ENDBLK
  5
2C22
  8
0
  0
BLOCK
  8
0
  2
*U86
 70
     1
 10
0.0
 20
0.0
 30
0.0
  3
*U86
  1

  0
TEXT
  5
2C24
  8
HEATSINK
 62
     0
 10
6.4525597252475926
 20
6.9584275964959881
 30
0.0
 40
0.1
  1
1.8750
  0
ENDBLK
  5
2C26
  8
0
  0
BLOCK
  8
0
  2
*U87
 70
     1
 10
0.0
 20
0.0
 30
0.0
  3
*U87
  1

  0
TEXT
  5
2C28
  8
HEATSINK
 62
     0
 10
6.4593983786306479
 20
7.0834275964959881
 30
0.0
 40
0.1
  1
2.0000
  0
ENDBLK
  5
2C2A
  8
0
  0
BLOCK
  8
0
  2
*U88
 70
     1
 10
0.0
 20
0.0
 30
0.0
  3
*U88
  1

  0
TEXT
  5
2C2C
  8
HEATSINK
 62
     0
 10
6.2884263554603699
 20
5.4334275964958971
 30
0.0
 40
0.1
  1
0.3500
  0
ENDBLK
  5
2C2E
  8
0
  0
BLOCK
  8
0
  2
*U89
 70
     1
 10
0.0
 20
0.0
 30
0.0
  3
*U89
  1

  0
TEXT
  5
2C30
  8
HEATSINK
 62
     0
 10
6.288426355460369
 20
5.2084275964959881
 30
0.0
 40
0.1
  1
0.1250
  0
ENDBLK
  5
2C32
  8
0
  0
BLOCK
  8
0
  2
*U90
 70
     1
 10
0.0
 20
0.0
 30
0.0
  3
*U90
  1

  0
TEXT
  5
2C34
  8
HEATSINK
 62
     0
 10
4.5561096636982494
 20
4.6105704091319257
 30
0.0
 40
0.1
  1
1.6900
 50
90.0
  0
ENDBLK
  5
2C36
  8
0
  0
BLOCK
  8
0
  2
*U91
 70
     1
 10
0.0
 20
0.0
 30
0.0
  3
*U91
  1

  0
TEXT
  5
2C38
  8
HEATSINK
 62
     0
 10
3.558404619605382
 20
5.6712640487204489
 30
0.0
 40
0.1
  1
2.6900
 50
90.0
  0
ENDBLK
  5
2C3A
  8
0
  0
BLOCK
  8
0
  2
*U92
 70
     1
 10
0.0
 20
0.0
 30
0.0
  3
*U92
  1

  0
TEXT
  5
2C3C
  8
HEATSINK
 62
     0
 10
3.78292635545986
 20
6.4334275964958971
 30
0.0
 40
0.1
  1
1.3500
  0
ENDBLK
  5
2C3E
  8
0
  0
BLOCK
  8
0
  2
*U93
 70
     1
 10
0.0
 20
0.0
 30
0.0
  3
*U93
  1

  0
TEXT
  5
2C40
  8
HEATSINK
 62
     0
 10
4.6861127402261342
 20
7.8391422748168589
 30
0.0
 40
0.1
  1
1.5090
 50
90.0
  0
ENDBLK
  5
2C42
  8
0
  0
BLOCK
  8
0
  2
*U94
 70
     1
 10
0.0
 20
0.0
 30
0.0
  3
*U94
  1

  0
TEXT
  5
2C44
  8
HEATSINK
 62
     0
 10
4.9247643696287549
 20
7.8314457169023948
 30
0.0
 40
0.1
  1
1.4940
 50
90.0
  0
ENDBLK
  5
2C46
  8
0
  0
BLOCK
  8
0
  2
*U95
 70
     1
 10
0.0
 20
0.0
 30
0.0
  3
*U95
  1

  0
TEXT
  5
2C48
  8
HEATSINK
 62
     0
 10
4.2396032272054409
 20
7.8166114584430106
 30
0.0
 40
0.1
  1
1.8860
 50
90.0
  0
ENDBLK
  5
2C4A
  8
0
  0
BLOCK
  8
0
  2
*U96
 70
     1
 10
0.0
 20
0.0
 30
0.0
  3
*U96
  1

  0
TEXT
  5
2C4C
  8
HEATSINK
 62
     0
 10
4.5244454974120787
 20
7.839142274816858
 30
0.0
 40
0.1
  1
1.8710
 50
90.0
  0
ENDBLK
  5
2C4E
  8
0
  0
BLOCK
  8
0
  2
*U97
 70
     1
 10
0.0
 20
0.0
 30
0.0
  3
*U97
  1

  0
TEXT
  5
2C50
  8
LINE
 62
   250
 10
7.9192379595530742
 20
5.4547506198068056
 30
0.0
 40
0.1
  1
E
  0
ENDBLK
  5
2C52
  8
0
  0
BLOCK
  8
0
  2
*U98
 70
     1
 10
0.0
 20
0.0
 30
0.0
  3
*U98
  1

  0
TEXT
  5
2C54
  8
LINE
 62
   250
 10
7.9192379595530742
 20
6.422993806972201
 30
0.0
 40
0.1
  1
E
  0
ENDBLK
  5
2C56
  8
0
  0
BLOCK
  8
0
  2
*U99
 70
     1
 10
0.0
 20
0.0
 30
0.0
  3
*U99
  1

  0
TEXT
  5
2C58
  8
HEATSINK
 62
     0
 10
7.0818019727206121
 20
6.2918756015301041
 30
0.0
 40
0.1
  1
1.2090
  0
ENDBLK
  5
2C5A
  8
0
  0
BLOCK
  8
0
  2
*U100
 70
     1
 10
0.0
 20
0.0
 30
0.0
  3
*U100
  1

  0
TEXT
  5
2C5C
  8
HEATSINK
 62
     0
 10
7.1472263153238842
 20
5.5744275964959211
 30
0.0
 40
0.1
  1
0.4910
  0
ENDBLK
  5
2C5E
  8
0
  0
BLOCK
  8
0
  2
*U101
 70
     1
 10
0.0
 20
0.0
 30
0.0
  3
*U101
  1

  0
TEXT
  5
2C60
  8
HEATSINK
 62
     0
 10
8.0245596486570037
 20
4.5934275964959879
 30
0.0
 40
0.1
  1
0.3040
 50
90.0
  0
ENDBLK
  5
2C62
  8
0
  0
BLOCK
  8
0
  2
*U102
 70
     1
 10
0.0
 20
0.0
 30
0.0
  3
*U102
  1

  0
TEXT
  5
2C9B
  8
HEATSINK
 10
5.249876828395255
 20
8.3636373708905207
 30
0.0
 40
0.175
  1
C130X170T490D00 RFD130006
  0
ENDBLK
  5
2C9D
  8
0
  0
BLOCK
  8
0
  2
*U103
 70
     1
 10
0.0
 20
0.0
 30
0.0
  3
*U103
  1

  0
TEXT
  5
2CA2
  8
HEATSINK
 62
   250
 10
3.2950393345232012
 20
-3.2105113532433189
 30
0.0
 40
0.0516050588676619
  1
THIRD ANGLE PROJECTION, USA
 50
359.99998127603169
 41
0.8933332999999745
  7
CK_TEXT_STYLE_0084
  0
ENDBLK
  5
2CA4
  8
0
  0
BLOCK
  8
0
  2
*U104
 70
     1
 10
0.0
 20
0.0
 30
0.0
  3
*U104
  1

  0
TEXT
  5
2CB0
  8
HEATSINK
 62
   250
 10
0.0
 20
2.9999999999999991
 30
0.0
 40
0.09
  1
NI780 0.490" Copper Heatsink
  0
TEXT
  5
2CB1
  8
HEATSINK
 62
   250
 10
0.0
 20
2.8499999999999992
 30
0.0
 40
0.09
  1
(for 50mil PCB)or T0272 30 mil
  0
TEXT
  5
2CB2
  8
HEATSINK
 62
   250
 10
0.0
 20
2.6999999999999988
 30
0.0
 40
0.09
  1
PCB
  0
TEXT
  5
2CB3
  8
HEATSINK
 62
   250
 10
0.0
 20
2.399999999999999
 30
0.0
 40
0.09
  1
A 10 Places, Drill thru & tap
  0
TEXT
  5
2CB4
  8
HEATSINK
 62
   250
 10
0.0
 20
2.2499999999999991
 30
0.0
 40
0.09
  1
#4-40 screw
  0
TEXT
  5
2CB5
  8
HEATSINK
 62
   250
 10
0.0
 20
1.9499999999999991
 30
0.0
 40
0.09
  1
B 2 Places, On Both Sides,
  0
TEXT
  5
2CB6
  8
HEATSINK
 62
   250
 10
0.0
 20
1.7999999999999989
 30
0.0
 40
0.09
  1
0.1875 Dia Notch 0.020 deep (N
  0
TEXT
  5
2CB7
  8
HEATSINK
 62
   250
 10
0.0
 20
1.649999999999999
 30
0.0
 40
0.09
  1
Connector Notch)
  0
TEXT
  5
2CB8
  8
HEATSINK
 62
   250
 10
0.0
 20
1.349999999999999
 30
0.0
 40
0.09
  1
C 4 Places, Side, Drill & tap
  0
TEXT
  5
2CB9
  8
HEATSINK
 62
   250
 10
0.0
 20
1.1999999999999991
 30
0.0
 40
0.09
  1
#2-56 screw 0.500 deep (SMA
  0
TEXT
  5
2CBA
  8
HEATSINK
 62
   250
 10
0.0
 20
1.05
 30
0.0
 40
0.09
  1
Holes)
  0
TEXT
  5
2CBB
  8
HEATSINK
 62
   250
 10
0.0
 20
0.7500000000000001
 30
0.0
 40
0.09
  1
D 2 Places Drill Dia. = 0.257"
  0
TEXT
  5
2CBC
  8
HEATSINK
 62
   250
 10
0.0
 20
0.6000000000000001
 30
0.0
 40
0.09
  1
from bottom Depth = .270"
  0
TEXT
  5
2CBD
  8
HEATSINK
 62
   250
 10
0.0
 20
0.3
 30
0.0
 40
0.09
  1
E 
  0
TEXT
  5
2CBE
  8
HEATSINK
 10
0.18
 20
0.3
 30
0.0
 40
0.09
  1
4 Places, 
  0
TEXT
  5
2CBF
  8
HEATSINK
 62
   250
 10
0.9900000000000002
 20
0.3
 30
0.0
 40
0.09
  1
Both Sides, 
  0
TEXT
  5
2CC0
  8
HEATSINK
 10
1.9650000000000001
 20
0.3
 30
0.0
 40
0.09
  1
Drill
  0
TEXT
  5
2CC1
  8
HEATSINK
 10
0.0
 20
0.15
 30
0.0
 40
0.09
  1
depth 0.250" and Tap for 4-40
  0
TEXT
  5
2CC2
  8
HEATSINK
 10
0.0
 20
0.0
 30
0.0
 40
0.09
  1
Screw (N connector)
  0
ENDBLK
  5
2CC4
  8
0
  0
BLOCK
  8
0
  2
*U105
 70
     1
 10
0.0
 20
0.0
 30
0.0
  3
*U105
  1

  0
TEXT
  5
2CC6
  8
HEATSINK
 62
   250
 10
9.4866279503048396
 20
2.6801397378022491
 30
0.0
 40
0.09
  1
@  2018 NXP B.V.
  0
ENDBLK
  5
2CC8
  8
0
  0
ENDSEC
  0
SECTION
  2
ENTITIES
  0
CIRCLE
  5
120
  8
HEATSINK
  6
HIDDEN2
 10
3.5084263554598598
 20
6.4834275964958961
 30
0.0
 40
0.1285
  0
CIRCLE
  5
126
  8
HEATSINK
  6
HIDDEN2
 10
5.5084263554598598
 20
5.4834275964958961
 30
0.0
 40
0.1285
  0
LINE
  5
4C2
  8
HEATSINK
 10
3.3239263554598599
 20
6.4834275964958961
 30
0.0
 11
3.6929263554598601
 21
6.4834275964958961
 31
0.0
  0
LINE
  5
4C3
  8
HEATSINK
 10
3.5084263554598598
 20
6.2989275964958971
 30
0.0
 11
3.5084263554598598
 21
6.6679275964958959
 31
0.0
  0
LINE
  5
4DC
  8
HEATSINK
 10
5.3239263554598599
 20
5.4834275964958961
 30
0.0
 11
5.6929263554598597
 21
5.4834275964958961
 31
0.0
  0
LINE
  5
4DD
  8
HEATSINK
 10
5.5084263554598598
 20
5.2989275964958971
 30
0.0
 11
5.5084263554598598
 21
5.6679275964958959
 31
0.0
  0
TEXT
  5
815
  8
HEATSINK
 10
3.620472344372021
 20
6.215716409923381
 30
0.0
 40
0.08
  1
D
  0
LINE
  5
C46
  8
HEATSINK
 10
4.3124263554598601
 20
7.133427596495987
 30
0.0
 11
4.3124263554598601
 21
5.133427596495987
 31
0.0
  0
LINE
  5
C47
  8
HEATSINK
 10
4.7044263554598604
 20
7.133427596495987
 30
0.0
 11
4.7044263554598604
 21
5.133427596495987
 31
0.0
  0
TEXT
  5
1618
  8
HEATSINK
 10
6.3052917727578537
 20
2.454548543020949
 30
0.0
 40
0.175
  1

  0
DIMENSION
  5
1718
  8
HEATSINK
 62
   250
  2
*D3
 10
7.6705596486572167
 20
5.133427596495987
 30
0.0
 11
8.1605596486572161
 21
4.815927596495988
 31
0.0
 70
    70
 13
8.1605596486572178
 23
5.133427596495987
 33
0.0
 14
8.1605596486572178
 24
5.070927596495987
 34
0.0
1001
ACAD
1000
DSTYLE
1002
{
1070
   287
1070
     5
1070
   140
1040
0.09
1070
   271
1070
     3
1070
   279
1070
     2
1002
}
  0
POLYLINE
  5
1719
  8
HEATSINK
 62
   250
 66
     1
 10
0.0
 20
0.0
 30
0.0
 70
     1
  0
VERTEX
  5
2A57
  8
HEATSINK
 62
   250
 10
7.6705596486572167
 20
7.133427596495987
 30
0.0
  0
VERTEX
  5
2A58
  8
HEATSINK
 62
   250
 10
8.1605596486572178
 20
7.133427596495987
 30
0.0
  0
VERTEX
  5
2A59
  8
HEATSINK
 62
   250
 10
8.1605596486572178
 20
5.133427596495987
 30
0.0
  0
VERTEX
  5
2A5A
  8
HEATSINK
 62
   250
 10
7.6705596486572167
 20
5.133427596495987
 30
0.0
  0
SEQEND
  5
2A5B
  8
HEATSINK
 62
   250
  0
INSERT
  5
171A
  8
HEATSINK
  2
*U46
 10
0.0
 20
0.0
 30
0.0
  0
DIMENSION
  5
171B
  8
HEATSINK
 62
   250
  2
*D4
 10
7.6705596486572167
 20
4.4834275964958961
 30
0.0
 11
7.7805596486572162
 21
4.8934275964959877
 31
0.0
 70
    70
 13
7.7795596486572167
 23
5.8134275964958997
 33
0.0
 14
7.7805596486572171
 24
5.133427596495987
 34
0.0
1001
ACAD
1000
DSTYLE
1002
{
1070
   287
1070
     5
1070
   140
1040
0.09
1070
   271
1070
     3
1070
   279
1070
     2
1002
}
  0
DIMENSION
  5
171C
  8
HEATSINK
 62
   250
  2
*D5
 10
7.6705596486572167
 20
5.133427596495987
 30
0.0
 11
7.670559648657215
 21
4.8870164028448917
 31
0.0
 70
   198
 13
7.6705596486572167
 23
5.133427596495987
 33
0.0
 14
7.6705596486572167
 24
5.133427596495987
 34
0.0
1001
ACAD
1000
DSTYLE
1002
{
1070
   287
1070
     5
1070
   140
1040
0.09
1070
   271
1070
     3
1070
   279
1070
     2
1002
}
  0
INSERT
  5
171D
  8
HEATSINK
  2
*U47
 10
0.0
 20
0.0
 30
0.0
  0
INSERT
  5
171E
  8
HEATSINK
  2
*U48
 10
0.0
 20
0.0
 30
0.0
  0
CIRCLE
  5
171F
  8
HEATSINK
 62
   250
 10
7.7795596486572167
 20
6.1534275964958951
 30
0.0
 40
0.035
  0
INSERT
  5
1720
  8
HEATSINK
  2
*U49
 10
0.0
 20
0.0
 30
0.0
  0
POLYLINE
  5
1721
  8
HEATSINK
 62
   250
 66
     1
 10
0.0
 20
0.0
 30
0.0
  0
VERTEX
  5
2A79
  8
HEATSINK
 62
   250
 10
7.6705596486572167
 20
6.0751945921788133
 30
0.0
  0
VERTEX
  5
2A7A
  8
HEATSINK
 62
   250
 10
7.7174066261438714
 20
6.0626506461425711
 30
0.0
  0
VERTEX
  5
2A7B
  8
HEATSINK
 62
   250
 10
7.7513238067528381
 20
6.0290493531498068
 30
0.0
  0
VERTEX
  5
2A7C
  8
HEATSINK
 62
   250
 10
7.7643096486572167
 20
5.9814445921788133
 30
0.0
  0
VERTEX
  5
2A7D
  8
HEATSINK
 62
   250
 10
7.751972675997143
 20
5.9349582341869418
 30
0.0
  0
VERTEX
  5
2A7E
  8
HEATSINK
 62
   250
 10
7.7148733168069654
 20
5.898828847219912
 30
0.0
  0
VERTEX
  5
2A7F
  8
HEATSINK
 62
   250
 10
7.6705596486572167
 20
5.8876945921788133
 30
0.0
  0
VERTEX
  5
2A80
  8
HEATSINK
 62
   250
 10
7.6705596486572167
 20
6.0751945921788133
 30
0.0
  0
SEQEND
  5
2A81
  8
HEATSINK
 62
   250
  0
CIRCLE
  5
1722
  8
HEATSINK
 62
   250
 10
7.7795596486572167
 20
5.8134275964958997
 30
0.0
 40
0.035
  0
INSERT
  5
1723
  8
HEATSINK
  2
*U50
 10
0.0
 20
0.0
 30
0.0
  0
INSERT
  5
177C
  8
HEATSINK
  2
*U51
 10
0.0
 20
0.0
 30
0.0
  0
LINE
  5
17AC
  8
HEATSINK
 62
   250
 10
4.3040330629113059
 20
4.3251490162136896
 30
0.0
 11
3.5045954479393462
 21
4.3251490162136896
 31
0.0
  0
INSERT
  5
17AE
  8
HEATSINK
  2
*U52
 10
0.0
 20
0.0
 30
0.0
  0
LINE
  5
17B2
  8
HEATSINK
 62
   250
 10
5.5122572629803734
 20
4.3251490162136896
 30
0.0
 11
4.7140330629113061
 21
4.3251490162136896
 31
0.0
  0
DIMENSION
  5
17D5
  8
HEATSINK
  2
*D6
 10
6.19842635546037
 20
4.3251490162136896
 30
0.0
 11
6.4967596887937029
 21
4.3251490162136896
 31
0.0
 70
     6
 13
6.19842635546037
 23
4.3251490162136896
 33
0.0
 14
6.19842635546037
 24
4.3251490162136896
 34
0.0
  0
DIMENSION
  5
17E5
  8
HEATSINK
  2
*D7
 10
6.19842635546037
 20
4.3251490162136896
 30
0.0
 11
6.5759263554603704
 21
3.8351490162136899
 31
0.0
 70
     6
 13
6.19842635546037
 23
3.8351490162136899
 33
0.0
 14
6.26092635546037
 24
3.8351490162136899
 34
0.0
  0
CIRCLE
  5
1816
  8
HEATSINK
 10
4.31092635545986
 20
4.3101490162136908
 30
0.0
 40
0.0951506760944532
  0
LINE
  5
181F
  8
HEATSINK
 10
4.2238427933184459
 20
4.3484909562532108
 30
0.0
 11
3.505822937858138
 21
3.3937113921205162
 31
0.0
  0
LINE
  5
1820
  8
HEATSINK
 10
4.3999523217214644
 20
4.276562880794156
 30
0.0
 11
4.2412000593001746
 21
3.0943837836073338
 31
0.0
  0
CIRCLE
  5
1821
  8
HEATSINK
 10
3.812592403732606
 20
3.0943837836073338
 30
0.0
 40
0.4286076555675687
  0
TEXT
  5
1847
  8
HEATSINK
 10
4.3036343505554209
 20
2.8164764899080401
 30
0.0
 40
0.08
  1
Diamond Saw (0.015")2X  
  0
SOLID
  5
1848
  8
HEATSINK
 10
3.5893140856182368
 20
2.872691285548945
 30
0.0
 11
3.5893140856182368
 21
2.8393579522156118
 31
0.0
 12
3.6893140856182369
 22
2.8560246188822789
 32
0.0
 13
3.6893140856182369
 23
2.8560246188822789
 33
0.0
  0
LINE
  5
184C
  8
HEATSINK
 10
3.6893140856182369
 20
3.0180787312611042
 30
0.0
 11
3.562689391290399
 21
3.018078731261105
 31
0.0
  0
INSERT
  5
184D
  8
HEATSINK
  2
*U53
 10
0.0
 20
0.0
 30
0.0
  0
LINE
  5
184E
  8
HEATSINK
 10
3.4216360383147082
 20
2.8071393561169762
 30
0.0
 11
3.221636038314708
 21
2.8071393561169762
 31
0.0
  0
LINE
  5
1850
  8
HEATSINK
 10
3.4893140856182372
 20
2.9640202824633581
 30
0.0
 11
3.4216360383147082
 21
2.8071393561169762
 31
0.0
  0
LINE
  5
1851
  8
HEATSINK
 10
3.5893140856182368
 20
2.8560246188822789
 30
0.0
 11
3.4893140856182372
 21
2.8560246188822789
 31
0.0
  0
LINE
  5
1852
  8
HEATSINK
 10
3.6268140856182369
 20
2.9640202824633581
 30
0.0
 11
3.4893140856182372
 21
2.9640202824633581
 31
0.0
  0
LINE
  5
1853
  8
HEATSINK
 10
3.9393140856182352
 20
2.8560246188822789
 30
0.0
 11
4.2749374075376991
 21
2.8560246188822789
 31
0.0
  0
LINE
  5
1854
  8
HEATSINK
 10
3.6893140856182369
 20
3.018078731261105
 30
0.0
 11
3.6893140856182369
 21
2.9640202824633581
 31
0.0
  0
SOLID
  5
1855
  8
HEATSINK
 10
3.9393140856182352
 20
2.872691285548945
 30
0.0
 11
3.9393140856182352
 21
2.8393579522156118
 31
0.0
 12
3.8393140856182351
 22
2.8560246188822789
 32
0.0
 13
3.8393140856182351
 23
2.8560246188822789
 33
0.0
  0
LINE
  5
1856
  8
HEATSINK
 10
3.8393140856182351
 20
3.018078731261105
 30
0.0
 11
3.9909042368650609
 21
3.018078731261105
 31
0.0
  0
LINE
  5
1857
  8
HEATSINK
 10
3.6893140856182369
 20
2.9015202824633581
 30
0.0
 11
3.6893140856182369
 21
2.7560246188822788
 31
0.0
  0
LINE
  5
1858
  8
HEATSINK
 10
3.8393140856182351
 20
2.9015202824633581
 30
0.0
 11
3.8393140856182351
 21
2.7560246188822788
 31
0.0
  0
LINE
  5
1859
  8
HEATSINK
 10
3.6893140856182369
 20
2.9640202824633581
 30
0.0
 11
3.8393140856182351
 21
2.9640202824633581
 31
0.0
  0
LINE
  5
185A
  8
HEATSINK
 10
3.8393140856182351
 20
2.9640202824633581
 30
0.0
 11
3.8393140856182351
 21
3.018078731261105
 31
0.0
  0
POLYLINE
  5
195E
  8
HEATSINK
 66
     1
 10
0.0
 20
0.0
 30
0.0
 70
     1
  0
VERTEX
  5
2AA8
  8
HEATSINK
 10
4.3274263554598598
 20
7.133427596495987
 30
0.0
  0
VERTEX
  5
2AA9
  8
HEATSINK
 10
4.6894263554598599
 20
7.133427596495987
 30
0.0
  0
VERTEX
  5
2AAA
  8
HEATSINK
 10
4.6894263554598599
 20
5.1324858645093618
 30
0.0
  0
VERTEX
  5
2AAB
  8
HEATSINK
 10
4.3274263554598598
 20
5.1352857831370784
 30
0.0
  0
SEQEND
  5
2AAC
  8
HEATSINK
  0
TEXT
  5
1A09
  8
HEATSINK
 10
5.620472344372021
 20
5.215716409923381
 30
0.0
 40
0.08
  1
D
  0
TEXT
  5
1A29
  8
HEATSINK
 10
3.2955841525928502
 20
5.3509684021180624
 30
0.0
 40
0.08
  1
A
  0
TEXT
  5
1A71
  8
HEATSINK
 10
5.9295311926743404
 20
6.9160957261792388
 30
0.0
 40
0.08
  1
A
  0
TEXT
  5
1A77
  8
HEATSINK
 10
4.9101727220117848
 20
6.9160957261792388
 30
0.0
 40
0.08
  1
A
  0
INSERT
  5
1AD8
  8
HEATSINK
  2
*U65
 10
0.0
 20
0.0
 30
0.0
  0
CIRCLE
  5
1ADB
  8
HEATSINK
 62
   250
 10
4.5084263554598598
 20
5.4334275964958971
 30
0.0
 40
0.063
  0
INSERT
  5
1ADC
  8
HEATSINK
  2
*U66
 10
0.0
 20
0.0
 30
0.0
  0
CIRCLE
  5
1AE1
  8
HEATSINK
 62
   250
 10
4.5084263554598598
 20
6.5334275964958959
 30
0.0
 40
0.063
  0
POLYLINE
  5
1C71
  8
HEATSINK
 66
     1
 10
0.0
 20
0.0
 30
0.0
  0
VERTEX
  5
2B7B
  8
HEATSINK
 10
4.3124263554598601
 20
4.3251490162136896
 30
0.0
  0
VERTEX
  5
2B7C
  8
HEATSINK
 10
4.3124263554598601
 20
4.3201490162136906
 30
0.0
  0
VERTEX
  5
2B7D
  8
HEATSINK
 10
4.3274263554598598
 20
4.3201490162136906
 30
0.0
  0
VERTEX
  5
2B7E
  8
HEATSINK
 10
4.3274263554598598
 20
4.3251490162136896
 30
0.0
  0
VERTEX
  5
2B7F
  8
HEATSINK
 10
4.6894263554598599
 20
4.3251490162136896
 30
0.0
  0
VERTEX
  5
2B80
  8
HEATSINK
 10
4.6894263554598599
 20
4.3201490162136906
 30
0.0
  0
VERTEX
  5
2B81
  8
HEATSINK
 10
4.7044263554598604
 20
4.3201490162136906
 30
0.0
  0
VERTEX
  5
2B82
  8
HEATSINK
 10
4.7044263554598604
 20
4.3251490162136896
 30
0.0
  0
SEQEND
  5
2B83
  8
HEATSINK
  0
POLYLINE
  5
1C72
  8
HEATSINK
 66
     1
 10
0.0
 20
0.0
 30
0.0
 70
     1
  0
VERTEX
  5
2B84
  8
HEATSINK
 10
4.3124263554598601
 20
4.3251490162136896
 30
0.0
  0
VERTEX
  5
2B85
  8
HEATSINK
 10
3.19842635546037
 20
4.3251490162136896
 30
0.0
  0
VERTEX
  5
2B86
  8
HEATSINK
 10
3.19842635546037
 20
3.8351490162136899
 30
0.0
  0
VERTEX
  5
2B87
  8
HEATSINK
 10
6.19842635546037
 20
3.8351490162136899
 30
0.0
  0
VERTEX
  5
2B88
  8
HEATSINK
 10
6.19842635546037
 20
4.3251490162136896
 30
0.0
  0
VERTEX
  5
2B89
  8
HEATSINK
 10
4.7044263554598604
 20
4.3251490162136896
 30
0.0
  0
VERTEX
  5
2B8A
  8
HEATSINK
 10
4.7044263554598604
 20
4.3201490162136906
 30
0.0
  0
VERTEX
  5
2B8B
  8
HEATSINK
 10
4.6894263554598599
 20
4.3201490162136906
 30
0.0
  0
VERTEX
  5
2B8C
  8
HEATSINK
 10
4.6894263554598599
 20
4.3251490162136896
 30
0.0
  0
VERTEX
  5
2B8D
  8
HEATSINK
 10
4.3274263554598598
 20
4.3251490162136896
 30
0.0
  0
VERTEX
  5
2B8E
  8
HEATSINK
 10
4.3274263554598598
 20
4.3201490162136906
 30
0.0
  0
VERTEX
  5
2B8F
  8
HEATSINK
 10
4.3124263554598601
 20
4.3201490162136906
 30
0.0
  0
VERTEX
  5
2B90
  8
HEATSINK
 10
4.3124263554598601
 20
4.3251490162136896
 30
0.0
  0
SEQEND
  5
2B91
  8
HEATSINK
  0
LINE
  5
1CA1
  8
HEATSINK
 10
3.562689391290399
 20
3.018078731261105
 30
0.0
 11
3.21836101762855
 21
3.018078731261105
 31
0.0
  0
INSERT
  5
1CA8
  8
HEATSINK
  2
*U67
 10
0.0
 20
0.0
 30
0.0
  0
POLYLINE
  5
1D2A
  8
HEATSINK
 66
     1
 10
0.0
 20
0.0
 30
0.0
 70
     1
  0
VERTEX
  5
2B96
  8
HEATSINK
 10
4.3124263554598601
 20
4.3251490162136896
 30
0.0
  0
VERTEX
  5
2B97
  8
HEATSINK
 10
4.3274263554598598
 20
4.3251490162136896
 30
0.0
  0
VERTEX
  5
2B98
  8
HEATSINK
 10
4.3274263554598598
 20
4.3201490162136906
 30
0.0
  0
VERTEX
  5
2B99
  8
HEATSINK
 10
4.3124263554598601
 20
4.3201490162136906
 30
0.0
  0
SEQEND
  5
2B9A
  8
HEATSINK
  0
INSERT
  5
1D2B
  8
HEATSINK
  6
CONTINUOUS
  2
*U68
 10
0.0
 20
0.0
 30
0.0
1001
ACAD
1002
{
1000
R14_HATCH_DATA
1000
1D2B
1011
1.0
1021
2.1661482158372477E+127
1031
1.3863348581495295E+129
1021
0.0
1031
0.0
1011
0.0
1021
2.1661482158372477E+127
1031
1.3863348581495295E+129
1021
1.0
1031
0.0
1011
0.0
1021
2.1661482158372477E+127
1031
1.3863348581495295E+129
1021
0.0
1031
1.0
1040
0.0
1010
0.0
1020
0.0
1030
1.0
1000
SOLID
1070
     1
1070
     1
1071
        1
1071
        1
1071
        4
1070
     1
1040
4.3124263554598601
1040
4.3251490162136896
1040
4.3274263554598598
1040
4.3251490162136896
1070
     1
1040
4.3274263554598598
1040
4.3251490162136896
1040
4.3274263554598598
1040
4.3201490162136906
1070
     1
1040
4.3274263554598598
1040
4.3201490162136906
1040
4.3124263554598601
1040
4.3201490162136906
1070
     1
1040
4.3124263554598601
1040
4.3201490162136906
1040
4.3124263554598601
1040
4.3251490162136896
1071
        1
1005
1D2A
1070
     0
1070
     1
1071
        1
1040
7.0084263554598589
1040
7.8904993339327634
1040
0.0
1002
}
  0
INSERT
  5
1D32
  8
HEATSINK
  6
CONTINUOUS
  2
*U69
 10
0.0
 20
0.0
 30
0.0
1001
ACAD
1002
{
1000
R14_HATCH_DATA
1000
1D32
1011
1.0
1021
2.1661482158372477E+127
1031
1.3863348581495295E+129
1021
0.0
1031
0.0
1011
0.0
1021
2.1661482158372477E+127
1031
1.3863348581495295E+129
1021
1.0
1031
0.0
1011
0.0
1021
2.1661482158372477E+127
1031
1.3863348581495295E+129
1021
0.0
1031
1.0
1040
0.0
1010
0.0
1020
0.0
1030
1.0
1000
SOLID
1070
     1
1070
     0
1071
        1
1071
        1
1071
        4
1070
     1
1040
4.6894263554598599
1040
4.3251490162136896
1040
4.7044263554598604
1040
4.3251490162136896
1070
     1
1040
4.7044263554598604
1040
4.3251490162136896
1040
4.7044263554598604
1040
4.3201490162136906
1070
     1
1040
4.7044263554598604
1040
4.3201490162136906
1040
4.6894263554598599
1040
4.3201490162136906
1070
     1
1040
4.6894263554598599
1040
4.3201490162136906
1040
4.6894263554598599
1040
4.3251490162136896
1071
        0
1070
     0
1070
     1
1071
        1
1040
7.3854263554598587
1040
7.8904993339327634
1040
0.0
1002
}
  0
POLYLINE
  5
1D7B
  8
HEATSINK
 66
     1
 10
0.0
 20
0.0
 30
0.0
 70
     1
  0
VERTEX
  5
2BA9
  8
HEATSINK
 10
8.3255759405192222
 20
4.0153820654774188
 30
0.0
  0
VERTEX
  5
2BAA
  8
HEATSINK
 10
10.86866429358523
 20
4.0153820654774188
 30
0.0
  0
VERTEX
  5
2BAB
  8
HEATSINK
 10
10.86866429358523
 20
7.4834275964958961
 30
0.0
  0
VERTEX
  5
2BAC
  8
HEATSINK
 10
8.3255759405192222
 20
7.4834275964958961
 30
0.0
  0
SEQEND
  5
2BAD
  8
HEATSINK
  0
TEXT
  5
1D9C
  8
HEATSINK
 10
3.2479765322006222
 20
6.8804116568807991
 30
0.0
 40
0.08
  1
A
  0
TEXT
  5
1DA2
  8
HEATSINK
 10
4.065002616218039
 20
6.912163925555407
 30
0.0
 40
0.08
  1
A
  0
TEXT
  5
1F49
  8
HEATSINK
 10
4.452700166507455
 20
3.6887315369907121
 30
0.0
 40
0.08
  1
No well 
  0
INSERT
  5
1F50
  8
HEATSINK
  2
*U70
 10
0.0
 20
0.0
 30
0.0
1001
ACAD
1000
DSTYLE
1002
{
1070
   147
1040
0.09
1070
    77
1070
     0
1002
}
  0
INSERT
  5
2085
  8
PACKAGE
 62
   250
  2
NI780
 10
4.5084263554607702
 20
5.9834275964958961
 30
0.0
 41
0.0010000000002037
 42
0.0010000000002037
 43
0.0010000000002037
  0
CIRCLE
  5
2086
  8
HEATSINK
 62
   250
 10
6.0484263554607329
 20
5.258427596495987
 30
0.0
 40
0.065
  0
CIRCLE
  5
2087
  8
HEATSINK
 62
   250
 10
4.81842635546026
 20
5.258427596495987
 30
0.0
 40
0.067
  0
CIRCLE
  5
2088
  8
HEATSINK
 62
   250
 10
3.3484263554600062
 20
5.258427596495987
 30
0.0
 40
0.065
  0
CIRCLE
  5
2089
  8
HEATSINK
 62
   250
 10
4.81842635546026
 20
7.008427596495987
 30
0.0
 40
0.065
  0
CIRCLE
  5
208A
  8
HEATSINK
 62
   250
 10
6.0484263554607329
 20
7.008427596495987
 30
0.0
 40
0.065
  0
CIRCLE
  5
208B
  8
HEATSINK
 62
   250
 10
3.3484263554600062
 20
7.008427596495987
 30
0.0
 40
0.065
  0
CIRCLE
  5
208C
  8
HEATSINK
 62
   250
 10
4.19842635546037
 20
5.258427596495987
 30
0.0
 40
0.065
  0
CIRCLE
  5
208D
  8
HEATSINK
 62
   250
 10
4.19842635546037
 20
7.008427596495987
 30
0.0
 40
0.065
  0
TEXT
  5
20A8
  8
HEATSINK
 10
4.0805841525932127
 20
5.3509684021180624
 30
0.0
 40
0.08
  1
A
  0
TEXT
  5
20AE
  8
HEATSINK
 10
4.765584152593104
 20
5.3509684021180624
 30
0.0
 40
0.08
  1
A
  0
POLYLINE
  5
20B4
  8
HEATSINK
 66
     1
 10
0.0
 20
0.0
 30
0.0
 70
     1
  0
VERTEX
  5
2BD8
  8
HEATSINK
 10
3.19842635546037
 20
7.133427596495987
 30
0.0
  0
VERTEX
  5
2BD9
  8
HEATSINK
 10
6.19842635546037
 20
7.133427596495987
 30
0.0
  0
VERTEX
  5
2BDA
  8
HEATSINK
 10
6.19842635546037
 20
5.133427596495987
 30
0.0
  0
VERTEX
  5
2BDB
  8
HEATSINK
 10
3.19842635546037
 20
5.133427596495987
 30
0.0
  0
SEQEND
  5
2BDC
  8
HEATSINK
  0
DIMENSION
  5
2139
  8
HEATSINK
  2
*D16
 10
6.19842635546037
 20
5.133427596495987
 30
0.0
 11
6.5050930221270358
 21
5.258427596495987
 31
0.0
 70
     6
 13
6.0484263554607329
 23
5.258427596495987
 33
0.0
 14
6.19842635546037
 24
5.258427596495987
 34
0.0
  0
DIMENSION
  5
2149
  8
HEATSINK
  2
*D17
 10
6.19842635546037
 20
5.133427596495987
 30
0.0
 11
6.5134263554603704
 21
5.4834275964958961
 31
0.0
 70
     6
 13
5.5084263554598598
 23
5.4834275964958961
 33
0.0
 14
6.19842635546037
 24
5.4834275964958961
 34
0.0
  0
DIMENSION
  5
2169
  8
HEATSINK
  2
*D18
 10
6.19842635546037
 20
5.133427596495987
 30
0.0
 11
6.6760650452973147
 21
7.133427596495987
 31
0.0
 70
     6
 13
6.19842635546037
 23
7.133427596495987
 33
0.0
 14
6.3693983786306481
 24
7.133427596495987
 34
0.0
  0
DIMENSION
  5
2179
  8
HEATSINK
  2
*D19
 10
6.19842635546037
 20
5.133427596495987
 30
0.0
 11
6.6775597252475931
 21
7.008427596495987
 31
0.0
 70
     6
 13
6.0484263554607329
 23
7.008427596495987
 33
0.0
 14
6.3625597252475918
 24
7.008427596495987
 34
0.0
  0
DIMENSION
  5
2189
  8
HEATSINK
  2
*D20
 10
6.19842635546037
 20
5.133427596495987
 30
0.0
 11
5.2248666575834921
 21
6.5334275966079458
 31
0.0
 70
     6
 13
4.5084263554607711
 23
6.5334275966079458
 33
0.0
 14
4.9265333242501583
 24
6.5334275966079458
 34
0.0
  0
DIMENSION
  5
2199
  8
HEATSINK
  2
*D21
 10
6.19842635546037
 20
5.133427596495987
 30
0.0
 11
5.0150930221265266
 21
5.4334275964958971
 31
0.0
 70
     6
 13
4.5084263554598598
 23
5.4334275964958971
 33
0.0
 14
4.70842635545986
 24
5.4334275964958971
 34
0.0
  0
DIMENSION
  5
21C0
  8
HEATSINK
  2
*D22
 10
6.19842635546037
 20
5.133427596495987
 30
0.0
 11
6.4967596887937029
 21
5.133427596495987
 31
0.0
 70
     6
 13
6.19842635546037
 23
5.133427596495987
 33
0.0
 14
6.19842635546037
 24
5.133427596495987
 34
0.0
  0
DIMENSION
  5
21D2
  8
HEATSINK
  2
*D23
 10
6.19842635546037
 20
5.133427596495987
 30
0.0
 11
6.1984263554603691
 21
4.7604663086638794
 31
0.0
 70
    70
 13
6.19842635546037
 23
5.133427596495987
 33
0.0
 14
6.19842635546037
 24
5.0587996419972114
 34
0.0
  0
DIMENSION
  5
21DB
  8
HEATSINK
  2
*D24
 10
6.19842635546037
 20
5.133427596495987
 30
0.0
 11
6.048426355460732
 21
4.835094263162655
 31
0.0
 70
    70
 13
6.0484263554607329
 23
5.258427596495987
 33
0.0
 14
6.0484263554607329
 24
5.133427596495987
 34
0.0
  0
DIMENSION
  5
21E4
  8
HEATSINK
  2
*D25
 10
6.19842635546037
 20
5.133427596495987
 30
0.0
 11
5.5084263554598589
 21
4.8184275964959884
 31
0.0
 70
    70
 13
5.5084263554598598
 23
5.4834275964958961
 33
0.0
 14
5.5084263554598598
 24
5.133427596495987
 34
0.0
  0
DIMENSION
  5
21ED
  8
HEATSINK
  2
*D26
 10
6.19842635546037
 20
5.133427596495987
 30
0.0
 11
4.8184263554602591
 21
4.8267609298293221
 31
0.0
 70
    70
 13
4.81842635546026
 23
5.258427596495987
 33
0.0
 14
4.81842635546026
 24
5.133427596495987
 34
0.0
  0
DIMENSION
  5
21FD
  8
HEATSINK
  2
*D27
 10
6.19842635546037
 20
5.133427596495987
 30
0.0
 11
4.5061096636982487
 21
4.8272370757985934
 31
0.0
 70
    70
 13
4.5084263554607693
 23
5.4334275963838472
 33
0.0
 14
4.5061096636982496
 24
5.1339037424652592
 34
0.0
  0
DIMENSION
  5
2211
  8
HEATSINK
  2
*D28
 10
6.19842635546037
 20
5.133427596495987
 30
0.0
 11
4.1984263554603691
 21
4.8267609298293221
 31
0.0
 70
    70
 13
4.19842635546037
 23
5.258427596495987
 33
0.0
 14
4.19842635546037
 24
5.133427596495987
 34
0.0
  0
DIMENSION
  5
2221
  8
HEATSINK
  2
*D29
 10
6.19842635546037
 20
5.133427596495987
 30
0.0
 11
3.5084046196053809
 21
5.9045973820537832
 31
0.0
 70
    70
 13
3.5084263554598598
 23
6.4834275964958961
 33
0.0
 14
3.5084046196053822
 24
6.2279307153871146
 34
0.0
  0
DIMENSION
  5
223C
  8
HEATSINK
  2
*D30
 10
6.19842635546037
 20
5.133427596495987
 30
0.0
 11
3.3484263554600049
 21
4.8100942631626546
 31
0.0
 70
    70
 13
3.3484263554600062
 23
5.258427596495987
 33
0.0
 14
3.3484263554600062
 24
5.133427596495987
 34
0.0
  0
DIMENSION
  5
224C
  8
HEATSINK
  2
*D31
 10
6.19842635546037
 20
5.133427596495987
 30
0.0
 11
3.1984263554603691
 21
4.7309692831301557
 31
0.0
 70
    70
 13
3.19842635546037
 23
5.133427596495987
 33
0.0
 14
3.19842635546037
 24
5.0376359497968224
 34
0.0
  0
DIMENSION
  5
225E
  8
HEATSINK
  2
*D32
 10
6.19842635546037
 20
5.133427596495987
 30
0.0
 11
7.069844103882641
 21
5.8144275964959
 31
0.0
 70
     6
 13
7.7795596486572167
 23
5.8134275964958997
 33
0.0
 14
7.3848441038826422
 24
5.8144275964959
 34
0.0
  0
DIMENSION
  5
226E
  8
HEATSINK
  2
*D33
 10
6.19842635546037
 20
5.133427596495987
 30
0.0
 11
7.0942016361012303
 21
6.1524275964959001
 31
0.0
 70
     6
 13
7.7795596486572167
 23
6.1534275964958951
 33
0.0
 14
7.3925349694345641
 24
6.1524275964959001
 34
0.0
  0
DIMENSION
  5
227F
  8
HEATSINK
  2
*D34
 10
6.19842635546037
 20
5.133427596495987
 30
0.0
 11
7.0907400963278633
 21
5.9834275964958961
 31
0.0
 70
   134
 13
6.19842635546037
 23
5.9834275964958961
 33
0.0
 14
6.775740096327862
 24
5.9834275964958961
 34
0.0
  0
LINE
  5
2316
  8
HEATSINK
 10
7.3941202764589882
 20
5.9820572078364096
 30
0.0
 11
7.6705596486572167
 21
5.9814445921788133
 31
0.0
  0
TEXT
  5
231D
  8
HEATSINK
 10
5.8975592365668481
 20
5.220680974590322
 30
0.0
 40
0.08
  1
A
  0
POLYLINE
  5
2325
  8
HEATSINK
  6
HIDDEN2
 66
     1
 10
0.0
 20
0.0
 30
0.0
 70
     1
  0
VERTEX
  5
2BDD
  8
HEATSINK
  6
HIDDEN2
 10
3.3881533610037802
 20
4.1028602027862062
 30
0.0
  0
VERTEX
  5
2BDE
  8
HEATSINK
  6
HIDDEN2
 10
3.6286993499159408
 20
4.1028602027862062
 30
0.0
  0
VERTEX
  5
2BDF
  8
HEATSINK
  6
HIDDEN2
 10
3.6286993499159408
 20
3.8351490162136899
 30
0.0
  0
VERTEX
  5
2BE0
  8
HEATSINK
  6
HIDDEN2
 10
3.3881533610037802
 20
3.8351490162136899
 30
0.0
  0
SEQEND
  5
2BE1
  8
HEATSINK
  6
HIDDEN2
  0
POLYLINE
  5
232C
  8
HEATSINK
  6
HIDDEN2
 66
     1
 10
0.0
 20
0.0
 30
0.0
 70
     1
  0
VERTEX
  5
2BE2
  8
HEATSINK
  6
HIDDEN2
 10
5.3881533610037797
 20
4.1028602027862062
 30
0.0
  0
VERTEX
  5
2BE3
  8
HEATSINK
  6
HIDDEN2
 10
5.6286993499159399
 20
4.1028602027862062
 30
0.0
  0
VERTEX
  5
2BE4
  8
HEATSINK
  6
HIDDEN2
 10
5.6286993499159399
 20
3.8351490162136899
 30
0.0
  0
VERTEX
  5
2BE5
  8
HEATSINK
  6
HIDDEN2
 10
5.3881533610037797
 20
3.8351490162136899
 30
0.0
  0
SEQEND
  5
2BE6
  8
HEATSINK
  6
HIDDEN2
  0
DIMENSION
  5
23C2
  8
HEATSINK
  2
*D35
 10
6.19842635546037
 20
5.133427596495987
 30
0.0
 11
3.9995930221265268
 21
6.4834275964958961
 31
0.0
 70
     6
 13
3.5084263554598598
 23
6.4834275964958961
 33
0.0
 14
3.6929263554598601
 24
6.4834275964958961
 34
0.0
  0
DIMENSION
  5
23F3
  8
HEATSINK
  2
*D36
 10
6.19842635546037
 20
5.133427596495987
 30
0.0
 11
4.874764369628755
 21
8.0564457169023953
 31
0.0
 70
    70
 13
4.7044263554598604
 23
6.7598277972204608
 33
0.0
 14
4.8747643696287559
 24
7.741445716902394
 34
0.0
  0
DIMENSION
  5
2407
  8
HEATSINK
  2
*D37
 10
6.19842635546037
 20
5.133427596495987
 30
0.0
 11
4.1896032272054411
 21
8.0416114584430112
 31
0.0
 70
   198
 13
4.3124263554598601
 23
7.133427596495987
 33
0.0
 14
4.189603227205442
 24
7.726611458443009
 34
0.0
  0
DIMENSION
  5
2452
  8
HEATSINK
  2
*D38
 10
6.19842635546037
 20
5.133427596495987
 30
0.0
 11
4.4744454974120789
 21
8.0474756081501901
 31
0.0
 70
    70
 13
4.3274263554598598
 23
7.133427596495987
 33
0.0
 14
4.4744454974120798
 24
7.7491422748168581
 34
0.0
  0
DIMENSION
  5
2488
  8
HEATSINK
  2
*D39
 10
6.19842635546037
 20
5.133427596495987
 30
0.0
 11
4.6361127402261344
 21
8.0558089414835266
 31
0.0
 70
    70
 13
4.6894263554598599
 23
7.1387554546640652
 33
0.0
 14
4.6361127402261353
 24
7.7491422748168581
 34
0.0
  0
CIRCLE
  5
24DF
  8
LINE
  6
ACAD_ISO02W100
 62
   250
 10
7.9745596486570038
 20
5.6244275964959201
 30
0.0
 40
0.065
  0
INSERT
  5
24E0
  8
HEATSINK
  2
*U97
 10
0.0
 20
0.0
 30
0.0
  0
CIRCLE
  5
24E1
  8
LINE
  6
ACAD_ISO02W100
 62
   250
 10
7.9745596486570038
 20
6.3424275964959103
 30
0.0
 40
0.065
  0
INSERT
  5
24E2
  8
HEATSINK
  2
*U98
 10
0.0
 20
0.0
 30
0.0
  0
DIMENSION
  5
24E4
  8
HEATSINK
  2
*D40
 10
7.6705596486572167
 20
5.133427596495987
 30
0.0
 11
7.974559648657003
 21
4.8184275964959884
 31
0.0
 70
    70
 13
7.9745596486570038
 23
5.6244275964959201
 33
0.0
 14
7.9745596486570038
 24
5.133427596495987
 34
0.0
  0
DIMENSION
  5
24F4
  8
HEATSINK
  2
*D41
 10
7.6705596486572167
 20
5.133427596495987
 30
0.0
 11
7.3638929819905501
 21
5.6244275964959201
 31
0.0
 70
     6
 13
7.9745596486570038
 23
5.6244275964959201
 33
0.0
 14
7.6705596486572167
 24
5.6244275964959201
 34
0.0
  0
DIMENSION
  5
24FD
  8
HEATSINK
  2
*D42
 10
7.6705596486572167
 20
5.133427596495987
 30
0.0
 11
7.298468639387278
 21
6.341875601530103
 31
0.0
 70
     6
 13
7.9745596486570038
 23
6.3424275964959103
 33
0.0
 14
7.6051353060539446
 24
6.341875601530103
 34
0.0
  0
INSERT
  5
25AB
  8
HEATSINK
  2
*U102
 10
0.0
 20
0.0
 30
0.0
  0
INSERT
  5
2715
  8
HEATSINK
  6
CONTINUOUS
  2
THIRD_ANGLE_PROJECTION
 10
5.6238654403054467
 20
6.8859794866079689
 30
0.0
  0
POLYLINE
  5
274B
  8
HEATSINK
 66
     1
 10
0.0
 20
0.0
 30
0.0
 70
     1
  0
VERTEX
  5
2CA5
  8
HEATSINK
 10
6.1784263554603696
 20
6.0755009000076106
 30
0.0
  0
VERTEX
  5
2CA6
  8
HEATSINK
 10
6.19842635546037
 20
6.0755009000076106
 30
0.0
  0
VERTEX
  5
2CA7
  8
HEATSINK
 10
6.19842635546037
 20
5.8880009000076106
 30
0.0
  0
VERTEX
  5
2CA8
  8
HEATSINK
 10
6.1784263554603696
 20
5.8880009000076106
 30
0.0
  0
SEQEND
  5
2CA9
  8
HEATSINK
  0
POLYLINE
  5
274C
  8
HEATSINK
 66
     1
 10
0.0
 20
0.0
 30
0.0
 70
     1
  0
VERTEX
  5
2CAA
  8
HEATSINK
 10
3.19842635546037
 20
6.0755009000076106
 30
0.0
  0
VERTEX
  5
2CAB
  8
HEATSINK
 10
3.2184263554603691
 20
6.0755009000076106
 30
0.0
  0
VERTEX
  5
2CAC
  8
HEATSINK
 10
3.2184263554603691
 20
5.8880009000076106
 30
0.0
  0
VERTEX
  5
2CAD
  8
HEATSINK
 10
3.19842635546037
 20
5.8880009000076106
 30
0.0
  0
SEQEND
  5
2CAE
  8
HEATSINK
  0
INSERT
  5
2789
  8
HEATSINK
  2
*U105
 10
0.0
 20
0.0
 30
0.0
  0
VIEWPORT
  5
9CA
 67
     1
  8
0
 10
7.7822506458651066
 20
3.999999883606677
 30
0.0
 40
20.263938202646528
 41
8.9929997457669462
 68
     1
 69
     1
1001
ACAD
1000
MVIEW
1002
{
1070
    16
1010
0.0
1020
0.0
1030
0.0
1010
0.0
1020
0.0
1030
1.0
1040
0.0
1040
8.9929997457669462
1040
7.7822506458651066
1040
3.999999883606677
1040
50.0
1040
0.0
1040
0.0
1070
     0
1070
   100
1070
     1
1070
     1
1070
     0
1070
     0
1070
     0
1070
     0
1040
0.0
1040
0.0
1040
0.0
1040
0.5
1040
0.5
1040
0.5
1040
0.5
1070
     0
1002
{
1002
}
1002
}
  0
VIEWPORT
  5
9CC
 67
     1
  8
MARKING
 10
5.24999976158142
 20
3.99999976158142
 30
0.0
 40
8.3999996185302717
 41
6.3999996185302717
 68
     2
 69
     2
1001
ACAD
1000
MVIEW
1002
{
1070
    16
1010
0.0
1020
0.0
1030
0.0
1010
0.0
1020
0.0
1030
1.0
1040
0.0
1040
7.1166064885593023
1040
6.586630910979494
1040
5.7578086384750771
1040
50.0
1040
0.0
1040
0.0
1070
     0
1070
   100
1070
     1
1070
     3
1070
     0
1070
     0
1070
     0
1070
     0
1040
0.0
1040
0.0
1040
0.0
1040
0.5
1040
0.5
1040
0.5
1040
0.5
1070
     0
1002
{
1002
}
1002
}
  0
ENDSEC
  0
EOF
