M48
; DRILL file {KiCad (5.1.9)-1} date 06/07/21 18:16:43
; FORMAT={-:-/ absolute / metric / decimal}
; #@! TF.CreationDate,2021-06-07T18:16:43+02:00
; #@! TF.GenerationSoftware,Kicad,Pcbnew,(5.1.9)-1
; #@! TF.FileFunction,Plated,1,4,PTH
FMAT,2
METRIC
T1C0.400
T2C1.520
%
G90
G05
T1
X143.51Y-95.758
X143.51Y-107.696
X145.288Y-107.696
X145.542Y-95.758
X147.066Y-107.696
X147.32Y-95.758
X148.844Y-104.648
X153.924Y-104.648
X157.226Y-100.838
X157.988Y-98.552
X157.988Y-103.632
X159.004Y-98.552
X159.004Y-103.632
X159.69Y-101.03
X160.02Y-103.632
X160.274Y-98.552
X161.036Y-103.632
X161.29Y-98.552
X162.306Y-99.822
X162.306Y-100.838
X167.64Y-93.472
X167.894Y-96.012
X168.148Y-85.852
X168.148Y-87.884
X168.148Y-89.662
X172.954Y-107.046
X173.284Y-96.535
X174.361Y-107.046
X174.625Y-96.535
X175.692Y-96.484
X175.829Y-107.036
T2
X159.512Y-87.884
X164.592Y-87.884
T0
M30
