%FSLAX45Y45*%
G04 Gerber Fmt 4.5, Leading zero omitted, Abs format (unit mm)*
G04 Created by KiCad (PCBNEW (5.1.9)-1) date 2021-06-07 18:16:48*
%MOMM*%
%LPD*%
G01*
G04 APERTURE LIST*
%TA.AperFunction,Profile*%
%ADD10C,0.050000*%
%TD*%
%ADD11C,0.200000*%
%ADD12C,0.300000*%
G04 APERTURE END LIST*
D10*
X17753584Y-11251184D02*
X17753076Y-7824216D01*
X14229588Y-7826756D02*
X17753076Y-7824216D01*
X14226032Y-11247628D02*
X14229588Y-7826756D01*
X17753584Y-11251184D02*
X14226032Y-11247628D01*
D11*
X14292600Y-8399800D02*
X14612600Y-8719800D01*
X14612600Y-8399800D02*
X14292600Y-8719800D01*
X15842000Y-10762000D02*
X16162000Y-11082000D01*
X16162000Y-10762000D02*
X15842000Y-11082000D01*
X17366000Y-8425200D02*
X17686000Y-8745200D01*
X17686000Y-8425200D02*
X17366000Y-8745200D01*
D12*
X14509960Y-11719398D02*
X14509960Y-11419398D01*
X14581389Y-11419398D01*
X14624246Y-11433684D01*
X14652818Y-11462255D01*
X14667103Y-11490827D01*
X14681389Y-11547970D01*
X14681389Y-11590827D01*
X14667103Y-11647970D01*
X14652818Y-11676541D01*
X14624246Y-11705113D01*
X14581389Y-11719398D01*
X14509960Y-11719398D01*
X14809960Y-11719398D02*
X14809960Y-11519398D01*
X14809960Y-11576541D02*
X14824246Y-11547970D01*
X14838532Y-11533684D01*
X14867103Y-11519398D01*
X14895675Y-11519398D01*
X14995675Y-11719398D02*
X14995675Y-11519398D01*
X14995675Y-11419398D02*
X14981389Y-11433684D01*
X14995675Y-11447970D01*
X15009960Y-11433684D01*
X14995675Y-11419398D01*
X14995675Y-11447970D01*
X15181389Y-11719398D02*
X15152818Y-11705113D01*
X15138532Y-11676541D01*
X15138532Y-11419398D01*
X15338532Y-11719398D02*
X15309960Y-11705113D01*
X15295675Y-11676541D01*
X15295675Y-11419398D01*
X15681389Y-11719398D02*
X15681389Y-11419398D01*
X15781389Y-11633684D01*
X15881389Y-11419398D01*
X15881389Y-11719398D01*
X16152818Y-11719398D02*
X16152818Y-11562255D01*
X16138532Y-11533684D01*
X16109960Y-11519398D01*
X16052818Y-11519398D01*
X16024246Y-11533684D01*
X16152818Y-11705113D02*
X16124246Y-11719398D01*
X16052818Y-11719398D01*
X16024246Y-11705113D01*
X16009960Y-11676541D01*
X16009960Y-11647970D01*
X16024246Y-11619398D01*
X16052818Y-11605113D01*
X16124246Y-11605113D01*
X16152818Y-11590827D01*
X16295675Y-11519398D02*
X16295675Y-11819398D01*
X16295675Y-11533684D02*
X16324246Y-11519398D01*
X16381389Y-11519398D01*
X16409960Y-11533684D01*
X16424246Y-11547970D01*
X16438532Y-11576541D01*
X16438532Y-11662255D01*
X16424246Y-11690827D01*
X16409960Y-11705113D01*
X16381389Y-11719398D01*
X16324246Y-11719398D01*
X16295675Y-11705113D01*
X16567103Y-11690827D02*
X16581389Y-11705113D01*
X16567103Y-11719398D01*
X16552818Y-11705113D01*
X16567103Y-11690827D01*
X16567103Y-11719398D01*
X16567103Y-11533684D02*
X16581389Y-11547970D01*
X16567103Y-11562255D01*
X16552818Y-11547970D01*
X16567103Y-11533684D01*
X16567103Y-11562255D01*
X13903532Y-12053684D02*
X14223532Y-12373684D01*
X14223532Y-12053684D02*
X13903532Y-12373684D01*
X14481389Y-12049398D02*
X14667103Y-12049398D01*
X14567103Y-12163684D01*
X14609960Y-12163684D01*
X14638532Y-12177970D01*
X14652818Y-12192255D01*
X14667103Y-12220827D01*
X14667103Y-12292255D01*
X14652818Y-12320827D01*
X14638532Y-12335113D01*
X14609960Y-12349398D01*
X14524246Y-12349398D01*
X14495675Y-12335113D01*
X14481389Y-12320827D01*
X14795675Y-12320827D02*
X14809960Y-12335113D01*
X14795675Y-12349398D01*
X14781389Y-12335113D01*
X14795675Y-12320827D01*
X14795675Y-12349398D01*
X14924246Y-12077970D02*
X14938532Y-12063684D01*
X14967103Y-12049398D01*
X15038532Y-12049398D01*
X15067103Y-12063684D01*
X15081389Y-12077970D01*
X15095675Y-12106541D01*
X15095675Y-12135113D01*
X15081389Y-12177970D01*
X14909960Y-12349398D01*
X15095675Y-12349398D01*
X15281389Y-12049398D02*
X15309960Y-12049398D01*
X15338532Y-12063684D01*
X15352818Y-12077970D01*
X15367103Y-12106541D01*
X15381389Y-12163684D01*
X15381389Y-12235113D01*
X15367103Y-12292255D01*
X15352818Y-12320827D01*
X15338532Y-12335113D01*
X15309960Y-12349398D01*
X15281389Y-12349398D01*
X15252818Y-12335113D01*
X15238532Y-12320827D01*
X15224246Y-12292255D01*
X15209960Y-12235113D01*
X15209960Y-12163684D01*
X15224246Y-12106541D01*
X15238532Y-12077970D01*
X15252818Y-12063684D01*
X15281389Y-12049398D01*
X15509960Y-12349398D02*
X15509960Y-12149398D01*
X15509960Y-12177970D02*
X15524246Y-12163684D01*
X15552818Y-12149398D01*
X15595675Y-12149398D01*
X15624246Y-12163684D01*
X15638532Y-12192255D01*
X15638532Y-12349398D01*
X15638532Y-12192255D02*
X15652818Y-12163684D01*
X15681389Y-12149398D01*
X15724246Y-12149398D01*
X15752818Y-12163684D01*
X15767103Y-12192255D01*
X15767103Y-12349398D01*
X15909960Y-12349398D02*
X15909960Y-12149398D01*
X15909960Y-12177970D02*
X15924246Y-12163684D01*
X15952818Y-12149398D01*
X15995675Y-12149398D01*
X16024246Y-12163684D01*
X16038532Y-12192255D01*
X16038532Y-12349398D01*
X16038532Y-12192255D02*
X16052818Y-12163684D01*
X16081389Y-12149398D01*
X16124246Y-12149398D01*
X16152818Y-12163684D01*
X16167103Y-12192255D01*
X16167103Y-12349398D01*
X16752818Y-12035113D02*
X16495675Y-12420827D01*
X17138532Y-12049398D02*
X17167103Y-12049398D01*
X17195675Y-12063684D01*
X17209960Y-12077970D01*
X17224246Y-12106541D01*
X17238532Y-12163684D01*
X17238532Y-12235113D01*
X17224246Y-12292255D01*
X17209960Y-12320827D01*
X17195675Y-12335113D01*
X17167103Y-12349398D01*
X17138532Y-12349398D01*
X17109960Y-12335113D01*
X17095675Y-12320827D01*
X17081389Y-12292255D01*
X17067103Y-12235113D01*
X17067103Y-12163684D01*
X17081389Y-12106541D01*
X17095675Y-12077970D01*
X17109960Y-12063684D01*
X17138532Y-12049398D01*
X17367103Y-12320827D02*
X17381389Y-12335113D01*
X17367103Y-12349398D01*
X17352818Y-12335113D01*
X17367103Y-12320827D01*
X17367103Y-12349398D01*
X17667103Y-12349398D02*
X17495675Y-12349398D01*
X17581389Y-12349398D02*
X17581389Y-12049398D01*
X17552818Y-12092255D01*
X17524246Y-12120827D01*
X17495675Y-12135113D01*
X17781389Y-12077970D02*
X17795675Y-12063684D01*
X17824246Y-12049398D01*
X17895675Y-12049398D01*
X17924246Y-12063684D01*
X17938532Y-12077970D01*
X17952818Y-12106541D01*
X17952818Y-12135113D01*
X17938532Y-12177970D01*
X17767103Y-12349398D01*
X17952818Y-12349398D01*
X18209960Y-12049398D02*
X18152818Y-12049398D01*
X18124246Y-12063684D01*
X18109960Y-12077970D01*
X18081389Y-12120827D01*
X18067103Y-12177970D01*
X18067103Y-12292255D01*
X18081389Y-12320827D01*
X18095675Y-12335113D01*
X18124246Y-12349398D01*
X18181389Y-12349398D01*
X18209960Y-12335113D01*
X18224246Y-12320827D01*
X18238532Y-12292255D01*
X18238532Y-12220827D01*
X18224246Y-12192255D01*
X18209960Y-12177970D01*
X18181389Y-12163684D01*
X18124246Y-12163684D01*
X18095675Y-12177970D01*
X18081389Y-12192255D01*
X18067103Y-12220827D01*
X18352818Y-12049398D02*
X18352818Y-12106541D01*
X18467103Y-12049398D02*
X18467103Y-12106541D01*
X18909960Y-12463684D02*
X18895675Y-12449398D01*
X18867103Y-12406541D01*
X18852818Y-12377970D01*
X18838532Y-12335113D01*
X18824246Y-12263684D01*
X18824246Y-12206541D01*
X18838532Y-12135113D01*
X18852818Y-12092255D01*
X18867103Y-12063684D01*
X18895675Y-12020827D01*
X18909960Y-12006541D01*
X18995675Y-12049398D02*
X19181389Y-12049398D01*
X19081389Y-12163684D01*
X19124246Y-12163684D01*
X19152818Y-12177970D01*
X19167103Y-12192255D01*
X19181389Y-12220827D01*
X19181389Y-12292255D01*
X19167103Y-12320827D01*
X19152818Y-12335113D01*
X19124246Y-12349398D01*
X19038532Y-12349398D01*
X19009960Y-12335113D01*
X18995675Y-12320827D01*
X19538532Y-12349398D02*
X19538532Y-12049398D01*
X19667103Y-12349398D02*
X19667103Y-12192255D01*
X19652818Y-12163684D01*
X19624246Y-12149398D01*
X19581389Y-12149398D01*
X19552818Y-12163684D01*
X19538532Y-12177970D01*
X19852818Y-12349398D02*
X19824246Y-12335113D01*
X19809960Y-12320827D01*
X19795675Y-12292255D01*
X19795675Y-12206541D01*
X19809960Y-12177970D01*
X19824246Y-12163684D01*
X19852818Y-12149398D01*
X19895675Y-12149398D01*
X19924246Y-12163684D01*
X19938532Y-12177970D01*
X19952818Y-12206541D01*
X19952818Y-12292255D01*
X19938532Y-12320827D01*
X19924246Y-12335113D01*
X19895675Y-12349398D01*
X19852818Y-12349398D01*
X20124246Y-12349398D02*
X20095675Y-12335113D01*
X20081389Y-12306541D01*
X20081389Y-12049398D01*
X20352818Y-12335113D02*
X20324246Y-12349398D01*
X20267103Y-12349398D01*
X20238532Y-12335113D01*
X20224246Y-12306541D01*
X20224246Y-12192255D01*
X20238532Y-12163684D01*
X20267103Y-12149398D01*
X20324246Y-12149398D01*
X20352818Y-12163684D01*
X20367103Y-12192255D01*
X20367103Y-12220827D01*
X20224246Y-12249398D01*
X20481389Y-12335113D02*
X20509960Y-12349398D01*
X20567103Y-12349398D01*
X20595675Y-12335113D01*
X20609960Y-12306541D01*
X20609960Y-12292255D01*
X20595675Y-12263684D01*
X20567103Y-12249398D01*
X20524246Y-12249398D01*
X20495675Y-12235113D01*
X20481389Y-12206541D01*
X20481389Y-12192255D01*
X20495675Y-12163684D01*
X20524246Y-12149398D01*
X20567103Y-12149398D01*
X20595675Y-12163684D01*
X20709960Y-12463684D02*
X20724246Y-12449398D01*
X20752818Y-12406541D01*
X20767103Y-12377970D01*
X20781389Y-12335113D01*
X20795675Y-12263684D01*
X20795675Y-12206541D01*
X20781389Y-12135113D01*
X20767103Y-12092255D01*
X20752818Y-12063684D01*
X20724246Y-12020827D01*
X20709960Y-12006541D01*
X21252818Y-12463684D02*
X21238532Y-12449398D01*
X21209960Y-12406541D01*
X21195675Y-12377970D01*
X21181389Y-12335113D01*
X21167103Y-12263684D01*
X21167103Y-12206541D01*
X21181389Y-12135113D01*
X21195675Y-12092255D01*
X21209960Y-12063684D01*
X21238532Y-12020827D01*
X21252818Y-12006541D01*
X21367103Y-12149398D02*
X21367103Y-12349398D01*
X21367103Y-12177970D02*
X21381389Y-12163684D01*
X21409960Y-12149398D01*
X21452818Y-12149398D01*
X21481389Y-12163684D01*
X21495675Y-12192255D01*
X21495675Y-12349398D01*
X21681389Y-12349398D02*
X21652818Y-12335113D01*
X21638532Y-12320827D01*
X21624246Y-12292255D01*
X21624246Y-12206541D01*
X21638532Y-12177970D01*
X21652818Y-12163684D01*
X21681389Y-12149398D01*
X21724246Y-12149398D01*
X21752818Y-12163684D01*
X21767103Y-12177970D01*
X21781389Y-12206541D01*
X21781389Y-12292255D01*
X21767103Y-12320827D01*
X21752818Y-12335113D01*
X21724246Y-12349398D01*
X21681389Y-12349398D01*
X21867103Y-12149398D02*
X21981389Y-12149398D01*
X21909960Y-12049398D02*
X21909960Y-12306541D01*
X21924246Y-12335113D01*
X21952818Y-12349398D01*
X21981389Y-12349398D01*
X22309960Y-12149398D02*
X22309960Y-12449398D01*
X22309960Y-12163684D02*
X22338532Y-12149398D01*
X22395675Y-12149398D01*
X22424246Y-12163684D01*
X22438532Y-12177970D01*
X22452818Y-12206541D01*
X22452818Y-12292255D01*
X22438532Y-12320827D01*
X22424246Y-12335113D01*
X22395675Y-12349398D01*
X22338532Y-12349398D01*
X22309960Y-12335113D01*
X22624246Y-12349398D02*
X22595675Y-12335113D01*
X22581389Y-12306541D01*
X22581389Y-12049398D01*
X22867103Y-12349398D02*
X22867103Y-12192255D01*
X22852818Y-12163684D01*
X22824246Y-12149398D01*
X22767103Y-12149398D01*
X22738532Y-12163684D01*
X22867103Y-12335113D02*
X22838532Y-12349398D01*
X22767103Y-12349398D01*
X22738532Y-12335113D01*
X22724246Y-12306541D01*
X22724246Y-12277970D01*
X22738532Y-12249398D01*
X22767103Y-12235113D01*
X22838532Y-12235113D01*
X22867103Y-12220827D01*
X22967103Y-12149398D02*
X23081389Y-12149398D01*
X23009960Y-12049398D02*
X23009960Y-12306541D01*
X23024246Y-12335113D01*
X23052818Y-12349398D01*
X23081389Y-12349398D01*
X23295675Y-12335113D02*
X23267103Y-12349398D01*
X23209960Y-12349398D01*
X23181389Y-12335113D01*
X23167103Y-12306541D01*
X23167103Y-12192255D01*
X23181389Y-12163684D01*
X23209960Y-12149398D01*
X23267103Y-12149398D01*
X23295675Y-12163684D01*
X23309960Y-12192255D01*
X23309960Y-12220827D01*
X23167103Y-12249398D01*
X23567103Y-12349398D02*
X23567103Y-12049398D01*
X23567103Y-12335113D02*
X23538532Y-12349398D01*
X23481389Y-12349398D01*
X23452818Y-12335113D01*
X23438532Y-12320827D01*
X23424246Y-12292255D01*
X23424246Y-12206541D01*
X23438532Y-12177970D01*
X23452818Y-12163684D01*
X23481389Y-12149398D01*
X23538532Y-12149398D01*
X23567103Y-12163684D01*
X23681389Y-12463684D02*
X23695675Y-12449398D01*
X23724246Y-12406541D01*
X23738532Y-12377970D01*
X23752818Y-12335113D01*
X23767103Y-12263684D01*
X23767103Y-12206541D01*
X23752818Y-12135113D01*
X23738532Y-12092255D01*
X23724246Y-12063684D01*
X23695675Y-12020827D01*
X23681389Y-12006541D01*
M02*
