%TF.GenerationSoftware,KiCad,Pcbnew,(5.1.9)-1*%
%TF.CreationDate,2021-06-07T18:16:05+02:00*%
%TF.ProjectId,AmplificadorV1,416d706c-6966-4696-9361-646f7256312e,rev?*%
%TF.SameCoordinates,Original*%
%TF.FileFunction,Paste,Top*%
%TF.FilePolarity,Positive*%
%FSLAX46Y46*%
G04 Gerber Fmt 4.6, Leading zero omitted, Abs format (unit mm)*
G04 Created by KiCad (PCBNEW (5.1.9)-1) date 2021-06-07 18:16:05*
%MOMM*%
%LPD*%
G01*
G04 APERTURE LIST*
%ADD10R,3.600000X1.270000*%
%ADD11R,4.200000X1.350000*%
G04 APERTURE END LIST*
D10*
%TO.C,J3*%
X175006000Y-101600000D03*
D11*
X174806000Y-98775000D03*
X174806000Y-104425000D03*
%TD*%
D10*
%TO.C,J1*%
X144580000Y-101600000D03*
D11*
X144780000Y-104425000D03*
X144780000Y-98775000D03*
%TD*%
%TO.C,U1*%
G36*
G01*
X159775000Y-101648000D02*
X159775000Y-101293000D01*
G75*
G02*
X159952500Y-101115500I177500J0D01*
G01*
X160307500Y-101115500D01*
G75*
G02*
X160485000Y-101293000I0J-177500D01*
G01*
X160485000Y-101648000D01*
G75*
G02*
X160307500Y-101825500I-177500J0D01*
G01*
X159952500Y-101825500D01*
G75*
G02*
X159775000Y-101648000I0J177500D01*
G01*
G37*
G36*
G01*
X159775000Y-100768000D02*
X159775000Y-100413000D01*
G75*
G02*
X159952500Y-100235500I177500J0D01*
G01*
X160307500Y-100235500D01*
G75*
G02*
X160485000Y-100413000I0J-177500D01*
G01*
X160485000Y-100768000D01*
G75*
G02*
X160307500Y-100945500I-177500J0D01*
G01*
X159952500Y-100945500D01*
G75*
G02*
X159775000Y-100768000I0J177500D01*
G01*
G37*
G36*
G01*
X158895000Y-101648000D02*
X158895000Y-101293000D01*
G75*
G02*
X159072500Y-101115500I177500J0D01*
G01*
X159427500Y-101115500D01*
G75*
G02*
X159605000Y-101293000I0J-177500D01*
G01*
X159605000Y-101648000D01*
G75*
G02*
X159427500Y-101825500I-177500J0D01*
G01*
X159072500Y-101825500D01*
G75*
G02*
X158895000Y-101648000I0J177500D01*
G01*
G37*
G36*
G01*
X158895000Y-100768000D02*
X158895000Y-100413000D01*
G75*
G02*
X159072500Y-100235500I177500J0D01*
G01*
X159427500Y-100235500D01*
G75*
G02*
X159605000Y-100413000I0J-177500D01*
G01*
X159605000Y-100768000D01*
G75*
G02*
X159427500Y-100945500I-177500J0D01*
G01*
X159072500Y-100945500D01*
G75*
G02*
X158895000Y-100768000I0J177500D01*
G01*
G37*
G36*
G01*
X158815000Y-99893000D02*
X158815000Y-99243000D01*
G75*
G02*
X158877500Y-99180500I62500J0D01*
G01*
X159002500Y-99180500D01*
G75*
G02*
X159065000Y-99243000I0J-62500D01*
G01*
X159065000Y-99893000D01*
G75*
G02*
X159002500Y-99955500I-62500J0D01*
G01*
X158877500Y-99955500D01*
G75*
G02*
X158815000Y-99893000I0J62500D01*
G01*
G37*
G36*
G01*
X159315000Y-99893000D02*
X159315000Y-99243000D01*
G75*
G02*
X159377500Y-99180500I62500J0D01*
G01*
X159502500Y-99180500D01*
G75*
G02*
X159565000Y-99243000I0J-62500D01*
G01*
X159565000Y-99893000D01*
G75*
G02*
X159502500Y-99955500I-62500J0D01*
G01*
X159377500Y-99955500D01*
G75*
G02*
X159315000Y-99893000I0J62500D01*
G01*
G37*
G36*
G01*
X159815000Y-99893000D02*
X159815000Y-99243000D01*
G75*
G02*
X159877500Y-99180500I62500J0D01*
G01*
X160002500Y-99180500D01*
G75*
G02*
X160065000Y-99243000I0J-62500D01*
G01*
X160065000Y-99893000D01*
G75*
G02*
X160002500Y-99955500I-62500J0D01*
G01*
X159877500Y-99955500D01*
G75*
G02*
X159815000Y-99893000I0J62500D01*
G01*
G37*
G36*
G01*
X160315000Y-99893000D02*
X160315000Y-99243000D01*
G75*
G02*
X160377500Y-99180500I62500J0D01*
G01*
X160502500Y-99180500D01*
G75*
G02*
X160565000Y-99243000I0J-62500D01*
G01*
X160565000Y-99893000D01*
G75*
G02*
X160502500Y-99955500I-62500J0D01*
G01*
X160377500Y-99955500D01*
G75*
G02*
X160315000Y-99893000I0J62500D01*
G01*
G37*
G36*
G01*
X160765000Y-100343000D02*
X160765000Y-100218000D01*
G75*
G02*
X160827500Y-100155500I62500J0D01*
G01*
X161477500Y-100155500D01*
G75*
G02*
X161540000Y-100218000I0J-62500D01*
G01*
X161540000Y-100343000D01*
G75*
G02*
X161477500Y-100405500I-62500J0D01*
G01*
X160827500Y-100405500D01*
G75*
G02*
X160765000Y-100343000I0J62500D01*
G01*
G37*
G36*
G01*
X160765000Y-100843000D02*
X160765000Y-100718000D01*
G75*
G02*
X160827500Y-100655500I62500J0D01*
G01*
X161477500Y-100655500D01*
G75*
G02*
X161540000Y-100718000I0J-62500D01*
G01*
X161540000Y-100843000D01*
G75*
G02*
X161477500Y-100905500I-62500J0D01*
G01*
X160827500Y-100905500D01*
G75*
G02*
X160765000Y-100843000I0J62500D01*
G01*
G37*
G36*
G01*
X160765000Y-101343000D02*
X160765000Y-101218000D01*
G75*
G02*
X160827500Y-101155500I62500J0D01*
G01*
X161477500Y-101155500D01*
G75*
G02*
X161540000Y-101218000I0J-62500D01*
G01*
X161540000Y-101343000D01*
G75*
G02*
X161477500Y-101405500I-62500J0D01*
G01*
X160827500Y-101405500D01*
G75*
G02*
X160765000Y-101343000I0J62500D01*
G01*
G37*
G36*
G01*
X160765000Y-101843000D02*
X160765000Y-101718000D01*
G75*
G02*
X160827500Y-101655500I62500J0D01*
G01*
X161477500Y-101655500D01*
G75*
G02*
X161540000Y-101718000I0J-62500D01*
G01*
X161540000Y-101843000D01*
G75*
G02*
X161477500Y-101905500I-62500J0D01*
G01*
X160827500Y-101905500D01*
G75*
G02*
X160765000Y-101843000I0J62500D01*
G01*
G37*
G36*
G01*
X160315000Y-102818000D02*
X160315000Y-102168000D01*
G75*
G02*
X160377500Y-102105500I62500J0D01*
G01*
X160502500Y-102105500D01*
G75*
G02*
X160565000Y-102168000I0J-62500D01*
G01*
X160565000Y-102818000D01*
G75*
G02*
X160502500Y-102880500I-62500J0D01*
G01*
X160377500Y-102880500D01*
G75*
G02*
X160315000Y-102818000I0J62500D01*
G01*
G37*
G36*
G01*
X159815000Y-102818000D02*
X159815000Y-102168000D01*
G75*
G02*
X159877500Y-102105500I62500J0D01*
G01*
X160002500Y-102105500D01*
G75*
G02*
X160065000Y-102168000I0J-62500D01*
G01*
X160065000Y-102818000D01*
G75*
G02*
X160002500Y-102880500I-62500J0D01*
G01*
X159877500Y-102880500D01*
G75*
G02*
X159815000Y-102818000I0J62500D01*
G01*
G37*
G36*
G01*
X159315000Y-102818000D02*
X159315000Y-102168000D01*
G75*
G02*
X159377500Y-102105500I62500J0D01*
G01*
X159502500Y-102105500D01*
G75*
G02*
X159565000Y-102168000I0J-62500D01*
G01*
X159565000Y-102818000D01*
G75*
G02*
X159502500Y-102880500I-62500J0D01*
G01*
X159377500Y-102880500D01*
G75*
G02*
X159315000Y-102818000I0J62500D01*
G01*
G37*
G36*
G01*
X158815000Y-102818000D02*
X158815000Y-102168000D01*
G75*
G02*
X158877500Y-102105500I62500J0D01*
G01*
X159002500Y-102105500D01*
G75*
G02*
X159065000Y-102168000I0J-62500D01*
G01*
X159065000Y-102818000D01*
G75*
G02*
X159002500Y-102880500I-62500J0D01*
G01*
X158877500Y-102880500D01*
G75*
G02*
X158815000Y-102818000I0J62500D01*
G01*
G37*
G36*
G01*
X157840000Y-101843000D02*
X157840000Y-101718000D01*
G75*
G02*
X157902500Y-101655500I62500J0D01*
G01*
X158552500Y-101655500D01*
G75*
G02*
X158615000Y-101718000I0J-62500D01*
G01*
X158615000Y-101843000D01*
G75*
G02*
X158552500Y-101905500I-62500J0D01*
G01*
X157902500Y-101905500D01*
G75*
G02*
X157840000Y-101843000I0J62500D01*
G01*
G37*
G36*
G01*
X157840000Y-101343000D02*
X157840000Y-101218000D01*
G75*
G02*
X157902500Y-101155500I62500J0D01*
G01*
X158552500Y-101155500D01*
G75*
G02*
X158615000Y-101218000I0J-62500D01*
G01*
X158615000Y-101343000D01*
G75*
G02*
X158552500Y-101405500I-62500J0D01*
G01*
X157902500Y-101405500D01*
G75*
G02*
X157840000Y-101343000I0J62500D01*
G01*
G37*
G36*
G01*
X157840000Y-100843000D02*
X157840000Y-100718000D01*
G75*
G02*
X157902500Y-100655500I62500J0D01*
G01*
X158552500Y-100655500D01*
G75*
G02*
X158615000Y-100718000I0J-62500D01*
G01*
X158615000Y-100843000D01*
G75*
G02*
X158552500Y-100905500I-62500J0D01*
G01*
X157902500Y-100905500D01*
G75*
G02*
X157840000Y-100843000I0J62500D01*
G01*
G37*
G36*
G01*
X157840000Y-100343000D02*
X157840000Y-100218000D01*
G75*
G02*
X157902500Y-100155500I62500J0D01*
G01*
X158552500Y-100155500D01*
G75*
G02*
X158615000Y-100218000I0J-62500D01*
G01*
X158615000Y-100343000D01*
G75*
G02*
X158552500Y-100405500I-62500J0D01*
G01*
X157902500Y-100405500D01*
G75*
G02*
X157840000Y-100343000I0J62500D01*
G01*
G37*
%TD*%
%TO.C,R1*%
G36*
G01*
X155977000Y-96412000D02*
X155427000Y-96412000D01*
G75*
G02*
X155227000Y-96212000I0J200000D01*
G01*
X155227000Y-95812000D01*
G75*
G02*
X155427000Y-95612000I200000J0D01*
G01*
X155977000Y-95612000D01*
G75*
G02*
X156177000Y-95812000I0J-200000D01*
G01*
X156177000Y-96212000D01*
G75*
G02*
X155977000Y-96412000I-200000J0D01*
G01*
G37*
G36*
G01*
X155977000Y-98062000D02*
X155427000Y-98062000D01*
G75*
G02*
X155227000Y-97862000I0J200000D01*
G01*
X155227000Y-97462000D01*
G75*
G02*
X155427000Y-97262000I200000J0D01*
G01*
X155977000Y-97262000D01*
G75*
G02*
X156177000Y-97462000I0J-200000D01*
G01*
X156177000Y-97862000D01*
G75*
G02*
X155977000Y-98062000I-200000J0D01*
G01*
G37*
%TD*%
%TO.C,33nH1*%
G36*
G01*
X148671500Y-102298000D02*
X149016500Y-102298000D01*
G75*
G02*
X149164000Y-102445500I0J-147500D01*
G01*
X149164000Y-102740500D01*
G75*
G02*
X149016500Y-102888000I-147500J0D01*
G01*
X148671500Y-102888000D01*
G75*
G02*
X148524000Y-102740500I0J147500D01*
G01*
X148524000Y-102445500D01*
G75*
G02*
X148671500Y-102298000I147500J0D01*
G01*
G37*
G36*
G01*
X148671500Y-101328000D02*
X149016500Y-101328000D01*
G75*
G02*
X149164000Y-101475500I0J-147500D01*
G01*
X149164000Y-101770500D01*
G75*
G02*
X149016500Y-101918000I-147500J0D01*
G01*
X148671500Y-101918000D01*
G75*
G02*
X148524000Y-101770500I0J147500D01*
G01*
X148524000Y-101475500D01*
G75*
G02*
X148671500Y-101328000I147500J0D01*
G01*
G37*
%TD*%
%TO.C,2.0pF1*%
G36*
G01*
X151122000Y-101125000D02*
X151122000Y-102075000D01*
G75*
G02*
X150872000Y-102325000I-250000J0D01*
G01*
X150372000Y-102325000D01*
G75*
G02*
X150122000Y-102075000I0J250000D01*
G01*
X150122000Y-101125000D01*
G75*
G02*
X150372000Y-100875000I250000J0D01*
G01*
X150872000Y-100875000D01*
G75*
G02*
X151122000Y-101125000I0J-250000D01*
G01*
G37*
G36*
G01*
X153022000Y-101125000D02*
X153022000Y-102075000D01*
G75*
G02*
X152772000Y-102325000I-250000J0D01*
G01*
X152272000Y-102325000D01*
G75*
G02*
X152022000Y-102075000I0J250000D01*
G01*
X152022000Y-101125000D01*
G75*
G02*
X152272000Y-100875000I250000J0D01*
G01*
X152772000Y-100875000D01*
G75*
G02*
X153022000Y-101125000I0J-250000D01*
G01*
G37*
%TD*%
%TO.C,18pF1*%
G36*
G01*
X166818000Y-100949999D02*
X166818000Y-102250001D01*
G75*
G02*
X166568001Y-102500000I-249999J0D01*
G01*
X165917999Y-102500000D01*
G75*
G02*
X165668000Y-102250001I0J249999D01*
G01*
X165668000Y-100949999D01*
G75*
G02*
X165917999Y-100700000I249999J0D01*
G01*
X166568001Y-100700000D01*
G75*
G02*
X166818000Y-100949999I0J-249999D01*
G01*
G37*
G36*
G01*
X169768000Y-100949999D02*
X169768000Y-102250001D01*
G75*
G02*
X169518001Y-102500000I-249999J0D01*
G01*
X168867999Y-102500000D01*
G75*
G02*
X168618000Y-102250001I0J249999D01*
G01*
X168618000Y-100949999D01*
G75*
G02*
X168867999Y-100700000I249999J0D01*
G01*
X169518001Y-100700000D01*
G75*
G02*
X169768000Y-100949999I0J-249999D01*
G01*
G37*
%TD*%
%TO.C,15nH1*%
G36*
G01*
X164129500Y-100925000D02*
X163784500Y-100925000D01*
G75*
G02*
X163637000Y-100777500I0J147500D01*
G01*
X163637000Y-100482500D01*
G75*
G02*
X163784500Y-100335000I147500J0D01*
G01*
X164129500Y-100335000D01*
G75*
G02*
X164277000Y-100482500I0J-147500D01*
G01*
X164277000Y-100777500D01*
G75*
G02*
X164129500Y-100925000I-147500J0D01*
G01*
G37*
G36*
G01*
X164129500Y-101895000D02*
X163784500Y-101895000D01*
G75*
G02*
X163637000Y-101747500I0J147500D01*
G01*
X163637000Y-101452500D01*
G75*
G02*
X163784500Y-101305000I147500J0D01*
G01*
X164129500Y-101305000D01*
G75*
G02*
X164277000Y-101452500I0J-147500D01*
G01*
X164277000Y-101747500D01*
G75*
G02*
X164129500Y-101895000I-147500J0D01*
G01*
G37*
%TD*%
%TO.C,100pF1*%
G36*
G01*
X164203000Y-95537000D02*
X164203000Y-96487000D01*
G75*
G02*
X163953000Y-96737000I-250000J0D01*
G01*
X163453000Y-96737000D01*
G75*
G02*
X163203000Y-96487000I0J250000D01*
G01*
X163203000Y-95537000D01*
G75*
G02*
X163453000Y-95287000I250000J0D01*
G01*
X163953000Y-95287000D01*
G75*
G02*
X164203000Y-95537000I0J-250000D01*
G01*
G37*
G36*
G01*
X166103000Y-95537000D02*
X166103000Y-96487000D01*
G75*
G02*
X165853000Y-96737000I-250000J0D01*
G01*
X165353000Y-96737000D01*
G75*
G02*
X165103000Y-96487000I0J250000D01*
G01*
X165103000Y-95537000D01*
G75*
G02*
X165353000Y-95287000I250000J0D01*
G01*
X165853000Y-95287000D01*
G75*
G02*
X166103000Y-95537000I0J-250000D01*
G01*
G37*
%TD*%
%TO.C,1.8pF1*%
G36*
G01*
X154055000Y-102700000D02*
X154555000Y-102700000D01*
G75*
G02*
X154780000Y-102925000I0J-225000D01*
G01*
X154780000Y-103375000D01*
G75*
G02*
X154555000Y-103600000I-225000J0D01*
G01*
X154055000Y-103600000D01*
G75*
G02*
X153830000Y-103375000I0J225000D01*
G01*
X153830000Y-102925000D01*
G75*
G02*
X154055000Y-102700000I225000J0D01*
G01*
G37*
G36*
G01*
X154055000Y-101150000D02*
X154555000Y-101150000D01*
G75*
G02*
X154780000Y-101375000I0J-225000D01*
G01*
X154780000Y-101825000D01*
G75*
G02*
X154555000Y-102050000I-225000J0D01*
G01*
X154055000Y-102050000D01*
G75*
G02*
X153830000Y-101825000I0J225000D01*
G01*
X153830000Y-101375000D01*
G75*
G02*
X154055000Y-101150000I225000J0D01*
G01*
G37*
%TD*%
%TO.C,0.1uF1*%
G36*
G01*
X164011000Y-93429000D02*
X164011000Y-93769000D01*
G75*
G02*
X163871000Y-93909000I-140000J0D01*
G01*
X163591000Y-93909000D01*
G75*
G02*
X163451000Y-93769000I0J140000D01*
G01*
X163451000Y-93429000D01*
G75*
G02*
X163591000Y-93289000I140000J0D01*
G01*
X163871000Y-93289000D01*
G75*
G02*
X164011000Y-93429000I0J-140000D01*
G01*
G37*
G36*
G01*
X164971000Y-93429000D02*
X164971000Y-93769000D01*
G75*
G02*
X164831000Y-93909000I-140000J0D01*
G01*
X164551000Y-93909000D01*
G75*
G02*
X164411000Y-93769000I0J140000D01*
G01*
X164411000Y-93429000D01*
G75*
G02*
X164551000Y-93289000I140000J0D01*
G01*
X164831000Y-93289000D01*
G75*
G02*
X164971000Y-93429000I0J-140000D01*
G01*
G37*
%TD*%
M02*
