%TF.GenerationSoftware,KiCad,Pcbnew,(5.1.9)-1*%
%TF.CreationDate,2021-06-07T18:16:05+02:00*%
%TF.ProjectId,AmplificadorV1,416d706c-6966-4696-9361-646f7256312e,rev?*%
%TF.SameCoordinates,Original*%
%TF.FileFunction,Copper,L3,Inr*%
%TF.FilePolarity,Positive*%
%FSLAX46Y46*%
G04 Gerber Fmt 4.6, Leading zero omitted, Abs format (unit mm)*
G04 Created by KiCad (PCBNEW (5.1.9)-1) date 2021-06-07 18:16:05*
%MOMM*%
%LPD*%
G01*
G04 APERTURE LIST*
%TA.AperFunction,ComponentPad*%
%ADD10C,3.000000*%
%TD*%
%TA.AperFunction,ComponentPad*%
%ADD11R,3.000000X3.000000*%
%TD*%
%TA.AperFunction,ViaPad*%
%ADD12C,0.800000*%
%TD*%
%TA.AperFunction,Conductor*%
%ADD13C,0.254000*%
%TD*%
%TA.AperFunction,Conductor*%
%ADD14C,0.100000*%
%TD*%
G04 APERTURE END LIST*
D10*
%TO.N,GND*%
%TO.C,J2*%
X164592000Y-87884000D03*
D11*
%TO.N,VDD*%
X159512000Y-87884000D03*
%TD*%
D12*
%TO.N,*%
X159690000Y-101030500D03*
%TO.N,GND*%
X168148000Y-85852000D03*
X168148000Y-87884000D03*
X168148000Y-89662000D03*
X175691800Y-96484440D03*
X174360840Y-107045760D03*
X175828960Y-107035600D03*
X172953680Y-107045760D03*
X143510000Y-107696000D03*
X145288000Y-107696000D03*
X147066000Y-107696000D03*
X143510000Y-95758000D03*
X145542000Y-95758000D03*
X147320000Y-95758000D03*
%TO.N,Net-(U1-Pad16)*%
X157988000Y-98552000D03*
%TO.N,Net-(U1-Pad15)*%
X159004000Y-98552000D03*
%TO.N,Net-(U1-Pad13)*%
X161290000Y-98552000D03*
%TO.N,Net-(U1-Pad8)*%
X161036000Y-103632000D03*
%TO.N,Net-(U1-Pad6)*%
X159004000Y-103632000D03*
%TO.N,Net-(U1-Pad5)*%
X157988000Y-103632000D03*
%TO.N,GND*%
X167894000Y-96012000D03*
X173283880Y-96535240D03*
X174625000Y-96535240D03*
X148844000Y-104648000D03*
X153924000Y-104648000D03*
X167640000Y-93472000D03*
%TO.N,Net-(U1-Pad2)*%
X157226000Y-100838000D03*
%TO.N,Net-(U1-Pad7)*%
X160020000Y-103632000D03*
%TO.N,Net-(U1-Pad12)*%
X162306000Y-99822000D03*
%TO.N,Net-(U1-Pad11)*%
X162306000Y-100838000D03*
%TO.N,Net-(U1-Pad14)*%
X160274000Y-98552000D03*
%TD*%
D13*
%TO.N,GND*%
X176871659Y-84302892D02*
X176684729Y-84115962D01*
X176318669Y-83871369D01*
X175911925Y-83702890D01*
X175480128Y-83617000D01*
X175039872Y-83617000D01*
X174608075Y-83702890D01*
X174201331Y-83871369D01*
X173835271Y-84115962D01*
X173523962Y-84427271D01*
X173279369Y-84793331D01*
X173110890Y-85200075D01*
X173025000Y-85631872D01*
X173025000Y-86072128D01*
X173110890Y-86503925D01*
X173279369Y-86910669D01*
X173523962Y-87276729D01*
X173835271Y-87588038D01*
X174201331Y-87832631D01*
X174608075Y-88001110D01*
X175039872Y-88087000D01*
X175480128Y-88087000D01*
X175911925Y-88001110D01*
X176318669Y-87832631D01*
X176684729Y-87588038D01*
X176872118Y-87400649D01*
X176875742Y-111851175D01*
X142921005Y-111816946D01*
X142923932Y-108999872D01*
X157785000Y-108999872D01*
X157785000Y-109440128D01*
X157870890Y-109871925D01*
X158039369Y-110278669D01*
X158283962Y-110644729D01*
X158595271Y-110956038D01*
X158961331Y-111200631D01*
X159368075Y-111369110D01*
X159799872Y-111455000D01*
X160240128Y-111455000D01*
X160671925Y-111369110D01*
X161078669Y-111200631D01*
X161444729Y-110956038D01*
X161756038Y-110644729D01*
X162000631Y-110278669D01*
X162169110Y-109871925D01*
X162255000Y-109440128D01*
X162255000Y-108999872D01*
X162169110Y-108568075D01*
X162000631Y-108161331D01*
X161756038Y-107795271D01*
X161444729Y-107483962D01*
X161078669Y-107239369D01*
X160671925Y-107070890D01*
X160240128Y-106985000D01*
X159799872Y-106985000D01*
X159368075Y-107070890D01*
X158961331Y-107239369D01*
X158595271Y-107483962D01*
X158283962Y-107795271D01*
X158039369Y-108161331D01*
X157870890Y-108568075D01*
X157785000Y-108999872D01*
X142923932Y-108999872D01*
X142929618Y-103530061D01*
X156953000Y-103530061D01*
X156953000Y-103733939D01*
X156992774Y-103933898D01*
X157070795Y-104122256D01*
X157184063Y-104291774D01*
X157328226Y-104435937D01*
X157497744Y-104549205D01*
X157686102Y-104627226D01*
X157886061Y-104667000D01*
X158089939Y-104667000D01*
X158289898Y-104627226D01*
X158478256Y-104549205D01*
X158496000Y-104537349D01*
X158513744Y-104549205D01*
X158702102Y-104627226D01*
X158902061Y-104667000D01*
X159105939Y-104667000D01*
X159305898Y-104627226D01*
X159494256Y-104549205D01*
X159512000Y-104537349D01*
X159529744Y-104549205D01*
X159718102Y-104627226D01*
X159918061Y-104667000D01*
X160121939Y-104667000D01*
X160321898Y-104627226D01*
X160510256Y-104549205D01*
X160528000Y-104537349D01*
X160545744Y-104549205D01*
X160734102Y-104627226D01*
X160934061Y-104667000D01*
X161137939Y-104667000D01*
X161337898Y-104627226D01*
X161526256Y-104549205D01*
X161695774Y-104435937D01*
X161839937Y-104291774D01*
X161953205Y-104122256D01*
X162031226Y-103933898D01*
X162071000Y-103733939D01*
X162071000Y-103530061D01*
X162031226Y-103330102D01*
X161953205Y-103141744D01*
X161839937Y-102972226D01*
X161695774Y-102828063D01*
X161526256Y-102714795D01*
X161337898Y-102636774D01*
X161137939Y-102597000D01*
X160934061Y-102597000D01*
X160734102Y-102636774D01*
X160545744Y-102714795D01*
X160528000Y-102726651D01*
X160510256Y-102714795D01*
X160321898Y-102636774D01*
X160121939Y-102597000D01*
X159918061Y-102597000D01*
X159718102Y-102636774D01*
X159529744Y-102714795D01*
X159512000Y-102726651D01*
X159494256Y-102714795D01*
X159305898Y-102636774D01*
X159105939Y-102597000D01*
X158902061Y-102597000D01*
X158702102Y-102636774D01*
X158513744Y-102714795D01*
X158496000Y-102726651D01*
X158478256Y-102714795D01*
X158289898Y-102636774D01*
X158089939Y-102597000D01*
X157886061Y-102597000D01*
X157686102Y-102636774D01*
X157497744Y-102714795D01*
X157328226Y-102828063D01*
X157184063Y-102972226D01*
X157070795Y-103141744D01*
X156992774Y-103330102D01*
X156953000Y-103530061D01*
X142929618Y-103530061D01*
X142932523Y-100736061D01*
X156191000Y-100736061D01*
X156191000Y-100939939D01*
X156230774Y-101139898D01*
X156308795Y-101328256D01*
X156422063Y-101497774D01*
X156566226Y-101641937D01*
X156735744Y-101755205D01*
X156924102Y-101833226D01*
X157124061Y-101873000D01*
X157327939Y-101873000D01*
X157527898Y-101833226D01*
X157716256Y-101755205D01*
X157885774Y-101641937D01*
X158029937Y-101497774D01*
X158143205Y-101328256D01*
X158221226Y-101139898D01*
X158261000Y-100939939D01*
X158261000Y-100928561D01*
X158655000Y-100928561D01*
X158655000Y-101132439D01*
X158694774Y-101332398D01*
X158772795Y-101520756D01*
X158886063Y-101690274D01*
X159030226Y-101834437D01*
X159199744Y-101947705D01*
X159388102Y-102025726D01*
X159588061Y-102065500D01*
X159791939Y-102065500D01*
X159991898Y-102025726D01*
X160180256Y-101947705D01*
X160349774Y-101834437D01*
X160493937Y-101690274D01*
X160607205Y-101520756D01*
X160685226Y-101332398D01*
X160725000Y-101132439D01*
X160725000Y-100928561D01*
X160685226Y-100728602D01*
X160607205Y-100540244D01*
X160493937Y-100370726D01*
X160349774Y-100226563D01*
X160180256Y-100113295D01*
X159991898Y-100035274D01*
X159791939Y-99995500D01*
X159588061Y-99995500D01*
X159388102Y-100035274D01*
X159199744Y-100113295D01*
X159030226Y-100226563D01*
X158886063Y-100370726D01*
X158772795Y-100540244D01*
X158694774Y-100728602D01*
X158655000Y-100928561D01*
X158261000Y-100928561D01*
X158261000Y-100736061D01*
X158221226Y-100536102D01*
X158143205Y-100347744D01*
X158029937Y-100178226D01*
X157885774Y-100034063D01*
X157716256Y-99920795D01*
X157527898Y-99842774D01*
X157327939Y-99803000D01*
X157124061Y-99803000D01*
X156924102Y-99842774D01*
X156735744Y-99920795D01*
X156566226Y-100034063D01*
X156422063Y-100178226D01*
X156308795Y-100347744D01*
X156230774Y-100536102D01*
X156191000Y-100736061D01*
X142932523Y-100736061D01*
X142934899Y-98450061D01*
X156953000Y-98450061D01*
X156953000Y-98653939D01*
X156992774Y-98853898D01*
X157070795Y-99042256D01*
X157184063Y-99211774D01*
X157328226Y-99355937D01*
X157497744Y-99469205D01*
X157686102Y-99547226D01*
X157886061Y-99587000D01*
X158089939Y-99587000D01*
X158289898Y-99547226D01*
X158478256Y-99469205D01*
X158496000Y-99457349D01*
X158513744Y-99469205D01*
X158702102Y-99547226D01*
X158902061Y-99587000D01*
X159105939Y-99587000D01*
X159305898Y-99547226D01*
X159494256Y-99469205D01*
X159639000Y-99372490D01*
X159783744Y-99469205D01*
X159972102Y-99547226D01*
X160172061Y-99587000D01*
X160375939Y-99587000D01*
X160575898Y-99547226D01*
X160764256Y-99469205D01*
X160782000Y-99457349D01*
X160799744Y-99469205D01*
X160988102Y-99547226D01*
X161188061Y-99587000D01*
X161297467Y-99587000D01*
X161271000Y-99720061D01*
X161271000Y-99923939D01*
X161310774Y-100123898D01*
X161388795Y-100312256D01*
X161400651Y-100330000D01*
X161388795Y-100347744D01*
X161310774Y-100536102D01*
X161271000Y-100736061D01*
X161271000Y-100939939D01*
X161310774Y-101139898D01*
X161388795Y-101328256D01*
X161502063Y-101497774D01*
X161646226Y-101641937D01*
X161815744Y-101755205D01*
X162004102Y-101833226D01*
X162204061Y-101873000D01*
X162407939Y-101873000D01*
X162607898Y-101833226D01*
X162796256Y-101755205D01*
X162965774Y-101641937D01*
X163109937Y-101497774D01*
X163223205Y-101328256D01*
X163301226Y-101139898D01*
X163341000Y-100939939D01*
X163341000Y-100736061D01*
X163301226Y-100536102D01*
X163223205Y-100347744D01*
X163211349Y-100330000D01*
X163223205Y-100312256D01*
X163301226Y-100123898D01*
X163341000Y-99923939D01*
X163341000Y-99720061D01*
X163301226Y-99520102D01*
X163223205Y-99331744D01*
X163109937Y-99162226D01*
X162965774Y-99018063D01*
X162796256Y-98904795D01*
X162607898Y-98826774D01*
X162407939Y-98787000D01*
X162298533Y-98787000D01*
X162325000Y-98653939D01*
X162325000Y-98450061D01*
X162285226Y-98250102D01*
X162207205Y-98061744D01*
X162093937Y-97892226D01*
X161949774Y-97748063D01*
X161780256Y-97634795D01*
X161591898Y-97556774D01*
X161391939Y-97517000D01*
X161188061Y-97517000D01*
X160988102Y-97556774D01*
X160799744Y-97634795D01*
X160782000Y-97646651D01*
X160764256Y-97634795D01*
X160575898Y-97556774D01*
X160375939Y-97517000D01*
X160172061Y-97517000D01*
X159972102Y-97556774D01*
X159783744Y-97634795D01*
X159639000Y-97731510D01*
X159494256Y-97634795D01*
X159305898Y-97556774D01*
X159105939Y-97517000D01*
X158902061Y-97517000D01*
X158702102Y-97556774D01*
X158513744Y-97634795D01*
X158496000Y-97646651D01*
X158478256Y-97634795D01*
X158289898Y-97556774D01*
X158089939Y-97517000D01*
X157886061Y-97517000D01*
X157686102Y-97556774D01*
X157497744Y-97634795D01*
X157328226Y-97748063D01*
X157184063Y-97892226D01*
X157070795Y-98061744D01*
X156992774Y-98250102D01*
X156953000Y-98450061D01*
X142934899Y-98450061D01*
X142946616Y-87179383D01*
X143101271Y-87334038D01*
X143467331Y-87578631D01*
X143874075Y-87747110D01*
X144305872Y-87833000D01*
X144746128Y-87833000D01*
X145177925Y-87747110D01*
X145584669Y-87578631D01*
X145950729Y-87334038D01*
X146262038Y-87022729D01*
X146506631Y-86656669D01*
X146619574Y-86384000D01*
X157373928Y-86384000D01*
X157373928Y-89384000D01*
X157386188Y-89508482D01*
X157422498Y-89628180D01*
X157481463Y-89738494D01*
X157560815Y-89835185D01*
X157657506Y-89914537D01*
X157767820Y-89973502D01*
X157887518Y-90009812D01*
X158012000Y-90022072D01*
X161012000Y-90022072D01*
X161136482Y-90009812D01*
X161256180Y-89973502D01*
X161366494Y-89914537D01*
X161463185Y-89835185D01*
X161542537Y-89738494D01*
X161601502Y-89628180D01*
X161637812Y-89508482D01*
X161650072Y-89384000D01*
X161650072Y-89375653D01*
X163279952Y-89375653D01*
X163435962Y-89691214D01*
X163810745Y-89882020D01*
X164215551Y-89996044D01*
X164634824Y-90028902D01*
X165052451Y-89979334D01*
X165452383Y-89849243D01*
X165748038Y-89691214D01*
X165904048Y-89375653D01*
X164592000Y-88063605D01*
X163279952Y-89375653D01*
X161650072Y-89375653D01*
X161650072Y-87926824D01*
X162447098Y-87926824D01*
X162496666Y-88344451D01*
X162626757Y-88744383D01*
X162784786Y-89040038D01*
X163100347Y-89196048D01*
X164412395Y-87884000D01*
X164771605Y-87884000D01*
X166083653Y-89196048D01*
X166399214Y-89040038D01*
X166590020Y-88665255D01*
X166704044Y-88260449D01*
X166736902Y-87841176D01*
X166687334Y-87423549D01*
X166557243Y-87023617D01*
X166399214Y-86727962D01*
X166083653Y-86571952D01*
X164771605Y-87884000D01*
X164412395Y-87884000D01*
X163100347Y-86571952D01*
X162784786Y-86727962D01*
X162593980Y-87102745D01*
X162479956Y-87507551D01*
X162447098Y-87926824D01*
X161650072Y-87926824D01*
X161650072Y-86392347D01*
X163279952Y-86392347D01*
X164592000Y-87704395D01*
X165904048Y-86392347D01*
X165748038Y-86076786D01*
X165373255Y-85885980D01*
X164968449Y-85771956D01*
X164549176Y-85739098D01*
X164131549Y-85788666D01*
X163731617Y-85918757D01*
X163435962Y-86076786D01*
X163279952Y-86392347D01*
X161650072Y-86392347D01*
X161650072Y-86384000D01*
X161637812Y-86259518D01*
X161601502Y-86139820D01*
X161542537Y-86029506D01*
X161463185Y-85932815D01*
X161366494Y-85853463D01*
X161256180Y-85794498D01*
X161136482Y-85758188D01*
X161012000Y-85745928D01*
X158012000Y-85745928D01*
X157887518Y-85758188D01*
X157767820Y-85794498D01*
X157657506Y-85853463D01*
X157560815Y-85932815D01*
X157481463Y-86029506D01*
X157422498Y-86139820D01*
X157386188Y-86259518D01*
X157373928Y-86384000D01*
X146619574Y-86384000D01*
X146675110Y-86249925D01*
X146761000Y-85818128D01*
X146761000Y-85377872D01*
X146675110Y-84946075D01*
X146506631Y-84539331D01*
X146262038Y-84173271D01*
X145950729Y-83861962D01*
X145584669Y-83617369D01*
X145177925Y-83448890D01*
X144746128Y-83363000D01*
X144305872Y-83363000D01*
X143874075Y-83448890D01*
X143467331Y-83617369D01*
X143101271Y-83861962D01*
X142949907Y-84013326D01*
X142955194Y-78927085D01*
X176870859Y-78902635D01*
X176871659Y-84302892D01*
%TA.AperFunction,Conductor*%
D14*
G36*
X176871659Y-84302892D02*
G01*
X176684729Y-84115962D01*
X176318669Y-83871369D01*
X175911925Y-83702890D01*
X175480128Y-83617000D01*
X175039872Y-83617000D01*
X174608075Y-83702890D01*
X174201331Y-83871369D01*
X173835271Y-84115962D01*
X173523962Y-84427271D01*
X173279369Y-84793331D01*
X173110890Y-85200075D01*
X173025000Y-85631872D01*
X173025000Y-86072128D01*
X173110890Y-86503925D01*
X173279369Y-86910669D01*
X173523962Y-87276729D01*
X173835271Y-87588038D01*
X174201331Y-87832631D01*
X174608075Y-88001110D01*
X175039872Y-88087000D01*
X175480128Y-88087000D01*
X175911925Y-88001110D01*
X176318669Y-87832631D01*
X176684729Y-87588038D01*
X176872118Y-87400649D01*
X176875742Y-111851175D01*
X142921005Y-111816946D01*
X142923932Y-108999872D01*
X157785000Y-108999872D01*
X157785000Y-109440128D01*
X157870890Y-109871925D01*
X158039369Y-110278669D01*
X158283962Y-110644729D01*
X158595271Y-110956038D01*
X158961331Y-111200631D01*
X159368075Y-111369110D01*
X159799872Y-111455000D01*
X160240128Y-111455000D01*
X160671925Y-111369110D01*
X161078669Y-111200631D01*
X161444729Y-110956038D01*
X161756038Y-110644729D01*
X162000631Y-110278669D01*
X162169110Y-109871925D01*
X162255000Y-109440128D01*
X162255000Y-108999872D01*
X162169110Y-108568075D01*
X162000631Y-108161331D01*
X161756038Y-107795271D01*
X161444729Y-107483962D01*
X161078669Y-107239369D01*
X160671925Y-107070890D01*
X160240128Y-106985000D01*
X159799872Y-106985000D01*
X159368075Y-107070890D01*
X158961331Y-107239369D01*
X158595271Y-107483962D01*
X158283962Y-107795271D01*
X158039369Y-108161331D01*
X157870890Y-108568075D01*
X157785000Y-108999872D01*
X142923932Y-108999872D01*
X142929618Y-103530061D01*
X156953000Y-103530061D01*
X156953000Y-103733939D01*
X156992774Y-103933898D01*
X157070795Y-104122256D01*
X157184063Y-104291774D01*
X157328226Y-104435937D01*
X157497744Y-104549205D01*
X157686102Y-104627226D01*
X157886061Y-104667000D01*
X158089939Y-104667000D01*
X158289898Y-104627226D01*
X158478256Y-104549205D01*
X158496000Y-104537349D01*
X158513744Y-104549205D01*
X158702102Y-104627226D01*
X158902061Y-104667000D01*
X159105939Y-104667000D01*
X159305898Y-104627226D01*
X159494256Y-104549205D01*
X159512000Y-104537349D01*
X159529744Y-104549205D01*
X159718102Y-104627226D01*
X159918061Y-104667000D01*
X160121939Y-104667000D01*
X160321898Y-104627226D01*
X160510256Y-104549205D01*
X160528000Y-104537349D01*
X160545744Y-104549205D01*
X160734102Y-104627226D01*
X160934061Y-104667000D01*
X161137939Y-104667000D01*
X161337898Y-104627226D01*
X161526256Y-104549205D01*
X161695774Y-104435937D01*
X161839937Y-104291774D01*
X161953205Y-104122256D01*
X162031226Y-103933898D01*
X162071000Y-103733939D01*
X162071000Y-103530061D01*
X162031226Y-103330102D01*
X161953205Y-103141744D01*
X161839937Y-102972226D01*
X161695774Y-102828063D01*
X161526256Y-102714795D01*
X161337898Y-102636774D01*
X161137939Y-102597000D01*
X160934061Y-102597000D01*
X160734102Y-102636774D01*
X160545744Y-102714795D01*
X160528000Y-102726651D01*
X160510256Y-102714795D01*
X160321898Y-102636774D01*
X160121939Y-102597000D01*
X159918061Y-102597000D01*
X159718102Y-102636774D01*
X159529744Y-102714795D01*
X159512000Y-102726651D01*
X159494256Y-102714795D01*
X159305898Y-102636774D01*
X159105939Y-102597000D01*
X158902061Y-102597000D01*
X158702102Y-102636774D01*
X158513744Y-102714795D01*
X158496000Y-102726651D01*
X158478256Y-102714795D01*
X158289898Y-102636774D01*
X158089939Y-102597000D01*
X157886061Y-102597000D01*
X157686102Y-102636774D01*
X157497744Y-102714795D01*
X157328226Y-102828063D01*
X157184063Y-102972226D01*
X157070795Y-103141744D01*
X156992774Y-103330102D01*
X156953000Y-103530061D01*
X142929618Y-103530061D01*
X142932523Y-100736061D01*
X156191000Y-100736061D01*
X156191000Y-100939939D01*
X156230774Y-101139898D01*
X156308795Y-101328256D01*
X156422063Y-101497774D01*
X156566226Y-101641937D01*
X156735744Y-101755205D01*
X156924102Y-101833226D01*
X157124061Y-101873000D01*
X157327939Y-101873000D01*
X157527898Y-101833226D01*
X157716256Y-101755205D01*
X157885774Y-101641937D01*
X158029937Y-101497774D01*
X158143205Y-101328256D01*
X158221226Y-101139898D01*
X158261000Y-100939939D01*
X158261000Y-100928561D01*
X158655000Y-100928561D01*
X158655000Y-101132439D01*
X158694774Y-101332398D01*
X158772795Y-101520756D01*
X158886063Y-101690274D01*
X159030226Y-101834437D01*
X159199744Y-101947705D01*
X159388102Y-102025726D01*
X159588061Y-102065500D01*
X159791939Y-102065500D01*
X159991898Y-102025726D01*
X160180256Y-101947705D01*
X160349774Y-101834437D01*
X160493937Y-101690274D01*
X160607205Y-101520756D01*
X160685226Y-101332398D01*
X160725000Y-101132439D01*
X160725000Y-100928561D01*
X160685226Y-100728602D01*
X160607205Y-100540244D01*
X160493937Y-100370726D01*
X160349774Y-100226563D01*
X160180256Y-100113295D01*
X159991898Y-100035274D01*
X159791939Y-99995500D01*
X159588061Y-99995500D01*
X159388102Y-100035274D01*
X159199744Y-100113295D01*
X159030226Y-100226563D01*
X158886063Y-100370726D01*
X158772795Y-100540244D01*
X158694774Y-100728602D01*
X158655000Y-100928561D01*
X158261000Y-100928561D01*
X158261000Y-100736061D01*
X158221226Y-100536102D01*
X158143205Y-100347744D01*
X158029937Y-100178226D01*
X157885774Y-100034063D01*
X157716256Y-99920795D01*
X157527898Y-99842774D01*
X157327939Y-99803000D01*
X157124061Y-99803000D01*
X156924102Y-99842774D01*
X156735744Y-99920795D01*
X156566226Y-100034063D01*
X156422063Y-100178226D01*
X156308795Y-100347744D01*
X156230774Y-100536102D01*
X156191000Y-100736061D01*
X142932523Y-100736061D01*
X142934899Y-98450061D01*
X156953000Y-98450061D01*
X156953000Y-98653939D01*
X156992774Y-98853898D01*
X157070795Y-99042256D01*
X157184063Y-99211774D01*
X157328226Y-99355937D01*
X157497744Y-99469205D01*
X157686102Y-99547226D01*
X157886061Y-99587000D01*
X158089939Y-99587000D01*
X158289898Y-99547226D01*
X158478256Y-99469205D01*
X158496000Y-99457349D01*
X158513744Y-99469205D01*
X158702102Y-99547226D01*
X158902061Y-99587000D01*
X159105939Y-99587000D01*
X159305898Y-99547226D01*
X159494256Y-99469205D01*
X159639000Y-99372490D01*
X159783744Y-99469205D01*
X159972102Y-99547226D01*
X160172061Y-99587000D01*
X160375939Y-99587000D01*
X160575898Y-99547226D01*
X160764256Y-99469205D01*
X160782000Y-99457349D01*
X160799744Y-99469205D01*
X160988102Y-99547226D01*
X161188061Y-99587000D01*
X161297467Y-99587000D01*
X161271000Y-99720061D01*
X161271000Y-99923939D01*
X161310774Y-100123898D01*
X161388795Y-100312256D01*
X161400651Y-100330000D01*
X161388795Y-100347744D01*
X161310774Y-100536102D01*
X161271000Y-100736061D01*
X161271000Y-100939939D01*
X161310774Y-101139898D01*
X161388795Y-101328256D01*
X161502063Y-101497774D01*
X161646226Y-101641937D01*
X161815744Y-101755205D01*
X162004102Y-101833226D01*
X162204061Y-101873000D01*
X162407939Y-101873000D01*
X162607898Y-101833226D01*
X162796256Y-101755205D01*
X162965774Y-101641937D01*
X163109937Y-101497774D01*
X163223205Y-101328256D01*
X163301226Y-101139898D01*
X163341000Y-100939939D01*
X163341000Y-100736061D01*
X163301226Y-100536102D01*
X163223205Y-100347744D01*
X163211349Y-100330000D01*
X163223205Y-100312256D01*
X163301226Y-100123898D01*
X163341000Y-99923939D01*
X163341000Y-99720061D01*
X163301226Y-99520102D01*
X163223205Y-99331744D01*
X163109937Y-99162226D01*
X162965774Y-99018063D01*
X162796256Y-98904795D01*
X162607898Y-98826774D01*
X162407939Y-98787000D01*
X162298533Y-98787000D01*
X162325000Y-98653939D01*
X162325000Y-98450061D01*
X162285226Y-98250102D01*
X162207205Y-98061744D01*
X162093937Y-97892226D01*
X161949774Y-97748063D01*
X161780256Y-97634795D01*
X161591898Y-97556774D01*
X161391939Y-97517000D01*
X161188061Y-97517000D01*
X160988102Y-97556774D01*
X160799744Y-97634795D01*
X160782000Y-97646651D01*
X160764256Y-97634795D01*
X160575898Y-97556774D01*
X160375939Y-97517000D01*
X160172061Y-97517000D01*
X159972102Y-97556774D01*
X159783744Y-97634795D01*
X159639000Y-97731510D01*
X159494256Y-97634795D01*
X159305898Y-97556774D01*
X159105939Y-97517000D01*
X158902061Y-97517000D01*
X158702102Y-97556774D01*
X158513744Y-97634795D01*
X158496000Y-97646651D01*
X158478256Y-97634795D01*
X158289898Y-97556774D01*
X158089939Y-97517000D01*
X157886061Y-97517000D01*
X157686102Y-97556774D01*
X157497744Y-97634795D01*
X157328226Y-97748063D01*
X157184063Y-97892226D01*
X157070795Y-98061744D01*
X156992774Y-98250102D01*
X156953000Y-98450061D01*
X142934899Y-98450061D01*
X142946616Y-87179383D01*
X143101271Y-87334038D01*
X143467331Y-87578631D01*
X143874075Y-87747110D01*
X144305872Y-87833000D01*
X144746128Y-87833000D01*
X145177925Y-87747110D01*
X145584669Y-87578631D01*
X145950729Y-87334038D01*
X146262038Y-87022729D01*
X146506631Y-86656669D01*
X146619574Y-86384000D01*
X157373928Y-86384000D01*
X157373928Y-89384000D01*
X157386188Y-89508482D01*
X157422498Y-89628180D01*
X157481463Y-89738494D01*
X157560815Y-89835185D01*
X157657506Y-89914537D01*
X157767820Y-89973502D01*
X157887518Y-90009812D01*
X158012000Y-90022072D01*
X161012000Y-90022072D01*
X161136482Y-90009812D01*
X161256180Y-89973502D01*
X161366494Y-89914537D01*
X161463185Y-89835185D01*
X161542537Y-89738494D01*
X161601502Y-89628180D01*
X161637812Y-89508482D01*
X161650072Y-89384000D01*
X161650072Y-89375653D01*
X163279952Y-89375653D01*
X163435962Y-89691214D01*
X163810745Y-89882020D01*
X164215551Y-89996044D01*
X164634824Y-90028902D01*
X165052451Y-89979334D01*
X165452383Y-89849243D01*
X165748038Y-89691214D01*
X165904048Y-89375653D01*
X164592000Y-88063605D01*
X163279952Y-89375653D01*
X161650072Y-89375653D01*
X161650072Y-87926824D01*
X162447098Y-87926824D01*
X162496666Y-88344451D01*
X162626757Y-88744383D01*
X162784786Y-89040038D01*
X163100347Y-89196048D01*
X164412395Y-87884000D01*
X164771605Y-87884000D01*
X166083653Y-89196048D01*
X166399214Y-89040038D01*
X166590020Y-88665255D01*
X166704044Y-88260449D01*
X166736902Y-87841176D01*
X166687334Y-87423549D01*
X166557243Y-87023617D01*
X166399214Y-86727962D01*
X166083653Y-86571952D01*
X164771605Y-87884000D01*
X164412395Y-87884000D01*
X163100347Y-86571952D01*
X162784786Y-86727962D01*
X162593980Y-87102745D01*
X162479956Y-87507551D01*
X162447098Y-87926824D01*
X161650072Y-87926824D01*
X161650072Y-86392347D01*
X163279952Y-86392347D01*
X164592000Y-87704395D01*
X165904048Y-86392347D01*
X165748038Y-86076786D01*
X165373255Y-85885980D01*
X164968449Y-85771956D01*
X164549176Y-85739098D01*
X164131549Y-85788666D01*
X163731617Y-85918757D01*
X163435962Y-86076786D01*
X163279952Y-86392347D01*
X161650072Y-86392347D01*
X161650072Y-86384000D01*
X161637812Y-86259518D01*
X161601502Y-86139820D01*
X161542537Y-86029506D01*
X161463185Y-85932815D01*
X161366494Y-85853463D01*
X161256180Y-85794498D01*
X161136482Y-85758188D01*
X161012000Y-85745928D01*
X158012000Y-85745928D01*
X157887518Y-85758188D01*
X157767820Y-85794498D01*
X157657506Y-85853463D01*
X157560815Y-85932815D01*
X157481463Y-86029506D01*
X157422498Y-86139820D01*
X157386188Y-86259518D01*
X157373928Y-86384000D01*
X146619574Y-86384000D01*
X146675110Y-86249925D01*
X146761000Y-85818128D01*
X146761000Y-85377872D01*
X146675110Y-84946075D01*
X146506631Y-84539331D01*
X146262038Y-84173271D01*
X145950729Y-83861962D01*
X145584669Y-83617369D01*
X145177925Y-83448890D01*
X144746128Y-83363000D01*
X144305872Y-83363000D01*
X143874075Y-83448890D01*
X143467331Y-83617369D01*
X143101271Y-83861962D01*
X142949907Y-84013326D01*
X142955194Y-78927085D01*
X176870859Y-78902635D01*
X176871659Y-84302892D01*
G37*
%TD.AperFunction*%
%TD*%
M02*
