<?xml version="1.0" standalone="no"?>
 <!DOCTYPE svg PUBLIC "-//W3C//DTD SVG 1.1//EN" 
 "http://www.w3.org/Graphics/SVG/1.1/DTD/svg11.dtd"> 
<svg
  xmlns:svg="http://www.w3.org/2000/svg"
  xmlns="http://www.w3.org/2000/svg"
  xmlns:xlink="http://www.w3.org/1999/xlink"
  version="1.1"
  width="29.700220cm" height="21.000720cm" viewBox="0 0 116930 82680">
<title>SVG Picture created as AmplificadorV1-F_Paste.svg date 2021/06/20 20:29:51 </title>
  <desc>Picture generated by PCBNEW </desc>
<g style="fill:#000000; fill-opacity:1;stroke:#000000; stroke-opacity:1;
stroke-linecap:round; stroke-linejoin:round;"
 transform="translate(0 0) scale(1 1)">
</g>
<g style="fill:#000000; fill-opacity:0.0; 
stroke:#000000; stroke-width:-0.000393701; stroke-opacity:1; 
stroke-linecap:round; stroke-linejoin:round;">
</g>
<g style="fill:#000000; fill-opacity:0.0; 
stroke:#000000; stroke-width:39.3701; stroke-opacity:1; 
stroke-linecap:round; stroke-linejoin:round;">
</g>
<g style="fill:#000000; fill-opacity:0.0; 
stroke:#000000; stroke-width:59.0551; stroke-opacity:1; 
stroke-linecap:round; stroke-linejoin:round;">
<rect x="69685.9" y="65357.2" width="42519.7" height="12598.4" rx="0" />
</g>
<g style="fill:#000000; fill-opacity:0.0; 
stroke:#000000; stroke-width:39.3701; stroke-opacity:1; 
stroke-linecap:round; stroke-linejoin:round;">
</g>
<g style="fill:#000000; fill-opacity:0.0; 
stroke:#000000; stroke-width:59.0551; stroke-opacity:1; 
stroke-linecap:round; stroke-linejoin:round;">
<rect x="3937.01" y="3937.01" width="109056" height="74806" rx="0" />
</g>
<g style="fill:#000000; fill-opacity:0.0; 
stroke:#000000; stroke-width:39.3701; stroke-opacity:1; 
stroke-linecap:round; stroke-linejoin:round;">
</g>
<g style="fill:#000000; fill-opacity:0.0; 
stroke:#000000; stroke-width:59.0551; stroke-opacity:1; 
stroke-linecap:round; stroke-linejoin:round;">
<rect x="4724.41" y="4724.41" width="107481" height="73231.2" rx="0" />
</g>
<g style="fill:#000000; fill-opacity:0.0; 
stroke:#000000; stroke-width:39.3701; stroke-opacity:1; 
stroke-linecap:round; stroke-linejoin:round;">
</g>
<g style="fill:#000000; fill-opacity:0.0; 
stroke:#000000; stroke-width:59.0551; stroke-opacity:1; 
stroke-linecap:round; stroke-linejoin:round;">
<path d="M23622 4724
L23622 3937
" />
</g>
<g style="fill:#000000; fill-opacity:0.0; 
stroke:#000000; stroke-width:39.3701; stroke-opacity:1; 
stroke-linecap:round; stroke-linejoin:round;">
</g>
<g style="fill:#000000; fill-opacity:0.0; 
stroke:#000000; stroke-width:59.0551; stroke-opacity:1; 
stroke-linecap:round; stroke-linejoin:round;">
<path d="M43307 4724
L43307 3937
" />
</g>
<g style="fill:#000000; fill-opacity:0.0; 
stroke:#000000; stroke-width:39.3701; stroke-opacity:1; 
stroke-linecap:round; stroke-linejoin:round;">
</g>
<g style="fill:#000000; fill-opacity:0.0; 
stroke:#000000; stroke-width:59.0551; stroke-opacity:1; 
stroke-linecap:round; stroke-linejoin:round;">
<path d="M62992 4724
L62992 3937
" />
</g>
<g style="fill:#000000; fill-opacity:0.0; 
stroke:#000000; stroke-width:39.3701; stroke-opacity:1; 
stroke-linecap:round; stroke-linejoin:round;">
</g>
<g style="fill:#000000; fill-opacity:0.0; 
stroke:#000000; stroke-width:59.0551; stroke-opacity:1; 
stroke-linecap:round; stroke-linejoin:round;">
<path d="M82677 4724
L82677 3937
" />
</g>
<g style="fill:#000000; fill-opacity:0.0; 
stroke:#000000; stroke-width:39.3701; stroke-opacity:1; 
stroke-linecap:round; stroke-linejoin:round;">
</g>
<g style="fill:#000000; fill-opacity:0.0; 
stroke:#000000; stroke-width:59.0551; stroke-opacity:1; 
stroke-linecap:round; stroke-linejoin:round;">
<path d="M102362 4724
L102362 3937
" />
</g>
<g style="fill:#000000; fill-opacity:0.0; 
stroke:#000000; stroke-width:39.3701; stroke-opacity:1; 
stroke-linecap:round; stroke-linejoin:round;">
</g>
<g style="fill:#000000; fill-opacity:0.0; 
stroke:#000000; stroke-width:59.0551; stroke-opacity:1; 
stroke-linecap:round; stroke-linejoin:round;">
<text x="13779.5" y="4586.61"
textLength="487.439" font-size="682.415" lengthAdjust="spacingAndGlyphs"
text-anchor="start" opacity="0">1</text>
<path d="M14199 4562
L13906 4562
" />
<path d="M14052 4562
L14052 4050
L14004 4123
L13955 4172
L13906 4196
" />
</g>
<g style="fill:#000000; fill-opacity:0.0; 
stroke:#000000; stroke-width:39.3701; stroke-opacity:1; 
stroke-linecap:round; stroke-linejoin:round;">
</g>
<g style="fill:#000000; fill-opacity:0.0; 
stroke:#000000; stroke-width:59.0551; stroke-opacity:1; 
stroke-linecap:round; stroke-linejoin:round;">
<text x="33464.6" y="4586.61"
textLength="546.494" font-size="682.415" lengthAdjust="spacingAndGlyphs"
text-anchor="start" opacity="0">2</text>
<path d="M33591 4099
L33615 4074
L33664 4050
L33786 4050
L33835 4074
L33859 4099
L33884 4147
L33884 4196
L33859 4269
L33567 4562
L33884 4562
" />
</g>
<g style="fill:#000000; fill-opacity:0.0; 
stroke:#000000; stroke-width:39.3701; stroke-opacity:1; 
stroke-linecap:round; stroke-linejoin:round;">
</g>
<g style="fill:#000000; fill-opacity:0.0; 
stroke:#000000; stroke-width:59.0551; stroke-opacity:1; 
stroke-linecap:round; stroke-linejoin:round;">
<text x="53149.6" y="4586.61"
textLength="546.494" font-size="682.415" lengthAdjust="spacingAndGlyphs"
text-anchor="start" opacity="0">3</text>
<path d="M53252 4050
L53569 4050
L53398 4245
L53471 4245
L53520 4269
L53544 4294
L53569 4342
L53569 4464
L53544 4513
L53520 4537
L53471 4562
L53325 4562
L53276 4537
L53252 4513
" />
</g>
<g style="fill:#000000; fill-opacity:0.0; 
stroke:#000000; stroke-width:39.3701; stroke-opacity:1; 
stroke-linecap:round; stroke-linejoin:round;">
</g>
<g style="fill:#000000; fill-opacity:0.0; 
stroke:#000000; stroke-width:59.0551; stroke-opacity:1; 
stroke-linecap:round; stroke-linejoin:round;">
<text x="72834.6" y="4586.61"
textLength="546.494" font-size="682.415" lengthAdjust="spacingAndGlyphs"
text-anchor="start" opacity="0">4</text>
<path d="M73205 4221
L73205 4562
" />
<path d="M73083 4026
L72961 4391
L73278 4391
" />
</g>
<g style="fill:#000000; fill-opacity:0.0; 
stroke:#000000; stroke-width:39.3701; stroke-opacity:1; 
stroke-linecap:round; stroke-linejoin:round;">
</g>
<g style="fill:#000000; fill-opacity:0.0; 
stroke:#000000; stroke-width:59.0551; stroke-opacity:1; 
stroke-linecap:round; stroke-linejoin:round;">
<text x="92519.7" y="4586.61"
textLength="546.494" font-size="682.415" lengthAdjust="spacingAndGlyphs"
text-anchor="start" opacity="0">5</text>
<path d="M92914 4050
L92671 4050
L92646 4294
L92671 4269
L92719 4245
L92841 4245
L92890 4269
L92914 4294
L92939 4342
L92939 4464
L92914 4513
L92890 4537
L92841 4562
L92719 4562
L92671 4537
L92646 4513
" />
</g>
<g style="fill:#000000; fill-opacity:0.0; 
stroke:#000000; stroke-width:39.3701; stroke-opacity:1; 
stroke-linecap:round; stroke-linejoin:round;">
</g>
<g style="fill:#000000; fill-opacity:0.0; 
stroke:#000000; stroke-width:59.0551; stroke-opacity:1; 
stroke-linecap:round; stroke-linejoin:round;">
<text x="112205" y="4586.61"
textLength="546.494" font-size="682.415" lengthAdjust="spacingAndGlyphs"
text-anchor="start" opacity="0">6</text>
<path d="M112575 4050
L112477 4050
L112429 4074
L112404 4099
L112356 4172
L112331 4269
L112331 4464
L112356 4513
L112380 4537
L112429 4562
L112526 4562
L112575 4537
L112599 4513
L112624 4464
L112624 4342
L112599 4294
L112575 4269
L112526 4245
L112429 4245
L112380 4269
L112356 4294
L112331 4342
" />
</g>
<g style="fill:#000000; fill-opacity:0.0; 
stroke:#000000; stroke-width:39.3701; stroke-opacity:1; 
stroke-linecap:round; stroke-linejoin:round;">
</g>
<g style="fill:#000000; fill-opacity:0.0; 
stroke:#000000; stroke-width:59.0551; stroke-opacity:1; 
stroke-linecap:round; stroke-linejoin:round;">
<path d="M23622 77955
L23622 78742
" />
</g>
<g style="fill:#000000; fill-opacity:0.0; 
stroke:#000000; stroke-width:39.3701; stroke-opacity:1; 
stroke-linecap:round; stroke-linejoin:round;">
</g>
<g style="fill:#000000; fill-opacity:0.0; 
stroke:#000000; stroke-width:59.0551; stroke-opacity:1; 
stroke-linecap:round; stroke-linejoin:round;">
<path d="M43307 77955
L43307 78742
" />
</g>
<g style="fill:#000000; fill-opacity:0.0; 
stroke:#000000; stroke-width:39.3701; stroke-opacity:1; 
stroke-linecap:round; stroke-linejoin:round;">
</g>
<g style="fill:#000000; fill-opacity:0.0; 
stroke:#000000; stroke-width:59.0551; stroke-opacity:1; 
stroke-linecap:round; stroke-linejoin:round;">
<path d="M62992 77955
L62992 78742
" />
</g>
<g style="fill:#000000; fill-opacity:0.0; 
stroke:#000000; stroke-width:39.3701; stroke-opacity:1; 
stroke-linecap:round; stroke-linejoin:round;">
</g>
<g style="fill:#000000; fill-opacity:0.0; 
stroke:#000000; stroke-width:59.0551; stroke-opacity:1; 
stroke-linecap:round; stroke-linejoin:round;">
<path d="M82677 77955
L82677 78742
" />
</g>
<g style="fill:#000000; fill-opacity:0.0; 
stroke:#000000; stroke-width:39.3701; stroke-opacity:1; 
stroke-linecap:round; stroke-linejoin:round;">
</g>
<g style="fill:#000000; fill-opacity:0.0; 
stroke:#000000; stroke-width:59.0551; stroke-opacity:1; 
stroke-linecap:round; stroke-linejoin:round;">
<path d="M102362 77955
L102362 78742
" />
</g>
<g style="fill:#000000; fill-opacity:0.0; 
stroke:#000000; stroke-width:39.3701; stroke-opacity:1; 
stroke-linecap:round; stroke-linejoin:round;">
</g>
<g style="fill:#000000; fill-opacity:0.0; 
stroke:#000000; stroke-width:59.0551; stroke-opacity:1; 
stroke-linecap:round; stroke-linejoin:round;">
<text x="13779.5" y="78605.2"
textLength="546.494" font-size="682.415" lengthAdjust="spacingAndGlyphs"
text-anchor="start" opacity="0">1</text>
<path d="M14199 78580
L13906 78580
" />
<path d="M14052 78580
L14052 78069
L14004 78142
L13955 78190
L13906 78215
" />
</g>
<g style="fill:#000000; fill-opacity:0.0; 
stroke:#000000; stroke-width:39.3701; stroke-opacity:1; 
stroke-linecap:round; stroke-linejoin:round;">
</g>
<g style="fill:#000000; fill-opacity:0.0; 
stroke:#000000; stroke-width:59.0551; stroke-opacity:1; 
stroke-linecap:round; stroke-linejoin:round;">
<text x="33464.6" y="78605.2"
textLength="546.494" font-size="682.415" lengthAdjust="spacingAndGlyphs"
text-anchor="start" opacity="0">2</text>
<path d="M33591 78117
L33615 78093
L33664 78069
L33786 78069
L33835 78093
L33859 78117
L33884 78166
L33884 78215
L33859 78288
L33567 78580
L33884 78580
" />
</g>
<g style="fill:#000000; fill-opacity:0.0; 
stroke:#000000; stroke-width:39.3701; stroke-opacity:1; 
stroke-linecap:round; stroke-linejoin:round;">
</g>
<g style="fill:#000000; fill-opacity:0.0; 
stroke:#000000; stroke-width:59.0551; stroke-opacity:1; 
stroke-linecap:round; stroke-linejoin:round;">
<text x="53149.6" y="78605.2"
textLength="546.494" font-size="682.415" lengthAdjust="spacingAndGlyphs"
text-anchor="start" opacity="0">3</text>
<path d="M53252 78069
L53569 78069
L53398 78263
L53471 78263
L53520 78288
L53544 78312
L53569 78361
L53569 78483
L53544 78532
L53520 78556
L53471 78580
L53325 78580
L53276 78556
L53252 78532
" />
</g>
<g style="fill:#000000; fill-opacity:0.0; 
stroke:#000000; stroke-width:39.3701; stroke-opacity:1; 
stroke-linecap:round; stroke-linejoin:round;">
</g>
<g style="fill:#000000; fill-opacity:0.0; 
stroke:#000000; stroke-width:59.0551; stroke-opacity:1; 
stroke-linecap:round; stroke-linejoin:round;">
<text x="72834.6" y="78605.2"
textLength="546.494" font-size="682.415" lengthAdjust="spacingAndGlyphs"
text-anchor="start" opacity="0">4</text>
<path d="M73205 78239
L73205 78580
" />
<path d="M73083 78044
L72961 78410
L73278 78410
" />
</g>
<g style="fill:#000000; fill-opacity:0.0; 
stroke:#000000; stroke-width:39.3701; stroke-opacity:1; 
stroke-linecap:round; stroke-linejoin:round;">
</g>
<g style="fill:#000000; fill-opacity:0.0; 
stroke:#000000; stroke-width:59.0551; stroke-opacity:1; 
stroke-linecap:round; stroke-linejoin:round;">
<text x="92519.7" y="78605.2"
textLength="546.494" font-size="682.415" lengthAdjust="spacingAndGlyphs"
text-anchor="start" opacity="0">5</text>
<path d="M92914 78069
L92671 78069
L92646 78312
L92671 78288
L92719 78263
L92841 78263
L92890 78288
L92914 78312
L92939 78361
L92939 78483
L92914 78532
L92890 78556
L92841 78580
L92719 78580
L92671 78556
L92646 78532
" />
</g>
<g style="fill:#000000; fill-opacity:0.0; 
stroke:#000000; stroke-width:39.3701; stroke-opacity:1; 
stroke-linecap:round; stroke-linejoin:round;">
</g>
<g style="fill:#000000; fill-opacity:0.0; 
stroke:#000000; stroke-width:59.0551; stroke-opacity:1; 
stroke-linecap:round; stroke-linejoin:round;">
<text x="112205" y="78605.2"
textLength="546.494" font-size="682.415" lengthAdjust="spacingAndGlyphs"
text-anchor="start" opacity="0">6</text>
<path d="M112575 78069
L112477 78069
L112429 78093
L112404 78117
L112356 78190
L112331 78288
L112331 78483
L112356 78532
L112380 78556
L112429 78580
L112526 78580
L112575 78556
L112599 78532
L112624 78483
L112624 78361
L112599 78312
L112575 78288
L112526 78263
L112429 78263
L112380 78288
L112356 78312
L112331 78361
" />
</g>
<g style="fill:#000000; fill-opacity:0.0; 
stroke:#000000; stroke-width:39.3701; stroke-opacity:1; 
stroke-linecap:round; stroke-linejoin:round;">
</g>
<g style="fill:#000000; fill-opacity:0.0; 
stroke:#000000; stroke-width:59.0551; stroke-opacity:1; 
stroke-linecap:round; stroke-linejoin:round;">
<path d="M3937 23622
L4724 23622
" />
</g>
<g style="fill:#000000; fill-opacity:0.0; 
stroke:#000000; stroke-width:39.3701; stroke-opacity:1; 
stroke-linecap:round; stroke-linejoin:round;">
</g>
<g style="fill:#000000; fill-opacity:0.0; 
stroke:#000000; stroke-width:59.0551; stroke-opacity:1; 
stroke-linecap:round; stroke-linejoin:round;">
<path d="M3937 43307
L4724 43307
" />
</g>
<g style="fill:#000000; fill-opacity:0.0; 
stroke:#000000; stroke-width:39.3701; stroke-opacity:1; 
stroke-linecap:round; stroke-linejoin:round;">
</g>
<g style="fill:#000000; fill-opacity:0.0; 
stroke:#000000; stroke-width:59.0551; stroke-opacity:1; 
stroke-linecap:round; stroke-linejoin:round;">
<path d="M3937 62992
L4724 62992
" />
</g>
<g style="fill:#000000; fill-opacity:0.0; 
stroke:#000000; stroke-width:39.3701; stroke-opacity:1; 
stroke-linecap:round; stroke-linejoin:round;">
</g>
<g style="fill:#000000; fill-opacity:0.0; 
stroke:#000000; stroke-width:59.0551; stroke-opacity:1; 
stroke-linecap:round; stroke-linejoin:round;">
<text x="4330.71" y="14035.4"
textLength="497.75" font-size="682.415" lengthAdjust="spacingAndGlyphs"
text-anchor="middle" opacity="0">A</text>
<path d="M4208 13864
L4452 13864
" />
<path d="M4160 14011
L4330 13499
L4501 14011
" />
</g>
<g style="fill:#000000; fill-opacity:0.0; 
stroke:#000000; stroke-width:39.3701; stroke-opacity:1; 
stroke-linecap:round; stroke-linejoin:round;">
</g>
<g style="fill:#000000; fill-opacity:0.0; 
stroke:#000000; stroke-width:59.0551; stroke-opacity:1; 
stroke-linecap:round; stroke-linejoin:round;">
<text x="4330.71" y="33720.5"
textLength="570.866" font-size="682.415" lengthAdjust="spacingAndGlyphs"
text-anchor="middle" opacity="0">B</text>
<path d="M4367 33428
L4440 33452
L4464 33476
L4489 33525
L4489 33598
L4464 33647
L4440 33671
L4391 33696
L4196 33696
L4196 33184
L4367 33184
L4416 33208
L4440 33233
L4464 33281
L4464 33330
L4440 33379
L4416 33403
L4367 33428
L4196 33428
" />
</g>
<g style="fill:#000000; fill-opacity:0.0; 
stroke:#000000; stroke-width:39.3701; stroke-opacity:1; 
stroke-linecap:round; stroke-linejoin:round;">
</g>
<g style="fill:#000000; fill-opacity:0.0; 
stroke:#000000; stroke-width:59.0551; stroke-opacity:1; 
stroke-linecap:round; stroke-linejoin:round;">
<text x="4330.71" y="53405.5"
textLength="570.866" font-size="682.415" lengthAdjust="spacingAndGlyphs"
text-anchor="middle" opacity="0">C</text>
<path d="M4489 53332
L4464 53356
L4391 53381
L4342 53381
L4269 53356
L4221 53308
L4196 53259
L4172 53161
L4172 53088
L4196 52991
L4221 52942
L4269 52893
L4342 52869
L4391 52869
L4464 52893
L4489 52918
" />
</g>
<g style="fill:#000000; fill-opacity:0.0; 
stroke:#000000; stroke-width:39.3701; stroke-opacity:1; 
stroke-linecap:round; stroke-linejoin:round;">
</g>
<g style="fill:#000000; fill-opacity:0.0; 
stroke:#000000; stroke-width:59.0551; stroke-opacity:1; 
stroke-linecap:round; stroke-linejoin:round;">
<text x="4330.71" y="73090.6"
textLength="570.866" font-size="682.415" lengthAdjust="spacingAndGlyphs"
text-anchor="middle" opacity="0">D</text>
<path d="M4196 73066
L4196 72554
L4318 72554
L4391 72578
L4440 72627
L4464 72676
L4489 72773
L4489 72846
L4464 72944
L4440 72993
L4391 73041
L4318 73066
L4196 73066
" />
</g>
<g style="fill:#000000; fill-opacity:0.0; 
stroke:#000000; stroke-width:39.3701; stroke-opacity:1; 
stroke-linecap:round; stroke-linejoin:round;">
</g>
<g style="fill:#000000; fill-opacity:0.0; 
stroke:#000000; stroke-width:59.0551; stroke-opacity:1; 
stroke-linecap:round; stroke-linejoin:round;">
<path d="M112992 23622
L112205 23622
" />
</g>
<g style="fill:#000000; fill-opacity:0.0; 
stroke:#000000; stroke-width:39.3701; stroke-opacity:1; 
stroke-linecap:round; stroke-linejoin:round;">
</g>
<g style="fill:#000000; fill-opacity:0.0; 
stroke:#000000; stroke-width:59.0551; stroke-opacity:1; 
stroke-linecap:round; stroke-linejoin:round;">
<path d="M112992 43307
L112205 43307
" />
</g>
<g style="fill:#000000; fill-opacity:0.0; 
stroke:#000000; stroke-width:39.3701; stroke-opacity:1; 
stroke-linecap:round; stroke-linejoin:round;">
</g>
<g style="fill:#000000; fill-opacity:0.0; 
stroke:#000000; stroke-width:59.0551; stroke-opacity:1; 
stroke-linecap:round; stroke-linejoin:round;">
<path d="M112992 62992
L112205 62992
" />
</g>
<g style="fill:#000000; fill-opacity:0.0; 
stroke:#000000; stroke-width:39.3701; stroke-opacity:1; 
stroke-linecap:round; stroke-linejoin:round;">
</g>
<g style="fill:#000000; fill-opacity:0.0; 
stroke:#000000; stroke-width:59.0551; stroke-opacity:1; 
stroke-linecap:round; stroke-linejoin:round;">
<text x="112599" y="14035.4"
textLength="497.75" font-size="682.415" lengthAdjust="spacingAndGlyphs"
text-anchor="middle" opacity="0">A</text>
<path d="M112477 13864
L112721 13864
" />
<path d="M112428 14011
L112599 13499
L112769 14011
" />
</g>
<g style="fill:#000000; fill-opacity:0.0; 
stroke:#000000; stroke-width:39.3701; stroke-opacity:1; 
stroke-linecap:round; stroke-linejoin:round;">
</g>
<g style="fill:#000000; fill-opacity:0.0; 
stroke:#000000; stroke-width:59.0551; stroke-opacity:1; 
stroke-linecap:round; stroke-linejoin:round;">
<text x="112599" y="33720.5"
textLength="570.866" font-size="682.415" lengthAdjust="spacingAndGlyphs"
text-anchor="middle" opacity="0">B</text>
<path d="M112635 33428
L112708 33452
L112733 33476
L112757 33525
L112757 33598
L112733 33647
L112708 33671
L112660 33696
L112465 33696
L112465 33184
L112635 33184
L112684 33208
L112708 33233
L112733 33281
L112733 33330
L112708 33379
L112684 33403
L112635 33428
L112465 33428
" />
</g>
<g style="fill:#000000; fill-opacity:0.0; 
stroke:#000000; stroke-width:39.3701; stroke-opacity:1; 
stroke-linecap:round; stroke-linejoin:round;">
</g>
<g style="fill:#000000; fill-opacity:0.0; 
stroke:#000000; stroke-width:59.0551; stroke-opacity:1; 
stroke-linecap:round; stroke-linejoin:round;">
<text x="112599" y="53405.5"
textLength="570.866" font-size="682.415" lengthAdjust="spacingAndGlyphs"
text-anchor="middle" opacity="0">C</text>
<path d="M112757 53332
L112733 53356
L112660 53381
L112611 53381
L112538 53356
L112489 53308
L112465 53259
L112440 53161
L112440 53088
L112465 52991
L112489 52942
L112538 52893
L112611 52869
L112660 52869
L112733 52893
L112757 52918
" />
</g>
<g style="fill:#000000; fill-opacity:0.0; 
stroke:#000000; stroke-width:39.3701; stroke-opacity:1; 
stroke-linecap:round; stroke-linejoin:round;">
</g>
<g style="fill:#000000; fill-opacity:0.0; 
stroke:#000000; stroke-width:59.0551; stroke-opacity:1; 
stroke-linecap:round; stroke-linejoin:round;">
<text x="112599" y="73090.6"
textLength="570.866" font-size="682.415" lengthAdjust="spacingAndGlyphs"
text-anchor="middle" opacity="0">D</text>
<path d="M112465 73066
L112465 72554
L112587 72554
L112660 72578
L112708 72627
L112733 72676
L112757 72773
L112757 72846
L112733 72944
L112708 72993
L112660 73041
L112587 73066
L112465 73066
" />
</g>
<g style="fill:#000000; fill-opacity:0.0; 
stroke:#000000; stroke-width:39.3701; stroke-opacity:1; 
stroke-linecap:round; stroke-linejoin:round;">
</g>
<g style="fill:#000000; fill-opacity:0.0; 
stroke:#000000; stroke-width:59.0551; stroke-opacity:1; 
stroke-linecap:round; stroke-linejoin:round;">
<text x="78741" y="76321.7"
textLength="2758.72" font-size="787.402" lengthAdjust="spacingAndGlyphs"
text-anchor="start" opacity="0">Date: </text>
<path d="M78911 76293
L78911 75703
L79051 75703
L79136 75731
L79192 75787
L79220 75843
L79248 75956
L79248 76040
L79220 76153
L79192 76209
L79136 76265
L79051 76293
L78911 76293
" />
<path d="M79754 76293
L79754 75984
L79726 75928
L79670 75899
L79557 75899
L79501 75928
" />
<path d="M79754 76265
L79698 76293
L79557 76293
L79501 76265
L79473 76209
L79473 76153
L79501 76096
L79557 76068
L79698 76068
L79754 76040
" />
<path d="M79951 75899
L80176 75899
" />
<path d="M80036 75703
L80036 76209
L80064 76265
L80120 76293
L80176 76293
" />
<path d="M80598 76265
L80542 76293
L80429 76293
L80373 76265
L80345 76209
L80345 75984
L80373 75928
L80429 75899
L80542 75899
L80598 75928
L80626 75984
L80626 76040
L80345 76096
" />
<path d="M80879 76237
L80907 76265
L80879 76293
L80851 76265
L80879 76237
L80879 76293
" />
<path d="M80879 75928
L80907 75956
L80879 75984
L80851 75956
L80879 75928
L80879 75984
" />
</g>
<g style="fill:#000000; fill-opacity:0.0; 
stroke:#000000; stroke-width:39.3701; stroke-opacity:1; 
stroke-linecap:round; stroke-linejoin:round;">
</g>
<g style="fill:#000000; fill-opacity:0.0; 
stroke:#000000; stroke-width:59.0551; stroke-opacity:1; 
stroke-linecap:round; stroke-linejoin:round;">
<path d="M69685 76577
L112205 76577
" />
</g>
<g style="fill:#000000; fill-opacity:0.0; 
stroke:#000000; stroke-width:39.3701; stroke-opacity:1; 
stroke-linecap:round; stroke-linejoin:round;">
</g>
<g style="fill:#000000; fill-opacity:0.0; 
stroke:#000000; stroke-width:59.0551; stroke-opacity:1; 
stroke-linecap:round; stroke-linejoin:round;">
<text x="70079.6" y="77424.1"
textLength="13529.2" font-size="787.402" lengthAdjust="spacingAndGlyphs"
text-anchor="start" opacity="0">KiCad E.D.A.  kicad (5.1.9)-1</text>
<path d="M70249 77395
L70249 76805
" />
<path d="M70587 77395
L70334 77058
" />
<path d="M70587 76805
L70249 77142
" />
<path d="M70840 77395
L70840 77002
" />
<path d="M70840 76805
L70812 76833
L70840 76861
L70868 76833
L70840 76805
L70840 76861
" />
<path d="M71458 77339
L71430 77367
L71346 77395
L71290 77395
L71205 77367
L71149 77311
L71121 77255
L71093 77142
L71093 77058
L71121 76946
L71149 76889
L71205 76833
L71290 76805
L71346 76805
L71430 76833
L71458 76861
" />
<path d="M71965 77395
L71965 77086
L71937 77030
L71880 77002
L71768 77002
L71712 77030
" />
<path d="M71965 77367
L71908 77395
L71768 77395
L71712 77367
L71683 77311
L71683 77255
L71712 77199
L71768 77171
L71908 77171
L71965 77142
" />
<path d="M72499 77395
L72499 76805
" />
<path d="M72499 77367
L72443 77395
L72330 77395
L72274 77367
L72246 77339
L72218 77283
L72218 77114
L72246 77058
L72274 77030
L72330 77002
L72443 77002
L72499 77030
" />
<path d="M73230 77086
L73427 77086
" />
<path d="M73511 77395
L73230 77395
L73230 76805
L73511 76805
" />
<path d="M73764 77339
L73793 77367
L73764 77395
L73736 77367
L73764 77339
L73764 77395
" />
<path d="M74046 77395
L74046 76805
L74186 76805
L74271 76833
L74327 76889
L74355 76946
L74383 77058
L74383 77142
L74355 77255
L74327 77311
L74271 77367
L74186 77395
L74046 77395
" />
<path d="M74636 77339
L74664 77367
L74636 77395
L74608 77367
L74636 77339
L74636 77395
" />
<path d="M74889 77227
L75171 77227
" />
<path d="M74833 77395
L75030 76805
L75227 77395
" />
<path d="M75424 77339
L75452 77367
L75424 77395
L75395 77367
L75424 77339
L75424 77395
" />
<path d="M76605 77395
L76605 76805
" />
<path d="M76661 77171
L76830 77395
" />
<path d="M76830 77002
L76605 77227
" />
<path d="M77083 77395
L77083 77002
" />
<path d="M77083 76805
L77055 76833
L77083 76861
L77111 76833
L77083 76805
L77083 76861
" />
<path d="M77617 77367
L77561 77395
L77448 77395
L77392 77367
L77364 77339
L77336 77283
L77336 77114
L77364 77058
L77392 77030
L77448 77002
L77561 77002
L77617 77030
" />
<path d="M78123 77395
L78123 77086
L78095 77030
L78039 77002
L77926 77002
L77870 77030
" />
<path d="M78123 77367
L78067 77395
L77926 77395
L77870 77367
L77842 77311
L77842 77255
L77870 77199
L77926 77171
L78067 77171
L78123 77142
" />
<path d="M78658 77395
L78658 76805
" />
<path d="M78658 77367
L78601 77395
L78489 77395
L78433 77367
L78404 77339
L78376 77283
L78376 77114
L78404 77058
L78433 77030
L78489 77002
L78601 77002
L78658 77030
" />
<path d="M79557 77620
L79529 77592
L79473 77508
L79445 77452
L79417 77367
L79389 77227
L79389 77114
L79417 76974
L79445 76889
L79473 76833
L79529 76749
L79557 76721
" />
<path d="M80064 76805
L79782 76805
L79754 77086
L79782 77058
L79839 77030
L79979 77030
L80036 77058
L80064 77086
L80092 77142
L80092 77283
L80064 77339
L80036 77367
L79979 77395
L79839 77395
L79782 77367
L79754 77339
" />
<path d="M80345 77339
L80373 77367
L80345 77395
L80317 77367
L80345 77339
L80345 77395
" />
<path d="M80935 77395
L80598 77395
" />
<path d="M80767 77395
L80767 76805
L80710 76889
L80654 76946
L80598 76974
" />
<path d="M81188 77339
L81217 77367
L81188 77395
L81160 77367
L81188 77339
L81188 77395
" />
<path d="M81498 77395
L81610 77395
L81667 77367
L81695 77339
L81751 77255
L81779 77142
L81779 76917
L81751 76861
L81723 76833
L81667 76805
L81554 76805
L81498 76833
L81470 76861
L81442 76917
L81442 77058
L81470 77114
L81498 77142
L81554 77171
L81667 77171
L81723 77142
L81751 77114
L81779 77058
" />
<path d="M81976 77620
L82004 77592
L82060 77508
L82088 77452
L82117 77367
L82145 77227
L82145 77114
L82117 76974
L82088 76889
L82060 76833
L82004 76749
L81976 76721
" />
<path d="M82426 77171
L82876 77171
" />
<path d="M83466 77395
L83129 77395
" />
<path d="M83298 77395
L83298 76805
L83241 76889
L83185 76946
L83129 76974
" />
</g>
<g style="fill:#000000; fill-opacity:0.0; 
stroke:#000000; stroke-width:39.3701; stroke-opacity:1; 
stroke-linecap:round; stroke-linejoin:round;">
</g>
<g style="fill:#000000; fill-opacity:0.0; 
stroke:#000000; stroke-width:59.0551; stroke-opacity:1; 
stroke-linecap:round; stroke-linejoin:round;">
<path d="M69685 75396
L112205 75396
" />
</g>
<g style="fill:#000000; fill-opacity:0.0; 
stroke:#000000; stroke-width:39.3701; stroke-opacity:1; 
stroke-linecap:round; stroke-linejoin:round;">
</g>
<g style="fill:#000000; fill-opacity:0.0; 
stroke:#000000; stroke-width:118.11; stroke-opacity:1; 
stroke-linecap:round; stroke-linejoin:round;">
<text x="103544" y="76321.7"
textLength="2336.9" font-size="787.402" lengthAdjust="spacingAndGlyphs"
text-anchor="start" opacity="0">Rev: </text>
<path d="M104099 76293
L103902 76012
" />
<path d="M103761 76293
L103761 75703
L103986 75703
L104042 75731
L104070 75759
L104099 75815
L104099 75899
L104070 75956
L104042 75984
L103986 76012
L103761 76012
" />
<path d="M104577 76265
L104520 76293
L104408 76293
L104352 76265
L104323 76209
L104323 75984
L104352 75928
L104408 75899
L104520 75899
L104577 75928
L104605 75984
L104605 76040
L104323 76096
" />
<path d="M104802 75899
L104942 76293
L105083 75899
" />
<path d="M105308 76237
L105336 76265
L105308 76293
L105280 76265
L105308 76237
L105308 76293
" />
<path d="M105308 75928
L105336 75956
L105308 75984
L105280 75956
L105308 75928
L105308 75984
" />
</g>
<g style="fill:#000000; fill-opacity:0.0; 
stroke:#000000; stroke-width:39.3701; stroke-opacity:1; 
stroke-linecap:round; stroke-linejoin:round;">
</g>
<g style="fill:#000000; fill-opacity:0.0; 
stroke:#000000; stroke-width:59.0551; stroke-opacity:1; 
stroke-linecap:round; stroke-linejoin:round;">
<text x="70079.6" y="76321.7"
textLength="3781.21" font-size="787.402" lengthAdjust="spacingAndGlyphs"
text-anchor="start" opacity="0">Size: A4</text>
<path d="M70221 76265
L70305 76293
L70446 76293
L70502 76265
L70530 76237
L70559 76181
L70559 76124
L70530 76068
L70502 76040
L70446 76012
L70334 75984
L70277 75956
L70249 75928
L70221 75871
L70221 75815
L70249 75759
L70277 75731
L70334 75703
L70474 75703
L70559 75731
" />
<path d="M70812 76293
L70812 75899
" />
<path d="M70812 75703
L70784 75731
L70812 75759
L70840 75731
L70812 75703
L70812 75759
" />
<path d="M71037 75899
L71346 75899
L71037 76293
L71346 76293
" />
<path d="M71796 76265
L71740 76293
L71627 76293
L71571 76265
L71543 76209
L71543 75984
L71571 75928
L71627 75899
L71740 75899
L71796 75928
L71824 75984
L71824 76040
L71543 76096
" />
<path d="M72077 76237
L72105 76265
L72077 76293
L72049 76265
L72077 76237
L72077 76293
" />
<path d="M72077 75928
L72105 75956
L72077 75984
L72049 75956
L72077 75928
L72077 75984
" />
<path d="M72780 76124
L73061 76124
" />
<path d="M72724 76293
L72921 75703
L73118 76293
" />
<path d="M73568 75899
L73568 76293
" />
<path d="M73427 75674
L73286 76096
L73652 76096
" />
</g>
<g style="fill:#000000; fill-opacity:0.0; 
stroke:#000000; stroke-width:39.3701; stroke-opacity:1; 
stroke-linecap:round; stroke-linejoin:round;">
</g>
<g style="fill:#000000; fill-opacity:0.0; 
stroke:#000000; stroke-width:59.0551; stroke-opacity:1; 
stroke-linecap:round; stroke-linejoin:round;">
<text x="103544" y="77424.1"
textLength="3349.27" font-size="787.402" lengthAdjust="spacingAndGlyphs"
text-anchor="start" opacity="0">Id: 1/1</text>
<path d="M103714 77395
L103714 76805
" />
<path d="M104248 77395
L104248 76805
" />
<path d="M104248 77367
L104192 77395
L104079 77395
L104023 77367
L103995 77339
L103967 77283
L103967 77114
L103995 77058
L104023 77030
L104079 77002
L104192 77002
L104248 77030
" />
<path d="M104529 77339
L104557 77367
L104529 77395
L104501 77367
L104529 77339
L104529 77395
" />
<path d="M104529 77030
L104557 77058
L104529 77086
L104501 77058
L104529 77030
L104529 77086
" />
<path d="M105570 77395
L105232 77395
" />
<path d="M105401 77395
L105401 76805
L105345 76889
L105289 76946
L105232 76974
" />
<path d="M106245 76777
L105739 77536
" />
<path d="M106751 77395
L106413 77395
" />
<path d="M106582 77395
L106582 76805
L106526 76889
L106470 76946
L106413 76974
" />
</g>
<g style="fill:#000000; fill-opacity:0.0; 
stroke:#000000; stroke-width:39.3701; stroke-opacity:1; 
stroke-linecap:round; stroke-linejoin:round;">
</g>
<g style="fill:#000000; fill-opacity:0.0; 
stroke:#000000; stroke-width:59.0551; stroke-opacity:1; 
stroke-linecap:round; stroke-linejoin:round;">
<path d="M69685 73821
L112205 73821
" />
</g>
<g style="fill:#000000; fill-opacity:0.0; 
stroke:#000000; stroke-width:39.3701; stroke-opacity:1; 
stroke-linecap:round; stroke-linejoin:round;">
</g>
<g style="fill:#000000; fill-opacity:0.0; 
stroke:#000000; stroke-width:157.48; stroke-opacity:1; 
stroke-linecap:round; stroke-linejoin:round;">
<text x="70079.6" y="74924.1"
textLength="3701.14" font-size="1049.87" lengthAdjust="spacingAndGlyphs"
text-anchor="start" opacity="0">Title: </text>
<path d="M70360 74099
L70810 74099
" />
<path d="M70486 74886
L70585 74099
" />
<path d="M70974 74886
L71039 74361
" />
<path d="M71072 74099
L71030 74136
L71063 74174
L71105 74136
L71072 74099
L71063 74174
" />
<path d="M71302 74361
L71602 74361
" />
<path d="M71447 74099
L71363 74774
L71391 74849
L71461 74886
L71536 74886
" />
<path d="M71911 74886
L71841 74849
L71813 74774
L71897 74099
" />
<path d="M72516 74849
L72436 74886
L72286 74886
L72216 74849
L72187 74774
L72225 74474
L72272 74399
L72352 74361
L72501 74361
L72572 74399
L72600 74474
L72591 74549
L72206 74624
" />
<path d="M72895 74811
L72928 74849
L72886 74886
L72853 74849
L72895 74811
L72886 74886
" />
<path d="M72947 74399
L72980 74436
L72937 74474
L72905 74436
L72947 74399
L72937 74474
" />
</g>
<g style="fill:#000000; fill-opacity:0.0; 
stroke:#000000; stroke-width:39.3701; stroke-opacity:1; 
stroke-linecap:round; stroke-linejoin:round;">
</g>
<g style="fill:#000000; fill-opacity:0.0; 
stroke:#000000; stroke-width:59.0551; stroke-opacity:1; 
stroke-linecap:round; stroke-linejoin:round;">
<text x="70079.6" y="73408.3"
textLength="13759.3" font-size="787.402" lengthAdjust="spacingAndGlyphs"
text-anchor="start" opacity="0">File: AmplificadorV1.kicad_pcb</text>
<path d="M70446 73070
L70249 73070
" />
<path d="M70249 73380
L70249 72789
L70530 72789
" />
<path d="M70755 73380
L70755 72986
" />
<path d="M70755 72789
L70727 72817
L70755 72845
L70784 72817
L70755 72789
L70755 72845
" />
<path d="M71121 73380
L71065 73352
L71037 73295
L71037 72789
" />
<path d="M71571 73352
L71515 73380
L71402 73380
L71346 73352
L71318 73295
L71318 73070
L71346 73014
L71402 72986
L71515 72986
L71571 73014
L71599 73070
L71599 73127
L71318 73183
" />
<path d="M71852 73323
L71880 73352
L71852 73380
L71824 73352
L71852 73323
L71852 73380
" />
<path d="M71852 73014
L71880 73042
L71852 73070
L71824 73042
L71852 73014
L71852 73070
" />
<path d="M72555 73211
L72836 73211
" />
<path d="M72499 73380
L72696 72789
L72893 73380
" />
<path d="M73090 73380
L73090 72986
" />
<path d="M73090 73042
L73118 73014
L73174 72986
L73258 72986
L73314 73014
L73343 73070
L73343 73380
" />
<path d="M73343 73070
L73371 73014
L73427 72986
L73511 72986
L73568 73014
L73596 73070
L73596 73380
" />
<path d="M73877 72986
L73877 73577
" />
<path d="M73877 73014
L73933 72986
L74046 72986
L74102 73014
L74130 73042
L74158 73099
L74158 73267
L74130 73323
L74102 73352
L74046 73380
L73933 73380
L73877 73352
" />
<path d="M74496 73380
L74439 73352
L74411 73295
L74411 72789
" />
<path d="M74721 73380
L74721 72986
" />
<path d="M74721 72789
L74692 72817
L74721 72845
L74749 72817
L74721 72789
L74721 72845
" />
<path d="M74917 72986
L75142 72986
" />
<path d="M75002 73380
L75002 72874
L75030 72817
L75086 72789
L75142 72789
" />
<path d="M75339 73380
L75339 72986
" />
<path d="M75339 72789
L75311 72817
L75339 72845
L75367 72817
L75339 72789
L75339 72845
" />
<path d="M75874 73352
L75817 73380
L75705 73380
L75649 73352
L75620 73323
L75592 73267
L75592 73099
L75620 73042
L75649 73014
L75705 72986
L75817 72986
L75874 73014
" />
<path d="M76380 73380
L76380 73070
L76352 73014
L76295 72986
L76183 72986
L76127 73014
" />
<path d="M76380 73352
L76323 73380
L76183 73380
L76127 73352
L76099 73295
L76099 73239
L76127 73183
L76183 73155
L76323 73155
L76380 73127
" />
<path d="M76914 73380
L76914 72789
" />
<path d="M76914 73352
L76858 73380
L76745 73380
L76689 73352
L76661 73323
L76633 73267
L76633 73099
L76661 73042
L76689 73014
L76745 72986
L76858 72986
L76914 73014
" />
<path d="M77280 73380
L77223 73352
L77195 73323
L77167 73267
L77167 73099
L77195 73042
L77223 73014
L77280 72986
L77364 72986
L77420 73014
L77448 73042
L77476 73099
L77476 73267
L77448 73323
L77420 73352
L77364 73380
L77280 73380
" />
<path d="M77730 73380
L77730 72986
" />
<path d="M77730 73099
L77758 73042
L77786 73014
L77842 72986
L77898 72986
" />
<path d="M78011 72789
L78208 73380
L78404 72789
" />
<path d="M78911 73380
L78573 73380
" />
<path d="M78742 73380
L78742 72789
L78686 72874
L78629 72930
L78573 72958
" />
<path d="M79164 73323
L79192 73352
L79164 73380
L79136 73352
L79164 73323
L79164 73380
" />
<path d="M79445 73380
L79445 72789
" />
<path d="M79501 73155
L79670 73380
" />
<path d="M79670 72986
L79445 73211
" />
<path d="M79923 73380
L79923 72986
" />
<path d="M79923 72789
L79895 72817
L79923 72845
L79951 72817
L79923 72789
L79923 72845
" />
<path d="M80457 73352
L80401 73380
L80289 73380
L80232 73352
L80204 73323
L80176 73267
L80176 73099
L80204 73042
L80232 73014
L80289 72986
L80401 72986
L80457 73014
" />
<path d="M80964 73380
L80964 73070
L80935 73014
L80879 72986
L80767 72986
L80710 73014
" />
<path d="M80964 73352
L80907 73380
L80767 73380
L80710 73352
L80682 73295
L80682 73239
L80710 73183
L80767 73155
L80907 73155
L80964 73127
" />
<path d="M81498 73380
L81498 72789
" />
<path d="M81498 73352
L81442 73380
L81329 73380
L81273 73352
L81245 73323
L81217 73267
L81217 73099
L81245 73042
L81273 73014
L81329 72986
L81442 72986
L81498 73014
" />
<path d="M81638 73436
L82088 73436
" />
<path d="M82229 72986
L82229 73577
" />
<path d="M82229 73014
L82285 72986
L82398 72986
L82454 73014
L82482 73042
L82510 73099
L82510 73267
L82482 73323
L82454 73352
L82398 73380
L82285 73380
L82229 73352
" />
<path d="M83016 73352
L82960 73380
L82848 73380
L82791 73352
L82763 73323
L82735 73267
L82735 73099
L82763 73042
L82791 73014
L82848 72986
L82960 72986
L83016 73014
" />
<path d="M83269 73380
L83269 72789
" />
<path d="M83269 73014
L83326 72986
L83438 72986
L83494 73014
L83523 73042
L83551 73099
L83551 73267
L83523 73323
L83494 73352
L83438 73380
L83326 73380
L83269 73352
" />
</g>
<g style="fill:#000000; fill-opacity:0.0; 
stroke:#000000; stroke-width:39.3701; stroke-opacity:1; 
stroke-linecap:round; stroke-linejoin:round;">
</g>
<g style="fill:#000000; fill-opacity:0.0; 
stroke:#000000; stroke-width:59.0551; stroke-opacity:1; 
stroke-linecap:round; stroke-linejoin:round;">
<path d="M69685 71459
L112205 71459
" />
</g>
<g style="fill:#000000; fill-opacity:0.0; 
stroke:#000000; stroke-width:39.3701; stroke-opacity:1; 
stroke-linecap:round; stroke-linejoin:round;">
</g>
<g style="fill:#000000; fill-opacity:0.0; 
stroke:#000000; stroke-width:59.0551; stroke-opacity:1; 
stroke-linecap:round; stroke-linejoin:round;">
<text x="70079.6" y="72345.4"
textLength="3236.78" font-size="787.402" lengthAdjust="spacingAndGlyphs"
text-anchor="start" opacity="0">Sheet: </text>
<path d="M70221 72289
L70305 72317
L70446 72317
L70502 72289
L70530 72260
L70559 72204
L70559 72148
L70530 72092
L70502 72064
L70446 72036
L70334 72007
L70277 71979
L70249 71951
L70221 71895
L70221 71839
L70249 71782
L70277 71754
L70334 71726
L70474 71726
L70559 71754
" />
<path d="M70812 72317
L70812 71726
" />
<path d="M71065 72317
L71065 72007
L71037 71951
L70980 71923
L70896 71923
L70840 71951
L70812 71979
" />
<path d="M71571 72289
L71515 72317
L71402 72317
L71346 72289
L71318 72232
L71318 72007
L71346 71951
L71402 71923
L71515 71923
L71571 71951
L71599 72007
L71599 72064
L71318 72120
" />
<path d="M72077 72289
L72021 72317
L71908 72317
L71852 72289
L71824 72232
L71824 72007
L71852 71951
L71908 71923
L72021 71923
L72077 71951
L72105 72007
L72105 72064
L71824 72120
" />
<path d="M72274 71923
L72499 71923
" />
<path d="M72358 71726
L72358 72232
L72386 72289
L72443 72317
L72499 72317
" />
<path d="M72696 72260
L72724 72289
L72696 72317
L72668 72289
L72696 72260
L72696 72317
" />
<path d="M72696 71951
L72724 71979
L72696 72007
L72668 71979
L72696 71951
L72696 72007
" />
</g>
<g style="fill:#000000; fill-opacity:0.0; 
stroke:#000000; stroke-width:39.3701; stroke-opacity:1; 
stroke-linecap:round; stroke-linejoin:round;">
</g>
<g style="fill:#000000; fill-opacity:0.0; 
stroke:#000000; stroke-width:59.0551; stroke-opacity:1; 
stroke-linecap:round; stroke-linejoin:round;">
<path d="M77559 75396
L77559 76577
" />
</g>
<g style="fill:#000000; fill-opacity:0.0; 
stroke:#000000; stroke-width:39.3701; stroke-opacity:1; 
stroke-linecap:round; stroke-linejoin:round;">
</g>
<g style="fill:#000000; fill-opacity:0.0; 
stroke:#000000; stroke-width:59.0551; stroke-opacity:1; 
stroke-linecap:round; stroke-linejoin:round;">
<path d="M102756 75396
L102756 77955
" />
<g >
</g>
<g style="fill:#000000; fill-opacity:0.0; 
stroke:#000000; stroke-width:0; stroke-opacity:1; 
stroke-linecap:round; stroke-linejoin:round;">
</g>
<g style="fill:#000000; fill-opacity:1.0; 
stroke:#000000; stroke-width:0; stroke-opacity:1; 
stroke-linecap:round; stroke-linejoin:round;">
<path style="fill:#000000; fill-opacity:1.0; 
stroke:#000000; stroke-width:0; stroke-opacity:1; 
stroke-linecap:round; stroke-linejoin:round;fill-rule:evenodd;"
d="M 69608.7,40250
68191.3,40250
68191.3,39750
69608.7,39750
Z" /> 
<path style="fill:#000000; fill-opacity:1.0; 
stroke:#000000; stroke-width:0; stroke-opacity:1; 
stroke-linecap:round; stroke-linejoin:round;fill-rule:evenodd;"
d="M 69648,39153.5
67994.5,39153.5
67994.5,38622
69648,38622
Z" /> 
<path style="fill:#000000; fill-opacity:1.0; 
stroke:#000000; stroke-width:0; stroke-opacity:1; 
stroke-linecap:round; stroke-linejoin:round;fill-rule:evenodd;"
d="M 69648,41378
67994.5,41378
67994.5,40846.5
69648,40846.5
Z" /> 
</g>
<g >
</g>
<g style="fill:#000000; fill-opacity:1.0; 
stroke:#000000; stroke-width:0; stroke-opacity:1; 
stroke-linecap:round; stroke-linejoin:round;">
<path style="fill:#000000; fill-opacity:1.0; 
stroke:#000000; stroke-width:0; stroke-opacity:1; 
stroke-linecap:round; stroke-linejoin:round;fill-rule:evenodd;"
d="M 56212.6,39750
57629.9,39750
57629.9,40250
56212.6,40250
Z" /> 
<path style="fill:#000000; fill-opacity:1.0; 
stroke:#000000; stroke-width:0; stroke-opacity:1; 
stroke-linecap:round; stroke-linejoin:round;fill-rule:evenodd;"
d="M 56173.2,40846.5
57826.8,40846.5
57826.8,41378
56173.2,41378
Z" /> 
<path style="fill:#000000; fill-opacity:1.0; 
stroke:#000000; stroke-width:0; stroke-opacity:1; 
stroke-linecap:round; stroke-linejoin:round;fill-rule:evenodd;"
d="M 56173.2,38622
57826.8,38622
57826.8,39153.5
56173.2,39153.5
Z" /> 
</g>
<g >
</g>
<g >
</g>
<g >
</g>
<g >
</g>
<g style="fill:#000000; fill-opacity:1.0; 
stroke:#000000; stroke-width:0; stroke-opacity:1; 
stroke-linecap:round; stroke-linejoin:round;">
<path style="fill:#000000; fill-opacity:1.0; 
stroke:#000000; stroke-width:0; stroke-opacity:1; 
stroke-linecap:round; stroke-linejoin:round;fill-rule:evenodd;"
d="M 63120,39809.6
63126.8,39810.6
63133.5,39812.3
63139.9,39814.6
63146.1,39817.5
63152,39821
63157.5,39825.1
63162.6,39829.7
63167.2,39834.8
63171.3,39840.3
63174.8,39846.2
63177.8,39852.4
63180.1,39858.8
63181.7,39865.5
63182.7,39872.3
63183.1,39879.1
63183.1,40018.9
63182.7,40025.7
63181.7,40032.5
63180.1,40039.2
63177.8,40045.6
63174.8,40051.8
63171.3,40057.7
63167.2,40063.2
63162.6,40068.3
63157.5,40072.9
63152,40077
63146.1,40080.5
63139.9,40083.5
63133.5,40085.8
63126.8,40087.4
63120,40088.4
63113.2,40088.8
62973.4,40088.8
62966.6,40088.4
62959.8,40087.4
62953.1,40085.8
62946.7,40083.5
62940.5,40080.5
62934.6,40077
62929.1,40072.9
62924,40068.3
62919.4,40063.2
62915.3,40057.7
62911.8,40051.8
62908.9,40045.6
62906.6,40039.2
62904.9,40032.5
62903.9,40025.7
62903.5,40018.9
62903.5,39879.1
62903.9,39872.3
62904.9,39865.5
62906.6,39858.8
62908.9,39852.4
62911.8,39846.2
62915.3,39840.3
62919.4,39834.8
62924,39829.7
62929.1,39825.1
62934.6,39821
62940.5,39817.5
62946.7,39814.6
62953.1,39812.3
62959.8,39810.6
62966.6,39809.6
62973.4,39809.3
63113.2,39809.3
Z" /> 
<path style="fill:#000000; fill-opacity:1.0; 
stroke:#000000; stroke-width:0; stroke-opacity:1; 
stroke-linecap:round; stroke-linejoin:round;fill-rule:evenodd;"
d="M 63120,39463.1
63126.8,39464.1
63133.5,39465.8
63139.9,39468.1
63146.1,39471
63152,39474.6
63157.5,39478.7
63162.6,39483.3
63167.2,39488.3
63171.3,39493.9
63174.8,39499.7
63177.8,39505.9
63180.1,39512.4
63181.7,39519
63182.7,39525.8
63183.1,39532.7
63183.1,39672.4
63182.7,39679.3
63181.7,39686.1
63180.1,39692.7
63177.8,39699.2
63174.8,39705.4
63171.3,39711.3
63167.2,39716.8
63162.6,39721.9
63157.5,39726.5
63152,39730.5
63146.1,39734.1
63139.9,39737
63133.5,39739.3
63126.8,39741
63120,39742
63113.2,39742.3
62973.4,39742.3
62966.6,39742
62959.8,39741
62953.1,39739.3
62946.7,39737
62940.5,39734.1
62934.6,39730.5
62929.1,39726.5
62924,39721.9
62919.4,39716.8
62915.3,39711.3
62911.8,39705.4
62908.9,39699.2
62906.6,39692.7
62904.9,39686.1
62903.9,39679.3
62903.5,39672.4
62903.5,39532.7
62903.9,39525.8
62904.9,39519
62906.6,39512.4
62908.9,39505.9
62911.8,39499.7
62915.3,39493.9
62919.4,39488.3
62924,39483.3
62929.1,39478.7
62934.6,39474.6
62940.5,39471
62946.7,39468.1
62953.1,39465.8
62959.8,39464.1
62966.6,39463.1
62973.4,39462.8
63113.2,39462.8
Z" /> 
<path style="fill:#000000; fill-opacity:1.0; 
stroke:#000000; stroke-width:0; stroke-opacity:1; 
stroke-linecap:round; stroke-linejoin:round;fill-rule:evenodd;"
d="M 62773.6,39809.6
62780.4,39810.6
62787,39812.3
62793.5,39814.6
62799.7,39817.5
62805.6,39821
62811.1,39825.1
62816.1,39829.7
62820.8,39834.8
62824.8,39840.3
62828.4,39846.2
62831.3,39852.4
62833.6,39858.8
62835.3,39865.5
62836.3,39872.3
62836.6,39879.1
62836.6,40018.9
62836.3,40025.7
62835.3,40032.5
62833.6,40039.2
62831.3,40045.6
62828.4,40051.8
62824.8,40057.7
62820.8,40063.2
62816.1,40068.3
62811.1,40072.9
62805.6,40077
62799.7,40080.5
62793.5,40083.5
62787,40085.8
62780.4,40087.4
62773.6,40088.4
62766.7,40088.8
62627,40088.8
62620.1,40088.4
62613.3,40087.4
62606.7,40085.8
62600.2,40083.5
62594,40080.5
62588.1,40077
62582.6,40072.9
62577.6,40068.3
62572.9,40063.2
62568.9,40057.7
62565.3,40051.8
62562.4,40045.6
62560.1,40039.2
62558.4,40032.5
62557.4,40025.7
62557.1,40018.9
62557.1,39879.1
62557.4,39872.3
62558.4,39865.5
62560.1,39858.8
62562.4,39852.4
62565.3,39846.2
62568.9,39840.3
62572.9,39834.8
62577.6,39829.7
62582.6,39825.1
62588.1,39821
62594,39817.5
62600.2,39814.6
62606.7,39812.3
62613.3,39810.6
62620.1,39809.6
62627,39809.3
62766.7,39809.3
Z" /> 
<path style="fill:#000000; fill-opacity:1.0; 
stroke:#000000; stroke-width:0; stroke-opacity:1; 
stroke-linecap:round; stroke-linejoin:round;fill-rule:evenodd;"
d="M 62773.6,39463.1
62780.4,39464.1
62787,39465.8
62793.5,39468.1
62799.7,39471
62805.6,39474.6
62811.1,39478.7
62816.1,39483.3
62820.8,39488.3
62824.8,39493.9
62828.4,39499.7
62831.3,39505.9
62833.6,39512.4
62835.3,39519
62836.3,39525.8
62836.6,39532.7
62836.6,39672.4
62836.3,39679.3
62835.3,39686.1
62833.6,39692.7
62831.3,39699.2
62828.4,39705.4
62824.8,39711.3
62820.8,39716.8
62816.1,39721.9
62811.1,39726.5
62805.6,39730.5
62799.7,39734.1
62793.5,39737
62787,39739.3
62780.4,39741
62773.6,39742
62766.7,39742.3
62627,39742.3
62620.1,39742
62613.3,39741
62606.7,39739.3
62600.2,39737
62594,39734.1
62588.1,39730.5
62582.6,39726.5
62577.6,39721.9
62572.9,39716.8
62568.9,39711.3
62565.3,39705.4
62562.4,39699.2
62560.1,39692.7
62558.4,39686.1
62557.4,39679.3
62557.1,39672.4
62557.1,39532.7
62557.4,39525.8
62558.4,39519
62560.1,39512.4
62562.4,39505.9
62565.3,39499.7
62568.9,39493.9
62572.9,39488.3
62577.6,39483.3
62582.6,39478.7
62588.1,39474.6
62594,39471
62600.2,39468.1
62606.7,39465.8
62613.3,39464.1
62620.1,39463.1
62627,39462.8
62766.7,39462.8
Z" /> 
<path style="fill:#000000; fill-opacity:1.0; 
stroke:#000000; stroke-width:0; stroke-opacity:1; 
stroke-linecap:round; stroke-linejoin:round;fill-rule:evenodd;"
d="M 62601.8,39047.6
62604.2,39047.9
62606.6,39048.5
62608.8,39049.3
62611,39050.3
62613.1,39051.6
62615,39053
62616.8,39054.6
62618.4,39056.4
62619.9,39058.4
62621.1,39060.4
62622.1,39062.6
62623,39064.9
62623.5,39067.2
62623.9,39069.6
62624,39072
62624,39328
62623.9,39330.4
62623.5,39332.8
62623,39335.1
62622.1,39337.4
62621.1,39339.6
62619.9,39341.6
62618.4,39343.6
62616.8,39345.4
62615,39347
62613.1,39348.4
62611,39349.7
62608.8,39350.7
62606.6,39351.5
62604.2,39352.1
62601.8,39352.4
62599.4,39352.6
62550.2,39352.6
62547.8,39352.4
62545.4,39352.1
62543.1,39351.5
62540.8,39350.7
62538.6,39349.7
62536.5,39348.4
62534.6,39347
62532.8,39345.4
62531.2,39343.6
62529.7,39341.6
62528.5,39339.6
62527.5,39337.4
62526.7,39335.1
62526.1,39332.8
62525.7,39330.4
62525.6,39328
62525.6,39072
62525.7,39069.6
62526.1,39067.2
62526.7,39064.9
62527.5,39062.6
62528.5,39060.4
62529.7,39058.4
62531.2,39056.4
62532.8,39054.6
62534.6,39053
62536.5,39051.6
62538.6,39050.3
62540.8,39049.3
62543.1,39048.5
62545.4,39047.9
62547.8,39047.6
62550.2,39047.4
62599.4,39047.4
Z" /> 
<path style="fill:#000000; fill-opacity:1.0; 
stroke:#000000; stroke-width:0; stroke-opacity:1; 
stroke-linecap:round; stroke-linejoin:round;fill-rule:evenodd;"
d="M 62798.7,39047.6
62801.1,39047.9
62803.4,39048.5
62805.7,39049.3
62807.9,39050.3
62809.9,39051.6
62811.9,39053
62813.7,39054.6
62815.3,39056.4
62816.7,39058.4
62818,39060.4
62819,39062.6
62819.8,39064.9
62820.4,39067.2
62820.7,39069.6
62820.9,39072
62820.9,39328
62820.7,39330.4
62820.4,39332.8
62819.8,39335.1
62819,39337.4
62818,39339.6
62816.7,39341.6
62815.3,39343.6
62813.7,39345.4
62811.9,39347
62809.9,39348.4
62807.9,39349.7
62805.7,39350.7
62803.4,39351.5
62801.1,39352.1
62798.7,39352.4
62796.3,39352.6
62747,39352.6
62744.6,39352.4
62742.2,39352.1
62739.9,39351.5
62737.6,39350.7
62735.4,39349.7
62733.4,39348.4
62731.4,39347
62729.6,39345.4
62728,39343.6
62726.6,39341.6
62725.3,39339.6
62724.3,39337.4
62723.5,39335.1
62722.9,39332.8
62722.6,39330.4
62722.4,39328
62722.4,39072
62722.6,39069.6
62722.9,39067.2
62723.5,39064.9
62724.3,39062.6
62725.3,39060.4
62726.6,39058.4
62728,39056.4
62729.6,39054.6
62731.4,39053
62733.4,39051.6
62735.4,39050.3
62737.6,39049.3
62739.9,39048.5
62742.2,39047.9
62744.6,39047.6
62747,39047.4
62796.3,39047.4
Z" /> 
<path style="fill:#000000; fill-opacity:1.0; 
stroke:#000000; stroke-width:0; stroke-opacity:1; 
stroke-linecap:round; stroke-linejoin:round;fill-rule:evenodd;"
d="M 62995.5,39047.6
62997.9,39047.9
63000.3,39048.5
63002.5,39049.3
63004.7,39050.3
63006.8,39051.6
63008.7,39053
63010.5,39054.6
63012.1,39056.4
63013.6,39058.4
63014.8,39060.4
63015.8,39062.6
63016.7,39064.9
63017.2,39067.2
63017.6,39069.6
63017.7,39072
63017.7,39328
63017.6,39330.4
63017.2,39332.8
63016.7,39335.1
63015.8,39337.4
63014.8,39339.6
63013.6,39341.6
63012.1,39343.6
63010.5,39345.4
63008.7,39347
63006.8,39348.4
63004.7,39349.7
63002.5,39350.7
63000.3,39351.5
62997.9,39352.1
62995.5,39352.4
62993.1,39352.6
62943.9,39352.6
62941.5,39352.4
62939.1,39352.1
62936.8,39351.5
62934.5,39350.7
62932.3,39349.7
62930.2,39348.4
62928.3,39347
62926.5,39345.4
62924.9,39343.6
62923.4,39341.6
62922.2,39339.6
62921.2,39337.4
62920.4,39335.1
62919.8,39332.8
62919.4,39330.4
62919.3,39328
62919.3,39072
62919.4,39069.6
62919.8,39067.2
62920.4,39064.9
62921.2,39062.6
62922.2,39060.4
62923.4,39058.4
62924.9,39056.4
62926.5,39054.6
62928.3,39053
62930.2,39051.6
62932.3,39050.3
62934.5,39049.3
62936.8,39048.5
62939.1,39047.9
62941.5,39047.6
62943.9,39047.4
62993.1,39047.4
Z" /> 
<path style="fill:#000000; fill-opacity:1.0; 
stroke:#000000; stroke-width:0; stroke-opacity:1; 
stroke-linecap:round; stroke-linejoin:round;fill-rule:evenodd;"
d="M 63192.4,39047.6
63194.8,39047.9
63197.1,39048.5
63199.4,39049.3
63201.6,39050.3
63203.6,39051.6
63205.6,39053
63207.4,39054.6
63209,39056.4
63210.4,39058.4
63211.7,39060.4
63212.7,39062.6
63213.5,39064.9
63214.1,39067.2
63214.4,39069.6
63214.6,39072
63214.6,39328
63214.4,39330.4
63214.1,39332.8
63213.5,39335.1
63212.7,39337.4
63211.7,39339.6
63210.4,39341.6
63209,39343.6
63207.4,39345.4
63205.6,39347
63203.6,39348.4
63201.6,39349.7
63199.4,39350.7
63197.1,39351.5
63194.8,39352.1
63192.4,39352.4
63190,39352.6
63140.7,39352.6
63138.3,39352.4
63135.9,39352.1
63133.6,39351.5
63131.3,39350.7
63129.1,39349.7
63127.1,39348.4
63125.1,39347
63123.3,39345.4
63121.7,39343.6
63120.3,39341.6
63119,39339.6
63118,39337.4
63117.2,39335.1
63116.6,39332.8
63116.3,39330.4
63116.1,39328
63116.1,39072
63116.3,39069.6
63116.6,39067.2
63117.2,39064.9
63118,39062.6
63119,39060.4
63120.3,39058.4
63121.7,39056.4
63123.3,39054.6
63125.1,39053
63127.1,39051.6
63129.1,39050.3
63131.3,39049.3
63133.6,39048.5
63135.9,39047.9
63138.3,39047.6
63140.7,39047.4
63190,39047.4
Z" /> 
<path style="fill:#000000; fill-opacity:1.0; 
stroke:#000000; stroke-width:0; stroke-opacity:1; 
stroke-linecap:round; stroke-linejoin:round;fill-rule:evenodd;"
d="M 63576.2,39431.4
63578.6,39431.8
63581,39432.4
63583.2,39433.2
63585.4,39434.2
63587.5,39435.4
63589.4,39436.9
63591.2,39438.5
63592.8,39440.3
63594.3,39442.2
63595.5,39444.3
63596.6,39446.5
63597.4,39448.8
63598,39451.1
63598.3,39453.5
63598.4,39455.9
63598.4,39505.1
63598.3,39507.5
63598,39509.9
63597.4,39512.3
63596.6,39514.5
63595.5,39516.7
63594.3,39518.8
63592.8,39520.7
63591.2,39522.5
63589.4,39524.1
63587.5,39525.6
63585.4,39526.8
63583.2,39527.9
63581,39528.7
63578.6,39529.3
63576.2,39529.6
63573.8,39529.7
63317.9,39529.7
63315.5,39529.6
63313.1,39529.3
63310.8,39528.7
63308.5,39527.9
63306.3,39526.8
63304.2,39525.6
63302.3,39524.1
63300.5,39522.5
63298.9,39520.7
63297.5,39518.8
63296.2,39516.7
63295.2,39514.5
63294.4,39512.3
63293.8,39509.9
63293.4,39507.5
63293.3,39505.1
63293.3,39455.9
63293.4,39453.5
63293.8,39451.1
63294.4,39448.8
63295.2,39446.5
63296.2,39444.3
63297.5,39442.2
63298.9,39440.3
63300.5,39438.5
63302.3,39436.9
63304.2,39435.4
63306.3,39434.2
63308.5,39433.2
63310.8,39432.4
63313.1,39431.8
63315.5,39431.4
63317.9,39431.3
63573.8,39431.3
Z" /> 
<path style="fill:#000000; fill-opacity:1.0; 
stroke:#000000; stroke-width:0; stroke-opacity:1; 
stroke-linecap:round; stroke-linejoin:round;fill-rule:evenodd;"
d="M 63576.2,39628.3
63578.6,39628.6
63581,39629.2
63583.2,39630
63585.4,39631.1
63587.5,39632.3
63589.4,39633.7
63591.2,39635.4
63592.8,39637.1
63594.3,39639.1
63595.5,39641.2
63596.6,39643.3
63597.4,39645.6
63598,39648
63598.3,39650.3
63598.4,39652.8
63598.4,39702
63598.3,39704.4
63598,39706.8
63597.4,39709.1
63596.6,39711.4
63595.5,39713.6
63594.3,39715.6
63592.8,39717.6
63591.2,39719.4
63589.4,39721
63587.5,39722.4
63585.4,39723.7
63583.2,39724.7
63581,39725.5
63578.6,39726.1
63576.2,39726.5
63573.8,39726.6
63317.9,39726.6
63315.5,39726.5
63313.1,39726.1
63310.8,39725.5
63308.5,39724.7
63306.3,39723.7
63304.2,39722.4
63302.3,39721
63300.5,39719.4
63298.9,39717.6
63297.5,39715.6
63296.2,39713.6
63295.2,39711.4
63294.4,39709.1
63293.8,39706.8
63293.4,39704.4
63293.3,39702
63293.3,39652.8
63293.4,39650.3
63293.8,39648
63294.4,39645.6
63295.2,39643.3
63296.2,39641.2
63297.5,39639.1
63298.9,39637.1
63300.5,39635.4
63302.3,39633.7
63304.2,39632.3
63306.3,39631.1
63308.5,39630
63310.8,39629.2
63313.1,39628.6
63315.5,39628.3
63317.9,39628.1
63573.8,39628.1
Z" /> 
<path style="fill:#000000; fill-opacity:1.0; 
stroke:#000000; stroke-width:0; stroke-opacity:1; 
stroke-linecap:round; stroke-linejoin:round;fill-rule:evenodd;"
d="M 63576.2,39825.1
63578.6,39825.5
63581,39826.1
63583.2,39826.9
63585.4,39827.9
63587.5,39829.1
63589.4,39830.6
63591.2,39832.2
63592.8,39834
63594.3,39835.9
63595.5,39838
63596.6,39840.2
63597.4,39842.5
63598,39844.8
63598.3,39847.2
63598.4,39849.6
63598.4,39898.8
63598.3,39901.2
63598,39903.6
63597.4,39906
63596.6,39908.2
63595.5,39910.4
63594.3,39912.5
63592.8,39914.4
63591.2,39916.2
63589.4,39917.8
63587.5,39919.3
63585.4,39920.5
63583.2,39921.6
63581,39922.4
63578.6,39923
63576.2,39923.3
63573.8,39923.4
63317.9,39923.4
63315.5,39923.3
63313.1,39923
63310.8,39922.4
63308.5,39921.6
63306.3,39920.5
63304.2,39919.3
63302.3,39917.8
63300.5,39916.2
63298.9,39914.4
63297.5,39912.5
63296.2,39910.4
63295.2,39908.2
63294.4,39906
63293.8,39903.6
63293.4,39901.2
63293.3,39898.8
63293.3,39849.6
63293.4,39847.2
63293.8,39844.8
63294.4,39842.5
63295.2,39840.2
63296.2,39838
63297.5,39835.9
63298.9,39834
63300.5,39832.2
63302.3,39830.6
63304.2,39829.1
63306.3,39827.9
63308.5,39826.9
63310.8,39826.1
63313.1,39825.5
63315.5,39825.1
63317.9,39825
63573.8,39825
Z" /> 
<path style="fill:#000000; fill-opacity:1.0; 
stroke:#000000; stroke-width:0; stroke-opacity:1; 
stroke-linecap:round; stroke-linejoin:round;fill-rule:evenodd;"
d="M 63576.2,40022
63578.6,40022.3
63581,40022.9
63583.2,40023.7
63585.4,40024.8
63587.5,40026
63589.4,40027.4
63591.2,40029.1
63592.8,40030.8
63594.3,40032.8
63595.5,40034.9
63596.6,40037
63597.4,40039.3
63598,40041.7
63598.3,40044
63598.4,40046.5
63598.4,40095.7
63598.3,40098.1
63598,40100.5
63597.4,40102.8
63596.6,40105.1
63595.5,40107.3
63594.3,40109.3
63592.8,40111.3
63591.2,40113.1
63589.4,40114.7
63587.5,40116.1
63585.4,40117.4
63583.2,40118.4
63581,40119.2
63578.6,40119.8
63576.2,40120.2
63573.8,40120.3
63317.9,40120.3
63315.5,40120.2
63313.1,40119.8
63310.8,40119.2
63308.5,40118.4
63306.3,40117.4
63304.2,40116.1
63302.3,40114.7
63300.5,40113.1
63298.9,40111.3
63297.5,40109.3
63296.2,40107.3
63295.2,40105.1
63294.4,40102.8
63293.8,40100.5
63293.4,40098.1
63293.3,40095.7
63293.3,40046.5
63293.4,40044
63293.8,40041.7
63294.4,40039.3
63295.2,40037
63296.2,40034.9
63297.5,40032.8
63298.9,40030.8
63300.5,40029.1
63302.3,40027.4
63304.2,40026
63306.3,40024.8
63308.5,40023.7
63310.8,40022.9
63313.1,40022.3
63315.5,40022
63317.9,40021.9
63573.8,40021.9
Z" /> 
<path style="fill:#000000; fill-opacity:1.0; 
stroke:#000000; stroke-width:0; stroke-opacity:1; 
stroke-linecap:round; stroke-linejoin:round;fill-rule:evenodd;"
d="M 63192.4,40199.1
63194.8,40199.5
63197.1,40200.1
63199.4,40200.9
63201.6,40201.9
63203.6,40203.2
63205.6,40204.6
63207.4,40206.2
63209,40208
63210.4,40210
63211.7,40212
63212.7,40214.2
63213.5,40216.5
63214.1,40218.8
63214.4,40221.2
63214.6,40223.6
63214.6,40479.5
63214.4,40481.9
63214.1,40484.3
63213.5,40486.7
63212.7,40488.9
63211.7,40491.1
63210.4,40493.2
63209,40495.1
63207.4,40496.9
63205.6,40498.5
63203.6,40500
63201.6,40501.2
63199.4,40502.3
63197.1,40503.1
63194.8,40503.7
63192.4,40504
63190,40504.1
63140.7,40504.1
63138.3,40504
63135.9,40503.7
63133.6,40503.1
63131.3,40502.3
63129.1,40501.2
63127.1,40500
63125.1,40498.5
63123.3,40496.9
63121.7,40495.1
63120.3,40493.2
63119,40491.1
63118,40488.9
63117.2,40486.7
63116.6,40484.3
63116.3,40481.9
63116.1,40479.5
63116.1,40223.6
63116.3,40221.2
63116.6,40218.8
63117.2,40216.5
63118,40214.2
63119,40212
63120.3,40210
63121.7,40208
63123.3,40206.2
63125.1,40204.6
63127.1,40203.2
63129.1,40201.9
63131.3,40200.9
63133.6,40200.1
63135.9,40199.5
63138.3,40199.1
63140.7,40199
63190,40199
Z" /> 
<path style="fill:#000000; fill-opacity:1.0; 
stroke:#000000; stroke-width:0; stroke-opacity:1; 
stroke-linecap:round; stroke-linejoin:round;fill-rule:evenodd;"
d="M 62995.5,40199.1
62997.9,40199.5
63000.3,40200.1
63002.5,40200.9
63004.7,40201.9
63006.8,40203.2
63008.7,40204.6
63010.5,40206.2
63012.1,40208
63013.6,40210
63014.8,40212
63015.8,40214.2
63016.7,40216.5
63017.2,40218.8
63017.6,40221.2
63017.7,40223.6
63017.7,40479.5
63017.6,40481.9
63017.2,40484.3
63016.7,40486.7
63015.8,40488.9
63014.8,40491.1
63013.6,40493.2
63012.1,40495.1
63010.5,40496.9
63008.7,40498.5
63006.8,40500
63004.7,40501.2
63002.5,40502.3
63000.3,40503.1
62997.9,40503.7
62995.5,40504
62993.1,40504.1
62943.9,40504.1
62941.5,40504
62939.1,40503.7
62936.8,40503.1
62934.5,40502.3
62932.3,40501.2
62930.2,40500
62928.3,40498.5
62926.5,40496.9
62924.9,40495.1
62923.4,40493.2
62922.2,40491.1
62921.2,40488.9
62920.4,40486.7
62919.8,40484.3
62919.4,40481.9
62919.3,40479.5
62919.3,40223.6
62919.4,40221.2
62919.8,40218.8
62920.4,40216.5
62921.2,40214.2
62922.2,40212
62923.4,40210
62924.9,40208
62926.5,40206.2
62928.3,40204.6
62930.2,40203.2
62932.3,40201.9
62934.5,40200.9
62936.8,40200.1
62939.1,40199.5
62941.5,40199.1
62943.9,40199
62993.1,40199
Z" /> 
<path style="fill:#000000; fill-opacity:1.0; 
stroke:#000000; stroke-width:0; stroke-opacity:1; 
stroke-linecap:round; stroke-linejoin:round;fill-rule:evenodd;"
d="M 62798.7,40199.1
62801.1,40199.5
62803.4,40200.1
62805.7,40200.9
62807.9,40201.9
62809.9,40203.2
62811.9,40204.6
62813.7,40206.2
62815.3,40208
62816.7,40210
62818,40212
62819,40214.2
62819.8,40216.5
62820.4,40218.8
62820.7,40221.2
62820.9,40223.6
62820.9,40479.5
62820.7,40481.9
62820.4,40484.3
62819.8,40486.7
62819,40488.9
62818,40491.1
62816.7,40493.2
62815.3,40495.1
62813.7,40496.9
62811.9,40498.5
62809.9,40500
62807.9,40501.2
62805.7,40502.3
62803.4,40503.1
62801.1,40503.7
62798.7,40504
62796.3,40504.1
62747,40504.1
62744.6,40504
62742.2,40503.7
62739.9,40503.1
62737.6,40502.3
62735.4,40501.2
62733.4,40500
62731.4,40498.5
62729.6,40496.9
62728,40495.1
62726.6,40493.2
62725.3,40491.1
62724.3,40488.9
62723.5,40486.7
62722.9,40484.3
62722.6,40481.9
62722.4,40479.5
62722.4,40223.6
62722.6,40221.2
62722.9,40218.8
62723.5,40216.5
62724.3,40214.2
62725.3,40212
62726.6,40210
62728,40208
62729.6,40206.2
62731.4,40204.6
62733.4,40203.2
62735.4,40201.9
62737.6,40200.9
62739.9,40200.1
62742.2,40199.5
62744.6,40199.1
62747,40199
62796.3,40199
Z" /> 
<path style="fill:#000000; fill-opacity:1.0; 
stroke:#000000; stroke-width:0; stroke-opacity:1; 
stroke-linecap:round; stroke-linejoin:round;fill-rule:evenodd;"
d="M 62601.8,40199.1
62604.2,40199.5
62606.6,40200.1
62608.8,40200.9
62611,40201.9
62613.1,40203.2
62615,40204.6
62616.8,40206.2
62618.4,40208
62619.9,40210
62621.1,40212
62622.1,40214.2
62623,40216.5
62623.5,40218.8
62623.9,40221.2
62624,40223.6
62624,40479.5
62623.9,40481.9
62623.5,40484.3
62623,40486.7
62622.1,40488.9
62621.1,40491.1
62619.9,40493.2
62618.4,40495.1
62616.8,40496.9
62615,40498.5
62613.1,40500
62611,40501.2
62608.8,40502.3
62606.6,40503.1
62604.2,40503.7
62601.8,40504
62599.4,40504.1
62550.2,40504.1
62547.8,40504
62545.4,40503.7
62543.1,40503.1
62540.8,40502.3
62538.6,40501.2
62536.5,40500
62534.6,40498.5
62532.8,40496.9
62531.2,40495.1
62529.7,40493.2
62528.5,40491.1
62527.5,40488.9
62526.7,40486.7
62526.1,40484.3
62525.7,40481.9
62525.6,40479.5
62525.6,40223.6
62525.7,40221.2
62526.1,40218.8
62526.7,40216.5
62527.5,40214.2
62528.5,40212
62529.7,40210
62531.2,40208
62532.8,40206.2
62534.6,40204.6
62536.5,40203.2
62538.6,40201.9
62540.8,40200.9
62543.1,40200.1
62545.4,40199.5
62547.8,40199.1
62550.2,40199
62599.4,40199
Z" /> 
<path style="fill:#000000; fill-opacity:1.0; 
stroke:#000000; stroke-width:0; stroke-opacity:1; 
stroke-linecap:round; stroke-linejoin:round;fill-rule:evenodd;"
d="M 62424.7,40022
62427,40022.3
62429.4,40022.9
62431.7,40023.7
62433.8,40024.8
62435.9,40026
62437.9,40027.4
62439.6,40029.1
62441.3,40030.8
62442.7,40032.8
62443.9,40034.9
62445,40037
62445.8,40039.3
62446.4,40041.7
62446.7,40044
62446.9,40046.5
62446.9,40095.7
62446.7,40098.1
62446.4,40100.5
62445.8,40102.8
62445,40105.1
62443.9,40107.3
62442.7,40109.3
62441.3,40111.3
62439.6,40113.1
62437.9,40114.7
62435.9,40116.1
62433.8,40117.4
62431.7,40118.4
62429.4,40119.2
62427,40119.8
62424.7,40120.2
62422.2,40120.3
62166.3,40120.3
62163.9,40120.2
62161.5,40119.8
62159.2,40119.2
62156.9,40118.4
62154.7,40117.4
62152.7,40116.1
62150.7,40114.7
62148.9,40113.1
62147.3,40111.3
62145.9,40109.3
62144.6,40107.3
62143.6,40105.1
62142.8,40102.8
62142.2,40100.5
62141.9,40098.1
62141.7,40095.7
62141.7,40046.5
62141.9,40044
62142.2,40041.7
62142.8,40039.3
62143.6,40037
62144.6,40034.9
62145.9,40032.8
62147.3,40030.8
62148.9,40029.1
62150.7,40027.4
62152.7,40026
62154.7,40024.8
62156.9,40023.7
62159.2,40022.9
62161.5,40022.3
62163.9,40022
62166.3,40021.9
62422.2,40021.9
Z" /> 
<path style="fill:#000000; fill-opacity:1.0; 
stroke:#000000; stroke-width:0; stroke-opacity:1; 
stroke-linecap:round; stroke-linejoin:round;fill-rule:evenodd;"
d="M 62424.7,39825.1
62427,39825.5
62429.4,39826.1
62431.7,39826.9
62433.8,39827.9
62435.9,39829.1
62437.9,39830.6
62439.6,39832.2
62441.3,39834
62442.7,39835.9
62443.9,39838
62445,39840.2
62445.8,39842.5
62446.4,39844.8
62446.7,39847.2
62446.9,39849.6
62446.9,39898.8
62446.7,39901.2
62446.4,39903.6
62445.8,39906
62445,39908.2
62443.9,39910.4
62442.7,39912.5
62441.3,39914.4
62439.6,39916.2
62437.9,39917.8
62435.9,39919.3
62433.8,39920.5
62431.7,39921.6
62429.4,39922.4
62427,39923
62424.7,39923.3
62422.2,39923.4
62166.3,39923.4
62163.9,39923.3
62161.5,39923
62159.2,39922.4
62156.9,39921.6
62154.7,39920.5
62152.7,39919.3
62150.7,39917.8
62148.9,39916.2
62147.3,39914.4
62145.9,39912.5
62144.6,39910.4
62143.6,39908.2
62142.8,39906
62142.2,39903.6
62141.9,39901.2
62141.7,39898.8
62141.7,39849.6
62141.9,39847.2
62142.2,39844.8
62142.8,39842.5
62143.6,39840.2
62144.6,39838
62145.9,39835.9
62147.3,39834
62148.9,39832.2
62150.7,39830.6
62152.7,39829.1
62154.7,39827.9
62156.9,39826.9
62159.2,39826.1
62161.5,39825.5
62163.9,39825.1
62166.3,39825
62422.2,39825
Z" /> 
<path style="fill:#000000; fill-opacity:1.0; 
stroke:#000000; stroke-width:0; stroke-opacity:1; 
stroke-linecap:round; stroke-linejoin:round;fill-rule:evenodd;"
d="M 62424.7,39628.3
62427,39628.6
62429.4,39629.2
62431.7,39630
62433.8,39631.1
62435.9,39632.3
62437.9,39633.7
62439.6,39635.4
62441.3,39637.1
62442.7,39639.1
62443.9,39641.2
62445,39643.3
62445.8,39645.6
62446.4,39648
62446.7,39650.3
62446.9,39652.8
62446.9,39702
62446.7,39704.4
62446.4,39706.8
62445.8,39709.1
62445,39711.4
62443.9,39713.6
62442.7,39715.6
62441.3,39717.6
62439.6,39719.4
62437.9,39721
62435.9,39722.4
62433.8,39723.7
62431.7,39724.7
62429.4,39725.5
62427,39726.1
62424.7,39726.5
62422.2,39726.6
62166.3,39726.6
62163.9,39726.5
62161.5,39726.1
62159.2,39725.5
62156.9,39724.7
62154.7,39723.7
62152.7,39722.4
62150.7,39721
62148.9,39719.4
62147.3,39717.6
62145.9,39715.6
62144.6,39713.6
62143.6,39711.4
62142.8,39709.1
62142.2,39706.8
62141.9,39704.4
62141.7,39702
62141.7,39652.8
62141.9,39650.3
62142.2,39648
62142.8,39645.6
62143.6,39643.3
62144.6,39641.2
62145.9,39639.1
62147.3,39637.1
62148.9,39635.4
62150.7,39633.7
62152.7,39632.3
62154.7,39631.1
62156.9,39630
62159.2,39629.2
62161.5,39628.6
62163.9,39628.3
62166.3,39628.1
62422.2,39628.1
Z" /> 
<path style="fill:#000000; fill-opacity:1.0; 
stroke:#000000; stroke-width:0; stroke-opacity:1; 
stroke-linecap:round; stroke-linejoin:round;fill-rule:evenodd;"
d="M 62424.7,39431.4
62427,39431.8
62429.4,39432.4
62431.7,39433.2
62433.8,39434.2
62435.9,39435.4
62437.9,39436.9
62439.6,39438.5
62441.3,39440.3
62442.7,39442.2
62443.9,39444.3
62445,39446.5
62445.8,39448.8
62446.4,39451.1
62446.7,39453.5
62446.9,39455.9
62446.9,39505.1
62446.7,39507.5
62446.4,39509.9
62445.8,39512.3
62445,39514.5
62443.9,39516.7
62442.7,39518.8
62441.3,39520.7
62439.6,39522.5
62437.9,39524.1
62435.9,39525.6
62433.8,39526.8
62431.7,39527.9
62429.4,39528.7
62427,39529.3
62424.7,39529.6
62422.2,39529.7
62166.3,39529.7
62163.9,39529.6
62161.5,39529.3
62159.2,39528.7
62156.9,39527.9
62154.7,39526.8
62152.7,39525.6
62150.7,39524.1
62148.9,39522.5
62147.3,39520.7
62145.9,39518.8
62144.6,39516.7
62143.6,39514.5
62142.8,39512.3
62142.2,39509.9
62141.9,39507.5
62141.7,39505.1
62141.7,39455.9
62141.9,39453.5
62142.2,39451.1
62142.8,39448.8
62143.6,39446.5
62144.6,39444.3
62145.9,39442.2
62147.3,39440.3
62148.9,39438.5
62150.7,39436.9
62152.7,39435.4
62154.7,39434.2
62156.9,39433.2
62159.2,39432.4
62161.5,39431.8
62163.9,39431.4
62166.3,39431.3
62422.2,39431.3
Z" /> 
</g>
<g >
</g>
<g style="fill:#000000; fill-opacity:1.0; 
stroke:#000000; stroke-width:0; stroke-opacity:1; 
stroke-linecap:round; stroke-linejoin:round;">
<path style="fill:#000000; fill-opacity:1.0; 
stroke:#000000; stroke-width:0; stroke-opacity:1; 
stroke-linecap:round; stroke-linejoin:round;fill-rule:evenodd;"
d="M 61416,37642.9
61423.6,37644
61431.1,37645.9
61438.4,37648.5
61445.4,37651.8
61452,37655.8
61458.2,37660.4
61463.9,37665.6
61469.1,37671.3
61473.7,37677.5
61477.7,37684.1
61481,37691.1
61483.6,37698.4
61485.5,37705.9
61486.6,37713.5
61487,37721.3
61487,37878.7
61486.6,37886.5
61485.5,37894.1
61483.6,37901.6
61481,37908.9
61477.7,37915.9
61473.7,37922.5
61469.1,37928.7
61463.9,37934.4
61458.2,37939.6
61452,37944.2
61445.4,37948.2
61438.4,37951.5
61431.1,37954.1
61423.6,37956
61416,37957.1
61408.3,37957.5
61191.7,37957.5
61184,37957.1
61176.4,37956
61168.9,37954.1
61161.6,37951.5
61154.6,37948.2
61148,37944.2
61141.8,37939.6
61136.1,37934.4
61130.9,37928.7
61126.3,37922.5
61122.3,37915.9
61119,37908.9
61116.4,37901.6
61114.5,37894.1
61113.4,37886.5
61113,37878.7
61113,37721.3
61113.4,37713.5
61114.5,37705.9
61116.4,37698.4
61119,37691.1
61122.3,37684.1
61126.3,37677.5
61130.9,37671.3
61136.1,37665.6
61141.8,37660.4
61148,37655.8
61154.6,37651.8
61161.6,37648.5
61168.9,37645.9
61176.4,37644
61184,37642.9
61191.7,37642.5
61408.3,37642.5
Z" /> 
<path style="fill:#000000; fill-opacity:1.0; 
stroke:#000000; stroke-width:0; stroke-opacity:1; 
stroke-linecap:round; stroke-linejoin:round;fill-rule:evenodd;"
d="M 61416,38292.5
61423.6,38293.6
61431.1,38295.5
61438.4,38298.1
61445.4,38301.4
61452,38305.4
61458.2,38310
61463.9,38315.2
61469.1,38320.9
61473.7,38327.1
61477.7,38333.7
61481,38340.7
61483.6,38348
61485.5,38355.5
61486.6,38363.1
61487,38370.9
61487,38528.3
61486.6,38536.1
61485.5,38543.7
61483.6,38551.2
61481,38558.5
61477.7,38565.5
61473.7,38572.1
61469.1,38578.3
61463.9,38584
61458.2,38589.2
61452,38593.8
61445.4,38597.8
61438.4,38601.1
61431.1,38603.7
61423.6,38605.6
61416,38606.7
61408.3,38607.1
61191.7,38607.1
61184,38606.7
61176.4,38605.6
61168.9,38603.7
61161.6,38601.1
61154.6,38597.8
61148,38593.8
61141.8,38589.2
61136.1,38584
61130.9,38578.3
61126.3,38572.1
61122.3,38565.5
61119,38558.5
61116.4,38551.2
61114.5,38543.7
61113.4,38536.1
61113,38528.3
61113,38370.9
61113.4,38363.1
61114.5,38355.5
61116.4,38348
61119,38340.7
61122.3,38333.7
61126.3,38327.1
61130.9,38320.9
61136.1,38315.2
61141.8,38310
61148,38305.4
61154.6,38301.4
61161.6,38298.1
61168.9,38295.5
61176.4,38293.6
61184,38292.5
61191.7,38292.1
61408.3,38292.1
Z" /> 
</g>
<g >
</g>
<g >
</g>
<g style="fill:#000000; fill-opacity:1.0; 
stroke:#000000; stroke-width:0; stroke-opacity:1; 
stroke-linecap:round; stroke-linejoin:round;">
<path style="fill:#000000; fill-opacity:1.0; 
stroke:#000000; stroke-width:0; stroke-opacity:1; 
stroke-linecap:round; stroke-linejoin:round;fill-rule:evenodd;"
d="M 58673.6,40275.1
58679.2,40275.9
58684.8,40277.3
58690.1,40279.2
58695.3,40281.7
58700.2,40284.6
58704.8,40288
58709,40291.8
58712.8,40296
58716.2,40300.6
58719.1,40305.5
58721.6,40310.7
58723.5,40316
58724.9,40321.5
58725.7,40327.2
58726,40332.9
58726,40449
58725.7,40454.7
58724.9,40460.3
58723.5,40465.9
58721.6,40471.2
58719.1,40476.4
58716.2,40481.3
58712.8,40485.9
58709,40490.1
58704.8,40493.9
58700.2,40497.3
58695.3,40500.2
58690.1,40502.7
58684.8,40504.6
58679.2,40506
58673.6,40506.8
58667.9,40507.1
58532.1,40507.1
58526.4,40506.8
58520.8,40506
58515.2,40504.6
58509.9,40502.7
58504.7,40500.2
58499.8,40497.3
58495.2,40493.9
58491,40490.1
58487.2,40485.9
58483.8,40481.3
58480.9,40476.4
58478.4,40471.2
58476.5,40465.9
58475.1,40460.3
58474.3,40454.7
58474,40449
58474,40332.9
58474.3,40327.2
58475.1,40321.5
58476.5,40316
58478.4,40310.7
58480.9,40305.5
58483.8,40300.6
58487.2,40296
58491,40291.8
58495.2,40288
58499.8,40284.6
58504.7,40281.7
58509.9,40279.2
58515.2,40277.3
58520.8,40275.9
58526.4,40275.1
58532.1,40274.8
58667.9,40274.8
Z" /> 
<path style="fill:#000000; fill-opacity:1.0; 
stroke:#000000; stroke-width:0; stroke-opacity:1; 
stroke-linecap:round; stroke-linejoin:round;fill-rule:evenodd;"
d="M 58673.6,39893.2
58679.2,39894
58684.8,39895.4
58690.1,39897.3
58695.3,39899.8
58700.2,39902.7
58704.8,39906.1
58709,39909.9
58712.8,39914.1
58716.2,39918.7
58719.1,39923.6
58721.6,39928.8
58723.5,39934.1
58724.9,39939.7
58725.7,39945.3
58726,39951
58726,40067.1
58725.7,40072.8
58724.9,40078.5
58723.5,40084
58721.6,40089.3
58719.1,40094.5
58716.2,40099.4
58712.8,40104
58709,40108.2
58704.8,40112
58700.2,40115.4
58695.3,40118.3
58690.1,40120.8
58684.8,40122.7
58679.2,40124.1
58673.6,40124.9
58667.9,40125.2
58532.1,40125.2
58526.4,40124.9
58520.8,40124.1
58515.2,40122.7
58509.9,40120.8
58504.7,40118.3
58499.8,40115.4
58495.2,40112
58491,40108.2
58487.2,40104
58483.8,40099.4
58480.9,40094.5
58478.4,40089.3
58476.5,40084
58475.1,40078.5
58474.3,40072.8
58474,40067.1
58474,39951
58474.3,39945.3
58475.1,39939.7
58476.5,39934.1
58478.4,39928.8
58480.9,39923.6
58483.8,39918.7
58487.2,39914.1
58491,39909.9
58495.2,39906.1
58499.8,39902.7
58504.7,39899.8
58509.9,39897.3
58515.2,39895.4
58520.8,39894
58526.4,39893.2
58532.1,39892.9
58667.9,39892.9
Z" /> 
</g>
<g >
</g>
<g style="fill:#000000; fill-opacity:1.0; 
stroke:#000000; stroke-width:0; stroke-opacity:1; 
stroke-linecap:round; stroke-linejoin:round;">
<path style="fill:#000000; fill-opacity:1.0; 
stroke:#000000; stroke-width:0; stroke-opacity:1; 
stroke-linecap:round; stroke-linejoin:round;fill-rule:evenodd;"
d="M 59408.1,39715
59417.6,39716.5
59427,39718.8
59436.1,39722.1
59444.8,39726.2
59453.1,39731.2
59460.9,39736.9
59468,39743.4
59474.5,39750.6
59480.3,39758.3
59485.2,39766.6
59489.4,39775.3
59492.6,39784.4
59495,39793.8
59496.4,39803.3
59496.9,39813
59496.9,40187
59496.4,40196.7
59495,40206.2
59492.6,40215.6
59489.4,40224.7
59485.2,40233.4
59480.3,40241.7
59474.5,40249.4
59468,40256.6
59460.9,40263.1
59453.1,40268.8
59444.8,40273.8
59436.1,40277.9
59427,40281.2
59417.6,40283.5
59408.1,40285
59398.4,40285.4
59201.6,40285.4
59191.9,40285
59182.4,40283.5
59173,40281.2
59163.9,40277.9
59155.2,40273.8
59146.9,40268.8
59139.1,40263.1
59132,40256.6
59125.5,40249.4
59119.7,40241.7
59114.8,40233.4
59110.6,40224.7
59107.4,40215.6
59105,40206.2
59103.6,40196.7
59103.1,40187
59103.1,39813
59103.6,39803.3
59105,39793.8
59107.4,39784.4
59110.6,39775.3
59114.8,39766.6
59119.7,39758.3
59125.5,39750.6
59132,39743.4
59139.1,39736.9
59146.9,39731.2
59155.2,39726.2
59163.9,39722.1
59173,39718.8
59182.4,39716.5
59191.9,39715
59201.6,39714.6
59398.4,39714.6
Z" /> 
<path style="fill:#000000; fill-opacity:1.0; 
stroke:#000000; stroke-width:0; stroke-opacity:1; 
stroke-linecap:round; stroke-linejoin:round;fill-rule:evenodd;"
d="M 60156.1,39715
60165.7,39716.5
60175,39718.8
60184.1,39722.1
60192.9,39726.2
60201.1,39731.2
60208.9,39736.9
60216.1,39743.4
60222.5,39750.6
60228.3,39758.3
60233.3,39766.6
60237.4,39775.3
60240.6,39784.4
60243,39793.8
60244.4,39803.3
60244.9,39813
60244.9,40187
60244.4,40196.7
60243,40206.2
60240.6,40215.6
60237.4,40224.7
60233.3,40233.4
60228.3,40241.7
60222.5,40249.4
60216.1,40256.6
60208.9,40263.1
60201.1,40268.8
60192.9,40273.8
60184.1,40277.9
60175,40281.2
60165.7,40283.5
60156.1,40285
60146.5,40285.4
59949.6,40285.4
59940,40285
59930.4,40283.5
59921,40281.2
59911.9,40277.9
59903.2,40273.8
59894.9,40268.8
59887.2,40263.1
59880,40256.6
59873.5,40249.4
59867.8,40241.7
59862.8,40233.4
59858.7,40224.7
59855.4,40215.6
59853.1,40206.2
59851.7,40196.7
59851.2,40187
59851.2,39813
59851.7,39803.3
59853.1,39793.8
59855.4,39784.4
59858.7,39775.3
59862.8,39766.6
59867.8,39758.3
59873.5,39750.6
59880,39743.4
59887.2,39736.9
59894.9,39731.2
59903.2,39726.2
59911.9,39722.1
59921,39718.8
59930.4,39716.5
59940,39715
59949.6,39714.6
60146.5,39714.6
Z" /> 
</g>
<g >
</g>
<g style="fill:#000000; fill-opacity:1.0; 
stroke:#000000; stroke-width:0; stroke-opacity:1; 
stroke-linecap:round; stroke-linejoin:round;">
<path style="fill:#000000; fill-opacity:1.0; 
stroke:#000000; stroke-width:0; stroke-opacity:1; 
stroke-linecap:round; stroke-linejoin:round;fill-rule:evenodd;"
d="M 65587.6,39646.1
65597.2,39647.6
65606.5,39649.9
65615.6,39653.2
65624.4,39657.3
65632.6,39662.3
65640.4,39668
65647.6,39674.5
65654,39681.7
65659.8,39689.4
65664.8,39697.7
65668.9,39706.4
65672.1,39715.5
65674.5,39724.9
65675.9,39734.4
65676.4,39744.1
65676.4,40255.9
65675.9,40265.6
65674.5,40275.1
65672.1,40284.5
65668.9,40293.6
65664.8,40302.3
65659.8,40310.6
65654,40318.3
65647.6,40325.5
65640.4,40332
65632.6,40337.7
65624.4,40342.7
65615.6,40346.8
65606.5,40350.1
65597.2,40352.4
65587.6,40353.9
65578,40354.3
65322,40354.3
65312.4,40353.9
65302.8,40352.4
65293.5,40350.1
65284.4,40346.8
65275.6,40342.7
65267.4,40337.7
65259.6,40332
65252.4,40325.5
65246,40318.3
65240.2,40310.6
65235.2,40302.3
65231.1,40293.6
65227.9,40284.5
65225.5,40275.1
65224.1,40265.6
65223.6,40255.9
65223.6,39744.1
65224.1,39734.4
65225.5,39724.9
65227.9,39715.5
65231.1,39706.4
65235.2,39697.7
65240.2,39689.4
65246,39681.7
65252.4,39674.5
65259.6,39668
65267.4,39662.3
65275.6,39657.3
65284.4,39653.2
65293.5,39649.9
65302.8,39647.6
65312.4,39646.1
65322,39645.7
65578,39645.7
Z" /> 
<path style="fill:#000000; fill-opacity:1.0; 
stroke:#000000; stroke-width:0; stroke-opacity:1; 
stroke-linecap:round; stroke-linejoin:round;fill-rule:evenodd;"
d="M 66749,39646.1
66758.6,39647.6
66767.9,39649.9
66777,39653.2
66785.8,39657.3
66794.1,39662.3
66801.8,39668
66809,39674.5
66815.5,39681.7
66821.2,39689.4
66826.2,39697.7
66830.3,39706.4
66833.6,39715.5
66835.9,39724.9
66837.3,39734.4
66837.8,39744.1
66837.8,40255.9
66837.3,40265.6
66835.9,40275.1
66833.6,40284.5
66830.3,40293.6
66826.2,40302.3
66821.2,40310.6
66815.5,40318.3
66809,40325.5
66801.8,40332
66794.1,40337.7
66785.8,40342.7
66777,40346.8
66767.9,40350.1
66758.6,40352.4
66749,40353.9
66739.4,40354.3
66483.5,40354.3
66473.8,40353.9
66464.3,40352.4
66454.9,40350.1
66445.8,40346.8
66437.1,40342.7
66428.8,40337.7
66421,40332
66413.9,40325.5
66407.4,40318.3
66401.6,40310.6
66396.7,40302.3
66392.5,40293.6
66389.3,40284.5
66386.9,40275.1
66385.5,40265.6
66385,40255.9
66385,39744.1
66385.5,39734.4
66386.9,39724.9
66389.3,39715.5
66392.5,39706.4
66396.7,39697.7
66401.6,39689.4
66407.4,39681.7
66413.9,39674.5
66421,39668
66428.8,39662.3
66437.1,39657.3
66445.8,39653.2
66454.9,39649.9
66464.3,39647.6
66473.8,39646.1
66483.5,39645.7
66739.4,39645.7
Z" /> 
</g>
<g >
</g>
<g style="fill:#000000; fill-opacity:1.0; 
stroke:#000000; stroke-width:0; stroke-opacity:1; 
stroke-linecap:round; stroke-linejoin:round;">
<path style="fill:#000000; fill-opacity:1.0; 
stroke:#000000; stroke-width:0; stroke-opacity:1; 
stroke-linecap:round; stroke-linejoin:round;fill-rule:evenodd;"
d="M 64623.6,39502.2
64629.2,39503.1
64634.8,39504.5
64640.1,39506.4
64645.3,39508.8
64650.2,39511.8
64654.8,39515.2
64659,39519
64662.8,39523.2
64666.2,39527.8
64669.1,39532.7
64671.6,39537.8
64673.5,39543.2
64674.9,39548.7
64675.7,39554.3
64676,39560
64676,39676.2
64675.7,39681.9
64674.9,39687.5
64673.5,39693
64671.6,39698.4
64669.1,39703.6
64666.2,39708.4
64662.8,39713
64659,39717.2
64654.8,39721.1
64650.2,39724.5
64645.3,39727.4
64640.1,39729.8
64634.8,39731.8
64629.2,39733.1
64623.6,39734
64617.9,39734.3
64482.1,39734.3
64476.4,39734
64470.8,39733.1
64465.2,39731.8
64459.9,39729.8
64454.7,39727.4
64449.8,39724.5
64445.2,39721.1
64441,39717.2
64437.2,39713
64433.8,39708.4
64430.9,39703.6
64428.4,39698.4
64426.5,39693
64425.1,39687.5
64424.3,39681.9
64424,39676.2
64424,39560
64424.3,39554.3
64425.1,39548.7
64426.5,39543.2
64428.4,39537.8
64430.9,39532.7
64433.8,39527.8
64437.2,39523.2
64441,39519
64445.2,39515.2
64449.8,39511.8
64454.7,39508.8
64459.9,39506.4
64465.2,39504.5
64470.8,39503.1
64476.4,39502.2
64482.1,39502
64617.9,39502
Z" /> 
<path style="fill:#000000; fill-opacity:1.0; 
stroke:#000000; stroke-width:0; stroke-opacity:1; 
stroke-linecap:round; stroke-linejoin:round;fill-rule:evenodd;"
d="M 64623.6,39884.1
64629.2,39885
64634.8,39886.4
64640.1,39888.3
64645.3,39890.7
64650.2,39893.6
64654.8,39897
64659,39900.9
64662.8,39905.1
64666.2,39909.7
64669.1,39914.6
64671.6,39919.7
64673.5,39925.1
64674.9,39930.6
64675.7,39936.2
64676,39941.9
64676,40058.1
64675.7,40063.8
64674.9,40069.4
64673.5,40074.9
64671.6,40080.3
64669.1,40085.4
64666.2,40090.3
64662.8,40094.9
64659,40099.1
64654.8,40103
64650.2,40106.4
64645.3,40109.3
64640.1,40111.7
64634.8,40113.6
64629.2,40115
64623.6,40115.9
64617.9,40116.1
64482.1,40116.1
64476.4,40115.9
64470.8,40115
64465.2,40113.6
64459.9,40111.7
64454.7,40109.3
64449.8,40106.4
64445.2,40103
64441,40099.1
64437.2,40094.9
64433.8,40090.3
64430.9,40085.4
64428.4,40080.3
64426.5,40074.9
64425.1,40069.4
64424.3,40063.8
64424,40058.1
64424,39941.9
64424.3,39936.2
64425.1,39930.6
64426.5,39925.1
64428.4,39919.7
64430.9,39914.6
64433.8,39909.7
64437.2,39905.1
64441,39900.9
64445.2,39897
64449.8,39893.6
64454.7,39890.7
64459.9,39888.3
64465.2,39886.4
64470.8,39885
64476.4,39884.1
64482.1,39883.9
64617.9,39883.9
Z" /> 
</g>
<g >
</g>
<g style="fill:#000000; fill-opacity:1.0; 
stroke:#000000; stroke-width:0; stroke-opacity:1; 
stroke-linecap:round; stroke-linejoin:round;">
<path style="fill:#000000; fill-opacity:1.0; 
stroke:#000000; stroke-width:0; stroke-opacity:1; 
stroke-linecap:round; stroke-linejoin:round;fill-rule:evenodd;"
d="M 64558.1,37515
64567.6,37516.5
64577,37518.8
64586.1,37522.1
64594.8,37526.2
64603.1,37531.2
64610.9,37536.9
64618,37543.4
64624.5,37550.6
64630.3,37558.3
64635.2,37566.6
64639.4,37575.3
64642.6,37584.4
64645,37593.8
64646.4,37603.3
64646.9,37613
64646.9,37987
64646.4,37996.7
64645,38006.2
64642.6,38015.6
64639.4,38024.7
64635.2,38033.4
64630.3,38041.7
64624.5,38049.4
64618,38056.6
64610.9,38063.1
64603.1,38068.8
64594.8,38073.8
64586.1,38077.9
64577,38081.2
64567.6,38083.5
64558.1,38085
64548.4,38085.4
64351.6,38085.4
64341.9,38085
64332.4,38083.5
64323,38081.2
64313.9,38077.9
64305.2,38073.8
64296.9,38068.8
64289.1,38063.1
64282,38056.6
64275.5,38049.4
64269.7,38041.7
64264.8,38033.4
64260.6,38024.7
64257.4,38015.6
64255,38006.2
64253.6,37996.7
64253.1,37987
64253.1,37613
64253.6,37603.3
64255,37593.8
64257.4,37584.4
64260.6,37575.3
64264.8,37566.6
64269.7,37558.3
64275.5,37550.6
64282,37543.4
64289.1,37536.9
64296.9,37531.2
64305.2,37526.2
64313.9,37522.1
64323,37518.8
64332.4,37516.5
64341.9,37515
64351.6,37514.6
64548.4,37514.6
Z" /> 
<path style="fill:#000000; fill-opacity:1.0; 
stroke:#000000; stroke-width:0; stroke-opacity:1; 
stroke-linecap:round; stroke-linejoin:round;fill-rule:evenodd;"
d="M 65306.1,37515
65315.7,37516.5
65325,37518.8
65334.1,37522.1
65342.9,37526.2
65351.1,37531.2
65358.9,37536.9
65366.1,37543.4
65372.5,37550.6
65378.3,37558.3
65383.3,37566.6
65387.4,37575.3
65390.6,37584.4
65393,37593.8
65394.4,37603.3
65394.9,37613
65394.9,37987
65394.4,37996.7
65393,38006.2
65390.6,38015.6
65387.4,38024.7
65383.3,38033.4
65378.3,38041.7
65372.5,38049.4
65366.1,38056.6
65358.9,38063.1
65351.1,38068.8
65342.9,38073.8
65334.1,38077.9
65325,38081.2
65315.7,38083.5
65306.1,38085
65296.5,38085.4
65099.6,38085.4
65090,38085
65080.4,38083.5
65071,38081.2
65061.9,38077.9
65053.2,38073.8
65044.9,38068.8
65037.2,38063.1
65030,38056.6
65023.5,38049.4
65017.8,38041.7
65012.8,38033.4
65008.7,38024.7
65005.4,38015.6
65003.1,38006.2
65001.7,37996.7
65001.2,37987
65001.2,37613
65001.7,37603.3
65003.1,37593.8
65005.4,37584.4
65008.7,37575.3
65012.8,37566.6
65017.8,37558.3
65023.5,37550.6
65030,37543.4
65037.2,37536.9
65044.9,37531.2
65053.2,37526.2
65061.9,37522.1
65071,37518.8
65080.4,37516.5
65090,37515
65099.6,37514.6
65296.5,37514.6
Z" /> 
</g>
<g >
</g>
<g style="fill:#000000; fill-opacity:1.0; 
stroke:#000000; stroke-width:0; stroke-opacity:1; 
stroke-linecap:round; stroke-linejoin:round;">
<path style="fill:#000000; fill-opacity:1.0; 
stroke:#000000; stroke-width:0; stroke-opacity:1; 
stroke-linecap:round; stroke-linejoin:round;fill-rule:evenodd;"
d="M 60857.1,40433.5
60865.7,40434.8
60874.1,40436.9
60882.3,40439.8
60890.2,40443.5
60897.6,40448
60904.6,40453.2
60911.1,40459
60916.9,40465.5
60922.1,40472.4
60926.5,40479.9
60930.3,40487.8
60933.2,40495.9
60935.3,40504.4
60936.6,40513
60937,40521.7
60937,40698.8
60936.6,40707.5
60935.3,40716.1
60933.2,40724.5
60930.3,40732.7
60926.5,40740.6
60922.1,40748
60916.9,40755
60911.1,40761.5
60904.6,40767.3
60897.6,40772.5
60890.2,40776.9
60882.3,40780.7
60874.1,40783.6
60865.7,40785.7
60857.1,40787
60848.4,40787.4
60651.6,40787.4
60642.9,40787
60634.3,40785.7
60625.9,40783.6
60617.7,40780.7
60609.8,40776.9
60602.4,40772.5
60595.4,40767.3
60588.9,40761.5
60583.1,40755
60577.9,40748
60573.5,40740.6
60569.7,40732.7
60566.8,40724.5
60564.7,40716.1
60563.4,40707.5
60563,40698.8
60563,40521.7
60563.4,40513
60564.7,40504.4
60566.8,40495.9
60569.7,40487.8
60573.5,40479.9
60577.9,40472.4
60583.1,40465.5
60588.9,40459
60595.4,40453.2
60602.4,40448
60609.8,40443.5
60617.7,40439.8
60625.9,40436.9
60634.3,40434.8
60642.9,40433.5
60651.6,40433.1
60848.4,40433.1
Z" /> 
<path style="fill:#000000; fill-opacity:1.0; 
stroke:#000000; stroke-width:0; stroke-opacity:1; 
stroke-linecap:round; stroke-linejoin:round;fill-rule:evenodd;"
d="M 60857.1,39823.3
60865.7,39824.5
60874.1,39826.6
60882.3,39829.6
60890.2,39833.3
60897.6,39837.8
60904.6,39842.9
60911.1,39848.8
60916.9,39855.2
60922.1,39862.2
60926.5,39869.7
60930.3,39877.5
60933.2,39885.7
60935.3,39894.1
60936.6,39902.7
60937,39911.4
60937,40088.6
60936.6,40097.3
60935.3,40105.9
60933.2,40114.3
60930.3,40122.5
60926.5,40130.3
60922.1,40137.8
60916.9,40144.8
60911.1,40151.2
60904.6,40157.1
60897.6,40162.2
60890.2,40166.7
60882.3,40170.4
60874.1,40173.4
60865.7,40175.5
60857.1,40176.7
60848.4,40177.2
60651.6,40177.2
60642.9,40176.7
60634.3,40175.5
60625.9,40173.4
60617.7,40170.4
60609.8,40166.7
60602.4,40162.2
60595.4,40157.1
60588.9,40151.2
60583.1,40144.8
60577.9,40137.8
60573.5,40130.3
60569.7,40122.5
60566.8,40114.3
60564.7,40105.9
60563.4,40097.3
60563,40088.6
60563,39911.4
60563.4,39902.7
60564.7,39894.1
60566.8,39885.7
60569.7,39877.5
60573.5,39869.7
60577.9,39862.2
60583.1,39855.2
60588.9,39848.8
60595.4,39842.9
60602.4,39837.8
60609.8,39833.3
60617.7,39829.6
60625.9,39826.6
60634.3,39824.5
60642.9,39823.3
60651.6,39822.8
60848.4,39822.8
Z" /> 
</g>
<g >
</g>
<g style="fill:#000000; fill-opacity:1.0; 
stroke:#000000; stroke-width:0; stroke-opacity:1; 
stroke-linecap:round; stroke-linejoin:round;">
<path style="fill:#000000; fill-opacity:1.0; 
stroke:#000000; stroke-width:0; stroke-opacity:1; 
stroke-linecap:round; stroke-linejoin:round;fill-rule:evenodd;"
d="M 64521.5,36728.2
64526.9,36729
64532.1,36730.3
64537.2,36732.1
64542.1,36734.5
64546.8,36737.2
64551.1,36740.5
64555.1,36744.1
64558.7,36748.1
64562,36752.4
64564.8,36757.1
64567.1,36762
64568.9,36767.1
64570.2,36772.3
64571,36777.7
64571.3,36783.1
64571.3,36916.9
64571,36922.3
64570.2,36927.7
64568.9,36932.9
64567.1,36938
64564.8,36942.9
64562,36947.6
64558.7,36951.9
64555.1,36955.9
64551.1,36959.5
64546.8,36962.8
64542.1,36965.5
64537.2,36967.9
64532.1,36969.7
64526.9,36971
64521.5,36971.8
64516.1,36972
64405.9,36972
64400.5,36971.8
64395.2,36971
64389.9,36969.7
64384.8,36967.9
64379.9,36965.5
64375.3,36962.8
64370.9,36959.5
64366.9,36955.9
64363.3,36951.9
64360.1,36947.6
64357.3,36942.9
64355,36938
64353.2,36932.9
64351.8,36927.7
64351.1,36922.3
64350.8,36916.9
64350.8,36783.1
64351.1,36777.7
64351.8,36772.3
64353.2,36767.1
64355,36762
64357.3,36757.1
64360.1,36752.4
64363.3,36748.1
64366.9,36744.1
64370.9,36740.5
64375.3,36737.2
64379.9,36734.5
64384.8,36732.1
64389.9,36730.3
64395.2,36729
64400.5,36728.2
64405.9,36728
64516.1,36728
Z" /> 
<path style="fill:#000000; fill-opacity:1.0; 
stroke:#000000; stroke-width:0; stroke-opacity:1; 
stroke-linecap:round; stroke-linejoin:round;fill-rule:evenodd;"
d="M 64899.5,36728.2
64904.8,36729
64910.1,36730.3
64915.2,36732.1
64920.1,36734.5
64924.7,36737.2
64929.1,36740.5
64933.1,36744.1
64936.7,36748.1
64939.9,36752.4
64942.7,36757.1
64945,36762
64946.8,36767.1
64948.2,36772.3
64948.9,36777.7
64949.2,36783.1
64949.2,36916.9
64948.9,36922.3
64948.2,36927.7
64946.8,36932.9
64945,36938
64942.7,36942.9
64939.9,36947.6
64936.7,36951.9
64933.1,36955.9
64929.1,36959.5
64924.7,36962.8
64920.1,36965.5
64915.2,36967.9
64910.1,36969.7
64904.8,36971
64899.5,36971.8
64894.1,36972
64783.9,36972
64778.5,36971.8
64773.1,36971
64767.9,36969.7
64762.8,36967.9
64757.9,36965.5
64753.2,36962.8
64748.9,36959.5
64744.9,36955.9
64741.3,36951.9
64738,36947.6
64735.2,36942.9
64732.9,36938
64731.1,36932.9
64729.8,36927.7
64729,36922.3
64728.7,36916.9
64728.7,36783.1
64729,36777.7
64729.8,36772.3
64731.1,36767.1
64732.9,36762
64735.2,36757.1
64738,36752.4
64741.3,36748.1
64744.9,36744.1
64748.9,36740.5
64753.2,36737.2
64757.9,36734.5
64762.8,36732.1
64767.9,36730.3
64773.1,36729
64778.5,36728.2
64783.9,36728
64894.1,36728
Z" /> 
</g>
<g >
</g>
<g >
</g>
<g >
</g>
</g>
<g style="fill:#000000; fill-opacity:1.0; 
stroke:#000000; stroke-width:0; stroke-opacity:1; 
stroke-linecap:round; stroke-linejoin:round;">
</g>
<g style="fill:#000000; fill-opacity:1.0; 
stroke:#000000; stroke-width:19.685; stroke-opacity:1; 
stroke-linecap:round; stroke-linejoin:round;">
</g>
<g style="fill:#000000; fill-opacity:0.0; 
stroke:#000000; stroke-width:19.685; stroke-opacity:1; 
stroke-linecap:round; stroke-linejoin:round;">
<path d="M69896 44296
L69894 30804
" />
<path d="M56022 30814
L69894 30804
" />
<path d="M56008 44282
L56022 30814
" />
<path d="M69896 44296
L56008 44282
" />
<g >
</g>
<g >
</g>
<g >
</g>
<g >
</g>
<g >
</g>
<g >
</g>
<g >
</g>
<g >
</g>
<g >
</g>
<g >
</g>
<g >
</g>
<g >
</g>
<g >
</g>
<g >
</g>
<g >
</g>
<g >
</g>
</g> 
</svg>
